# MagicaVoxel @ Ephtracy

# group
g animal-31

# material
mtllib animal-0.mtl
usemtl palette

# normals
vn -1 0 0
vn 1 0 0
vn 0 0 1
vn 0 0 -1
vn 0 -1 0
vn 0 1 0

# texcoords
vt 0.208984 0.5
vt 0.611328 0.5
vt 0.638672 0.5
vt 0.958984 0.5
vt 0.994141 0.5

# verts
v -3.5 0 2
v -3.5 0 -2
v -3.5 1 2
v -3.5 1 -2
v -3.5 4 2
v -3.5 4 -1
v -3.5 5 2
v -3.5 5 -1
v -3.5 9 2
v -3.5 9 -1
v -2.5 0 3
v -2.5 0 2
v -2.5 1 3
v -2.5 1 2
v -2.5 1 -0
v -2.5 2 4
v -2.5 2 3
v -2.5 2 2
v -2.5 2 -0
v -2.5 2 -2
v -2.5 3 4
v -2.5 3 3
v -2.5 4 2
v -2.5 4 -1
v -2.5 5 2
v -2.5 5 -1
v -2.5 9 2
v -2.5 9 -1
v -2.5 10 -2
v -2.5 10 -3
v -2.5 11 1
v -2.5 11 -1
v -2.5 12 1
v -2.5 12 -0
v -2.5 13 1
v -2.5 13 -0
v -2.5 13 -1
v -2.5 14 3
v -2.5 14 -3
v -1.5 0 -0
v -1.5 0 -2
v -1.5 1 -0
v -1.5 1 -2
v -1.5 11 -3
v -1.5 11 -4
v -1.5 12 -3
v -1.5 12 -4
v 0.5 0 2
v 0.5 0 -2
v 0.5 1 2
v 0.5 1 -2
v 1.5 0 3
v 1.5 0 2
v 1.5 1 3
v 1.5 1 2
v 1.5 1 -0
v 1.5 2 2
v 1.5 2 -0
v 2.5 0 -0
v 2.5 0 -2
v 2.5 1 -0
v 2.5 1 -2
v -2.5 0 -0
v -2.5 0 -2
v -2.5 1 -0
v -2.5 1 -2
v -1.5 0 3
v -1.5 0 2
v -1.5 1 3
v -1.5 1 2
v -1.5 1 -0
v -1.5 2 2
v -1.5 2 -0
v -0.5 0 2
v -0.5 0 -2
v -0.5 1 2
v -0.5 1 -2
v 1.5 0 -0
v 1.5 0 -2
v 1.5 1 -0
v 1.5 1 -2
v 1.5 11 -3
v 1.5 11 -4
v 1.5 12 -3
v 1.5 12 -4
v 2.5 0 3
v 2.5 0 2
v 2.5 1 3
v 2.5 1 2
v 2.5 1 -0
v 2.5 2 4
v 2.5 2 3
v 2.5 2 2
v 2.5 2 -0
v 2.5 2 -2
v 2.5 3 4
v 2.5 3 3
v 2.5 4 2
v 2.5 4 -1
v 2.5 5 2
v 2.5 5 -1
v 2.5 9 2
v 2.5 9 -1
v 2.5 10 -2
v 2.5 10 -3
v 2.5 11 1
v 2.5 11 -1
v 2.5 12 1
v 2.5 12 -0
v 2.5 13 1
v 2.5 13 -0
v 2.5 13 -1
v 2.5 14 3
v 2.5 14 -3
v 3.5 0 2
v 3.5 0 -2
v 3.5 1 2
v 3.5 1 -2
v 3.5 4 2
v 3.5 4 -1
v 3.5 5 2
v 3.5 5 -1
v 3.5 9 2
v 3.5 9 -1
v -2.5 2 4
v -2.5 3 4
v 2.5 2 4
v 2.5 3 4
v -2.5 0 3
v -2.5 1 3
v -2.5 3 3
v -2.5 14 3
v -1.5 0 3
v -1.5 1 3
v 1.5 0 3
v 1.5 1 3
v 2.5 0 3
v 2.5 1 3
v 2.5 3 3
v 2.5 14 3
v -3.5 0 2
v -3.5 1 2
v -3.5 4 2
v -3.5 5 2
v -3.5 9 2
v -2.5 0 2
v -2.5 1 2
v -2.5 2 2
v -2.5 4 2
v -2.5 5 2
v -2.5 9 2
v -1.5 0 2
v -1.5 1 2
v -1.5 2 2
v -0.5 0 2
v -0.5 1 2
v 0.5 0 2
v 0.5 1 2
v 1.5 0 2
v 1.5 1 2
v 1.5 2 2
v 2.5 0 2
v 2.5 1 2
v 2.5 2 2
v 2.5 4 2
v 2.5 5 2
v 2.5 9 2
v 3.5 0 2
v 3.5 1 2
v 3.5 4 2
v 3.5 5 2
v 3.5 9 2
v -2.5 0 -0
v -2.5 1 -0
v -2.5 2 -0
v -1.5 0 -0
v -1.5 1 -0
v -1.5 2 -0
v 1.5 0 -0
v 1.5 1 -0
v 1.5 2 -0
v 2.5 0 -0
v 2.5 1 -0
v 2.5 2 -0
v -3.5 4 -1
v -3.5 5 -1
v -3.5 9 -1
v -2.5 4 -1
v -2.5 5 -1
v -2.5 9 -1
v 2.5 4 -1
v 2.5 5 -1
v 2.5 9 -1
v 3.5 4 -1
v 3.5 5 -1
v 3.5 9 -1
v -3.5 0 -2
v -3.5 1 -2
v -2.5 0 -2
v -2.5 1 -2
v -2.5 2 -2
v -2.5 10 -2
v -1.5 0 -2
v -1.5 1 -2
v -1.5 2 -2
v -1.5 10 -2
v -0.5 0 -2
v -0.5 1 -2
v 0.5 0 -2
v 0.5 1 -2
v 1.5 0 -2
v 1.5 1 -2
v 1.5 2 -2
v 1.5 10 -2
v 2.5 0 -2
v 2.5 1 -2
v 2.5 2 -2
v 2.5 10 -2
v 3.5 0 -2
v 3.5 1 -2
v -2.5 10 -3
v -2.5 14 -3
v -1.5 11 -3
v -1.5 12 -3
v -1.5 14 -3
v 1.5 11 -3
v 1.5 12 -3
v 1.5 14 -3
v 2.5 10 -3
v 2.5 14 -3
v -1.5 11 -4
v -1.5 12 -4
v 1.5 11 -4
v 1.5 12 -4
v -2.5 0 3
v -1.5 0 3
v 1.5 0 3
v 2.5 0 3
v -3.5 0 2
v -2.5 0 2
v -1.5 0 2
v -0.5 0 2
v 0.5 0 2
v 1.5 0 2
v 2.5 0 2
v 3.5 0 2
v -2.5 0 -0
v -1.5 0 -0
v 1.5 0 -0
v 2.5 0 -0
v -3.5 0 -2
v -2.5 0 -2
v -1.5 0 -2
v -0.5 0 -2
v 0.5 0 -2
v 1.5 0 -2
v 2.5 0 -2
v 3.5 0 -2
v -2.5 2 4
v 2.5 2 4
v -2.5 2 3
v -1.5 2 3
v 1.5 2 3
v 2.5 2 3
v -2.5 2 2
v -1.5 2 2
v 1.5 2 2
v 2.5 2 2
v -2.5 2 -0
v -1.5 2 -0
v 1.5 2 -0
v 2.5 2 -0
v -2.5 2 -2
v -1.5 2 -2
v 1.5 2 -2
v 2.5 2 -2
v -3.5 4 2
v -2.5 4 2
v 2.5 4 2
v 3.5 4 2
v -3.5 4 -1
v -2.5 4 -1
v 2.5 4 -1
v 3.5 4 -1
v -2.5 10 -2
v -1.5 10 -2
v 1.5 10 -2
v 2.5 10 -2
v -2.5 10 -3
v 2.5 10 -3
v -1.5 11 -3
v 1.5 11 -3
v -1.5 11 -4
v 1.5 11 -4
v -2.5 1 3
v -1.5 1 3
v 1.5 1 3
v 2.5 1 3
v -3.5 1 2
v -2.5 1 2
v -1.5 1 2
v -0.5 1 2
v 0.5 1 2
v 1.5 1 2
v 2.5 1 2
v 3.5 1 2
v -2.5 1 -0
v -1.5 1 -0
v 1.5 1 -0
v 2.5 1 -0
v -3.5 1 -2
v -2.5 1 -2
v -1.5 1 -2
v -0.5 1 -2
v 0.5 1 -2
v 1.5 1 -2
v 2.5 1 -2
v 3.5 1 -2
v -2.5 3 4
v 2.5 3 4
v -2.5 3 3
v 2.5 3 3
v -3.5 9 2
v -2.5 9 2
v 2.5 9 2
v 3.5 9 2
v -3.5 9 -1
v -2.5 9 -1
v 2.5 9 -1
v 3.5 9 -1
v -1.5 12 -3
v 1.5 12 -3
v -1.5 12 -4
v 1.5 12 -4
v -2.5 14 3
v 2.5 14 3
v -1.5 14 2
v 1.5 14 2
v -2.5 14 -3
v -1.5 14 -3
v 1.5 14 -3
v 2.5 14 -3

# faces
f 3/1/1 2/1/1 1/1/1
f 4/1/1 2/1/1 3/1/1
f 7/3/1 6/3/1 5/3/1
f 8/3/1 6/3/1 7/3/1
f 9/2/1 8/2/1 7/2/1
f 10/2/1 8/2/1 9/2/1
f 13/1/1 12/1/1 11/1/1
f 14/1/1 12/1/1 13/1/1
f 18/2/1 15/2/1 14/2/1
f 19/2/1 15/2/1 18/2/1
f 21/3/1 17/3/1 16/3/1
f 22/2/1 20/2/1 19/2/1
f 22/3/1 17/3/1 21/3/1
f 22/2/1 18/2/1 17/2/1
f 22/2/1 19/2/1 18/2/1
f 23/2/1 20/2/1 22/2/1
f 24/2/1 20/2/1 23/2/1
f 25/2/1 23/2/1 22/2/1
f 26/2/1 20/2/1 24/2/1
f 27/2/1 25/2/1 22/2/1
f 28/2/1 20/2/1 26/2/1
f 29/2/1 20/2/1 28/2/1
f 29/2/1 28/2/1 27/2/1
f 31/2/1 29/2/1 27/2/1
f 31/2/1 30/2/1 29/2/1
f 32/2/1 30/2/1 31/2/1
f 33/2/1 31/2/1 27/2/1
f 33/5/1 32/5/1 31/5/1
f 34/5/1 32/5/1 33/5/1
f 35/2/1 33/2/1 27/2/1
f 35/4/1 34/4/1 33/4/1
f 36/5/1 32/5/1 34/5/1
f 36/4/1 34/4/1 35/4/1
f 37/2/1 30/2/1 32/2/1
f 37/5/1 32/5/1 36/5/1
f 38/2/1 27/2/1 22/2/1
f 38/2/1 36/2/1 35/2/1
f 38/2/1 37/2/1 36/2/1
f 38/2/1 35/2/1 27/2/1
f 39/2/1 30/2/1 37/2/1
f 39/2/1 37/2/1 38/2/1
f 42/1/1 41/1/1 40/1/1
f 43/1/1 41/1/1 42/1/1
f 46/1/1 45/1/1 44/1/1
f 47/1/1 45/1/1 46/1/1
f 50/1/1 49/1/1 48/1/1
f 51/1/1 49/1/1 50/1/1
f 54/1/1 53/1/1 52/1/1
f 55/1/1 53/1/1 54/1/1
f 57/2/1 56/2/1 55/2/1
f 58/2/1 56/2/1 57/2/1
f 61/1/1 60/1/1 59/1/1
f 62/1/1 60/1/1 61/1/1
f 63/1/2 64/1/2 65/1/2
f 65/1/2 64/1/2 66/1/2
f 67/1/2 68/1/2 69/1/2
f 69/1/2 68/1/2 70/1/2
f 70/2/2 71/2/2 72/2/2
f 72/2/2 71/2/2 73/2/2
f 74/1/2 75/1/2 76/1/2
f 76/1/2 75/1/2 77/1/2
f 78/1/2 79/1/2 80/1/2
f 80/1/2 79/1/2 81/1/2
f 82/1/2 83/1/2 84/1/2
f 84/1/2 83/1/2 85/1/2
f 86/1/2 87/1/2 88/1/2
f 88/1/2 87/1/2 89/1/2
f 89/2/2 90/2/2 93/2/2
f 93/2/2 90/2/2 94/2/2
f 91/3/2 92/3/2 96/3/2
f 94/2/2 95/2/2 97/2/2
f 96/3/2 92/3/2 97/3/2
f 92/2/2 93/2/2 97/2/2
f 93/2/2 94/2/2 97/2/2
f 97/2/2 95/2/2 98/2/2
f 98/2/2 95/2/2 99/2/2
f 97/2/2 98/2/2 100/2/2
f 99/2/2 95/2/2 101/2/2
f 97/2/2 100/2/2 102/2/2
f 101/2/2 95/2/2 103/2/2
f 103/2/2 95/2/2 104/2/2
f 102/2/2 103/2/2 104/2/2
f 102/2/2 104/2/2 106/2/2
f 104/2/2 105/2/2 106/2/2
f 106/2/2 105/2/2 107/2/2
f 102/2/2 106/2/2 108/2/2
f 106/5/2 107/5/2 108/5/2
f 108/5/2 107/5/2 109/5/2
f 102/2/2 108/2/2 110/2/2
f 108/4/2 109/4/2 110/4/2
f 109/5/2 107/5/2 111/5/2
f 110/4/2 109/4/2 111/4/2
f 107/2/2 105/2/2 112/2/2
f 111/5/2 107/5/2 112/5/2
f 97/2/2 102/2/2 113/2/2
f 110/2/2 111/2/2 113/2/2
f 111/2/2 112/2/2 113/2/2
f 102/2/2 110/2/2 113/2/2
f 112/2/2 105/2/2 114/2/2
f 113/2/2 112/2/2 114/2/2
f 115/1/2 116/1/2 117/1/2
f 117/1/2 116/1/2 118/1/2
f 119/3/2 120/3/2 121/3/2
f 121/3/2 120/3/2 122/3/2
f 121/2/2 122/2/2 123/2/2
f 123/2/2 122/2/2 124/2/2
f 127/3/3 126/3/3 125/3/3
f 128/3/3 126/3/3 127/3/3
f 133/1/3 130/1/3 129/1/3
f 134/1/3 130/1/3 133/1/3
f 137/1/3 136/1/3 135/1/3
f 138/1/3 136/1/3 137/1/3
f 139/2/3 132/2/3 131/2/3
f 140/2/3 132/2/3 139/2/3
f 146/1/3 142/1/3 141/1/3
f 147/1/3 142/1/3 146/1/3
f 149/3/3 144/3/3 143/3/3
f 150/2/3 145/2/3 144/2/3
f 150/3/3 144/3/3 149/3/3
f 151/2/3 145/2/3 150/2/3
f 153/2/3 148/2/3 147/2/3
f 154/2/3 148/2/3 153/2/3
f 155/1/3 153/1/3 152/1/3
f 156/1/3 153/1/3 155/1/3
f 159/1/3 158/1/3 157/1/3
f 160/1/3 158/1/3 159/1/3
f 163/2/3 161/2/3 160/2/3
f 164/2/3 161/2/3 163/2/3
f 168/1/3 163/1/3 162/1/3
f 169/1/3 163/1/3 168/1/3
f 170/3/3 166/3/3 165/3/3
f 171/2/3 167/2/3 166/2/3
f 171/3/3 166/3/3 170/3/3
f 172/2/3 167/2/3 171/2/3
f 173/1/4 174/1/4 176/1/4
f 174/2/4 175/2/4 177/2/4
f 176/1/4 174/1/4 177/1/4
f 177/2/4 175/2/4 178/2/4
f 179/1/4 180/1/4 182/1/4
f 180/2/4 181/2/4 183/2/4
f 182/1/4 180/1/4 183/1/4
f 183/2/4 181/2/4 184/2/4
f 185/3/4 186/3/4 188/3/4
f 186/2/4 187/2/4 189/2/4
f 188/3/4 186/3/4 189/3/4
f 189/2/4 187/2/4 190/2/4
f 191/3/4 192/3/4 194/3/4
f 192/2/4 193/2/4 195/2/4
f 194/3/4 192/3/4 195/3/4
f 195/2/4 193/2/4 196/2/4
f 197/1/4 198/1/4 199/1/4
f 199/1/4 198/1/4 200/1/4
f 201/2/4 202/2/4 205/2/4
f 205/2/4 202/2/4 206/2/4
f 203/1/4 204/1/4 207/1/4
f 207/1/4 204/1/4 208/1/4
f 209/1/4 210/1/4 211/1/4
f 211/1/4 210/1/4 212/1/4
f 205/4/4 206/4/4 213/4/4
f 213/4/4 206/4/4 214/4/4
f 213/2/4 214/2/4 217/2/4
f 217/2/4 214/2/4 218/2/4
f 215/1/4 216/1/4 219/1/4
f 219/1/4 216/1/4 220/1/4
f 221/2/4 222/2/4 223/2/4
f 223/2/4 222/2/4 224/2/4
f 224/2/4 222/2/4 225/2/4
f 221/2/4 223/2/4 226/2/4
f 224/3/4 225/3/4 227/3/4
f 227/3/4 225/3/4 228/3/4
f 221/2/4 226/2/4 229/2/4
f 226/2/4 227/2/4 229/2/4
f 227/2/4 228/2/4 229/2/4
f 229/2/4 228/2/4 230/2/4
f 231/1/4 232/1/4 233/1/4
f 233/1/4 232/1/4 234/1/4
f 240/1/5 236/1/5 235/1/5
f 241/1/5 236/1/5 240/1/5
f 244/1/5 238/1/5 237/1/5
f 245/1/5 238/1/5 244/1/5
f 247/1/5 242/1/5 241/1/5
f 247/1/5 240/1/5 239/1/5
f 247/1/5 241/1/5 240/1/5
f 248/1/5 242/1/5 247/1/5
f 249/1/5 246/1/5 245/1/5
f 249/1/5 245/1/5 244/1/5
f 249/1/5 244/1/5 243/1/5
f 250/1/5 246/1/5 249/1/5
f 251/1/5 247/1/5 239/1/5
f 252/1/5 247/1/5 251/1/5
f 253/1/5 242/1/5 248/1/5
f 254/1/5 242/1/5 253/1/5
f 255/1/5 249/1/5 243/1/5
f 256/1/5 249/1/5 255/1/5
f 257/1/5 246/1/5 250/1/5
f 258/1/5 246/1/5 257/1/5
f 261/3/5 260/3/5 259/3/5
f 262/3/5 260/3/5 261/3/5
f 263/3/5 260/3/5 262/3/5
f 264/3/5 260/3/5 263/3/5
f 265/2/5 262/2/5 261/2/5
f 266/4/5 263/4/5 262/4/5
f 266/2/5 262/2/5 265/2/5
f 267/2/5 264/2/5 263/2/5
f 267/4/5 263/4/5 266/4/5
f 268/2/5 264/2/5 267/2/5
f 270/4/5 267/4/5 266/4/5
f 271/4/5 267/4/5 270/4/5
f 273/2/5 270/2/5 269/2/5
f 274/4/5 271/4/5 270/4/5
f 274/2/5 270/2/5 273/2/5
f 275/2/5 272/2/5 271/2/5
f 275/4/5 271/4/5 274/4/5
f 276/2/5 272/2/5 275/2/5
f 281/3/5 278/3/5 277/3/5
f 282/3/5 278/3/5 281/3/5
f 283/3/5 280/3/5 279/3/5
f 284/3/5 280/3/5 283/3/5
f 289/2/5 286/2/5 285/2/5
f 289/2/5 288/2/5 287/2/5
f 289/2/5 287/2/5 286/2/5
f 290/2/5 288/2/5 289/2/5
f 293/1/5 292/1/5 291/1/5
f 294/1/5 292/1/5 293/1/5
f 295/1/6 296/1/6 300/1/6
f 300/1/6 296/1/6 301/1/6
f 297/1/6 298/1/6 304/1/6
f 304/1/6 298/1/6 305/1/6
f 299/1/6 300/1/6 307/1/6
f 301/1/6 302/1/6 308/1/6
f 303/1/6 304/1/6 309/1/6
f 305/1/6 306/1/6 310/1/6
f 299/1/6 307/1/6 311/1/6
f 311/1/6 307/1/6 312/1/6
f 308/1/6 302/1/6 313/1/6
f 313/1/6 302/1/6 314/1/6
f 303/1/6 309/1/6 315/1/6
f 315/1/6 309/1/6 316/1/6
f 310/1/6 306/1/6 317/1/6
f 317/1/6 306/1/6 318/1/6
f 319/3/6 320/3/6 321/3/6
f 321/3/6 320/3/6 322/3/6
f 323/2/6 324/2/6 327/2/6
f 327/2/6 324/2/6 328/2/6
f 325/2/6 326/2/6 329/2/6
f 329/2/6 326/2/6 330/2/6
f 331/1/6 332/1/6 333/1/6
f 333/1/6 332/1/6 334/1/6
f 335/2/6 336/2/6 337/2/6
f 337/2/6 336/2/6 338/2/6
f 335/2/6 337/2/6 339/2/6
f 337/3/6 338/3/6 340/3/6
f 339/2/6 337/2/6 340/2/6
f 338/2/6 336/2/6 341/2/6
f 340/3/6 338/3/6 341/3/6
f 341/2/6 336/2/6 342/2/6
