# MagicaVoxel @ Ephtracy

# group
g animal-8

# material
mtllib animal-0.mtl
usemtl palette

# normals
vn -1 0 0
vn 1 0 0
vn 0 0 1
vn 0 0 -1
vn 0 -1 0
vn 0 1 0

# texcoords
vt 0.0605469 0.5
vt 0.228516 0.5
vt 0.255859 0.5
vt 0.369141 0.5
vt 0.373047 0.5
vt 0.771484 0.5
vt 0.962891 0.5
vt 0.994141 0.5

# verts
v -5 0 6.5
v -5 0 1.5
v -5 0 -5.5
v -5 0 -10.5
v -5 1 6.5
v -5 1 5.5
v -5 1 -5.5
v -5 1 -6.5
v -5 3 1.5
v -5 3 -2.5
v -5 3 -6.5
v -5 3 -10.5
v -5 7 6.5
v -5 7 5.5
v -5 7 3.5
v -5 8 7.5
v -5 8 6.5
v -5 8 3.5
v -5 8 2.5
v -5 9 10.5
v -5 9 7.5
v -5 9 2.5
v -5 9 1.5
v -5 12 8.5
v -5 12 4.5
v -5 14 6.5
v -5 14 5.5
v -5 14 1.5
v -5 14 0.5
v -5 14 -2.5
v -5 14 -10.5
v -5 15 6.5
v -5 15 5.5
v -5 16 10.5
v -5 16 9.5
v -5 16 8.5
v -5 16 4.5
v -5 16 1.5
v -5 16 0.5
v -5 17 9.5
v -5 17 4.5
v -5 17 3.5
v -5 17 1.5
v -5 19 4.5
v -5 19 3.5
v -3 9 12.5
v -3 9 10.5
v -3 12 12.5
v -3 12 10.5
v -3 14 12.5
v -3 14 10.5
v -2 6 12.5
v -2 6 11.5
v -2 8 12.5
v -2 8 11.5
v -2 9 -10.5
v -2 9 -12.5
v -2 12 -10.5
v -2 12 -12.5
v -1 5 12.5
v -1 5 11.5
v -1 6 12.5
v -1 6 11.5
v -1 8 12.5
v -1 8 11.5
v -1 9 12.5
v -1 9 11.5
v 2 0 6.5
v 2 0 1.5
v 2 0 -5.5
v 2 0 -10.5
v 2 1 6.5
v 2 1 5.5
v 2 1 -5.5
v 2 1 -6.5
v 2 3 5.5
v 2 3 1.5
v 2 3 -6.5
v 2 3 -10.5
v 2 17 4.5
v 2 17 3.5
v 2 19 4.5
v 2 19 3.5
v -2 0 6.5
v -2 0 1.5
v -2 0 -5.5
v -2 0 -10.5
v -2 1 6.5
v -2 1 5.5
v -2 1 -5.5
v -2 1 -6.5
v -2 3 5.5
v -2 3 1.5
v -2 3 -6.5
v -2 3 -10.5
v -2 17 4.5
v -2 17 3.5
v -2 19 4.5
v -2 19 3.5
v 1 5 12.5
v 1 5 11.5
v 1 6 12.5
v 1 6 11.5
v 1 8 12.5
v 1 8 11.5
v 1 9 12.5
v 1 9 11.5
v 2 6 12.5
v 2 6 11.5
v 2 8 12.5
v 2 8 11.5
v 2 9 -10.5
v 2 9 -12.5
v 2 12 -10.5
v 2 12 -12.5
v 3 9 12.5
v 3 9 10.5
v 3 12 12.5
v 3 12 10.5
v 3 14 12.5
v 3 14 10.5
v 5 0 6.5
v 5 0 1.5
v 5 0 -5.5
v 5 0 -10.5
v 5 1 6.5
v 5 1 5.5
v 5 1 -5.5
v 5 1 -6.5
v 5 3 1.5
v 5 3 -2.5
v 5 3 -6.5
v 5 3 -10.5
v 5 7 6.5
v 5 7 5.5
v 5 7 3.5
v 5 8 7.5
v 5 8 6.5
v 5 8 3.5
v 5 8 2.5
v 5 9 10.5
v 5 9 7.5
v 5 9 2.5
v 5 9 1.5
v 5 12 8.5
v 5 12 4.5
v 5 14 6.5
v 5 14 5.5
v 5 14 1.5
v 5 14 0.5
v 5 14 -2.5
v 5 14 -10.5
v 5 15 6.5
v 5 15 5.5
v 5 16 10.5
v 5 16 9.5
v 5 16 8.5
v 5 16 4.5
v 5 16 1.5
v 5 16 0.5
v 5 17 9.5
v 5 17 4.5
v 5 17 3.5
v 5 17 1.5
v 5 19 4.5
v 5 19 3.5
v -3 9 12.5
v -3 12 12.5
v -3 14 12.5
v -2 6 12.5
v -2 8 12.5
v -1 5 12.5
v -1 6 12.5
v -1 8 12.5
v -1 9 12.5
v 1 5 12.5
v 1 6 12.5
v 1 8 12.5
v 1 9 12.5
v 2 6 12.5
v 2 8 12.5
v 3 9 12.5
v 3 12 12.5
v 3 14 12.5
v -5 9 10.5
v -5 16 10.5
v -3 9 10.5
v -3 12 10.5
v -3 14 10.5
v 3 9 10.5
v 3 12 10.5
v 3 14 10.5
v 5 9 10.5
v 5 16 10.5
v -5 16 9.5
v -5 17 9.5
v 5 16 9.5
v 5 17 9.5
v -5 8 7.5
v -5 9 7.5
v 5 8 7.5
v 5 9 7.5
v -5 0 6.5
v -5 1 6.5
v -5 7 6.5
v -5 8 6.5
v -2 0 6.5
v -2 1 6.5
v 2 0 6.5
v 2 1 6.5
v 5 0 6.5
v 5 1 6.5
v 5 7 6.5
v 5 8 6.5
v -5 1 5.5
v -5 7 5.5
v -2 1 5.5
v -2 3 5.5
v 2 1 5.5
v 2 3 5.5
v 5 1 5.5
v 5 7 5.5
v -5 17 4.5
v -5 19 4.5
v -2 17 4.5
v -2 19 4.5
v 2 17 4.5
v 2 19 4.5
v 5 17 4.5
v 5 19 4.5
v -5 0 -5.5
v -5 1 -5.5
v -2 0 -5.5
v -2 1 -5.5
v 2 0 -5.5
v 2 1 -5.5
v 5 0 -5.5
v 5 1 -5.5
v -5 1 -6.5
v -5 3 -6.5
v -2 1 -6.5
v -2 3 -6.5
v 2 1 -6.5
v 2 3 -6.5
v 5 1 -6.5
v 5 3 -6.5
v -2 6 11.5
v -2 8 11.5
v -1 5 11.5
v -1 6 11.5
v -1 8 11.5
v -1 9 11.5
v 1 5 11.5
v 1 6 11.5
v 1 8 11.5
v 1 9 11.5
v 2 6 11.5
v 2 8 11.5
v -5 17 3.5
v -5 19 3.5
v -2 17 3.5
v -2 19 3.5
v 2 17 3.5
v 2 19 3.5
v 5 17 3.5
v 5 19 3.5
v -5 0 1.5
v -5 3 1.5
v -5 16 1.5
v -5 17 1.5
v -2 0 1.5
v -2 3 1.5
v 2 0 1.5
v 2 3 1.5
v 5 0 1.5
v 5 3 1.5
v 5 16 1.5
v 5 17 1.5
v -5 14 0.5
v -5 16 0.5
v 5 14 0.5
v 5 16 0.5
v -5 0 -10.5
v -5 3 -10.5
v -5 14 -10.5
v -2 0 -10.5
v -2 3 -10.5
v -2 9 -10.5
v -2 12 -10.5
v 2 0 -10.5
v 2 3 -10.5
v 2 9 -10.5
v 2 12 -10.5
v 5 0 -10.5
v 5 3 -10.5
v 5 14 -10.5
v -2 9 -12.5
v -2 12 -12.5
v 2 9 -12.5
v 2 12 -12.5
v -5 0 6.5
v -2 0 6.5
v 2 0 6.5
v 5 0 6.5
v -5 0 1.5
v -2 0 1.5
v 2 0 1.5
v 5 0 1.5
v -5 0 -5.5
v -2 0 -5.5
v 2 0 -5.5
v 5 0 -5.5
v -5 0 -10.5
v -2 0 -10.5
v 2 0 -10.5
v 5 0 -10.5
v -2 3 5.5
v 2 3 5.5
v -5 3 1.5
v -2 3 1.5
v 2 3 1.5
v 5 3 1.5
v -5 3 -2.5
v 5 3 -2.5
v -5 3 -6.5
v -2 3 -6.5
v 2 3 -6.5
v 5 3 -6.5
v -2 3 -10.5
v 2 3 -10.5
v -1 5 12.5
v 1 5 12.5
v -1 5 11.5
v 1 5 11.5
v -2 6 12.5
v -1 6 12.5
v 1 6 12.5
v 2 6 12.5
v -2 6 11.5
v -1 6 11.5
v 1 6 11.5
v 2 6 11.5
v -5 7 6.5
v 5 7 6.5
v -5 7 5.5
v 5 7 5.5
v -5 8 7.5
v 5 8 7.5
v -5 8 6.5
v 5 8 6.5
v -3 9 12.5
v -1 9 12.5
v 1 9 12.5
v 3 9 12.5
v -1 9 11.5
v 1 9 11.5
v -5 9 10.5
v -3 9 10.5
v 3 9 10.5
v 5 9 10.5
v -5 9 7.5
v 5 9 7.5
v -2 9 -10.5
v 2 9 -10.5
v -2 9 -12.5
v 2 9 -12.5
v -5 1 6.5
v -2 1 6.5
v 2 1 6.5
v 5 1 6.5
v -5 1 5.5
v -2 1 5.5
v 2 1 5.5
v 5 1 5.5
v -5 1 -5.5
v -2 1 -5.5
v 2 1 -5.5
v 5 1 -5.5
v -5 1 -6.5
v -2 1 -6.5
v 2 1 -6.5
v 5 1 -6.5
v -2 8 12.5
v -1 8 12.5
v 1 8 12.5
v 2 8 12.5
v -2 8 11.5
v -1 8 11.5
v 1 8 11.5
v 2 8 11.5
v -2 12 -10.5
v 2 12 -10.5
v -2 12 -12.5
v 2 12 -12.5
v -3 14 12.5
v 3 14 12.5
v -3 14 10.5
v 3 14 10.5
v -5 14 0.5
v 5 14 0.5
v -5 14 -2.5
v 5 14 -2.5
v -5 14 -10.5
v 5 14 -10.5
v -5 16 10.5
v 5 16 10.5
v -5 16 9.5
v 5 16 9.5
v -5 16 1.5
v 5 16 1.5
v -5 16 0.5
v 5 16 0.5
v -5 17 9.5
v 5 17 9.5
v -5 17 4.5
v -2 17 4.5
v 2 17 4.5
v 5 17 4.5
v -5 17 3.5
v -2 17 3.5
v 2 17 3.5
v 5 17 3.5
v -5 17 1.5
v 5 17 1.5
v -5 19 4.5
v -2 19 4.5
v 2 19 4.5
v 5 19 4.5
v -5 19 3.5
v -2 19 3.5
v 2 19 3.5
v 5 19 3.5

# faces
f 5/8/1 2/8/1 1/8/1
f 6/8/1 2/8/1 5/8/1
f 7/8/1 4/8/1 3/8/1
f 8/8/1 4/8/1 7/8/1
f 9/8/1 2/8/1 6/8/1
f 11/8/1 4/8/1 8/8/1
f 12/8/1 4/8/1 11/8/1
f 14/8/1 10/8/1 9/8/1
f 14/8/1 9/8/1 6/8/1
f 15/8/1 10/8/1 14/8/1
f 17/7/1 14/7/1 13/7/1
f 17/7/1 15/7/1 14/7/1
f 18/8/1 10/8/1 15/8/1
f 18/7/1 15/7/1 17/7/1
f 19/8/1 10/8/1 18/8/1
f 21/7/1 17/7/1 16/7/1
f 21/7/1 18/7/1 17/7/1
f 21/7/1 19/7/1 18/7/1
f 22/8/1 10/8/1 19/8/1
f 22/7/1 19/7/1 21/7/1
f 23/8/1 10/8/1 22/8/1
f 24/7/1 21/7/1 20/7/1
f 24/7/1 22/7/1 21/7/1
f 24/7/1 23/7/1 22/7/1
f 25/7/1 23/7/1 24/7/1
f 26/8/1 25/8/1 24/8/1
f 27/8/1 25/8/1 26/8/1
f 28/8/1 10/8/1 23/8/1
f 28/7/1 23/7/1 25/7/1
f 29/8/1 10/8/1 28/8/1
f 30/7/1 12/7/1 11/7/1
f 30/8/1 10/8/1 29/8/1
f 30/7/1 11/7/1 10/7/1
f 31/7/1 12/7/1 30/7/1
f 32/7/1 27/7/1 26/7/1
f 32/8/1 26/8/1 24/8/1
f 33/8/1 25/8/1 27/8/1
f 33/7/1 27/7/1 32/7/1
f 34/7/1 24/7/1 20/7/1
f 35/7/1 24/7/1 34/7/1
f 36/8/1 32/8/1 24/8/1
f 36/7/1 24/7/1 35/7/1
f 36/8/1 33/8/1 32/8/1
f 37/7/1 29/7/1 28/7/1
f 37/8/1 33/8/1 36/8/1
f 37/7/1 28/7/1 25/7/1
f 37/8/1 25/8/1 33/8/1
f 38/7/1 29/7/1 37/7/1
f 39/7/1 29/7/1 38/7/1
f 40/7/1 36/7/1 35/7/1
f 40/7/1 38/7/1 37/7/1
f 40/7/1 37/7/1 36/7/1
f 41/7/1 38/7/1 40/7/1
f 42/7/1 38/7/1 41/7/1
f 43/7/1 38/7/1 42/7/1
f 44/8/1 42/8/1 41/8/1
f 45/8/1 42/8/1 44/8/1
f 48/7/1 47/7/1 46/7/1
f 49/7/1 47/7/1 48/7/1
f 50/8/1 49/8/1 48/8/1
f 51/8/1 49/8/1 50/8/1
f 54/6/1 53/6/1 52/6/1
f 55/6/1 53/6/1 54/6/1
f 58/8/1 57/8/1 56/8/1
f 59/8/1 57/8/1 58/8/1
f 62/6/1 61/6/1 60/6/1
f 63/6/1 61/6/1 62/6/1
f 66/6/1 65/6/1 64/6/1
f 67/6/1 65/6/1 66/6/1
f 72/8/1 69/8/1 68/8/1
f 73/8/1 69/8/1 72/8/1
f 74/8/1 71/8/1 70/8/1
f 75/8/1 71/8/1 74/8/1
f 76/8/1 69/8/1 73/8/1
f 77/8/1 69/8/1 76/8/1
f 78/8/1 71/8/1 75/8/1
f 79/8/1 71/8/1 78/8/1
f 82/8/1 81/8/1 80/8/1
f 83/8/1 81/8/1 82/8/1
f 84/8/2 85/8/2 88/8/2
f 88/8/2 85/8/2 89/8/2
f 86/8/2 87/8/2 90/8/2
f 90/8/2 87/8/2 91/8/2
f 89/8/2 85/8/2 92/8/2
f 92/8/2 85/8/2 93/8/2
f 91/8/2 87/8/2 94/8/2
f 94/8/2 87/8/2 95/8/2
f 96/8/2 97/8/2 98/8/2
f 98/8/2 97/8/2 99/8/2
f 100/6/2 101/6/2 102/6/2
f 102/6/2 101/6/2 103/6/2
f 104/6/2 105/6/2 106/6/2
f 106/6/2 105/6/2 107/6/2
f 108/6/2 109/6/2 110/6/2
f 110/6/2 109/6/2 111/6/2
f 112/8/2 113/8/2 114/8/2
f 114/8/2 113/8/2 115/8/2
f 116/7/2 117/7/2 118/7/2
f 118/7/2 117/7/2 119/7/2
f 118/8/2 119/8/2 120/8/2
f 120/8/2 119/8/2 121/8/2
f 122/8/2 123/8/2 126/8/2
f 126/8/2 123/8/2 127/8/2
f 124/8/2 125/8/2 128/8/2
f 128/8/2 125/8/2 129/8/2
f 127/8/2 123/8/2 130/8/2
f 129/8/2 125/8/2 132/8/2
f 132/8/2 125/8/2 133/8/2
f 130/8/2 131/8/2 135/8/2
f 127/8/2 130/8/2 135/8/2
f 135/8/2 131/8/2 136/8/2
f 134/7/2 135/7/2 138/7/2
f 135/7/2 136/7/2 138/7/2
f 136/8/2 131/8/2 139/8/2
f 138/7/2 136/7/2 139/7/2
f 139/8/2 131/8/2 140/8/2
f 137/7/2 138/7/2 142/7/2
f 138/7/2 139/7/2 142/7/2
f 139/7/2 140/7/2 142/7/2
f 140/8/2 131/8/2 143/8/2
f 142/7/2 140/7/2 143/7/2
f 143/8/2 131/8/2 144/8/2
f 141/7/2 142/7/2 145/7/2
f 142/7/2 143/7/2 145/7/2
f 143/7/2 144/7/2 145/7/2
f 145/7/2 144/7/2 146/7/2
f 145/8/2 146/8/2 147/8/2
f 147/8/2 146/8/2 148/8/2
f 144/8/2 131/8/2 149/8/2
f 146/7/2 144/7/2 149/7/2
f 149/8/2 131/8/2 150/8/2
f 132/7/2 133/7/2 151/7/2
f 150/8/2 131/8/2 151/8/2
f 131/7/2 132/7/2 151/7/2
f 151/7/2 133/7/2 152/7/2
f 147/7/2 148/7/2 153/7/2
f 145/8/2 147/8/2 153/8/2
f 148/8/2 146/8/2 154/8/2
f 153/7/2 148/7/2 154/7/2
f 141/7/2 145/7/2 155/7/2
f 155/7/2 145/7/2 156/7/2
f 145/8/2 153/8/2 157/8/2
f 156/7/2 145/7/2 157/7/2
f 153/8/2 154/8/2 157/8/2
f 149/7/2 150/7/2 158/7/2
f 157/8/2 154/8/2 158/8/2
f 146/7/2 149/7/2 158/7/2
f 154/8/2 146/8/2 158/8/2
f 158/7/2 150/7/2 159/7/2
f 159/7/2 150/7/2 160/7/2
f 156/7/2 157/7/2 161/7/2
f 158/7/2 159/7/2 161/7/2
f 157/7/2 158/7/2 161/7/2
f 161/7/2 159/7/2 162/7/2
f 162/7/2 159/7/2 163/7/2
f 163/7/2 159/7/2 164/7/2
f 162/8/2 163/8/2 165/8/2
f 165/8/2 163/8/2 166/8/2
f 173/6/3 171/6/3 170/6/3
f 174/6/3 171/6/3 173/6/3
f 175/7/3 168/7/3 167/7/3
f 176/6/3 174/6/3 173/6/3
f 176/6/3 175/6/3 174/6/3
f 176/6/3 173/6/3 172/6/3
f 177/6/3 175/6/3 176/6/3
f 178/6/3 175/6/3 177/6/3
f 179/7/3 168/7/3 175/7/3
f 179/6/3 175/6/3 178/6/3
f 180/6/3 178/6/3 177/6/3
f 181/6/3 178/6/3 180/6/3
f 182/7/3 168/7/3 179/7/3
f 183/8/3 169/8/3 168/8/3
f 183/7/3 168/7/3 182/7/3
f 184/8/3 169/8/3 183/8/3
f 187/7/3 186/7/3 185/7/3
f 188/7/3 186/7/3 187/7/3
f 189/7/3 186/7/3 188/7/3
f 192/7/3 186/7/3 189/7/3
f 193/7/3 191/7/3 190/7/3
f 193/7/3 192/7/3 191/7/3
f 194/7/3 186/7/3 192/7/3
f 194/7/3 192/7/3 193/7/3
f 197/7/3 196/7/3 195/7/3
f 198/7/3 196/7/3 197/7/3
f 201/7/3 200/7/3 199/7/3
f 202/7/3 200/7/3 201/7/3
f 207/8/3 204/8/3 203/8/3
f 208/8/3 204/8/3 207/8/3
f 211/8/3 210/8/3 209/8/3
f 212/8/3 210/8/3 211/8/3
f 213/7/3 206/7/3 205/7/3
f 214/7/3 206/7/3 213/7/3
f 217/8/3 216/8/3 215/8/3
f 218/8/3 216/8/3 217/8/3
f 220/8/3 216/8/3 218/8/3
f 221/8/3 220/8/3 219/8/3
f 222/8/3 216/8/3 220/8/3
f 222/8/3 220/8/3 221/8/3
f 225/8/3 224/8/3 223/8/3
f 226/8/3 224/8/3 225/8/3
f 229/8/3 228/8/3 227/8/3
f 230/8/3 228/8/3 229/8/3
f 233/8/3 232/8/3 231/8/3
f 234/8/3 232/8/3 233/8/3
f 237/8/3 236/8/3 235/8/3
f 238/8/3 236/8/3 237/8/3
f 241/8/3 240/8/3 239/8/3
f 242/8/3 240/8/3 241/8/3
f 245/8/3 244/8/3 243/8/3
f 246/8/3 244/8/3 245/8/3
f 247/6/4 248/6/4 250/6/4
f 250/6/4 248/6/4 251/6/4
f 249/6/4 250/6/4 253/6/4
f 251/6/4 252/6/4 253/6/4
f 250/6/4 251/6/4 253/6/4
f 253/6/4 252/6/4 254/6/4
f 254/6/4 252/6/4 255/6/4
f 255/6/4 252/6/4 256/6/4
f 254/6/4 255/6/4 257/6/4
f 257/6/4 255/6/4 258/6/4
f 259/8/4 260/8/4 261/8/4
f 261/8/4 260/8/4 262/8/4
f 263/8/4 264/8/4 265/8/4
f 265/8/4 264/8/4 266/8/4
f 267/8/4 268/8/4 271/8/4
f 271/8/4 268/8/4 272/8/4
f 273/8/4 274/8/4 275/8/4
f 275/8/4 274/8/4 276/8/4
f 269/7/4 270/7/4 277/7/4
f 277/7/4 270/7/4 278/7/4
f 279/7/4 280/7/4 281/7/4
f 281/7/4 280/7/4 282/7/4
f 283/8/4 284/8/4 286/8/4
f 284/7/4 285/7/4 287/7/4
f 286/8/4 284/8/4 287/8/4
f 287/7/4 285/7/4 288/7/4
f 288/7/4 285/7/4 289/7/4
f 287/7/4 288/7/4 291/7/4
f 291/7/4 288/7/4 292/7/4
f 289/7/4 285/7/4 293/7/4
f 290/8/4 291/8/4 294/8/4
f 291/7/4 292/7/4 295/7/4
f 294/8/4 291/8/4 295/8/4
f 292/7/4 293/7/4 295/7/4
f 293/7/4 285/7/4 296/7/4
f 295/7/4 293/7/4 296/7/4
f 297/8/4 298/8/4 299/8/4
f 299/8/4 298/8/4 300/8/4
f 305/8/5 302/8/5 301/8/5
f 306/8/5 302/8/5 305/8/5
f 307/8/5 304/8/5 303/8/5
f 308/8/5 304/8/5 307/8/5
f 313/8/5 310/8/5 309/8/5
f 314/8/5 310/8/5 313/8/5
f 315/8/5 312/8/5 311/8/5
f 316/8/5 312/8/5 315/8/5
f 320/8/5 318/8/5 317/8/5
f 321/8/5 318/8/5 320/8/5
f 323/8/5 320/8/5 319/8/5
f 323/8/5 322/8/5 321/8/5
f 323/8/5 321/8/5 320/8/5
f 324/8/5 322/8/5 323/8/5
f 325/7/5 324/7/5 323/7/5
f 326/7/5 324/7/5 325/7/5
f 327/7/5 324/7/5 326/7/5
f 328/7/5 324/7/5 327/7/5
f 329/7/5 327/7/5 326/7/5
f 330/7/5 327/7/5 329/7/5
f 333/6/5 332/6/5 331/6/5
f 334/6/5 332/6/5 333/6/5
f 339/6/5 336/6/5 335/6/5
f 340/6/5 336/6/5 339/6/5
f 341/6/5 338/6/5 337/6/5
f 342/6/5 338/6/5 341/6/5
f 345/7/5 344/7/5 343/7/5
f 346/7/5 344/7/5 345/7/5
f 349/7/5 348/7/5 347/7/5
f 350/7/5 348/7/5 349/7/5
f 355/7/5 352/7/5 351/7/5
f 356/7/5 354/7/5 353/7/5
f 358/7/5 355/7/5 351/7/5
f 358/7/5 356/7/5 355/7/5
f 359/7/5 354/7/5 356/7/5
f 359/7/5 356/7/5 358/7/5
f 361/7/5 358/7/5 357/7/5
f 361/7/5 360/7/5 359/7/5
f 361/7/5 359/7/5 358/7/5
f 362/7/5 360/7/5 361/7/5
f 365/8/5 364/8/5 363/8/5
f 366/8/5 364/8/5 365/8/5
f 367/8/6 368/8/6 371/8/6
f 371/8/6 368/8/6 372/8/6
f 369/8/6 370/8/6 373/8/6
f 373/8/6 370/8/6 374/8/6
f 375/8/6 376/8/6 379/8/6
f 379/8/6 376/8/6 380/8/6
f 377/8/6 378/8/6 381/8/6
f 381/8/6 378/8/6 382/8/6
f 383/6/6 384/6/6 387/6/6
f 387/6/6 384/6/6 388/6/6
f 385/6/6 386/6/6 389/6/6
f 389/6/6 386/6/6 390/6/6
f 391/8/6 392/8/6 393/8/6
f 393/8/6 392/8/6 394/8/6
f 395/8/6 396/8/6 397/8/6
f 397/8/6 396/8/6 398/8/6
f 399/8/6 400/8/6 401/8/6
f 401/8/6 400/8/6 402/8/6
f 401/7/6 402/7/6 403/7/6
f 403/7/6 402/7/6 404/7/6
f 405/7/6 406/7/6 407/7/6
f 407/7/6 406/7/6 408/7/6
f 409/7/6 410/7/6 411/7/6
f 411/7/6 410/7/6 412/7/6
f 413/7/6 414/7/6 415/7/6
f 415/7/6 414/7/6 416/7/6
f 416/7/6 414/7/6 417/7/6
f 417/7/6 414/7/6 418/7/6
f 416/7/6 417/7/6 420/7/6
f 420/7/6 417/7/6 421/7/6
f 419/7/6 420/7/6 423/7/6
f 421/7/6 422/7/6 423/7/6
f 420/7/6 421/7/6 423/7/6
f 423/7/6 422/7/6 424/7/6
f 425/8/6 426/8/6 429/8/6
f 429/8/6 426/8/6 430/8/6
f 427/8/6 428/8/6 431/8/6
f 431/8/6 428/8/6 432/8/6
