# MagicaVoxel @ Ephtracy

# group
g animal-39

# material
mtllib animal-0.mtl
usemtl palette

# normals
vn -1 0 0
vn 1 0 0
vn 0 0 1
vn 0 0 -1
vn 0 -1 0
vn 0 1 0

# texcoords
vt 0.0566406 0.5
vt 0.201172 0.5
vt 0.365234 0.5
vt 0.369141 0.5
vt 0.537109 0.5
vt 0.958984 0.5
vt 0.994141 0.5

# verts
v -6.5 12 -0.5
v -6.5 12 -1.5
v -6.5 14 -0.5
v -6.5 14 -1.5
v -4.5 0 6.5
v -4.5 0 4.5
v -4.5 0 -3.5
v -4.5 0 -5.5
v -4.5 1 6.5
v -4.5 1 4.5
v -4.5 1 -3.5
v -4.5 1 -5.5
v -4.5 4 4.5
v -4.5 4 -3.5
v -4.5 5 -4.5
v -4.5 5 -5.5
v -4.5 7 4.5
v -4.5 7 -0.5
v -4.5 8 -4.5
v -4.5 8 -5.5
v -4.5 9 -5.5
v -4.5 9 -6.5
v -4.5 9 -8.5
v -4.5 10 6.5
v -4.5 10 4.5
v -4.5 10 -0.5
v -4.5 11 -2.5
v -4.5 11 -4.5
v -4.5 12 -0.5
v -4.5 12 -1.5
v -4.5 12 -2.5
v -4.5 12 -3.5
v -4.5 13 -2.5
v -4.5 13 -3.5
v -4.5 13 -4.5
v -4.5 14 -1.5
v -4.5 14 -6.5
v -4.5 14 -8.5
v -3.5 14 -1.5
v -3.5 14 -2.5
v -3.5 16 -1.5
v -3.5 16 -2.5
v -0.5 3 8.5
v -0.5 3 7.5
v -0.5 5 8.5
v -0.5 5 7.5
v -0.5 9 7.5
v -0.5 9 6.5
v -0.5 10 8.5
v -0.5 10 6.5
v 2.5 0 6.5
v 2.5 0 4.5
v 2.5 0 -3.5
v 2.5 0 -5.5
v 2.5 1 6.5
v 2.5 1 4.5
v 2.5 1 -3.5
v 2.5 1 -5.5
v 2.5 4 6.5
v 2.5 4 4.5
v 2.5 4 -3.5
v 2.5 4 -5.5
v 2.5 14 -1.5
v 2.5 14 -2.5
v 2.5 16 -1.5
v 2.5 16 -2.5
v -2.5 0 6.5
v -2.5 0 4.5
v -2.5 0 -3.5
v -2.5 0 -5.5
v -2.5 1 6.5
v -2.5 1 4.5
v -2.5 1 -3.5
v -2.5 1 -5.5
v -2.5 4 6.5
v -2.5 4 4.5
v -2.5 4 -3.5
v -2.5 4 -5.5
v -2.5 14 -1.5
v -2.5 14 -2.5
v -2.5 16 -1.5
v -2.5 16 -2.5
v 0.5 3 8.5
v 0.5 3 7.5
v 0.5 5 8.5
v 0.5 5 7.5
v 0.5 9 7.5
v 0.5 9 6.5
v 0.5 10 8.5
v 0.5 10 6.5
v 3.5 14 -1.5
v 3.5 14 -2.5
v 3.5 16 -1.5
v 3.5 16 -2.5
v 4.5 0 6.5
v 4.5 0 4.5
v 4.5 0 -3.5
v 4.5 0 -5.5
v 4.5 1 6.5
v 4.5 1 4.5
v 4.5 1 -3.5
v 4.5 1 -5.5
v 4.5 4 4.5
v 4.5 4 -3.5
v 4.5 6 5.5
v 4.5 6 1.5
v 4.5 6 0.5
v 4.5 6 -1.5
v 4.5 8 0.5
v 4.5 8 -1.5
v 4.5 9 5.5
v 4.5 9 1.5
v 4.5 9 -5.5
v 4.5 9 -6.5
v 4.5 9 -8.5
v 4.5 10 6.5
v 4.5 10 -0.5
v 4.5 11 -1.5
v 4.5 11 -2.5
v 4.5 11 -4.5
v 4.5 12 -0.5
v 4.5 12 -1.5
v 4.5 12 -2.5
v 4.5 12 -3.5
v 4.5 13 -2.5
v 4.5 13 -3.5
v 4.5 13 -4.5
v 4.5 14 -1.5
v 4.5 14 -4.5
v 4.5 14 -6.5
v 4.5 14 -8.5
v 6.5 12 -0.5
v 6.5 12 -1.5
v 6.5 14 -0.5
v 6.5 14 -1.5
v -0.5 3 8.5
v -0.5 5 8.5
v -0.5 10 8.5
v 0.5 3 8.5
v 0.5 5 8.5
v 0.5 10 8.5
v -4.5 0 6.5
v -4.5 1 6.5
v -4.5 10 6.5
v -2.5 0 6.5
v -2.5 1 6.5
v -2.5 4 6.5
v -2.5 5 6.5
v -0.5 9 6.5
v -0.5 10 6.5
v 0.5 9 6.5
v 0.5 10 6.5
v 2.5 0 6.5
v 2.5 1 6.5
v 2.5 4 6.5
v 2.5 5 6.5
v 4.5 0 6.5
v 4.5 1 6.5
v 4.5 10 6.5
v -6.5 12 -0.5
v -6.5 14 -0.5
v -4.5 10 -0.5
v -4.5 12 -0.5
v -3.5 10 -0.5
v 4.5 10 -0.5
v 4.5 12 -0.5
v 4.5 14 -0.5
v 6.5 12 -0.5
v 6.5 14 -0.5
v -3.5 14 -1.5
v -3.5 16 -1.5
v -2.5 14 -1.5
v -2.5 16 -1.5
v 2.5 14 -1.5
v 2.5 16 -1.5
v 3.5 14 -1.5
v 3.5 16 -1.5
v -4.5 0 -3.5
v -4.5 1 -3.5
v -4.5 4 -3.5
v -2.5 0 -3.5
v -2.5 1 -3.5
v -2.5 4 -3.5
v 2.5 0 -3.5
v 2.5 1 -3.5
v 2.5 4 -3.5
v 4.5 0 -3.5
v 4.5 1 -3.5
v 4.5 4 -3.5
v -0.5 3 7.5
v -0.5 5 7.5
v -0.5 9 7.5
v 0.5 3 7.5
v 0.5 5 7.5
v 0.5 9 7.5
v -4.5 0 4.5
v -4.5 1 4.5
v -4.5 4 4.5
v -2.5 0 4.5
v -2.5 1 4.5
v -2.5 4 4.5
v 2.5 0 4.5
v 2.5 1 4.5
v 2.5 4 4.5
v 4.5 0 4.5
v 4.5 1 4.5
v 4.5 4 4.5
v -6.5 12 -1.5
v -6.5 14 -1.5
v -4.5 12 -1.5
v -4.5 14 -1.5
v 4.5 12 -1.5
v 4.5 14 -1.5
v 6.5 12 -1.5
v 6.5 14 -1.5
v -3.5 14 -2.5
v -3.5 16 -2.5
v -2.5 14 -2.5
v -2.5 16 -2.5
v 2.5 14 -2.5
v 2.5 16 -2.5
v 3.5 14 -2.5
v 3.5 16 -2.5
v -4.5 0 -5.5
v -4.5 1 -5.5
v -4.5 5 -5.5
v -4.5 8 -5.5
v -4.5 9 -5.5
v -2.5 0 -5.5
v -2.5 1 -5.5
v -2.5 4 -5.5
v -2.5 5 -5.5
v -2.5 8 -5.5
v -2.5 9 -5.5
v 2.5 0 -5.5
v 2.5 1 -5.5
v 2.5 4 -5.5
v 2.5 9 -5.5
v 4.5 0 -5.5
v 4.5 1 -5.5
v 4.5 9 -5.5
v -4.5 9 -8.5
v -4.5 14 -8.5
v -3.5 10 -8.5
v -3.5 13 -8.5
v -1.5 10 -8.5
v -1.5 13 -8.5
v 1.5 10 -8.5
v 1.5 13 -8.5
v 3.5 10 -8.5
v 3.5 13 -8.5
v 4.5 9 -8.5
v 4.5 14 -8.5
v -4.5 0 6.5
v -2.5 0 6.5
v 2.5 0 6.5
v 4.5 0 6.5
v -4.5 0 4.5
v -2.5 0 4.5
v 2.5 0 4.5
v 4.5 0 4.5
v -4.5 0 -3.5
v -2.5 0 -3.5
v 2.5 0 -3.5
v 4.5 0 -3.5
v -4.5 0 -5.5
v -2.5 0 -5.5
v 2.5 0 -5.5
v 4.5 0 -5.5
v -0.5 3 8.5
v 0.5 3 8.5
v -0.5 3 7.5
v 0.5 3 7.5
v -2.5 4 6.5
v 2.5 4 6.5
v -4.5 4 4.5
v -2.5 4 4.5
v 2.5 4 4.5
v 4.5 4 4.5
v -4.5 4 -3.5
v -2.5 4 -3.5
v 2.5 4 -3.5
v 4.5 4 -3.5
v -2.5 4 -5.5
v 2.5 4 -5.5
v -0.5 9 7.5
v 0.5 9 7.5
v -0.5 9 6.5
v 0.5 9 6.5
v -4.5 9 -5.5
v -2.5 9 -5.5
v 2.5 9 -5.5
v 4.5 9 -5.5
v -4.5 9 -6.5
v 4.5 9 -6.5
v -4.5 9 -8.5
v 4.5 9 -8.5
v -6.5 12 -0.5
v -4.5 12 -0.5
v 4.5 12 -0.5
v 6.5 12 -0.5
v -6.5 12 -1.5
v -4.5 12 -1.5
v 4.5 12 -1.5
v 6.5 12 -1.5
v -0.5 10 8.5
v 0.5 10 8.5
v -4.5 10 6.5
v -0.5 10 6.5
v 0.5 10 6.5
v 4.5 10 6.5
v -4.5 10 4.5
v -3.5 10 4.5
v -4.5 10 -0.5
v -3.5 10 -0.5
v 4.5 10 -0.5
v -6.5 14 -0.5
v 4.5 14 -0.5
v 6.5 14 -0.5
v -6.5 14 -1.5
v -4.5 14 -1.5
v -3.5 14 -1.5
v -2.5 14 -1.5
v 2.5 14 -1.5
v 3.5 14 -1.5
v 4.5 14 -1.5
v 6.5 14 -1.5
v -3.5 14 -2.5
v -2.5 14 -2.5
v 2.5 14 -2.5
v 3.5 14 -2.5
v 3.5 14 -4.5
v 4.5 14 -4.5
v -4.5 14 -6.5
v 4.5 14 -6.5
v -4.5 14 -8.5
v 4.5 14 -8.5
v -3.5 16 -1.5
v -2.5 16 -1.5
v 2.5 16 -1.5
v 3.5 16 -1.5
v -3.5 16 -2.5
v -2.5 16 -2.5
v 2.5 16 -2.5
v 3.5 16 -2.5

# faces
f 3/4/1 2/4/1 1/4/1
f 4/4/1 2/4/1 3/4/1
f 9/5/1 6/5/1 5/5/1
f 10/5/1 6/5/1 9/5/1
f 11/5/1 8/5/1 7/5/1
f 12/5/1 8/5/1 11/5/1
f 13/4/1 10/4/1 9/4/1
f 14/4/1 12/4/1 11/4/1
f 15/4/1 12/4/1 14/4/1
f 15/4/1 14/4/1 13/4/1
f 16/4/1 12/4/1 15/4/1
f 17/4/1 13/4/1 9/4/1
f 17/4/1 15/4/1 13/4/1
f 18/4/1 15/4/1 17/4/1
f 19/5/1 16/5/1 15/5/1
f 19/4/1 15/4/1 18/4/1
f 20/5/1 16/5/1 19/5/1
f 21/4/1 20/4/1 19/4/1
f 24/4/1 17/4/1 9/4/1
f 25/5/1 18/5/1 17/5/1
f 25/4/1 17/4/1 24/4/1
f 26/4/1 21/4/1 19/4/1
f 26/5/1 18/5/1 25/5/1
f 26/4/1 19/4/1 18/4/1
f 26/4/1 22/4/1 21/4/1
f 27/4/1 22/4/1 26/4/1
f 28/4/1 22/4/1 27/4/1
f 29/4/1 27/4/1 26/4/1
f 30/4/1 27/4/1 29/4/1
f 31/7/1 28/7/1 27/7/1
f 31/4/1 27/4/1 30/4/1
f 32/7/1 28/7/1 31/7/1
f 33/4/1 31/4/1 30/4/1
f 33/6/1 32/6/1 31/6/1
f 34/7/1 28/7/1 32/7/1
f 34/6/1 32/6/1 33/6/1
f 35/4/1 22/4/1 28/4/1
f 35/7/1 28/7/1 34/7/1
f 36/4/1 34/4/1 33/4/1
f 36/4/1 33/4/1 30/4/1
f 36/4/1 35/4/1 34/4/1
f 37/5/1 23/5/1 22/5/1
f 37/4/1 35/4/1 36/4/1
f 37/4/1 22/4/1 35/4/1
f 38/5/1 23/5/1 37/5/1
f 41/5/1 40/5/1 39/5/1
f 42/5/1 40/5/1 41/5/1
f 45/5/1 44/5/1 43/5/1
f 46/5/1 44/5/1 45/5/1
f 47/4/1 46/4/1 45/4/1
f 49/4/1 47/4/1 45/4/1
f 49/4/1 48/4/1 47/4/1
f 50/4/1 48/4/1 49/4/1
f 55/5/1 52/5/1 51/5/1
f 56/5/1 52/5/1 55/5/1
f 57/5/1 54/5/1 53/5/1
f 58/5/1 54/5/1 57/5/1
f 59/4/1 56/4/1 55/4/1
f 60/4/1 56/4/1 59/4/1
f 61/4/1 58/4/1 57/4/1
f 62/4/1 58/4/1 61/4/1
f 65/5/1 64/5/1 63/5/1
f 66/5/1 64/5/1 65/5/1
f 67/5/2 68/5/2 71/5/2
f 71/5/2 68/5/2 72/5/2
f 69/5/2 70/5/2 73/5/2
f 73/5/2 70/5/2 74/5/2
f 71/4/2 72/4/2 75/4/2
f 75/4/2 72/4/2 76/4/2
f 73/4/2 74/4/2 77/4/2
f 77/4/2 74/4/2 78/4/2
f 79/5/2 80/5/2 81/5/2
f 81/5/2 80/5/2 82/5/2
f 83/5/2 84/5/2 85/5/2
f 85/5/2 84/5/2 86/5/2
f 85/4/2 86/4/2 87/4/2
f 85/4/2 87/4/2 89/4/2
f 87/4/2 88/4/2 89/4/2
f 89/4/2 88/4/2 90/4/2
f 91/5/2 92/5/2 93/5/2
f 93/5/2 92/5/2 94/5/2
f 95/5/2 96/5/2 99/5/2
f 99/5/2 96/5/2 100/5/2
f 97/5/2 98/5/2 101/5/2
f 101/5/2 98/5/2 102/5/2
f 99/4/2 100/4/2 103/4/2
f 101/4/2 102/4/2 104/4/2
f 99/4/2 103/4/2 105/4/2
f 103/4/2 104/4/2 105/4/2
f 105/4/2 104/4/2 106/4/2
f 106/4/2 104/4/2 107/4/2
f 107/4/2 104/4/2 108/4/2
f 106/4/2 107/4/2 109/4/2
f 107/5/2 108/5/2 109/5/2
f 108/4/2 104/4/2 110/4/2
f 109/5/2 108/5/2 110/5/2
f 99/4/2 105/4/2 111/4/2
f 105/5/2 106/5/2 111/5/2
f 109/4/2 110/4/2 112/4/2
f 111/5/2 106/5/2 112/5/2
f 106/4/2 109/4/2 112/4/2
f 104/4/2 102/4/2 113/4/2
f 112/4/2 110/4/2 113/4/2
f 110/4/2 104/4/2 113/4/2
f 112/4/2 113/4/2 116/4/2
f 111/4/2 112/4/2 116/4/2
f 113/4/2 114/4/2 116/4/2
f 99/4/2 111/4/2 116/4/2
f 116/4/2 114/4/2 117/4/2
f 117/4/2 114/4/2 118/4/2
f 118/4/2 114/4/2 119/4/2
f 119/4/2 114/4/2 120/4/2
f 117/4/2 118/4/2 121/4/2
f 118/5/2 119/5/2 122/5/2
f 121/4/2 118/4/2 122/4/2
f 119/7/2 120/7/2 123/7/2
f 122/5/2 119/5/2 123/5/2
f 123/7/2 120/7/2 124/7/2
f 122/5/2 123/5/2 125/5/2
f 123/6/2 124/6/2 125/6/2
f 124/7/2 120/7/2 126/7/2
f 125/6/2 124/6/2 126/6/2
f 120/4/2 114/4/2 127/4/2
f 126/7/2 120/7/2 127/7/2
f 125/5/2 126/5/2 128/5/2
f 122/5/2 125/5/2 128/5/2
f 126/5/2 127/5/2 128/5/2
f 127/4/2 114/4/2 129/4/2
f 128/5/2 127/5/2 129/5/2
f 114/5/2 115/5/2 130/5/2
f 129/4/2 114/4/2 130/4/2
f 130/5/2 115/5/2 131/5/2
f 132/5/2 133/5/2 134/5/2
f 134/5/2 133/5/2 135/5/2
f 139/5/3 137/5/3 136/5/3
f 140/4/3 138/4/3 137/4/3
f 140/5/3 137/5/3 139/5/3
f 141/4/3 138/4/3 140/4/3
f 145/5/3 143/5/3 142/5/3
f 146/4/3 144/4/3 143/4/3
f 146/5/3 143/5/3 145/5/3
f 147/4/3 144/4/3 146/4/3
f 148/4/3 144/4/3 147/4/3
f 149/4/3 144/4/3 148/4/3
f 150/4/3 144/4/3 149/4/3
f 151/4/3 149/4/3 148/4/3
f 155/2/3 148/2/3 147/2/3
f 156/4/3 151/4/3 148/4/3
f 156/4/3 152/4/3 151/4/3
f 156/2/3 148/2/3 155/2/3
f 157/5/3 154/5/3 153/5/3
f 158/4/3 155/4/3 154/4/3
f 158/5/3 154/5/3 157/5/3
f 158/4/3 156/4/3 155/4/3
f 159/4/3 152/4/3 156/4/3
f 159/4/3 156/4/3 158/4/3
f 163/4/3 161/4/3 160/4/3
f 164/4/3 163/4/3 162/4/3
f 165/4/3 163/4/3 164/4/3
f 166/4/3 161/4/3 163/4/3
f 166/4/3 163/4/3 165/4/3
f 167/4/3 161/4/3 166/4/3
f 168/5/3 167/5/3 166/5/3
f 169/5/3 167/5/3 168/5/3
f 172/5/3 171/5/3 170/5/3
f 173/5/3 171/5/3 172/5/3
f 176/5/3 175/5/3 174/5/3
f 177/5/3 175/5/3 176/5/3
f 181/5/3 179/5/3 178/5/3
f 182/4/3 180/4/3 179/4/3
f 182/5/3 179/5/3 181/5/3
f 183/4/3 180/4/3 182/4/3
f 187/5/3 185/5/3 184/5/3
f 188/4/3 186/4/3 185/4/3
f 188/5/3 185/5/3 187/5/3
f 189/4/3 186/4/3 188/4/3
f 190/5/4 191/5/4 193/5/4
f 191/4/4 192/4/4 194/4/4
f 193/5/4 191/5/4 194/5/4
f 194/4/4 192/4/4 195/4/4
f 196/5/4 197/5/4 199/5/4
f 197/4/4 198/4/4 200/4/4
f 199/5/4 197/5/4 200/5/4
f 200/4/4 198/4/4 201/4/4
f 202/5/4 203/5/4 205/5/4
f 203/4/4 204/4/4 206/4/4
f 205/5/4 203/5/4 206/5/4
f 206/4/4 204/4/4 207/4/4
f 208/4/4 209/4/4 210/4/4
f 210/4/4 209/4/4 211/4/4
f 212/5/4 213/5/4 214/5/4
f 214/5/4 213/5/4 215/5/4
f 216/5/4 217/5/4 218/5/4
f 218/5/4 217/5/4 219/5/4
f 220/5/4 221/5/4 222/5/4
f 222/5/4 221/5/4 223/5/4
f 224/5/4 225/5/4 229/5/4
f 225/4/4 226/4/4 230/4/4
f 229/5/4 225/5/4 230/5/4
f 230/4/4 226/4/4 231/4/4
f 226/5/4 227/5/4 232/5/4
f 231/4/4 226/4/4 232/4/4
f 227/4/4 228/4/4 233/4/4
f 232/5/4 227/5/4 233/5/4
f 233/4/4 228/4/4 234/4/4
f 231/2/4 232/2/4 237/2/4
f 233/2/4 234/2/4 237/2/4
f 232/2/4 233/2/4 237/2/4
f 237/2/4 234/2/4 238/2/4
f 235/5/4 236/5/4 239/5/4
f 236/4/4 237/4/4 240/4/4
f 239/5/4 236/5/4 240/5/4
f 237/4/4 238/4/4 240/4/4
f 240/4/4 238/4/4 241/4/4
f 242/5/4 243/5/4 244/5/4
f 244/5/4 243/5/4 245/5/4
f 242/5/4 244/5/4 246/5/4
f 244/3/4 245/3/4 246/3/4
f 245/5/4 243/5/4 247/5/4
f 246/3/4 245/3/4 247/3/4
f 242/5/4 246/5/4 248/5/4
f 246/5/4 247/5/4 248/5/4
f 247/5/4 243/5/4 249/5/4
f 248/5/4 247/5/4 249/5/4
f 242/5/4 248/5/4 250/5/4
f 248/3/4 249/3/4 250/3/4
f 249/5/4 243/5/4 251/5/4
f 250/3/4 249/3/4 251/3/4
f 242/5/4 250/5/4 252/5/4
f 250/5/4 251/5/4 252/5/4
f 251/5/4 243/5/4 253/5/4
f 252/5/4 251/5/4 253/5/4
f 258/5/5 255/5/5 254/5/5
f 259/5/5 255/5/5 258/5/5
f 260/5/5 257/5/5 256/5/5
f 261/5/5 257/5/5 260/5/5
f 266/5/5 263/5/5 262/5/5
f 267/5/5 263/5/5 266/5/5
f 268/5/5 265/5/5 264/5/5
f 269/5/5 265/5/5 268/5/5
f 272/5/5 271/5/5 270/5/5
f 273/5/5 271/5/5 272/5/5
f 277/2/5 275/2/5 274/2/5
f 278/2/5 275/2/5 277/2/5
f 280/4/5 277/4/5 276/4/5
f 281/2/5 278/2/5 277/2/5
f 281/4/5 277/4/5 280/4/5
f 282/4/5 279/4/5 278/4/5
f 282/2/5 278/2/5 281/2/5
f 283/4/5 279/4/5 282/4/5
f 284/2/5 282/2/5 281/2/5
f 285/2/5 282/2/5 284/2/5
f 288/4/5 287/4/5 286/4/5
f 289/4/5 287/4/5 288/4/5
f 294/4/5 291/4/5 290/4/5
f 294/4/5 293/4/5 292/4/5
f 294/4/5 292/4/5 291/4/5
f 295/4/5 293/4/5 294/4/5
f 296/5/5 295/5/5 294/5/5
f 297/5/5 295/5/5 296/5/5
f 302/4/5 299/4/5 298/4/5
f 303/4/5 299/4/5 302/4/5
f 304/5/5 301/5/5 300/5/5
f 305/5/5 301/5/5 304/5/5
f 306/4/6 307/4/6 309/4/6
f 309/4/6 307/4/6 310/4/6
f 308/4/6 309/4/6 312/4/6
f 310/4/6 311/4/6 312/4/6
f 309/4/6 310/4/6 312/4/6
f 312/4/6 311/4/6 313/4/6
f 312/5/6 313/5/6 314/5/6
f 313/4/6 311/4/6 315/4/6
f 314/5/6 313/5/6 315/5/6
f 315/4/6 311/4/6 316/4/6
f 317/4/6 318/4/6 320/4/6
f 320/4/6 318/4/6 321/4/6
f 321/4/6 318/4/6 322/4/6
f 322/4/6 318/4/6 323/4/6
f 323/4/6 318/4/6 324/4/6
f 324/4/6 318/4/6 325/4/6
f 318/5/6 319/5/6 326/5/6
f 325/4/6 318/4/6 326/4/6
f 326/5/6 319/5/6 327/5/6
f 321/4/6 322/4/6 328/4/6
f 323/4/6 324/4/6 329/4/6
f 329/4/6 324/4/6 330/4/6
f 325/5/6 326/5/6 331/5/6
f 329/4/6 330/4/6 332/4/6
f 330/4/6 331/4/6 332/4/6
f 331/5/6 326/5/6 332/5/6
f 328/4/6 329/4/6 332/4/6
f 332/5/6 326/5/6 333/5/6
f 321/4/6 328/4/6 334/4/6
f 328/4/6 332/4/6 334/4/6
f 332/4/6 333/4/6 334/4/6
f 334/4/6 333/4/6 335/4/6
f 334/5/6 335/5/6 336/5/6
f 336/5/6 335/5/6 337/5/6
f 338/5/6 339/5/6 342/5/6
f 342/5/6 339/5/6 343/5/6
f 340/5/6 341/5/6 344/5/6
f 344/5/6 341/5/6 345/5/6
