# MagicaVoxel @ Ephtracy

# group
g animal-11

# material
mtllib animal-0.mtl
usemtl palette

# normals
vn -1 0 0
vn 1 0 0
vn 0 0 1
vn 0 0 -1
vn 0 -1 0
vn 0 1 0

# texcoords
vt 0.00195312 0.5
vt 0.0410156 0.5
vt 0.0449219 0.5
vt 0.0878906 0.5
vt 0.201172 0.5
vt 0.533203 0.5
vt 0.876953 0.5
vt 0.900391 0.5
vt 0.962891 0.5

# verts
v -3.5 0 0.5
v -3.5 0 -2.5
v -3.5 1 0.5
v -3.5 1 -2.5
v -3.5 4 2.5
v -3.5 4 -2.5
v -3.5 6 2.5
v -3.5 6 -2.5
v -2.5 1 0.5
v -2.5 1 -0.5
v -2.5 3 3.5
v -2.5 3 0.5
v -2.5 3 -0.5
v -2.5 3 -3.5
v -2.5 4 3.5
v -2.5 4 2.5
v -2.5 4 -2.5
v -2.5 4 -3.5
v -2.5 6 2.5
v -2.5 6 -2.5
v -2.5 7 3.5
v -2.5 7 0.5
v -2.5 7 -3.5
v -2.5 8 0.5
v -2.5 8 -0.5
v -2.5 8 -2.5
v -2.5 8 -3.5
v -2.5 9 -0.5
v -2.5 9 -1.5
v -2.5 10 -0.5
v -2.5 10 -1.5
v -2.5 10 -2.5
v -2.5 11 0.5
v -2.5 11 -3.5
v -1.5 0 -1.5
v -1.5 0 -2.5
v -1.5 1 -1.5
v -1.5 1 -2.5
v -1.5 3 4.5
v -1.5 3 3.5
v -1.5 4 4.5
v -1.5 4 3.5
v -1.5 7 4.5
v -1.5 7 3.5
v -1.5 8 -3.5
v -1.5 8 -5.5
v -1.5 9 -3.5
v -1.5 9 -5.5
v -0.5 4 5.5
v -0.5 4 4.5
v -0.5 7 5.5
v -0.5 7 4.5
v 0.5 0 0.5
v 0.5 0 -2.5
v 0.5 1 0.5
v 0.5 1 -2.5
v 1.5 1 0.5
v 1.5 1 -0.5
v 1.5 3 0.5
v 1.5 3 -0.5
v 1.5 7 -0.5
v 1.5 7 -2.5
v 1.5 8 -0.5
v 1.5 8 -2.5
v 1.5 8 -3.5
v 1.5 9 -0.5
v 1.5 9 -2.5
v 1.5 9 -3.5
v 2.5 0 -1.5
v 2.5 0 -2.5
v 2.5 1 -1.5
v 2.5 1 -2.5
v -2.5 0 -1.5
v -2.5 0 -2.5
v -2.5 1 -1.5
v -2.5 1 -2.5
v -1.5 1 0.5
v -1.5 1 -0.5
v -1.5 3 0.5
v -1.5 3 -0.5
v -1.5 7 -0.5
v -1.5 7 -2.5
v -1.5 8 -0.5
v -1.5 8 -2.5
v -1.5 8 -3.5
v -1.5 9 -0.5
v -1.5 9 -2.5
v -1.5 9 -3.5
v -0.5 0 0.5
v -0.5 0 -2.5
v -0.5 1 0.5
v -0.5 1 -2.5
v 0.5 4 5.5
v 0.5 4 4.5
v 0.5 7 5.5
v 0.5 7 4.5
v 1.5 0 -1.5
v 1.5 0 -2.5
v 1.5 1 -1.5
v 1.5 1 -2.5
v 1.5 3 4.5
v 1.5 3 3.5
v 1.5 4 4.5
v 1.5 4 3.5
v 1.5 7 4.5
v 1.5 7 3.5
v 1.5 8 -3.5
v 1.5 8 -5.5
v 1.5 9 -3.5
v 1.5 9 -5.5
v 2.5 1 0.5
v 2.5 1 -0.5
v 2.5 3 3.5
v 2.5 3 0.5
v 2.5 3 -0.5
v 2.5 3 -3.5
v 2.5 4 3.5
v 2.5 4 2.5
v 2.5 4 -2.5
v 2.5 4 -3.5
v 2.5 6 2.5
v 2.5 6 -2.5
v 2.5 7 3.5
v 2.5 7 0.5
v 2.5 7 -3.5
v 2.5 8 0.5
v 2.5 8 -0.5
v 2.5 8 -2.5
v 2.5 8 -3.5
v 2.5 9 -0.5
v 2.5 9 -1.5
v 2.5 10 -0.5
v 2.5 10 -1.5
v 2.5 10 -2.5
v 2.5 11 0.5
v 2.5 11 -3.5
v 3.5 0 0.5
v 3.5 0 -2.5
v 3.5 1 0.5
v 3.5 1 -2.5
v 3.5 4 2.5
v 3.5 4 -2.5
v 3.5 6 2.5
v 3.5 6 -2.5
v -0.5 4 5.5
v -0.5 7 5.5
v 0.5 4 5.5
v 0.5 7 5.5
v -1.5 3 4.5
v -1.5 4 4.5
v -1.5 7 4.5
v -0.5 4 4.5
v -0.5 7 4.5
v 0.5 4 4.5
v 0.5 7 4.5
v 1.5 3 4.5
v 1.5 4 4.5
v 1.5 7 4.5
v -2.5 3 3.5
v -2.5 4 3.5
v -2.5 7 3.5
v -1.5 3 3.5
v -1.5 4 3.5
v -1.5 7 3.5
v 1.5 3 3.5
v 1.5 4 3.5
v 1.5 7 3.5
v 2.5 3 3.5
v 2.5 4 3.5
v 2.5 7 3.5
v -3.5 4 2.5
v -3.5 6 2.5
v -2.5 4 2.5
v -2.5 6 2.5
v 2.5 4 2.5
v 2.5 6 2.5
v 3.5 4 2.5
v 3.5 6 2.5
v -3.5 0 0.5
v -3.5 1 0.5
v -2.5 0 0.5
v -2.5 1 0.5
v -2.5 3 0.5
v -2.5 7 0.5
v -2.5 8 0.5
v -2.5 11 0.5
v -1.5 0 0.5
v -1.5 1 0.5
v -1.5 3 0.5
v -0.5 0 0.5
v -0.5 1 0.5
v 0.5 0 0.5
v 0.5 1 0.5
v 1.5 0 0.5
v 1.5 1 0.5
v 1.5 3 0.5
v 2.5 0 0.5
v 2.5 1 0.5
v 2.5 3 0.5
v 2.5 7 0.5
v 2.5 8 0.5
v 2.5 11 0.5
v 3.5 0 0.5
v 3.5 1 0.5
v -1.5 7 -2.5
v -1.5 8 -2.5
v 1.5 7 -2.5
v 1.5 8 -2.5
v -1.5 8 -3.5
v -1.5 9 -3.5
v 1.5 8 -3.5
v 1.5 9 -3.5
v -2.5 1 -0.5
v -2.5 3 -0.5
v -1.5 1 -0.5
v -1.5 3 -0.5
v -1.5 7 -0.5
v -1.5 8 -0.5
v -1.5 9 -0.5
v 1.5 1 -0.5
v 1.5 3 -0.5
v 1.5 7 -0.5
v 1.5 8 -0.5
v 1.5 9 -0.5
v 2.5 1 -0.5
v 2.5 3 -0.5
v -2.5 0 -1.5
v -2.5 1 -1.5
v -1.5 0 -1.5
v -1.5 1 -1.5
v 1.5 0 -1.5
v 1.5 1 -1.5
v 2.5 0 -1.5
v 2.5 1 -1.5
v -3.5 0 -2.5
v -3.5 1 -2.5
v -3.5 4 -2.5
v -3.5 6 -2.5
v -2.5 0 -2.5
v -2.5 1 -2.5
v -2.5 4 -2.5
v -2.5 6 -2.5
v -1.5 0 -2.5
v -1.5 1 -2.5
v -0.5 0 -2.5
v -0.5 1 -2.5
v 0.5 0 -2.5
v 0.5 1 -2.5
v 1.5 0 -2.5
v 1.5 1 -2.5
v 2.5 0 -2.5
v 2.5 1 -2.5
v 2.5 4 -2.5
v 2.5 6 -2.5
v 3.5 0 -2.5
v 3.5 1 -2.5
v 3.5 4 -2.5
v 3.5 6 -2.5
v -2.5 3 -3.5
v -2.5 4 -3.5
v -2.5 7 -3.5
v -2.5 8 -3.5
v -2.5 11 -3.5
v -1.5 8 -3.5
v -1.5 9 -3.5
v 1.5 8 -3.5
v 1.5 9 -3.5
v 2.5 3 -3.5
v 2.5 4 -3.5
v 2.5 7 -3.5
v 2.5 8 -3.5
v 2.5 11 -3.5
v -1.5 8 -5.5
v -1.5 9 -5.5
v 1.5 8 -5.5
v 1.5 9 -5.5
v -3.5 0 0.5
v -2.5 0 0.5
v -1.5 0 0.5
v -0.5 0 0.5
v 0.5 0 0.5
v 1.5 0 0.5
v 2.5 0 0.5
v 3.5 0 0.5
v -2.5 0 -0.5
v -1.5 0 -0.5
v 1.5 0 -0.5
v 2.5 0 -0.5
v -2.5 0 -1.5
v -1.5 0 -1.5
v 1.5 0 -1.5
v 2.5 0 -1.5
v -3.5 0 -2.5
v -2.5 0 -2.5
v -1.5 0 -2.5
v -0.5 0 -2.5
v 0.5 0 -2.5
v 1.5 0 -2.5
v 2.5 0 -2.5
v 3.5 0 -2.5
v -1.5 3 4.5
v 1.5 3 4.5
v -2.5 3 3.5
v -1.5 3 3.5
v 1.5 3 3.5
v 2.5 3 3.5
v -2.5 3 0.5
v -1.5 3 0.5
v 1.5 3 0.5
v 2.5 3 0.5
v -2.5 3 -0.5
v -1.5 3 -0.5
v 1.5 3 -0.5
v 2.5 3 -0.5
v -2.5 3 -3.5
v 2.5 3 -3.5
v -0.5 4 5.5
v 0.5 4 5.5
v -0.5 4 4.5
v 0.5 4 4.5
v -3.5 4 2.5
v -2.5 4 2.5
v 2.5 4 2.5
v 3.5 4 2.5
v -3.5 4 -2.5
v -2.5 4 -2.5
v 2.5 4 -2.5
v 3.5 4 -2.5
v -1.5 8 -3.5
v 1.5 8 -3.5
v -1.5 8 -5.5
v 1.5 8 -5.5
v -1.5 9 -0.5
v 1.5 9 -0.5
v -1.5 9 -2.5
v 1.5 9 -2.5
v -1.5 9 -3.5
v 1.5 9 -3.5
v -3.5 1 0.5
v -2.5 1 0.5
v -1.5 1 0.5
v -0.5 1 0.5
v 0.5 1 0.5
v 1.5 1 0.5
v 2.5 1 0.5
v 3.5 1 0.5
v -2.5 1 -0.5
v -1.5 1 -0.5
v 1.5 1 -0.5
v 2.5 1 -0.5
v -2.5 1 -1.5
v -1.5 1 -1.5
v 1.5 1 -1.5
v 2.5 1 -1.5
v -3.5 1 -2.5
v -2.5 1 -2.5
v -1.5 1 -2.5
v -0.5 1 -2.5
v 0.5 1 -2.5
v 1.5 1 -2.5
v 2.5 1 -2.5
v 3.5 1 -2.5
v -3.5 6 2.5
v -2.5 6 2.5
v 2.5 6 2.5
v 3.5 6 2.5
v -3.5 6 -2.5
v -2.5 6 -2.5
v 2.5 6 -2.5
v 3.5 6 -2.5
v -0.5 7 5.5
v 0.5 7 5.5
v -1.5 7 4.5
v -0.5 7 4.5
v 0.5 7 4.5
v 1.5 7 4.5
v -2.5 7 3.5
v -1.5 7 3.5
v 1.5 7 3.5
v 2.5 7 3.5
v -2.5 7 0.5
v 2.5 7 0.5
v -1.5 7 -0.5
v 1.5 7 -0.5
v -1.5 7 -2.5
v 1.5 7 -2.5
v -1.5 8 -2.5
v 1.5 8 -2.5
v -1.5 8 -3.5
v 1.5 8 -3.5
v -1.5 9 -3.5
v 1.5 9 -3.5
v -1.5 9 -5.5
v 1.5 9 -5.5
v -2.5 11 0.5
v 2.5 11 0.5
v -2.5 11 -3.5
v 2.5 11 -3.5

# faces
f 3/3/1 2/3/1 1/3/1
f 4/3/1 2/3/1 3/3/1
f 7/6/1 6/6/1 5/6/1
f 8/6/1 6/6/1 7/6/1
f 12/3/1 10/3/1 9/3/1
f 13/3/1 10/3/1 12/3/1
f 15/5/1 12/5/1 11/5/1
f 15/5/1 14/5/1 13/5/1
f 15/5/1 13/5/1 12/5/1
f 16/5/1 14/5/1 15/5/1
f 17/5/1 14/5/1 16/5/1
f 18/5/1 14/5/1 17/5/1
f 19/6/1 16/6/1 15/6/1
f 20/6/1 18/6/1 17/6/1
f 21/6/1 19/6/1 15/6/1
f 21/6/1 20/6/1 19/6/1
f 22/6/1 20/6/1 21/6/1
f 23/6/1 18/6/1 20/6/1
f 23/6/1 20/6/1 22/6/1
f 24/9/1 23/9/1 22/9/1
f 25/9/1 23/9/1 24/9/1
f 26/9/1 23/9/1 25/9/1
f 27/9/1 23/9/1 26/9/1
f 28/8/1 25/8/1 24/8/1
f 28/7/1 26/7/1 25/7/1
f 29/7/1 26/7/1 28/7/1
f 30/8/1 28/8/1 24/8/1
f 30/1/1 29/1/1 28/1/1
f 31/7/1 26/7/1 29/7/1
f 31/1/1 29/1/1 30/1/1
f 32/8/1 27/8/1 26/8/1
f 32/7/1 26/7/1 31/7/1
f 33/8/1 31/8/1 30/8/1
f 33/8/1 30/8/1 24/8/1
f 33/8/1 32/8/1 31/8/1
f 34/8/1 27/8/1 32/8/1
f 34/8/1 32/8/1 33/8/1
f 37/3/1 36/3/1 35/3/1
f 38/3/1 36/3/1 37/3/1
f 41/5/1 40/5/1 39/5/1
f 42/5/1 40/5/1 41/5/1
f 43/6/1 42/6/1 41/6/1
f 44/6/1 42/6/1 43/6/1
f 47/2/1 46/2/1 45/2/1
f 48/2/1 46/2/1 47/2/1
f 51/6/1 50/6/1 49/6/1
f 52/6/1 50/6/1 51/6/1
f 55/3/1 54/3/1 53/3/1
f 56/3/1 54/3/1 55/3/1
f 59/3/1 58/3/1 57/3/1
f 60/3/1 58/3/1 59/3/1
f 63/9/1 62/9/1 61/9/1
f 64/9/1 62/9/1 63/9/1
f 66/7/1 64/7/1 63/7/1
f 67/8/1 65/8/1 64/8/1
f 67/7/1 64/7/1 66/7/1
f 68/8/1 65/8/1 67/8/1
f 71/3/1 70/3/1 69/3/1
f 72/3/1 70/3/1 71/3/1
f 73/3/2 74/3/2 75/3/2
f 75/3/2 74/3/2 76/3/2
f 77/3/2 78/3/2 79/3/2
f 79/3/2 78/3/2 80/3/2
f 81/9/2 82/9/2 83/9/2
f 83/9/2 82/9/2 84/9/2
f 83/7/2 84/7/2 86/7/2
f 84/8/2 85/8/2 87/8/2
f 86/7/2 84/7/2 87/7/2
f 87/8/2 85/8/2 88/8/2
f 89/3/2 90/3/2 91/3/2
f 91/3/2 90/3/2 92/3/2
f 93/6/2 94/6/2 95/6/2
f 95/6/2 94/6/2 96/6/2
f 97/3/2 98/3/2 99/3/2
f 99/3/2 98/3/2 100/3/2
f 101/5/2 102/5/2 103/5/2
f 103/5/2 102/5/2 104/5/2
f 103/6/2 104/6/2 105/6/2
f 105/6/2 104/6/2 106/6/2
f 107/2/2 108/2/2 109/2/2
f 109/2/2 108/2/2 110/2/2
f 111/3/2 112/3/2 114/3/2
f 114/3/2 112/3/2 115/3/2
f 113/5/2 114/5/2 117/5/2
f 115/5/2 116/5/2 117/5/2
f 114/5/2 115/5/2 117/5/2
f 117/5/2 116/5/2 118/5/2
f 118/5/2 116/5/2 119/5/2
f 119/5/2 116/5/2 120/5/2
f 117/6/2 118/6/2 121/6/2
f 119/6/2 120/6/2 122/6/2
f 117/6/2 121/6/2 123/6/2
f 121/6/2 122/6/2 123/6/2
f 123/6/2 122/6/2 124/6/2
f 122/6/2 120/6/2 125/6/2
f 124/6/2 122/6/2 125/6/2
f 124/9/2 125/9/2 126/9/2
f 126/9/2 125/9/2 127/9/2
f 127/9/2 125/9/2 128/9/2
f 128/9/2 125/9/2 129/9/2
f 126/8/2 127/8/2 130/8/2
f 127/7/2 128/7/2 130/7/2
f 130/7/2 128/7/2 131/7/2
f 126/8/2 130/8/2 132/8/2
f 130/1/2 131/1/2 132/1/2
f 131/7/2 128/7/2 133/7/2
f 132/1/2 131/1/2 133/1/2
f 128/8/2 129/8/2 134/8/2
f 133/7/2 128/7/2 134/7/2
f 132/8/2 133/8/2 135/8/2
f 126/8/2 132/8/2 135/8/2
f 133/8/2 134/8/2 135/8/2
f 134/8/2 129/8/2 136/8/2
f 135/8/2 134/8/2 136/8/2
f 137/3/2 138/3/2 139/3/2
f 139/3/2 138/3/2 140/3/2
f 141/6/2 142/6/2 143/6/2
f 143/6/2 142/6/2 144/6/2
f 147/6/3 146/6/3 145/6/3
f 148/6/3 146/6/3 147/6/3
f 152/5/3 150/5/3 149/5/3
f 152/6/3 151/6/3 150/6/3
f 153/6/3 151/6/3 152/6/3
f 154/5/3 152/5/3 149/5/3
f 156/5/3 154/5/3 149/5/3
f 157/6/3 155/6/3 154/6/3
f 157/5/3 154/5/3 156/5/3
f 158/6/3 155/6/3 157/6/3
f 162/5/3 160/5/3 159/5/3
f 163/6/3 161/6/3 160/6/3
f 163/5/3 160/5/3 162/5/3
f 164/6/3 161/6/3 163/6/3
f 168/5/3 166/5/3 165/5/3
f 169/6/3 167/6/3 166/6/3
f 169/5/3 166/5/3 168/5/3
f 170/6/3 167/6/3 169/6/3
f 173/6/3 172/6/3 171/6/3
f 174/6/3 172/6/3 173/6/3
f 177/6/3 176/6/3 175/6/3
f 178/6/3 176/6/3 177/6/3
f 181/3/3 180/3/3 179/3/3
f 182/3/3 180/3/3 181/3/3
f 187/4/3 182/4/3 181/4/3
f 188/3/3 183/3/3 182/3/3
f 188/4/3 182/4/3 187/4/3
f 189/3/3 183/3/3 188/3/3
f 190/3/3 188/3/3 187/3/3
f 191/3/3 188/3/3 190/3/3
f 194/3/3 193/3/3 192/3/3
f 195/3/3 193/3/3 194/3/3
f 197/4/3 195/4/3 194/4/3
f 198/3/3 196/3/3 195/3/3
f 198/4/3 195/4/3 197/4/3
f 199/3/3 196/3/3 198/3/3
f 200/9/3 185/9/3 184/9/3
f 201/8/3 186/8/3 185/8/3
f 201/9/3 185/9/3 200/9/3
f 202/8/3 186/8/3 201/8/3
f 203/3/3 198/3/3 197/3/3
f 204/3/3 198/3/3 203/3/3
f 207/9/3 206/9/3 205/9/3
f 208/9/3 206/9/3 207/9/3
f 211/2/3 210/2/3 209/2/3
f 212/2/3 210/2/3 211/2/3
f 213/3/4 214/3/4 215/3/4
f 215/3/4 214/3/4 216/3/4
f 217/9/4 218/9/4 222/9/4
f 218/8/4 219/8/4 223/8/4
f 222/9/4 218/9/4 223/9/4
f 223/8/4 219/8/4 224/8/4
f 220/3/4 221/3/4 225/3/4
f 225/3/4 221/3/4 226/3/4
f 227/3/4 228/3/4 229/3/4
f 229/3/4 228/3/4 230/3/4
f 231/3/4 232/3/4 233/3/4
f 233/3/4 232/3/4 234/3/4
f 235/3/4 236/3/4 239/3/4
f 239/3/4 236/3/4 240/3/4
f 237/6/4 238/6/4 241/6/4
f 241/6/4 238/6/4 242/6/4
f 243/3/4 244/3/4 245/3/4
f 245/3/4 244/3/4 246/3/4
f 247/3/4 248/3/4 249/3/4
f 249/3/4 248/3/4 250/3/4
f 251/3/4 252/3/4 255/3/4
f 255/3/4 252/3/4 256/3/4
f 253/6/4 254/6/4 257/6/4
f 257/6/4 254/6/4 258/6/4
f 261/9/4 262/9/4 264/9/4
f 262/8/4 263/8/4 264/8/4
f 264/8/4 263/8/4 265/8/4
f 261/9/4 264/9/4 266/9/4
f 265/8/4 263/8/4 267/8/4
f 259/5/4 260/5/4 268/5/4
f 260/6/4 261/6/4 269/6/4
f 268/5/4 260/5/4 269/5/4
f 261/9/4 266/9/4 270/9/4
f 269/6/4 261/6/4 270/6/4
f 266/8/4 267/8/4 271/8/4
f 270/9/4 266/9/4 271/9/4
f 267/8/4 263/8/4 272/8/4
f 271/8/4 267/8/4 272/8/4
f 273/2/4 274/2/4 275/2/4
f 275/2/4 274/2/4 276/2/4
f 285/3/5 278/3/5 277/3/5
f 285/4/5 279/4/5 278/4/5
f 286/3/5 280/3/5 279/3/5
f 286/4/5 279/4/5 285/4/5
f 287/4/5 283/4/5 282/4/5
f 287/3/5 282/3/5 281/3/5
f 288/3/5 284/3/5 283/3/5
f 288/4/5 283/4/5 287/4/5
f 289/3/5 285/3/5 277/3/5
f 289/3/5 286/3/5 285/3/5
f 290/3/5 280/3/5 286/3/5
f 290/3/5 286/3/5 289/3/5
f 291/3/5 287/3/5 281/3/5
f 291/3/5 288/3/5 287/3/5
f 292/3/5 284/3/5 288/3/5
f 292/3/5 288/3/5 291/3/5
f 293/3/5 289/3/5 277/3/5
f 294/3/5 289/3/5 293/3/5
f 295/3/5 280/3/5 290/3/5
f 296/3/5 280/3/5 295/3/5
f 297/3/5 291/3/5 281/3/5
f 298/3/5 291/3/5 297/3/5
f 299/3/5 284/3/5 292/3/5
f 300/3/5 284/3/5 299/3/5
f 304/5/5 302/5/5 301/5/5
f 305/5/5 302/5/5 304/5/5
f 307/5/5 304/5/5 303/5/5
f 307/5/5 306/5/5 305/5/5
f 307/5/5 305/5/5 304/5/5
f 308/5/5 306/5/5 307/5/5
f 309/5/5 306/5/5 308/5/5
f 310/5/5 306/5/5 309/5/5
f 312/5/5 309/5/5 308/5/5
f 313/5/5 309/5/5 312/5/5
f 315/5/5 312/5/5 311/5/5
f 315/5/5 314/5/5 313/5/5
f 315/5/5 313/5/5 312/5/5
f 316/5/5 314/5/5 315/5/5
f 319/6/5 318/6/5 317/6/5
f 320/6/5 318/6/5 319/6/5
f 325/6/5 322/6/5 321/6/5
f 326/6/5 322/6/5 325/6/5
f 327/6/5 324/6/5 323/6/5
f 328/6/5 324/6/5 327/6/5
f 331/2/5 330/2/5 329/2/5
f 332/2/5 330/2/5 331/2/5
f 335/8/5 334/8/5 333/8/5
f 336/8/5 334/8/5 335/8/5
f 337/8/5 336/8/5 335/8/5
f 338/8/5 336/8/5 337/8/5
f 339/3/6 340/3/6 347/3/6
f 341/3/6 342/3/6 348/3/6
f 343/3/6 344/3/6 349/3/6
f 345/3/6 346/3/6 350/3/6
f 339/3/6 347/3/6 351/3/6
f 347/3/6 348/3/6 351/3/6
f 348/3/6 342/3/6 352/3/6
f 351/3/6 348/3/6 352/3/6
f 343/3/6 349/3/6 353/3/6
f 349/3/6 350/3/6 353/3/6
f 350/3/6 346/3/6 354/3/6
f 353/3/6 350/3/6 354/3/6
f 339/3/6 351/3/6 355/3/6
f 355/3/6 351/3/6 356/3/6
f 352/3/6 342/3/6 357/3/6
f 357/3/6 342/3/6 358/3/6
f 343/3/6 353/3/6 359/3/6
f 359/3/6 353/3/6 360/3/6
f 354/3/6 346/3/6 361/3/6
f 361/3/6 346/3/6 362/3/6
f 363/6/6 364/6/6 367/6/6
f 367/6/6 364/6/6 368/6/6
f 365/6/6 366/6/6 369/6/6
f 369/6/6 366/6/6 370/6/6
f 371/6/6 372/6/6 374/6/6
f 374/6/6 372/6/6 375/6/6
f 373/6/6 374/6/6 378/6/6
f 375/6/6 376/6/6 378/6/6
f 374/6/6 375/6/6 378/6/6
f 378/6/6 376/6/6 379/6/6
f 377/6/6 378/6/6 381/6/6
f 379/6/6 380/6/6 381/6/6
f 378/6/6 379/6/6 381/6/6
f 381/6/6 380/6/6 382/6/6
f 383/6/6 384/6/6 385/6/6
f 385/6/6 384/6/6 386/6/6
f 387/9/6 388/9/6 389/9/6
f 389/9/6 388/9/6 390/9/6
f 391/2/6 392/2/6 393/2/6
f 393/2/6 392/2/6 394/2/6
f 395/8/6 396/8/6 397/8/6
f 397/8/6 396/8/6 398/8/6
