# MagicaVoxel @ Ephtracy

# group
g animal-16

# material
mtllib animal-0.mtl
usemtl palette

# normals
vn -1 0 0
vn 1 0 0
vn 0 0 1
vn 0 0 -1
vn 0 -1 0
vn 0 1 0

# texcoords
vt 0.00195312 0.5
vt 0.0292969 0.5
vt 0.0566406 0.5
vt 0.248047 0.5
vt 0.978516 0.5
vt 0.994141 0.5

# verts
v -4.5 0 5
v -4.5 0 3
v -4.5 0 -3
v -4.5 0 -5
v -4.5 1 5
v -4.5 1 3
v -4.5 1 -3
v -4.5 1 -5
v -4.5 2 3
v -4.5 2 -3
v -4.5 4 -1
v -4.5 4 -2
v -4.5 5 2
v -4.5 5 -0
v -4.5 5 -1
v -4.5 5 -2
v -4.5 7 2
v -4.5 7 -0
v -4.5 10 5
v -4.5 10 -5
v -3.5 10 -3
v -3.5 10 -4
v -3.5 12 -3
v -3.5 12 -4
v -2.5 5 -5
v -2.5 5 -7
v -2.5 7 -5
v -2.5 7 -7
v -0.5 5 7
v -0.5 5 5
v -0.5 6 6
v -0.5 6 5
v -0.5 7 7
v -0.5 7 6
v 0.5 10 -3
v 0.5 10 -4
v 0.5 12 -3
v 0.5 12 -4
v 2.5 0 5
v 2.5 0 3
v 2.5 0 -3
v 2.5 0 -5
v 2.5 1 5
v 2.5 1 3
v 2.5 1 -3
v 2.5 1 -5
v 2.5 2 5
v 2.5 2 3
v 2.5 2 -3
v 2.5 2 -5
v -2.5 0 5
v -2.5 0 3
v -2.5 0 -3
v -2.5 0 -5
v -2.5 1 5
v -2.5 1 3
v -2.5 1 -3
v -2.5 1 -5
v -2.5 2 5
v -2.5 2 3
v -2.5 2 -3
v -2.5 2 -5
v -0.5 10 -3
v -0.5 10 -4
v -0.5 12 -3
v -0.5 12 -4
v 0.5 5 7
v 0.5 5 5
v 0.5 6 6
v 0.5 6 5
v 0.5 7 7
v 0.5 7 6
v 2.5 5 -5
v 2.5 5 -7
v 2.5 7 -5
v 2.5 7 -7
v 3.5 10 -3
v 3.5 10 -4
v 3.5 12 -3
v 3.5 12 -4
v 4.5 0 5
v 4.5 0 3
v 4.5 0 -3
v 4.5 0 -5
v 4.5 1 5
v 4.5 1 3
v 4.5 1 -3
v 4.5 1 -5
v 4.5 2 3
v 4.5 2 -3
v 4.5 3 3
v 4.5 3 1
v 4.5 4 4
v 4.5 4 3
v 4.5 4 1
v 4.5 4 -0
v 4.5 5 5
v 4.5 5 4
v 4.5 5 -0
v 4.5 5 -1
v 4.5 6 -4
v 4.5 6 -5
v 4.5 7 5
v 4.5 7 4
v 4.5 7 -0
v 4.5 7 -1
v 4.5 7 -3
v 4.5 7 -4
v 4.5 8 4
v 4.5 8 3
v 4.5 8 1
v 4.5 8 -0
v 4.5 9 3
v 4.5 9 1
v 4.5 9 -3
v 4.5 9 -4
v 4.5 10 5
v 4.5 10 -4
v 4.5 10 -5
v -0.5 5 7
v -0.5 7 7
v 0.5 5 7
v 0.5 7 7
v -4.5 0 5
v -4.5 1 5
v -4.5 10 5
v -2.5 0 5
v -2.5 1 5
v -2.5 2 5
v -0.5 5 5
v -0.5 6 5
v 0.5 5 5
v 0.5 6 5
v 2.5 0 5
v 2.5 1 5
v 2.5 2 5
v 3.5 5 5
v 3.5 7 5
v 4.5 0 5
v 4.5 1 5
v 4.5 5 5
v 4.5 7 5
v 4.5 10 5
v -4.5 0 -3
v -4.5 1 -3
v -4.5 2 -3
v -3.5 10 -3
v -3.5 12 -3
v -2.5 0 -3
v -2.5 1 -3
v -2.5 2 -3
v -2.5 10 -3
v -2.5 11 -3
v -1.5 10 -3
v -1.5 11 -3
v -0.5 10 -3
v -0.5 12 -3
v 0.5 10 -3
v 0.5 12 -3
v 1.5 10 -3
v 1.5 11 -3
v 2.5 0 -3
v 2.5 1 -3
v 2.5 2 -3
v 2.5 10 -3
v 2.5 11 -3
v 3.5 10 -3
v 3.5 12 -3
v 4.5 0 -3
v 4.5 1 -3
v 4.5 2 -3
v -0.5 6 6
v -0.5 7 6
v 0.5 6 6
v 0.5 7 6
v -4.5 0 3
v -4.5 1 3
v -4.5 2 3
v -2.5 0 3
v -2.5 1 3
v -2.5 2 3
v 2.5 0 3
v 2.5 1 3
v 2.5 2 3
v 4.5 0 3
v 4.5 1 3
v 4.5 2 3
v -3.5 10 -4
v -3.5 12 -4
v -2.5 10 -4
v -2.5 11 -4
v -1.5 10 -4
v -1.5 11 -4
v -0.5 10 -4
v -0.5 12 -4
v 0.5 10 -4
v 0.5 12 -4
v 1.5 10 -4
v 1.5 11 -4
v 2.5 10 -4
v 2.5 11 -4
v 3.5 10 -4
v 3.5 12 -4
v -4.5 0 -5
v -4.5 1 -5
v -4.5 10 -5
v -3.5 7 -5
v -3.5 9 -5
v -2.5 0 -5
v -2.5 1 -5
v -2.5 2 -5
v -2.5 5 -5
v -2.5 7 -5
v -2.5 8 -5
v -2.5 9 -5
v -1.5 7 -5
v -1.5 8 -5
v -1.5 9 -5
v 0.5 7 -5
v 0.5 9 -5
v 1.5 7 -5
v 1.5 9 -5
v 1.5 10 -5
v 2.5 0 -5
v 2.5 1 -5
v 2.5 2 -5
v 2.5 5 -5
v 2.5 7 -5
v 2.5 8 -5
v 2.5 9 -5
v 3.5 5 -5
v 3.5 6 -5
v 3.5 7 -5
v 3.5 8 -5
v 3.5 9 -5
v 4.5 0 -5
v 4.5 1 -5
v 4.5 6 -5
v 4.5 10 -5
v -2.5 5 -7
v -2.5 7 -7
v -1.5 5 -7
v -1.5 7 -7
v -0.5 5 -7
v -0.5 7 -7
v 0.5 5 -7
v 0.5 7 -7
v 1.5 5 -7
v 1.5 7 -7
v 2.5 5 -7
v 2.5 7 -7
v -4.5 0 5
v -2.5 0 5
v 2.5 0 5
v 4.5 0 5
v -4.5 0 3
v -2.5 0 3
v 2.5 0 3
v 4.5 0 3
v -4.5 0 -3
v -2.5 0 -3
v 2.5 0 -3
v 4.5 0 -3
v -4.5 0 -5
v -2.5 0 -5
v 2.5 0 -5
v 4.5 0 -5
v -2.5 2 5
v 2.5 2 5
v -4.5 2 3
v -2.5 2 3
v 2.5 2 3
v 4.5 2 3
v -4.5 2 -3
v -2.5 2 -3
v 2.5 2 -3
v 4.5 2 -3
v -2.5 2 -5
v 2.5 2 -5
v -0.5 5 7
v 0.5 5 7
v -0.5 5 5
v 0.5 5 5
v -2.5 5 -5
v 2.5 5 -5
v -1.5 5 -6
v -0.5 5 -6
v 0.5 5 -6
v 1.5 5 -6
v -2.5 5 -7
v -1.5 5 -7
v -0.5 5 -7
v 0.5 5 -7
v 1.5 5 -7
v 2.5 5 -7
v -0.5 6 6
v 0.5 6 6
v -0.5 6 5
v 0.5 6 5
v -0.5 7 7
v 0.5 7 7
v -0.5 7 6
v 0.5 7 6
v -2.5 7 -5
v -1.5 7 -5
v 0.5 7 -5
v 1.5 7 -5
v 2.5 7 -5
v -1.5 7 -6
v -0.5 7 -6
v 0.5 7 -6
v 1.5 7 -6
v -2.5 7 -7
v -1.5 7 -7
v -0.5 7 -7
v 0.5 7 -7
v 1.5 7 -7
v 2.5 7 -7
v -4.5 10 5
v 4.5 10 5
v -3.5 10 -3
v -2.5 10 -3
v -1.5 10 -3
v -0.5 10 -3
v 0.5 10 -3
v 1.5 10 -3
v 2.5 10 -3
v 3.5 10 -3
v -3.5 10 -4
v -2.5 10 -4
v -1.5 10 -4
v -0.5 10 -4
v 0.5 10 -4
v 1.5 10 -4
v 2.5 10 -4
v 3.5 10 -4
v 4.5 10 -4
v -4.5 10 -5
v 1.5 10 -5
v 4.5 10 -5
v -3.5 12 -3
v -0.5 12 -3
v 0.5 12 -3
v 3.5 12 -3
v -3.5 12 -4
v -0.5 12 -4
v 0.5 12 -4
v 3.5 12 -4

# faces
f 5/5/1 2/5/1 1/5/1
f 6/5/1 2/5/1 5/5/1
f 7/5/1 4/5/1 3/5/1
f 8/5/1 4/5/1 7/5/1
f 9/3/1 6/3/1 5/3/1
f 10/3/1 8/3/1 7/3/1
f 11/3/1 10/3/1 9/3/1
f 12/3/1 10/3/1 11/3/1
f 13/3/1 11/3/1 9/3/1
f 14/3/1 11/3/1 13/3/1
f 15/2/1 12/2/1 11/2/1
f 15/3/1 11/3/1 14/3/1
f 16/3/1 10/3/1 12/3/1
f 16/2/1 12/2/1 15/2/1
f 17/2/1 14/2/1 13/2/1
f 17/3/1 13/3/1 9/3/1
f 18/3/1 15/3/1 14/3/1
f 18/2/1 14/2/1 17/2/1
f 18/3/1 16/3/1 15/3/1
f 19/3/1 9/3/1 5/3/1
f 19/3/1 17/3/1 9/3/1
f 19/3/1 18/3/1 17/3/1
f 20/3/1 16/3/1 18/3/1
f 20/3/1 18/3/1 19/3/1
f 20/3/1 8/3/1 10/3/1
f 20/3/1 10/3/1 16/3/1
f 23/3/1 22/3/1 21/3/1
f 24/3/1 22/3/1 23/3/1
f 27/3/1 26/3/1 25/3/1
f 28/3/1 26/3/1 27/3/1
f 31/4/1 30/4/1 29/4/1
f 32/4/1 30/4/1 31/4/1
f 33/4/1 31/4/1 29/4/1
f 34/4/1 31/4/1 33/4/1
f 37/3/1 36/3/1 35/3/1
f 38/3/1 36/3/1 37/3/1
f 43/5/1 40/5/1 39/5/1
f 44/5/1 40/5/1 43/5/1
f 45/5/1 42/5/1 41/5/1
f 46/5/1 42/5/1 45/5/1
f 47/3/1 44/3/1 43/3/1
f 48/3/1 44/3/1 47/3/1
f 49/3/1 46/3/1 45/3/1
f 50/3/1 46/3/1 49/3/1
f 51/5/2 52/5/2 55/5/2
f 55/5/2 52/5/2 56/5/2
f 53/5/2 54/5/2 57/5/2
f 57/5/2 54/5/2 58/5/2
f 55/3/2 56/3/2 59/3/2
f 59/3/2 56/3/2 60/3/2
f 57/3/2 58/3/2 61/3/2
f 61/3/2 58/3/2 62/3/2
f 63/3/2 64/3/2 65/3/2
f 65/3/2 64/3/2 66/3/2
f 67/4/2 68/4/2 69/4/2
f 69/4/2 68/4/2 70/4/2
f 67/4/2 69/4/2 71/4/2
f 71/4/2 69/4/2 72/4/2
f 73/3/2 74/3/2 75/3/2
f 75/3/2 74/3/2 76/3/2
f 77/3/2 78/3/2 79/3/2
f 79/3/2 78/3/2 80/3/2
f 81/5/2 82/5/2 85/5/2
f 85/5/2 82/5/2 86/5/2
f 83/5/2 84/5/2 87/5/2
f 87/5/2 84/5/2 88/5/2
f 85/3/2 86/3/2 89/3/2
f 87/3/2 88/3/2 90/3/2
f 85/3/2 89/3/2 91/3/2
f 89/3/2 90/3/2 91/3/2
f 91/3/2 90/3/2 92/3/2
f 85/3/2 91/3/2 93/3/2
f 91/2/2 92/2/2 94/2/2
f 93/3/2 91/3/2 94/3/2
f 92/3/2 90/3/2 95/3/2
f 94/2/2 92/2/2 95/2/2
f 95/3/2 90/3/2 96/3/2
f 85/3/2 93/3/2 97/3/2
f 93/2/2 94/2/2 98/2/2
f 97/3/2 93/3/2 98/3/2
f 94/2/2 95/2/2 98/2/2
f 95/2/2 96/2/2 98/2/2
f 96/3/2 90/3/2 99/3/2
f 98/2/2 96/2/2 99/2/2
f 99/3/2 90/3/2 100/3/2
f 90/3/2 88/3/2 101/3/2
f 100/3/2 90/3/2 101/3/2
f 101/3/2 88/3/2 102/3/2
f 99/2/2 100/2/2 103/2/2
f 97/2/2 98/2/2 103/2/2
f 98/2/2 99/2/2 103/2/2
f 103/2/2 100/2/2 104/2/2
f 104/2/2 100/2/2 105/2/2
f 100/3/2 101/3/2 106/3/2
f 105/2/2 100/2/2 106/2/2
f 106/3/2 101/3/2 107/3/2
f 101/2/2 102/2/2 108/2/2
f 107/3/2 101/3/2 108/3/2
f 104/2/2 105/2/2 109/2/2
f 103/3/2 104/3/2 109/3/2
f 109/2/2 105/2/2 110/2/2
f 110/2/2 105/2/2 111/2/2
f 106/3/2 107/3/2 112/3/2
f 111/2/2 105/2/2 112/2/2
f 105/3/2 106/3/2 112/3/2
f 110/2/2 111/2/2 113/2/2
f 109/3/2 110/3/2 113/3/2
f 111/3/2 112/3/2 114/3/2
f 113/2/2 111/2/2 114/2/2
f 112/3/2 107/3/2 115/3/2
f 114/3/2 112/3/2 115/3/2
f 107/2/2 108/2/2 115/2/2
f 108/2/2 102/2/2 116/2/2
f 115/2/2 108/2/2 116/2/2
f 113/3/2 114/3/2 117/3/2
f 114/3/2 115/3/2 117/3/2
f 115/3/2 116/3/2 117/3/2
f 109/3/2 113/3/2 117/3/2
f 103/3/2 109/3/2 117/3/2
f 116/2/2 102/2/2 118/2/2
f 117/3/2 116/3/2 118/3/2
f 118/2/2 102/2/2 119/2/2
f 122/4/3 121/4/3 120/4/3
f 123/4/3 121/4/3 122/4/3
f 127/5/3 125/5/3 124/5/3
f 128/3/3 126/3/3 125/3/3
f 128/5/3 125/5/3 127/5/3
f 129/3/3 126/3/3 128/3/3
f 130/3/3 126/3/3 129/3/3
f 131/3/3 126/3/3 130/3/3
f 132/3/3 130/3/3 129/3/3
f 133/3/3 126/3/3 131/3/3
f 136/3/3 132/3/3 129/3/3
f 136/3/3 133/3/3 132/3/3
f 137/3/3 133/3/3 136/3/3
f 137/3/3 136/3/3 135/3/3
f 138/3/3 126/3/3 133/3/3
f 138/3/3 133/3/3 137/3/3
f 139/5/3 135/5/3 134/5/3
f 140/3/3 137/3/3 135/3/3
f 140/5/3 135/5/3 139/5/3
f 141/2/3 138/2/3 137/2/3
f 141/3/3 137/3/3 140/3/3
f 142/3/3 126/3/3 138/3/3
f 142/2/3 138/2/3 141/2/3
f 143/3/3 126/3/3 142/3/3
f 149/5/3 145/5/3 144/5/3
f 150/3/3 146/3/3 145/3/3
f 150/5/3 145/5/3 149/5/3
f 151/3/3 146/3/3 150/3/3
f 152/3/3 148/3/3 147/3/3
f 153/3/3 148/3/3 152/3/3
f 154/4/3 153/4/3 152/4/3
f 155/3/3 148/3/3 153/3/3
f 155/4/3 153/4/3 154/4/3
f 156/3/3 155/3/3 154/3/3
f 157/3/3 148/3/3 155/3/3
f 157/3/3 155/3/3 156/3/3
f 160/3/3 159/3/3 158/3/3
f 161/3/3 159/3/3 160/3/3
f 165/4/3 161/4/3 160/4/3
f 166/3/3 159/3/3 161/3/3
f 166/4/3 161/4/3 165/4/3
f 167/3/3 166/3/3 165/3/3
f 168/3/3 159/3/3 166/3/3
f 168/3/3 166/3/3 167/3/3
f 169/5/3 163/5/3 162/5/3
f 170/3/3 164/3/3 163/3/3
f 170/5/3 163/5/3 169/5/3
f 171/3/3 164/3/3 170/3/3
f 172/4/4 173/4/4 174/4/4
f 174/4/4 173/4/4 175/4/4
f 176/5/4 177/5/4 179/5/4
f 177/3/4 178/3/4 180/3/4
f 179/5/4 177/5/4 180/5/4
f 180/3/4 178/3/4 181/3/4
f 182/5/4 183/5/4 185/5/4
f 183/3/4 184/3/4 186/3/4
f 185/5/4 183/5/4 186/5/4
f 186/3/4 184/3/4 187/3/4
f 188/3/4 189/3/4 190/3/4
f 190/3/4 189/3/4 191/3/4
f 190/4/4 191/4/4 192/4/4
f 191/3/4 189/3/4 193/3/4
f 192/4/4 191/4/4 193/4/4
f 192/3/4 193/3/4 194/3/4
f 193/3/4 189/3/4 195/3/4
f 194/3/4 193/3/4 195/3/4
f 196/3/4 197/3/4 198/3/4
f 198/3/4 197/3/4 199/3/4
f 198/4/4 199/4/4 200/4/4
f 199/3/4 197/3/4 201/3/4
f 200/4/4 199/4/4 201/4/4
f 200/3/4 201/3/4 202/3/4
f 201/3/4 197/3/4 203/3/4
f 202/3/4 201/3/4 203/3/4
f 205/3/4 206/3/4 207/3/4
f 207/3/4 206/3/4 208/3/4
f 204/5/4 205/5/4 209/5/4
f 205/3/4 207/3/4 210/3/4
f 209/5/4 205/5/4 210/5/4
f 210/3/4 207/3/4 211/3/4
f 211/3/4 207/3/4 212/3/4
f 207/6/4 208/6/4 213/6/4
f 212/3/4 207/3/4 213/3/4
f 213/6/4 208/6/4 214/6/4
f 208/3/4 206/3/4 215/3/4
f 214/6/4 208/6/4 215/6/4
f 213/6/4 214/6/4 216/6/4
f 214/1/4 215/1/4 217/1/4
f 216/6/4 214/6/4 217/6/4
f 215/3/4 206/3/4 218/3/4
f 217/1/4 215/1/4 218/1/4
f 216/3/4 217/3/4 219/3/4
f 217/3/4 218/3/4 219/3/4
f 218/3/4 206/3/4 220/3/4
f 219/3/4 218/3/4 220/3/4
f 219/2/4 220/2/4 221/2/4
f 220/3/4 206/3/4 222/3/4
f 221/2/4 220/2/4 222/2/4
f 222/3/4 206/3/4 223/3/4
f 211/3/4 212/3/4 226/3/4
f 226/3/4 212/3/4 227/3/4
f 221/6/4 222/6/4 228/6/4
f 228/6/4 222/6/4 229/6/4
f 222/2/4 223/2/4 230/2/4
f 229/6/4 222/6/4 230/6/4
f 226/3/4 227/3/4 231/3/4
f 225/3/4 226/3/4 231/3/4
f 227/2/4 228/2/4 231/2/4
f 231/2/4 228/2/4 232/2/4
f 228/6/4 229/6/4 233/6/4
f 232/2/4 228/2/4 233/2/4
f 229/1/4 230/1/4 234/1/4
f 233/6/4 229/6/4 234/6/4
f 230/2/4 223/2/4 235/2/4
f 234/1/4 230/1/4 235/1/4
f 224/5/4 225/5/4 236/5/4
f 231/3/4 232/3/4 237/3/4
f 236/5/4 225/5/4 237/5/4
f 225/3/4 231/3/4 237/3/4
f 233/2/4 234/2/4 238/2/4
f 237/3/4 232/3/4 238/3/4
f 232/2/4 233/2/4 238/2/4
f 234/2/4 235/2/4 238/2/4
f 235/2/4 223/2/4 239/2/4
f 238/2/4 235/2/4 239/2/4
f 240/3/4 241/3/4 242/3/4
f 242/3/4 241/3/4 243/3/4
f 242/4/4 243/4/4 244/4/4
f 244/4/4 243/4/4 245/4/4
f 244/3/4 245/3/4 246/3/4
f 246/3/4 245/3/4 247/3/4
f 246/4/4 247/4/4 248/4/4
f 248/4/4 247/4/4 249/4/4
f 248/3/4 249/3/4 250/3/4
f 250/3/4 249/3/4 251/3/4
f 256/5/5 253/5/5 252/5/5
f 257/5/5 253/5/5 256/5/5
f 258/5/5 255/5/5 254/5/5
f 259/5/5 255/5/5 258/5/5
f 264/5/5 261/5/5 260/5/5
f 265/5/5 261/5/5 264/5/5
f 266/5/5 263/5/5 262/5/5
f 267/5/5 263/5/5 266/5/5
f 271/3/5 269/3/5 268/3/5
f 272/3/5 269/3/5 271/3/5
f 274/3/5 271/3/5 270/3/5
f 274/3/5 273/3/5 272/3/5
f 274/3/5 272/3/5 271/3/5
f 275/3/5 273/3/5 274/3/5
f 276/3/5 273/3/5 275/3/5
f 277/3/5 273/3/5 276/3/5
f 278/3/5 276/3/5 275/3/5
f 279/3/5 276/3/5 278/3/5
f 282/4/5 281/4/5 280/4/5
f 283/4/5 281/4/5 282/4/5
f 286/3/5 285/3/5 284/3/5
f 287/3/5 285/3/5 286/3/5
f 288/3/5 285/3/5 287/3/5
f 289/3/5 285/3/5 288/3/5
f 290/3/5 286/3/5 284/3/5
f 291/4/5 287/4/5 286/4/5
f 291/3/5 286/3/5 290/3/5
f 292/3/5 288/3/5 287/3/5
f 292/4/5 287/4/5 291/4/5
f 293/4/5 289/4/5 288/4/5
f 293/3/5 288/3/5 292/3/5
f 294/3/5 285/3/5 289/3/5
f 294/4/5 289/4/5 293/4/5
f 295/3/5 285/3/5 294/3/5
f 296/4/6 297/4/6 298/4/6
f 298/4/6 297/4/6 299/4/6
f 300/4/6 301/4/6 302/4/6
f 302/4/6 301/4/6 303/4/6
f 305/3/6 306/3/6 309/3/6
f 307/3/6 308/3/6 309/3/6
f 306/3/6 307/3/6 309/3/6
f 304/3/6 305/3/6 309/3/6
f 309/3/6 308/3/6 310/3/6
f 310/3/6 308/3/6 311/3/6
f 311/3/6 308/3/6 312/3/6
f 304/3/6 309/3/6 313/3/6
f 309/4/6 310/4/6 314/4/6
f 313/3/6 309/3/6 314/3/6
f 310/3/6 311/3/6 315/3/6
f 314/4/6 310/4/6 315/4/6
f 311/4/6 312/4/6 316/4/6
f 315/3/6 311/3/6 316/3/6
f 312/3/6 308/3/6 317/3/6
f 316/4/6 312/4/6 317/4/6
f 317/3/6 308/3/6 318/3/6
f 319/3/6 320/3/6 321/3/6
f 321/3/6 320/3/6 322/3/6
f 322/3/6 320/3/6 323/3/6
f 323/3/6 320/3/6 324/3/6
f 324/3/6 320/3/6 325/3/6
f 325/3/6 320/3/6 326/3/6
f 326/3/6 320/3/6 327/3/6
f 327/3/6 320/3/6 328/3/6
f 319/3/6 321/3/6 329/3/6
f 324/3/6 325/3/6 332/3/6
f 332/3/6 325/3/6 333/3/6
f 328/3/6 320/3/6 336/3/6
f 336/3/6 320/3/6 337/3/6
f 330/3/6 331/3/6 338/3/6
f 319/3/6 329/3/6 338/3/6
f 329/3/6 330/3/6 338/3/6
f 331/3/6 332/3/6 338/3/6
f 332/3/6 333/3/6 338/3/6
f 333/3/6 334/3/6 338/3/6
f 334/2/6 335/2/6 339/2/6
f 338/3/6 334/3/6 339/3/6
f 336/2/6 337/2/6 339/2/6
f 335/2/6 336/2/6 339/2/6
f 339/2/6 337/2/6 340/2/6
f 341/3/6 342/3/6 345/3/6
f 345/3/6 342/3/6 346/3/6
f 343/3/6 344/3/6 347/3/6
f 347/3/6 344/3/6 348/3/6
