# MagicaVoxel @ Ephtracy

# group
g animal-35

# material
mtllib animal-0.mtl
usemtl palette

# normals
vn -1 0 0
vn 1 0 0
vn 0 0 1
vn 0 0 -1
vn 0 -1 0
vn 0 1 0

# texcoords
vt 0.00195312 0.5
vt 0.00976562 0.5
vt 0.0332031 0.5
vt 0.369141 0.5
vt 0.533203 0.5
vt 0.560547 0.5

# verts
v -4.5 0 4
v -4.5 0 2
v -4.5 0 -4
v -4.5 0 -6
v -4.5 1 2
v -4.5 1 -4
v -4.5 3 -5
v -4.5 3 -6
v -4.5 4 -5
v -4.5 4 -6
v -4.5 5 -5
v -4.5 5 -6
v -4.5 6 -5
v -4.5 6 -6
v -4.5 9 4
v -4.5 9 -6
v -3.5 4 8
v -3.5 4 4
v -3.5 6 5
v -3.5 6 4
v -3.5 9 -3
v -3.5 9 -5
v -3.5 12 -3
v -3.5 12 -5
v -3.5 14 5
v -3.5 14 -1
v -3.5 18 8
v -3.5 18 -1
v -2.5 4 -6
v -2.5 4 -8
v -2.5 6 -6
v -2.5 6 -8
v -1.5 6 -6
v -1.5 6 -8
v -1.5 7 -6
v -1.5 7 -8
v -0.5 3 -6
v -0.5 3 -8
v -0.5 4 -6
v -0.5 4 -8
v 1.5 9 -3
v 1.5 9 -5
v 1.5 12 -3
v 1.5 12 -5
v 2.5 0 4
v 2.5 0 2
v 2.5 0 -4
v 2.5 0 -6
v 2.5 1 4
v 2.5 1 2
v 2.5 1 -4
v 2.5 1 -6
v -2.5 0 4
v -2.5 0 2
v -2.5 0 -4
v -2.5 0 -6
v -2.5 1 4
v -2.5 1 2
v -2.5 1 -4
v -2.5 1 -6
v -1.5 9 -3
v -1.5 9 -5
v -1.5 12 -3
v -1.5 12 -5
v 0.5 3 -6
v 0.5 3 -8
v 0.5 4 -6
v 0.5 4 -8
v 1.5 6 -6
v 1.5 6 -8
v 1.5 7 -6
v 1.5 7 -8
v 2.5 4 8
v 2.5 4 4
v 2.5 4 -6
v 2.5 4 -8
v 2.5 6 5
v 2.5 6 4
v 2.5 6 -6
v 2.5 6 -8
v 2.5 14 5
v 2.5 14 -1
v 2.5 18 8
v 2.5 18 -1
v 3.5 9 -3
v 3.5 9 -5
v 3.5 12 -3
v 3.5 12 -5
v 4.5 0 4
v 4.5 0 2
v 4.5 0 -4
v 4.5 0 -6
v 4.5 1 2
v 4.5 1 -4
v 4.5 3 -5
v 4.5 3 -6
v 4.5 4 -5
v 4.5 4 -6
v 4.5 5 -5
v 4.5 5 -6
v 4.5 6 -5
v 4.5 6 -6
v 4.5 9 4
v 4.5 9 -6
v -3.5 4 8
v -3.5 18 8
v 2.5 4 8
v 2.5 18 8
v -4.5 0 4
v -4.5 9 4
v -3.5 4 4
v -3.5 6 4
v -2.5 0 4
v -2.5 1 4
v -2.5 4 4
v 2.5 0 4
v 2.5 1 4
v 2.5 4 4
v 2.5 6 4
v 4.5 0 4
v 4.5 9 4
v -3.5 9 -3
v -3.5 12 -3
v -1.5 9 -3
v -1.5 12 -3
v 1.5 9 -3
v 1.5 12 -3
v 3.5 9 -3
v 3.5 12 -3
v -4.5 0 -4
v -4.5 1 -4
v -2.5 0 -4
v -2.5 1 -4
v 2.5 0 -4
v 2.5 1 -4
v 4.5 0 -4
v 4.5 1 -4
v -3.5 6 5
v -3.5 14 5
v 2.5 6 5
v 2.5 14 5
v -4.5 0 2
v -4.5 1 2
v -2.5 0 2
v -2.5 1 2
v 2.5 0 2
v 2.5 1 2
v 4.5 0 2
v 4.5 1 2
v -3.5 14 -1
v -3.5 18 -1
v 2.5 14 -1
v 2.5 18 -1
v -3.5 9 -5
v -3.5 12 -5
v -1.5 9 -5
v -1.5 12 -5
v 1.5 9 -5
v 1.5 12 -5
v 3.5 9 -5
v 3.5 12 -5
v -4.5 0 -6
v -4.5 3 -6
v -4.5 4 -6
v -4.5 5 -6
v -4.5 6 -6
v -4.5 9 -6
v -3.5 3 -6
v -3.5 4 -6
v -3.5 5 -6
v -3.5 6 -6
v -3.5 7 -6
v -3.5 8 -6
v -2.5 0 -6
v -2.5 1 -6
v -2.5 4 -6
v -2.5 6 -6
v -2.5 7 -6
v -2.5 8 -6
v -1.5 6 -6
v -1.5 7 -6
v -1.5 8 -6
v -0.5 3 -6
v -0.5 4 -6
v 0.5 3 -6
v 0.5 4 -6
v 1.5 6 -6
v 1.5 7 -6
v 1.5 8 -6
v 2.5 0 -6
v 2.5 1 -6
v 2.5 4 -6
v 2.5 6 -6
v 2.5 7 -6
v 2.5 8 -6
v 3.5 3 -6
v 3.5 4 -6
v 3.5 5 -6
v 3.5 6 -6
v 3.5 7 -6
v 3.5 8 -6
v 4.5 0 -6
v 4.5 3 -6
v 4.5 4 -6
v 4.5 5 -6
v 4.5 6 -6
v 4.5 9 -6
v -2.5 4 -8
v -2.5 6 -8
v -1.5 6 -8
v -1.5 7 -8
v -0.5 3 -8
v -0.5 4 -8
v -0.5 5 -8
v -0.5 6 -8
v 0.5 3 -8
v 0.5 4 -8
v 0.5 5 -8
v 0.5 6 -8
v 1.5 6 -8
v 1.5 7 -8
v 2.5 4 -8
v 2.5 6 -8
v -4.5 0 4
v -2.5 0 4
v 2.5 0 4
v 4.5 0 4
v -4.5 0 2
v -2.5 0 2
v 2.5 0 2
v 4.5 0 2
v -4.5 0 -4
v -2.5 0 -4
v 2.5 0 -4
v 4.5 0 -4
v -4.5 0 -6
v -2.5 0 -6
v 2.5 0 -6
v 4.5 0 -6
v -2.5 1 4
v 2.5 1 4
v -4.5 1 2
v -2.5 1 2
v 2.5 1 2
v 4.5 1 2
v -4.5 1 -4
v -2.5 1 -4
v 2.5 1 -4
v 4.5 1 -4
v -2.5 1 -6
v 2.5 1 -6
v -0.5 3 -6
v 0.5 3 -6
v -0.5 3 -8
v 0.5 3 -8
v -3.5 4 8
v 2.5 4 8
v -3.5 4 4
v -2.5 4 4
v 2.5 4 4
v -2.5 4 -6
v -0.5 4 -6
v 0.5 4 -6
v 2.5 4 -6
v -2.5 4 -8
v -0.5 4 -8
v 0.5 4 -8
v 2.5 4 -8
v -3.5 14 5
v 2.5 14 5
v -3.5 14 -1
v 2.5 14 -1
v -3.5 6 5
v 2.5 6 5
v -3.5 6 4
v 2.5 6 4
v -2.5 6 -6
v -1.5 6 -6
v 1.5 6 -6
v 2.5 6 -6
v -2.5 6 -8
v -1.5 6 -8
v 1.5 6 -8
v 2.5 6 -8
v -1.5 7 -6
v 1.5 7 -6
v -1.5 7 -8
v 1.5 7 -8
v -4.5 9 4
v 4.5 9 4
v -3.5 9 -3
v -1.5 9 -3
v 1.5 9 -3
v 3.5 9 -3
v -3.5 9 -5
v -1.5 9 -5
v 1.5 9 -5
v 3.5 9 -5
v -4.5 9 -6
v 4.5 9 -6
v -3.5 12 -3
v -1.5 12 -3
v 1.5 12 -3
v 3.5 12 -3
v -3.5 12 -5
v -1.5 12 -5
v 1.5 12 -5
v 3.5 12 -5
v -3.5 18 8
v 2.5 18 8
v -3.5 18 -1
v 2.5 18 -1

# faces
f 5/4/1 2/4/1 1/4/1
f 6/4/1 4/4/1 3/4/1
f 7/4/1 4/4/1 6/4/1
f 7/4/1 6/4/1 5/4/1
f 8/4/1 4/4/1 7/4/1
f 9/4/1 7/4/1 5/4/1
f 9/5/1 8/5/1 7/5/1
f 10/5/1 8/5/1 9/5/1
f 11/4/1 9/4/1 5/4/1
f 11/4/1 10/4/1 9/4/1
f 12/4/1 10/4/1 11/4/1
f 13/4/1 11/4/1 5/4/1
f 13/5/1 12/5/1 11/5/1
f 14/5/1 12/5/1 13/5/1
f 15/4/1 5/4/1 1/4/1
f 15/4/1 13/4/1 5/4/1
f 15/4/1 14/4/1 13/4/1
f 16/4/1 14/4/1 15/4/1
f 19/4/1 18/4/1 17/4/1
f 20/4/1 18/4/1 19/4/1
f 23/4/1 22/4/1 21/4/1
f 24/4/1 22/4/1 23/4/1
f 25/4/1 19/4/1 17/4/1
f 27/4/1 25/4/1 17/4/1
f 27/4/1 26/4/1 25/4/1
f 28/4/1 26/4/1 27/4/1
f 31/4/1 30/4/1 29/4/1
f 32/4/1 30/4/1 31/4/1
f 35/5/1 34/5/1 33/5/1
f 36/5/1 34/5/1 35/5/1
f 39/1/1 38/1/1 37/1/1
f 40/1/1 38/1/1 39/1/1
f 43/4/1 42/4/1 41/4/1
f 44/4/1 42/4/1 43/4/1
f 49/4/1 46/4/1 45/4/1
f 50/4/1 46/4/1 49/4/1
f 51/4/1 48/4/1 47/4/1
f 52/4/1 48/4/1 51/4/1
f 53/4/2 54/4/2 57/4/2
f 57/4/2 54/4/2 58/4/2
f 55/4/2 56/4/2 59/4/2
f 59/4/2 56/4/2 60/4/2
f 61/4/2 62/4/2 63/4/2
f 63/4/2 62/4/2 64/4/2
f 65/1/2 66/1/2 67/1/2
f 67/1/2 66/1/2 68/1/2
f 69/5/2 70/5/2 71/5/2
f 71/5/2 70/5/2 72/5/2
f 73/4/2 74/4/2 77/4/2
f 77/4/2 74/4/2 78/4/2
f 75/4/2 76/4/2 79/4/2
f 79/4/2 76/4/2 80/4/2
f 73/4/2 77/4/2 81/4/2
f 73/4/2 81/4/2 83/4/2
f 81/4/2 82/4/2 83/4/2
f 83/4/2 82/4/2 84/4/2
f 85/4/2 86/4/2 87/4/2
f 87/4/2 86/4/2 88/4/2
f 89/4/2 90/4/2 93/4/2
f 91/4/2 92/4/2 94/4/2
f 94/4/2 92/4/2 95/4/2
f 93/4/2 94/4/2 95/4/2
f 95/4/2 92/4/2 96/4/2
f 93/4/2 95/4/2 97/4/2
f 95/5/2 96/5/2 97/5/2
f 97/5/2 96/5/2 98/5/2
f 93/4/2 97/4/2 99/4/2
f 97/4/2 98/4/2 99/4/2
f 99/4/2 98/4/2 100/4/2
f 93/4/2 99/4/2 101/4/2
f 99/5/2 100/5/2 101/5/2
f 101/5/2 100/5/2 102/5/2
f 89/4/2 93/4/2 103/4/2
f 93/4/2 101/4/2 103/4/2
f 101/4/2 102/4/2 103/4/2
f 103/4/2 102/4/2 104/4/2
f 107/4/3 106/4/3 105/4/3
f 108/4/3 106/4/3 107/4/3
f 111/4/3 110/4/3 109/4/3
f 112/4/3 110/4/3 111/4/3
f 113/4/3 111/4/3 109/4/3
f 114/4/3 111/4/3 113/4/3
f 115/4/3 111/4/3 114/4/3
f 117/3/3 115/3/3 114/3/3
f 118/3/3 115/3/3 117/3/3
f 119/4/3 110/4/3 112/4/3
f 120/4/3 118/4/3 117/4/3
f 120/4/3 119/4/3 118/4/3
f 120/4/3 117/4/3 116/4/3
f 121/4/3 110/4/3 119/4/3
f 121/4/3 119/4/3 120/4/3
f 124/4/3 123/4/3 122/4/3
f 125/4/3 123/4/3 124/4/3
f 128/4/3 127/4/3 126/4/3
f 129/4/3 127/4/3 128/4/3
f 132/4/3 131/4/3 130/4/3
f 133/4/3 131/4/3 132/4/3
f 136/4/3 135/4/3 134/4/3
f 137/4/3 135/4/3 136/4/3
f 138/4/4 139/4/4 140/4/4
f 140/4/4 139/4/4 141/4/4
f 142/4/4 143/4/4 144/4/4
f 144/4/4 143/4/4 145/4/4
f 146/4/4 147/4/4 148/4/4
f 148/4/4 147/4/4 149/4/4
f 150/4/4 151/4/4 152/4/4
f 152/4/4 151/4/4 153/4/4
f 154/4/4 155/4/4 156/4/4
f 156/4/4 155/4/4 157/4/4
f 158/4/4 159/4/4 160/4/4
f 160/4/4 159/4/4 161/4/4
f 162/4/4 163/4/4 168/4/4
f 163/5/4 164/5/4 168/5/4
f 164/4/4 165/4/4 169/4/4
f 168/5/4 164/5/4 169/5/4
f 165/5/4 166/5/4 170/5/4
f 169/4/4 165/4/4 170/4/4
f 166/4/4 167/4/4 171/4/4
f 170/5/4 166/5/4 171/5/4
f 171/4/4 167/4/4 172/4/4
f 172/4/4 167/4/4 173/4/4
f 169/4/4 170/4/4 174/4/4
f 168/4/4 169/4/4 174/4/4
f 162/4/4 168/4/4 174/4/4
f 170/4/4 171/4/4 174/4/4
f 174/4/4 171/4/4 175/4/4
f 175/4/4 171/4/4 176/4/4
f 171/5/4 172/5/4 177/5/4
f 176/4/4 171/4/4 177/4/4
f 172/1/4 173/1/4 178/1/4
f 177/5/4 172/5/4 178/5/4
f 173/4/4 167/4/4 179/4/4
f 178/1/4 173/1/4 179/1/4
f 177/5/4 178/5/4 180/5/4
f 178/5/4 179/5/4 180/5/4
f 180/5/4 179/5/4 181/5/4
f 179/4/4 167/4/4 182/4/4
f 181/5/4 179/5/4 182/5/4
f 175/3/4 176/3/4 183/3/4
f 183/3/4 176/3/4 184/3/4
f 175/3/4 183/3/4 185/3/4
f 181/4/4 182/4/4 188/4/4
f 182/4/4 167/4/4 189/4/4
f 188/4/4 182/4/4 189/4/4
f 175/3/4 185/3/4 191/3/4
f 185/3/4 186/3/4 191/3/4
f 191/3/4 186/3/4 192/3/4
f 187/5/4 188/5/4 193/5/4
f 188/5/4 189/5/4 193/5/4
f 193/5/4 189/5/4 194/5/4
f 189/4/4 167/4/4 195/4/4
f 194/5/4 189/5/4 195/5/4
f 191/4/4 192/4/4 196/4/4
f 190/4/4 191/4/4 196/4/4
f 192/4/4 193/4/4 196/4/4
f 196/4/4 193/4/4 197/4/4
f 197/4/4 193/4/4 198/4/4
f 193/5/4 194/5/4 199/5/4
f 198/4/4 193/4/4 199/4/4
f 194/1/4 195/1/4 200/1/4
f 199/5/4 194/5/4 200/5/4
f 195/4/4 167/4/4 201/4/4
f 200/1/4 195/1/4 201/1/4
f 190/4/4 196/4/4 202/4/4
f 196/5/4 197/5/4 203/5/4
f 202/4/4 196/4/4 203/4/4
f 197/4/4 198/4/4 204/4/4
f 203/5/4 197/5/4 204/5/4
f 198/5/4 199/5/4 205/5/4
f 204/4/4 198/4/4 205/4/4
f 199/4/4 200/4/4 206/4/4
f 205/5/4 199/5/4 206/5/4
f 200/4/4 201/4/4 206/4/4
f 201/4/4 167/4/4 207/4/4
f 206/4/4 201/4/4 207/4/4
f 208/4/4 209/4/4 210/4/4
f 208/4/4 210/4/4 213/4/4
f 213/4/4 210/4/4 214/4/4
f 210/5/4 211/5/4 215/5/4
f 214/4/4 210/4/4 215/4/4
f 213/1/4 214/1/4 216/1/4
f 212/1/4 213/1/4 216/1/4
f 216/1/4 214/1/4 217/1/4
f 214/5/4 215/5/4 218/5/4
f 217/1/4 214/1/4 218/1/4
f 215/5/4 211/5/4 219/5/4
f 218/5/4 215/5/4 219/5/4
f 217/4/4 218/4/4 220/4/4
f 219/5/4 211/5/4 220/5/4
f 218/4/4 219/4/4 220/4/4
f 220/5/4 211/5/4 221/5/4
f 217/4/4 220/4/4 222/4/4
f 222/4/4 220/4/4 223/4/4
f 228/4/5 225/4/5 224/4/5
f 229/4/5 225/4/5 228/4/5
f 230/4/5 227/4/5 226/4/5
f 231/4/5 227/4/5 230/4/5
f 236/4/5 233/4/5 232/4/5
f 237/4/5 233/4/5 236/4/5
f 238/4/5 235/4/5 234/4/5
f 239/4/5 235/4/5 238/4/5
f 243/3/5 241/3/5 240/3/5
f 244/3/5 241/3/5 243/3/5
f 246/4/5 243/4/5 242/4/5
f 247/3/5 244/3/5 243/3/5
f 247/4/5 243/4/5 246/4/5
f 248/4/5 245/4/5 244/4/5
f 248/3/5 244/3/5 247/3/5
f 249/4/5 245/4/5 248/4/5
f 250/3/5 248/3/5 247/3/5
f 251/3/5 248/3/5 250/3/5
f 254/1/5 253/1/5 252/1/5
f 255/1/5 253/1/5 254/1/5
f 258/4/5 257/4/5 256/4/5
f 259/4/5 257/4/5 258/4/5
f 260/4/5 257/4/5 259/4/5
f 265/4/5 262/4/5 261/4/5
f 266/4/5 262/4/5 265/4/5
f 267/4/5 264/4/5 263/4/5
f 268/4/5 264/4/5 267/4/5
f 271/4/5 270/4/5 269/4/5
f 272/4/5 270/4/5 271/4/5
f 273/4/6 274/4/6 275/4/6
f 275/4/6 274/4/6 276/4/6
f 277/4/6 278/4/6 281/4/6
f 281/4/6 278/4/6 282/4/6
f 279/4/6 280/4/6 283/4/6
f 283/4/6 280/4/6 284/4/6
f 285/5/6 286/5/6 287/5/6
f 287/5/6 286/5/6 288/5/6
f 289/4/6 290/4/6 291/4/6
f 291/4/6 290/4/6 292/4/6
f 292/4/6 290/4/6 293/4/6
f 293/4/6 290/4/6 294/4/6
f 289/4/6 291/4/6 295/4/6
f 292/4/6 293/4/6 296/4/6
f 296/4/6 293/4/6 297/4/6
f 294/4/6 290/4/6 298/4/6
f 296/4/6 297/4/6 299/4/6
f 297/4/6 298/4/6 299/4/6
f 289/4/6 295/4/6 299/4/6
f 295/4/6 296/4/6 299/4/6
f 298/4/6 290/4/6 300/4/6
f 299/4/6 298/4/6 300/4/6
f 301/4/6 302/4/6 305/4/6
f 305/4/6 302/4/6 306/4/6
f 303/4/6 304/4/6 307/4/6
f 307/4/6 304/4/6 308/4/6
f 309/4/6 310/4/6 311/4/6
f 311/4/6 310/4/6 312/4/6
