# MagicaVoxel @ Ephtracy

# group
g animal-13

# material
mtllib animal-0.mtl
usemtl palette

# normals
vn -1 0 0
vn 1 0 0
vn 0 0 1
vn 0 0 -1
vn 0 -1 0
vn 0 1 0

# texcoords
vt 0.00195312 0.5
vt 0.0878906 0.5
vt 0.232422 0.5
vt 0.248047 0.5
vt 0.974609 0.5
vt 0.978516 0.5
vt 0.990234 0.5

# verts
v -3.5 0 0.5
v -3.5 0 -0.5
v -3.5 0 -1.5
v -3.5 0 -2.5
v -3.5 1 0.5
v -3.5 1 -0.5
v -3.5 1 -1.5
v -3.5 1 -2.5
v -3.5 4 2.5
v -3.5 4 -2.5
v -3.5 5 2.5
v -3.5 5 -2.5
v -3.5 6 2.5
v -3.5 6 -2.5
v -2.5 1 0.5
v -2.5 1 -0.5
v -2.5 2 0.5
v -2.5 2 -0.5
v -2.5 3 3.5
v -2.5 3 0.5
v -2.5 3 -0.5
v -2.5 3 -3.5
v -2.5 4 2.5
v -2.5 4 -2.5
v -2.5 5 2.5
v -2.5 5 -2.5
v -2.5 6 2.5
v -2.5 6 -2.5
v -2.5 7 3.5
v -2.5 7 0.5
v -2.5 7 -0.5
v -2.5 7 -2.5
v -2.5 8 -0.5
v -2.5 8 -2.5
v -2.5 9 -0.5
v -2.5 9 -1.5
v -2.5 10 -0.5
v -2.5 10 -1.5
v -2.5 10 -2.5
v -2.5 11 0.5
v -2.5 11 -3.5
v -1.5 0 0.5
v -1.5 0 -0.5
v -1.5 0 -1.5
v -1.5 0 -2.5
v -1.5 1 0.5
v -1.5 1 -0.5
v -1.5 1 -1.5
v -1.5 1 -2.5
v -1.5 3 4.5
v -1.5 3 3.5
v -1.5 7 4.5
v -1.5 7 3.5
v -0.5 4 5.5
v -0.5 4 4.5
v -0.5 6 -3.5
v -0.5 6 -4.5
v -0.5 7 5.5
v -0.5 7 4.5
v -0.5 7 -3.5
v -0.5 7 -4.5
v -0.5 7 -5.5
v -0.5 9 -3.5
v -0.5 9 -5.5
v -0.5 11 0.5
v -0.5 11 -3.5
v -0.5 12 0.5
v -0.5 12 -0.5
v -0.5 13 -0.5
v -0.5 13 -1.5
v -0.5 13 -2.5
v -0.5 13 -3.5
v -0.5 14 -1.5
v -0.5 14 -2.5
v 0.5 0 0.5
v 0.5 0 -0.5
v 0.5 0 -1.5
v 0.5 0 -2.5
v 0.5 1 0.5
v 0.5 1 -0.5
v 0.5 1 -1.5
v 0.5 1 -2.5
v 0.5 6 -0.5
v 0.5 6 -3.5
v 0.5 7 -3.5
v 0.5 8 -0.5
v 0.5 8 -3.5
v 1.5 1 0.5
v 1.5 1 -0.5
v 1.5 2 0.5
v 1.5 2 -0.5
v 1.5 3 0.5
v 1.5 3 -0.5
v 2.5 0 -1.5
v 2.5 0 -2.5
v 2.5 1 -1.5
v 2.5 1 -2.5
v -2.5 0 0.5
v -2.5 0 -0.5
v -2.5 0 -1.5
v -2.5 0 -2.5
v -2.5 1 0.5
v -2.5 1 -0.5
v -2.5 1 -1.5
v -2.5 1 -2.5
v -1.5 1 0.5
v -1.5 1 -0.5
v -1.5 2 0.5
v -1.5 2 -0.5
v -1.5 3 0.5
v -1.5 3 -0.5
v -0.5 0 0.5
v -0.5 0 -0.5
v -0.5 0 -1.5
v -0.5 0 -2.5
v -0.5 1 0.5
v -0.5 1 -0.5
v -0.5 1 -1.5
v -0.5 1 -2.5
v -0.5 6 -0.5
v -0.5 6 -3.5
v -0.5 7 -3.5
v -0.5 8 -0.5
v -0.5 8 -3.5
v 0.5 4 5.5
v 0.5 4 4.5
v 0.5 6 -3.5
v 0.5 6 -4.5
v 0.5 7 5.5
v 0.5 7 4.5
v 0.5 7 -3.5
v 0.5 7 -4.5
v 0.5 7 -5.5
v 0.5 9 -3.5
v 0.5 9 -5.5
v 0.5 11 0.5
v 0.5 11 -3.5
v 0.5 12 0.5
v 0.5 12 -0.5
v 0.5 13 -0.5
v 0.5 13 -1.5
v 0.5 13 -2.5
v 0.5 13 -3.5
v 0.5 14 -1.5
v 0.5 14 -2.5
v 1.5 0 -1.5
v 1.5 0 -2.5
v 1.5 1 -1.5
v 1.5 1 -2.5
v 1.5 3 4.5
v 1.5 3 3.5
v 1.5 7 4.5
v 1.5 7 3.5
v 2.5 1 0.5
v 2.5 1 -0.5
v 2.5 2 0.5
v 2.5 2 -0.5
v 2.5 3 3.5
v 2.5 3 0.5
v 2.5 3 -0.5
v 2.5 3 -3.5
v 2.5 4 2.5
v 2.5 4 -2.5
v 2.5 5 2.5
v 2.5 5 -2.5
v 2.5 6 2.5
v 2.5 6 -2.5
v 2.5 7 3.5
v 2.5 7 0.5
v 2.5 7 -0.5
v 2.5 7 -2.5
v 2.5 8 -0.5
v 2.5 8 -2.5
v 2.5 9 -0.5
v 2.5 9 -1.5
v 2.5 10 -0.5
v 2.5 10 -1.5
v 2.5 10 -2.5
v 2.5 11 0.5
v 2.5 11 -3.5
v 3.5 0 0.5
v 3.5 0 -2.5
v 3.5 1 0.5
v 3.5 1 -2.5
v 3.5 4 2.5
v 3.5 4 -2.5
v 3.5 5 2.5
v 3.5 5 -2.5
v 3.5 6 2.5
v 3.5 6 -2.5
v -0.5 4 5.5
v -0.5 7 5.5
v 0.5 4 5.5
v 0.5 7 5.5
v -1.5 3 4.5
v -1.5 7 4.5
v -0.5 4 4.5
v -0.5 7 4.5
v 0.5 4 4.5
v 0.5 7 4.5
v 1.5 3 4.5
v 1.5 7 4.5
v -2.5 3 3.5
v -2.5 7 3.5
v -1.5 3 3.5
v -1.5 7 3.5
v 1.5 3 3.5
v 1.5 7 3.5
v 2.5 3 3.5
v 2.5 7 3.5
v -3.5 4 2.5
v -3.5 5 2.5
v -3.5 6 2.5
v -2.5 4 2.5
v -2.5 5 2.5
v -2.5 6 2.5
v 2.5 4 2.5
v 2.5 5 2.5
v 2.5 6 2.5
v 3.5 4 2.5
v 3.5 5 2.5
v 3.5 6 2.5
v -3.5 0 0.5
v -3.5 1 0.5
v -2.5 0 0.5
v -2.5 1 0.5
v -2.5 2 0.5
v -2.5 3 0.5
v -2.5 7 0.5
v -2.5 11 0.5
v -1.5 0 0.5
v -1.5 1 0.5
v -1.5 2 0.5
v -1.5 3 0.5
v -0.5 0 0.5
v -0.5 1 0.5
v -0.5 11 0.5
v -0.5 12 0.5
v 0.5 0 0.5
v 0.5 1 0.5
v 0.5 11 0.5
v 0.5 12 0.5
v 1.5 1 0.5
v 1.5 2 0.5
v 1.5 3 0.5
v 2.5 1 0.5
v 2.5 2 0.5
v 2.5 3 0.5
v 2.5 7 0.5
v 2.5 11 0.5
v 3.5 0 0.5
v 3.5 1 0.5
v -2.5 0 -0.5
v -2.5 1 -0.5
v -1.5 0 -0.5
v -1.5 1 -0.5
v -0.5 12 -0.5
v -0.5 13 -0.5
v 0.5 12 -0.5
v 0.5 13 -0.5
v -0.5 13 -1.5
v -0.5 14 -1.5
v 0.5 13 -1.5
v 0.5 14 -1.5
v -0.5 6 -3.5
v -0.5 7 -3.5
v -0.5 8 -3.5
v 0.5 6 -3.5
v 0.5 7 -3.5
v 0.5 8 -3.5
v -2.5 1 -0.5
v -2.5 2 -0.5
v -2.5 3 -0.5
v -1.5 1 -0.5
v -1.5 2 -0.5
v -1.5 3 -0.5
v -0.5 6 -0.5
v -0.5 8 -0.5
v 0.5 6 -0.5
v 0.5 8 -0.5
v 1.5 1 -0.5
v 1.5 2 -0.5
v 1.5 3 -0.5
v 2.5 1 -0.5
v 2.5 2 -0.5
v 2.5 3 -0.5
v -2.5 0 -1.5
v -2.5 1 -1.5
v -1.5 0 -1.5
v -1.5 1 -1.5
v 1.5 0 -1.5
v 1.5 1 -1.5
v 2.5 0 -1.5
v 2.5 1 -1.5
v -3.5 0 -2.5
v -3.5 1 -2.5
v -3.5 4 -2.5
v -3.5 5 -2.5
v -3.5 6 -2.5
v -2.5 0 -2.5
v -2.5 1 -2.5
v -2.5 4 -2.5
v -2.5 5 -2.5
v -2.5 6 -2.5
v -1.5 0 -2.5
v -1.5 1 -2.5
v -0.5 0 -2.5
v -0.5 1 -2.5
v -0.5 13 -2.5
v -0.5 14 -2.5
v 0.5 0 -2.5
v 0.5 1 -2.5
v 0.5 13 -2.5
v 0.5 14 -2.5
v 1.5 0 -2.5
v 1.5 1 -2.5
v 2.5 0 -2.5
v 2.5 1 -2.5
v 2.5 4 -2.5
v 2.5 5 -2.5
v 2.5 6 -2.5
v 3.5 0 -2.5
v 3.5 1 -2.5
v 3.5 4 -2.5
v 3.5 5 -2.5
v 3.5 6 -2.5
v -2.5 3 -3.5
v -2.5 11 -3.5
v -0.5 6 -3.5
v -0.5 7 -3.5
v -0.5 9 -3.5
v -0.5 11 -3.5
v -0.5 13 -3.5
v 0.5 6 -3.5
v 0.5 7 -3.5
v 0.5 9 -3.5
v 0.5 11 -3.5
v 0.5 13 -3.5
v 2.5 3 -3.5
v 2.5 11 -3.5
v -0.5 6 -4.5
v -0.5 7 -4.5
v 0.5 6 -4.5
v 0.5 7 -4.5
v -0.5 7 -5.5
v -0.5 9 -5.5
v 0.5 7 -5.5
v 0.5 9 -5.5
v -3.5 0 0.5
v -2.5 0 0.5
v -1.5 0 0.5
v -0.5 0 0.5
v 0.5 0 0.5
v 3.5 0 0.5
v -3.5 0 -0.5
v -2.5 0 -0.5
v -1.5 0 -0.5
v -0.5 0 -0.5
v 0.5 0 -0.5
v 1.5 0 -0.5
v -3.5 0 -1.5
v -2.5 0 -1.5
v -1.5 0 -1.5
v -0.5 0 -1.5
v 0.5 0 -1.5
v 1.5 0 -1.5
v 2.5 0 -1.5
v -3.5 0 -2.5
v -2.5 0 -2.5
v -1.5 0 -2.5
v -0.5 0 -2.5
v 0.5 0 -2.5
v 1.5 0 -2.5
v 2.5 0 -2.5
v 3.5 0 -2.5
v -2.5 1 0.5
v -1.5 1 0.5
v -2.5 1 -0.5
v -1.5 1 -0.5
v -1.5 3 4.5
v 1.5 3 4.5
v -2.5 3 3.5
v -1.5 3 3.5
v 1.5 3 3.5
v 2.5 3 3.5
v -2.5 3 0.5
v -1.5 3 0.5
v 1.5 3 0.5
v 2.5 3 0.5
v -2.5 3 -0.5
v -1.5 3 -0.5
v 1.5 3 -0.5
v 2.5 3 -0.5
v -2.5 3 -3.5
v 2.5 3 -3.5
v -0.5 4 5.5
v 0.5 4 5.5
v -0.5 4 4.5
v 0.5 4 4.5
v -3.5 4 2.5
v -2.5 4 2.5
v 2.5 4 2.5
v 3.5 4 2.5
v -3.5 4 -2.5
v -2.5 4 -2.5
v 2.5 4 -2.5
v 3.5 4 -2.5
v -0.5 6 -3.5
v 0.5 6 -3.5
v -0.5 6 -4.5
v 0.5 6 -4.5
v -0.5 7 -4.5
v 0.5 7 -4.5
v -0.5 7 -5.5
v 0.5 7 -5.5
v -0.5 8 -0.5
v 0.5 8 -0.5
v -0.5 8 -3.5
v 0.5 8 -3.5
v -3.5 1 0.5
v -2.5 1 0.5
v -1.5 1 0.5
v -0.5 1 0.5
v 0.5 1 0.5
v 1.5 1 0.5
v 2.5 1 0.5
v 3.5 1 0.5
v -3.5 1 -0.5
v -2.5 1 -0.5
v -1.5 1 -0.5
v -0.5 1 -0.5
v 0.5 1 -0.5
v 1.5 1 -0.5
v 2.5 1 -0.5
v -3.5 1 -1.5
v -2.5 1 -1.5
v -1.5 1 -1.5
v -0.5 1 -1.5
v 0.5 1 -1.5
v 1.5 1 -1.5
v 2.5 1 -1.5
v -3.5 1 -2.5
v -2.5 1 -2.5
v -1.5 1 -2.5
v -0.5 1 -2.5
v 0.5 1 -2.5
v 1.5 1 -2.5
v 2.5 1 -2.5
v 3.5 1 -2.5
v -3.5 6 2.5
v -2.5 6 2.5
v 2.5 6 2.5
v 3.5 6 2.5
v -0.5 6 -0.5
v 0.5 6 -0.5
v -3.5 6 -2.5
v -2.5 6 -2.5
v 2.5 6 -2.5
v 3.5 6 -2.5
v -0.5 6 -3.5
v 0.5 6 -3.5
v -0.5 7 5.5
v 0.5 7 5.5
v -1.5 7 4.5
v -0.5 7 4.5
v 0.5 7 4.5
v 1.5 7 4.5
v -2.5 7 3.5
v -1.5 7 3.5
v 1.5 7 3.5
v 2.5 7 3.5
v -2.5 7 0.5
v 2.5 7 0.5
v -0.5 9 -3.5
v 0.5 9 -3.5
v -0.5 9 -5.5
v 0.5 9 -5.5
v -2.5 11 0.5
v -0.5 11 0.5
v 0.5 11 0.5
v 2.5 11 0.5
v -2.5 11 -3.5
v -0.5 11 -3.5
v 0.5 11 -3.5
v 2.5 11 -3.5
v -0.5 12 0.5
v 0.5 12 0.5
v -0.5 12 -0.5
v 0.5 12 -0.5
v -0.5 13 -0.5
v 0.5 13 -0.5
v -0.5 13 -1.5
v 0.5 13 -1.5
v -0.5 13 -2.5
v 0.5 13 -2.5
v -0.5 13 -3.5
v 0.5 13 -3.5
v -0.5 14 -1.5
v 0.5 14 -1.5
v -0.5 14 -2.5
v 0.5 14 -2.5

# faces
f 5/2/1 2/2/1 1/2/1
f 6/3/1 3/3/1 2/3/1
f 6/2/1 2/2/1 5/2/1
f 7/2/1 4/2/1 3/2/1
f 7/3/1 3/3/1 6/3/1
f 8/2/1 4/2/1 7/2/1
f 11/6/1 10/6/1 9/6/1
f 12/6/1 10/6/1 11/6/1
f 13/5/1 12/5/1 11/5/1
f 14/5/1 12/5/1 13/5/1
f 17/3/1 16/3/1 15/3/1
f 18/3/1 16/3/1 17/3/1
f 20/2/1 18/2/1 17/2/1
f 21/2/1 18/2/1 20/2/1
f 23/6/1 21/6/1 20/6/1
f 23/6/1 22/6/1 21/6/1
f 23/6/1 20/6/1 19/6/1
f 24/6/1 22/6/1 23/6/1
f 25/6/1 23/6/1 19/6/1
f 26/6/1 22/6/1 24/6/1
f 27/6/1 25/6/1 19/6/1
f 28/6/1 22/6/1 26/6/1
f 29/6/1 27/6/1 19/6/1
f 29/6/1 28/6/1 27/6/1
f 30/6/1 28/6/1 29/6/1
f 31/6/1 28/6/1 30/6/1
f 32/6/1 22/6/1 28/6/1
f 32/6/1 28/6/1 31/6/1
f 33/6/1 31/6/1 30/6/1
f 33/5/1 32/5/1 31/5/1
f 34/6/1 22/6/1 32/6/1
f 34/5/1 32/5/1 33/5/1
f 35/6/1 33/6/1 30/6/1
f 35/7/1 34/7/1 33/7/1
f 36/7/1 34/7/1 35/7/1
f 37/6/1 35/6/1 30/6/1
f 37/1/1 36/1/1 35/1/1
f 38/7/1 34/7/1 36/7/1
f 38/1/1 36/1/1 37/1/1
f 39/6/1 22/6/1 34/6/1
f 39/7/1 34/7/1 38/7/1
f 40/6/1 38/6/1 37/6/1
f 40/6/1 37/6/1 30/6/1
f 40/6/1 39/6/1 38/6/1
f 41/6/1 22/6/1 39/6/1
f 41/6/1 39/6/1 40/6/1
f 46/2/1 43/2/1 42/2/1
f 47/2/1 43/2/1 46/2/1
f 48/2/1 45/2/1 44/2/1
f 49/2/1 45/2/1 48/2/1
f 52/6/1 51/6/1 50/6/1
f 53/6/1 51/6/1 52/6/1
f 58/6/1 55/6/1 54/6/1
f 59/6/1 55/6/1 58/6/1
f 60/4/1 57/4/1 56/4/1
f 61/4/1 57/4/1 60/4/1
f 63/2/1 62/2/1 61/2/1
f 63/2/1 61/2/1 60/2/1
f 64/2/1 62/2/1 63/2/1
f 67/4/1 66/4/1 65/4/1
f 68/4/1 66/4/1 67/4/1
f 69/4/1 66/4/1 68/4/1
f 70/4/1 66/4/1 69/4/1
f 71/4/1 66/4/1 70/4/1
f 72/4/1 66/4/1 71/4/1
f 73/4/1 71/4/1 70/4/1
f 74/4/1 71/4/1 73/4/1
f 79/2/1 76/2/1 75/2/1
f 80/3/1 77/3/1 76/3/1
f 80/2/1 76/2/1 79/2/1
f 81/2/1 78/2/1 77/2/1
f 81/3/1 77/3/1 80/3/1
f 82/2/1 78/2/1 81/2/1
f 85/6/1 84/6/1 83/6/1
f 86/6/1 85/6/1 83/6/1
f 87/6/1 85/6/1 86/6/1
f 90/3/1 89/3/1 88/3/1
f 91/3/1 89/3/1 90/3/1
f 92/2/1 91/2/1 90/2/1
f 93/2/1 91/2/1 92/2/1
f 96/2/1 95/2/1 94/2/1
f 97/2/1 95/2/1 96/2/1
f 98/2/2 99/2/2 102/2/2
f 102/2/2 99/2/2 103/2/2
f 100/2/2 101/2/2 104/2/2
f 104/2/2 101/2/2 105/2/2
f 106/3/2 107/3/2 108/3/2
f 108/3/2 107/3/2 109/3/2
f 108/2/2 109/2/2 110/2/2
f 110/2/2 109/2/2 111/2/2
f 112/2/2 113/2/2 116/2/2
f 113/3/2 114/3/2 117/3/2
f 116/2/2 113/2/2 117/2/2
f 114/2/2 115/2/2 118/2/2
f 117/3/2 114/3/2 118/3/2
f 118/2/2 115/2/2 119/2/2
f 120/6/2 121/6/2 122/6/2
f 120/6/2 122/6/2 123/6/2
f 123/6/2 122/6/2 124/6/2
f 125/6/2 126/6/2 129/6/2
f 129/6/2 126/6/2 130/6/2
f 127/4/2 128/4/2 131/4/2
f 131/4/2 128/4/2 132/4/2
f 132/2/2 133/2/2 134/2/2
f 131/2/2 132/2/2 134/2/2
f 134/2/2 133/2/2 135/2/2
f 136/4/2 137/4/2 138/4/2
f 138/4/2 137/4/2 139/4/2
f 139/4/2 137/4/2 140/4/2
f 140/4/2 137/4/2 141/4/2
f 141/4/2 137/4/2 142/4/2
f 142/4/2 137/4/2 143/4/2
f 141/4/2 142/4/2 144/4/2
f 144/4/2 142/4/2 145/4/2
f 146/2/2 147/2/2 148/2/2
f 148/2/2 147/2/2 149/2/2
f 150/6/2 151/6/2 152/6/2
f 152/6/2 151/6/2 153/6/2
f 154/3/2 155/3/2 156/3/2
f 156/3/2 155/3/2 157/3/2
f 156/2/2 157/2/2 159/2/2
f 159/2/2 157/2/2 160/2/2
f 159/6/2 160/6/2 162/6/2
f 160/6/2 161/6/2 162/6/2
f 158/6/2 159/6/2 162/6/2
f 162/6/2 161/6/2 163/6/2
f 158/6/2 162/6/2 164/6/2
f 163/6/2 161/6/2 165/6/2
f 158/6/2 164/6/2 166/6/2
f 165/6/2 161/6/2 167/6/2
f 158/6/2 166/6/2 168/6/2
f 166/6/2 167/6/2 168/6/2
f 168/6/2 167/6/2 169/6/2
f 169/6/2 167/6/2 170/6/2
f 167/6/2 161/6/2 171/6/2
f 170/6/2 167/6/2 171/6/2
f 169/6/2 170/6/2 172/6/2
f 170/5/2 171/5/2 172/5/2
f 171/6/2 161/6/2 173/6/2
f 172/5/2 171/5/2 173/5/2
f 169/6/2 172/6/2 174/6/2
f 172/7/2 173/7/2 174/7/2
f 174/7/2 173/7/2 175/7/2
f 169/6/2 174/6/2 176/6/2
f 174/1/2 175/1/2 176/1/2
f 175/7/2 173/7/2 177/7/2
f 176/1/2 175/1/2 177/1/2
f 173/6/2 161/6/2 178/6/2
f 177/7/2 173/7/2 178/7/2
f 176/6/2 177/6/2 179/6/2
f 169/6/2 176/6/2 179/6/2
f 177/6/2 178/6/2 179/6/2
f 178/6/2 161/6/2 180/6/2
f 179/6/2 178/6/2 180/6/2
f 181/2/2 182/2/2 183/2/2
f 183/2/2 182/2/2 184/2/2
f 185/6/2 186/6/2 187/6/2
f 187/6/2 186/6/2 188/6/2
f 187/5/2 188/5/2 189/5/2
f 189/5/2 188/5/2 190/5/2
f 193/6/3 192/6/3 191/6/3
f 194/6/3 192/6/3 193/6/3
f 197/6/3 196/6/3 195/6/3
f 198/6/3 196/6/3 197/6/3
f 199/6/3 197/6/3 195/6/3
f 201/6/3 199/6/3 195/6/3
f 201/6/3 200/6/3 199/6/3
f 202/6/3 200/6/3 201/6/3
f 205/6/3 204/6/3 203/6/3
f 206/6/3 204/6/3 205/6/3
f 209/6/3 208/6/3 207/6/3
f 210/6/3 208/6/3 209/6/3
f 214/6/3 212/6/3 211/6/3
f 215/5/3 213/5/3 212/5/3
f 215/6/3 212/6/3 214/6/3
f 216/5/3 213/5/3 215/5/3
f 220/6/3 218/6/3 217/6/3
f 221/5/3 219/5/3 218/5/3
f 221/6/3 218/6/3 220/6/3
f 222/5/3 219/5/3 221/5/3
f 225/2/3 224/2/3 223/2/3
f 226/2/3 224/2/3 225/2/3
f 232/3/3 227/3/3 226/3/3
f 233/2/3 228/2/3 227/2/3
f 233/3/3 227/3/3 232/3/3
f 234/2/3 228/2/3 233/2/3
f 235/2/3 232/2/3 231/2/3
f 236/2/3 232/2/3 235/2/3
f 237/6/3 230/6/3 229/6/3
f 241/4/3 238/4/3 237/4/3
f 241/6/3 237/6/3 229/6/3
f 242/4/3 238/4/3 241/4/3
f 243/2/3 240/2/3 239/2/3
f 246/2/3 243/2/3 239/2/3
f 246/3/3 244/3/3 243/3/3
f 247/2/3 245/2/3 244/2/3
f 247/3/3 244/3/3 246/3/3
f 248/2/3 245/2/3 247/2/3
f 249/6/3 241/6/3 229/6/3
f 250/6/3 241/6/3 249/6/3
f 251/2/3 246/2/3 239/2/3
f 252/2/3 246/2/3 251/2/3
f 255/2/3 254/2/3 253/2/3
f 256/2/3 254/2/3 255/2/3
f 259/4/3 258/4/3 257/4/3
f 260/4/3 258/4/3 259/4/3
f 263/4/3 262/4/3 261/4/3
f 264/4/3 262/4/3 263/4/3
f 268/4/3 266/4/3 265/4/3
f 269/2/3 267/2/3 266/2/3
f 269/4/3 266/4/3 268/4/3
f 270/2/3 267/2/3 269/2/3
f 271/3/4 272/3/4 274/3/4
f 272/2/4 273/2/4 275/2/4
f 274/3/4 272/3/4 275/3/4
f 275/2/4 273/2/4 276/2/4
f 277/6/4 278/6/4 279/6/4
f 279/6/4 278/6/4 280/6/4
f 281/3/4 282/3/4 284/3/4
f 282/2/4 283/2/4 285/2/4
f 284/3/4 282/3/4 285/3/4
f 285/2/4 283/2/4 286/2/4
f 287/2/4 288/2/4 289/2/4
f 289/2/4 288/2/4 290/2/4
f 291/2/4 292/2/4 293/2/4
f 293/2/4 292/2/4 294/2/4
f 295/2/4 296/2/4 300/2/4
f 300/2/4 296/2/4 301/2/4
f 297/6/4 298/6/4 302/6/4
f 298/5/4 299/5/4 303/5/4
f 302/6/4 298/6/4 303/6/4
f 303/5/4 299/5/4 304/5/4
f 305/2/4 306/2/4 307/2/4
f 307/2/4 306/2/4 308/2/4
f 309/4/4 310/4/4 313/4/4
f 313/4/4 310/4/4 314/4/4
f 311/2/4 312/2/4 315/2/4
f 315/2/4 312/2/4 316/2/4
f 317/2/4 318/2/4 322/2/4
f 322/2/4 318/2/4 323/2/4
f 319/6/4 320/6/4 324/6/4
f 320/5/4 321/5/4 325/5/4
f 324/6/4 320/6/4 325/6/4
f 325/5/4 321/5/4 326/5/4
f 327/6/4 328/6/4 329/6/4
f 329/6/4 328/6/4 330/6/4
f 330/6/4 328/6/4 331/6/4
f 331/6/4 328/6/4 332/6/4
f 327/6/4 329/6/4 334/6/4
f 331/6/4 332/6/4 336/6/4
f 332/4/4 333/4/4 337/4/4
f 336/6/4 332/6/4 337/6/4
f 337/4/4 333/4/4 338/4/4
f 335/6/4 336/6/4 339/6/4
f 334/6/4 335/6/4 339/6/4
f 336/6/4 337/6/4 339/6/4
f 327/6/4 334/6/4 339/6/4
f 339/6/4 337/6/4 340/6/4
f 341/4/4 342/4/4 343/4/4
f 343/4/4 342/4/4 344/4/4
f 345/2/4 346/2/4 347/2/4
f 347/2/4 346/2/4 348/2/4
f 355/2/5 350/2/5 349/2/5
f 356/2/5 350/2/5 355/2/5
f 357/2/5 352/2/5 351/2/5
f 358/2/5 352/2/5 357/2/5
f 359/2/5 354/2/5 353/2/5
f 360/2/5 354/2/5 359/2/5
f 361/3/5 356/3/5 355/3/5
f 362/2/5 357/2/5 356/2/5
f 362/3/5 356/3/5 361/3/5
f 363/3/5 358/3/5 357/3/5
f 363/2/5 357/2/5 362/2/5
f 364/3/5 358/3/5 363/3/5
f 365/3/5 360/3/5 359/3/5
f 366/2/5 354/2/5 360/2/5
f 366/3/5 360/3/5 365/3/5
f 367/2/5 354/2/5 366/2/5
f 368/2/5 362/2/5 361/2/5
f 369/2/5 362/2/5 368/2/5
f 370/2/5 364/2/5 363/2/5
f 371/2/5 364/2/5 370/2/5
f 372/2/5 366/2/5 365/2/5
f 373/2/5 366/2/5 372/2/5
f 374/2/5 354/2/5 367/2/5
f 375/2/5 354/2/5 374/2/5
f 378/3/5 377/3/5 376/3/5
f 379/3/5 377/3/5 378/3/5
f 383/6/5 381/6/5 380/6/5
f 384/6/5 381/6/5 383/6/5
f 386/6/5 383/6/5 382/6/5
f 386/6/5 385/6/5 384/6/5
f 386/6/5 384/6/5 383/6/5
f 387/6/5 385/6/5 386/6/5
f 388/6/5 385/6/5 387/6/5
f 389/6/5 385/6/5 388/6/5
f 391/6/5 388/6/5 387/6/5
f 392/6/5 388/6/5 391/6/5
f 394/6/5 391/6/5 390/6/5
f 394/6/5 393/6/5 392/6/5
f 394/6/5 392/6/5 391/6/5
f 395/6/5 393/6/5 394/6/5
f 398/6/5 397/6/5 396/6/5
f 399/6/5 397/6/5 398/6/5
f 404/6/5 401/6/5 400/6/5
f 405/6/5 401/6/5 404/6/5
f 406/6/5 403/6/5 402/6/5
f 407/6/5 403/6/5 406/6/5
f 410/4/5 409/4/5 408/4/5
f 411/4/5 409/4/5 410/4/5
f 414/2/5 413/2/5 412/2/5
f 415/2/5 413/2/5 414/2/5
f 418/2/5 417/2/5 416/2/5
f 419/2/5 417/2/5 418/2/5
f 420/2/6 421/2/6 428/2/6
f 428/2/6 421/2/6 429/2/6
f 422/2/6 423/2/6 430/2/6
f 430/2/6 423/2/6 431/2/6
f 424/2/6 425/2/6 432/2/6
f 432/2/6 425/2/6 433/2/6
f 426/2/6 427/2/6 434/2/6
f 428/3/6 429/3/6 435/3/6
f 429/2/6 430/2/6 436/2/6
f 435/3/6 429/3/6 436/3/6
f 430/3/6 431/3/6 437/3/6
f 436/2/6 430/2/6 437/2/6
f 437/3/6 431/3/6 438/3/6
f 432/3/6 433/3/6 439/3/6
f 433/2/6 434/2/6 440/2/6
f 439/3/6 433/3/6 440/3/6
f 434/2/6 427/2/6 441/2/6
f 440/2/6 434/2/6 441/2/6
f 435/2/6 436/2/6 442/2/6
f 442/2/6 436/2/6 443/2/6
f 437/2/6 438/2/6 444/2/6
f 444/2/6 438/2/6 445/2/6
f 439/2/6 440/2/6 446/2/6
f 446/2/6 440/2/6 447/2/6
f 441/2/6 427/2/6 448/2/6
f 448/2/6 427/2/6 449/2/6
f 450/5/6 451/5/6 456/5/6
f 456/5/6 451/5/6 457/5/6
f 452/5/6 453/5/6 458/5/6
f 458/5/6 453/5/6 459/5/6
f 454/6/6 455/6/6 460/6/6
f 460/6/6 455/6/6 461/6/6
f 462/6/6 463/6/6 465/6/6
f 465/6/6 463/6/6 466/6/6
f 464/6/6 465/6/6 469/6/6
f 466/6/6 467/6/6 469/6/6
f 465/6/6 466/6/6 469/6/6
f 469/6/6 467/6/6 470/6/6
f 468/6/6 469/6/6 472/6/6
f 470/6/6 471/6/6 472/6/6
f 469/6/6 470/6/6 472/6/6
f 472/6/6 471/6/6 473/6/6
f 474/2/6 475/2/6 476/2/6
f 476/2/6 475/2/6 477/2/6
f 478/6/6 479/6/6 482/6/6
f 482/6/6 479/6/6 483/6/6
f 480/6/6 481/6/6 484/6/6
f 484/6/6 481/6/6 485/6/6
f 486/4/6 487/4/6 488/4/6
f 488/4/6 487/4/6 489/4/6
f 490/4/6 491/4/6 492/4/6
f 492/4/6 491/4/6 493/4/6
f 494/4/6 495/4/6 496/4/6
f 496/4/6 495/4/6 497/4/6
f 498/4/6 499/4/6 500/4/6
f 500/4/6 499/4/6 501/4/6
