# MagicaVoxel @ Ephtracy

# group
g animal-38

# material
mtllib animal-0.mtl
usemtl palette

# normals
vn -1 0 0
vn 1 0 0
vn 0 0 1
vn 0 0 -1
vn 0 -1 0
vn 0 1 0

# texcoords
vt 0.00195312 0.5
vt 0.966797 0.5
vt 0.978516 0.5
vt 0.994141 0.5

# verts
v -4.5 0 5
v -4.5 0 3
v -4.5 0 -3
v -4.5 0 -5
v -4.5 1 5
v -4.5 1 3
v -4.5 1 -3
v -4.5 1 -5
v -4.5 2 3
v -4.5 2 -3
v -4.5 4 -1
v -4.5 4 -3
v -4.5 5 2
v -4.5 5 -0
v -4.5 6 -0
v -4.5 6 -1
v -4.5 6 -3
v -4.5 7 3
v -4.5 7 2
v -4.5 8 3
v -4.5 8 -1
v -4.5 10 5
v -4.5 10 -5
v -3.5 10 -3
v -3.5 10 -4
v -3.5 12 -3
v -3.5 12 -4
v -2.5 5 -5
v -2.5 5 -7
v -2.5 7 -5
v -2.5 7 -7
v -0.5 5 7
v -0.5 5 5
v -0.5 6 6
v -0.5 6 5
v -0.5 7 7
v -0.5 7 6
v 0.5 10 -3
v 0.5 10 -4
v 0.5 12 -3
v 0.5 12 -4
v 2.5 0 5
v 2.5 0 3
v 2.5 0 -3
v 2.5 0 -5
v 2.5 1 5
v 2.5 1 3
v 2.5 1 -3
v 2.5 1 -5
v 2.5 2 5
v 2.5 2 3
v 2.5 2 -3
v 2.5 2 -5
v -2.5 0 5
v -2.5 0 3
v -2.5 0 -3
v -2.5 0 -5
v -2.5 1 5
v -2.5 1 3
v -2.5 1 -3
v -2.5 1 -5
v -2.5 2 5
v -2.5 2 3
v -2.5 2 -3
v -2.5 2 -5
v -0.5 10 -3
v -0.5 10 -4
v -0.5 12 -3
v -0.5 12 -4
v 0.5 5 7
v 0.5 5 5
v 0.5 6 6
v 0.5 6 5
v 0.5 7 7
v 0.5 7 6
v 2.5 5 -5
v 2.5 5 -7
v 2.5 7 -5
v 2.5 7 -7
v 3.5 10 -3
v 3.5 10 -4
v 3.5 12 -3
v 3.5 12 -4
v 4.5 0 5
v 4.5 0 3
v 4.5 0 -3
v 4.5 0 -5
v 4.5 1 5
v 4.5 1 3
v 4.5 1 -3
v 4.5 1 -5
v 4.5 2 3
v 4.5 2 -3
v 4.5 3 3
v 4.5 3 1
v 4.5 4 4
v 4.5 4 3
v 4.5 4 1
v 4.5 4 -0
v 4.5 5 5
v 4.5 5 4
v 4.5 5 -0
v 4.5 5 -1
v 4.5 7 5
v 4.5 7 4
v 4.5 7 -0
v 4.5 7 -1
v 4.5 8 4
v 4.5 8 3
v 4.5 8 1
v 4.5 8 -0
v 4.5 9 3
v 4.5 9 1
v 4.5 10 5
v 4.5 10 -5
v -0.5 5 7
v -0.5 7 7
v 0.5 5 7
v 0.5 7 7
v -4.5 0 5
v -4.5 1 5
v -4.5 10 5
v -2.5 0 5
v -2.5 1 5
v -2.5 2 5
v -0.5 5 5
v -0.5 6 5
v 0.5 5 5
v 0.5 6 5
v 2.5 0 5
v 2.5 1 5
v 2.5 2 5
v 3.5 5 5
v 3.5 7 5
v 4.5 0 5
v 4.5 1 5
v 4.5 5 5
v 4.5 7 5
v 4.5 10 5
v -4.5 0 -3
v -4.5 1 -3
v -4.5 2 -3
v -3.5 10 -3
v -3.5 12 -3
v -2.5 0 -3
v -2.5 1 -3
v -2.5 2 -3
v -2.5 10 -3
v -2.5 11 -3
v -1.5 10 -3
v -1.5 11 -3
v -0.5 10 -3
v -0.5 12 -3
v 0.5 10 -3
v 0.5 12 -3
v 1.5 10 -3
v 1.5 11 -3
v 2.5 0 -3
v 2.5 1 -3
v 2.5 2 -3
v 2.5 10 -3
v 2.5 11 -3
v 3.5 10 -3
v 3.5 12 -3
v 4.5 0 -3
v 4.5 1 -3
v 4.5 2 -3
v -0.5 6 6
v -0.5 7 6
v 0.5 6 6
v 0.5 7 6
v -4.5 0 3
v -4.5 1 3
v -4.5 2 3
v -2.5 0 3
v -2.5 1 3
v -2.5 2 3
v 2.5 0 3
v 2.5 1 3
v 2.5 2 3
v 4.5 0 3
v 4.5 1 3
v 4.5 2 3
v -3.5 10 -4
v -3.5 12 -4
v -2.5 10 -4
v -2.5 11 -4
v -1.5 10 -4
v -1.5 11 -4
v -0.5 10 -4
v -0.5 12 -4
v 0.5 10 -4
v 0.5 12 -4
v 1.5 10 -4
v 1.5 11 -4
v 2.5 10 -4
v 2.5 11 -4
v 3.5 10 -4
v 3.5 12 -4
v -4.5 0 -5
v -4.5 1 -5
v -4.5 10 -5
v -3.5 7 -5
v -3.5 9 -5
v -2.5 0 -5
v -2.5 1 -5
v -2.5 2 -5
v -2.5 5 -5
v -2.5 7 -5
v -2.5 8 -5
v -2.5 9 -5
v -1.5 7 -5
v -1.5 8 -5
v -1.5 9 -5
v 1.5 7 -5
v 1.5 9 -5
v 2.5 0 -5
v 2.5 1 -5
v 2.5 2 -5
v 2.5 5 -5
v 2.5 7 -5
v 2.5 8 -5
v 2.5 9 -5
v 3.5 7 -5
v 3.5 8 -5
v 3.5 9 -5
v 4.5 0 -5
v 4.5 1 -5
v 4.5 10 -5
v -2.5 5 -7
v -2.5 7 -7
v -1.5 5 -7
v -1.5 7 -7
v -0.5 5 -7
v -0.5 7 -7
v 0.5 5 -7
v 0.5 7 -7
v 1.5 5 -7
v 1.5 7 -7
v 2.5 5 -7
v 2.5 7 -7
v -4.5 0 5
v -2.5 0 5
v 2.5 0 5
v 4.5 0 5
v -4.5 0 3
v -2.5 0 3
v 2.5 0 3
v 4.5 0 3
v -4.5 0 -3
v -2.5 0 -3
v 2.5 0 -3
v 4.5 0 -3
v -4.5 0 -5
v -2.5 0 -5
v 2.5 0 -5
v 4.5 0 -5
v -2.5 2 5
v 2.5 2 5
v -4.5 2 3
v -2.5 2 3
v 2.5 2 3
v 4.5 2 3
v -4.5 2 -3
v -2.5 2 -3
v 2.5 2 -3
v 4.5 2 -3
v -2.5 2 -5
v 2.5 2 -5
v -0.5 5 7
v 0.5 5 7
v -0.5 5 5
v 0.5 5 5
v -2.5 5 -5
v 2.5 5 -5
v -1.5 5 -6
v -0.5 5 -6
v 0.5 5 -6
v 1.5 5 -6
v -2.5 5 -7
v -1.5 5 -7
v -0.5 5 -7
v 0.5 5 -7
v 1.5 5 -7
v 2.5 5 -7
v -0.5 6 6
v 0.5 6 6
v -0.5 6 5
v 0.5 6 5
v -0.5 7 7
v 0.5 7 7
v -0.5 7 6
v 0.5 7 6
v -2.5 7 -5
v -1.5 7 -5
v 1.5 7 -5
v 2.5 7 -5
v -1.5 7 -6
v -0.5 7 -6
v 0.5 7 -6
v 1.5 7 -6
v -2.5 7 -7
v -1.5 7 -7
v -0.5 7 -7
v 0.5 7 -7
v 1.5 7 -7
v 2.5 7 -7
v -4.5 10 5
v 4.5 10 5
v -0.5 10 3
v 3.5 10 3
v 2.5 10 2
v 3.5 10 2
v -1.5 10 1
v -0.5 10 1
v 1.5 10 1
v 2.5 10 1
v -2.5 10 -0
v -1.5 10 -0
v 0.5 10 -0
v 1.5 10 -0
v -2.5 10 -2
v 0.5 10 -2
v -3.5 10 -3
v -2.5 10 -3
v -1.5 10 -3
v -0.5 10 -3
v 0.5 10 -3
v 1.5 10 -3
v 2.5 10 -3
v 3.5 10 -3
v -3.5 10 -4
v -2.5 10 -4
v -1.5 10 -4
v -0.5 10 -4
v 0.5 10 -4
v 1.5 10 -4
v 2.5 10 -4
v 3.5 10 -4
v -4.5 10 -5
v 4.5 10 -5
v -3.5 12 -3
v -0.5 12 -3
v 0.5 12 -3
v 3.5 12 -3
v -3.5 12 -4
v -0.5 12 -4
v 0.5 12 -4
v 3.5 12 -4

# faces
f 5/3/1 2/3/1 1/3/1
f 6/3/1 2/3/1 5/3/1
f 7/3/1 4/3/1 3/3/1
f 8/3/1 4/3/1 7/3/1
f 9/2/1 6/2/1 5/2/1
f 10/2/1 8/2/1 7/2/1
f 11/2/1 10/2/1 9/2/1
f 12/2/1 8/2/1 10/2/1
f 12/2/1 10/2/1 11/2/1
f 13/2/1 11/2/1 9/2/1
f 14/2/1 11/2/1 13/2/1
f 15/3/1 14/3/1 13/3/1
f 15/2/1 11/2/1 14/2/1
f 16/3/1 12/3/1 11/3/1
f 16/2/1 11/2/1 15/2/1
f 17/2/1 8/2/1 12/2/1
f 17/3/1 12/3/1 16/3/1
f 18/2/1 9/2/1 5/2/1
f 18/2/1 13/2/1 9/2/1
f 19/3/1 16/3/1 15/3/1
f 19/2/1 13/2/1 18/2/1
f 19/3/1 15/3/1 13/3/1
f 20/2/1 18/2/1 5/2/1
f 20/3/1 19/3/1 18/3/1
f 21/3/1 16/3/1 19/3/1
f 21/3/1 19/3/1 20/3/1
f 21/2/1 17/2/1 16/2/1
f 22/2/1 20/2/1 5/2/1
f 22/2/1 21/2/1 20/2/1
f 23/2/1 8/2/1 17/2/1
f 23/2/1 21/2/1 22/2/1
f 23/2/1 17/2/1 21/2/1
f 26/2/1 25/2/1 24/2/1
f 27/2/1 25/2/1 26/2/1
f 30/2/1 29/2/1 28/2/1
f 31/2/1 29/2/1 30/2/1
f 34/3/1 33/3/1 32/3/1
f 35/3/1 33/3/1 34/3/1
f 36/3/1 34/3/1 32/3/1
f 37/3/1 34/3/1 36/3/1
f 40/2/1 39/2/1 38/2/1
f 41/2/1 39/2/1 40/2/1
f 46/3/1 43/3/1 42/3/1
f 47/3/1 43/3/1 46/3/1
f 48/3/1 45/3/1 44/3/1
f 49/3/1 45/3/1 48/3/1
f 50/2/1 47/2/1 46/2/1
f 51/2/1 47/2/1 50/2/1
f 52/2/1 49/2/1 48/2/1
f 53/2/1 49/2/1 52/2/1
f 54/3/2 55/3/2 58/3/2
f 58/3/2 55/3/2 59/3/2
f 56/3/2 57/3/2 60/3/2
f 60/3/2 57/3/2 61/3/2
f 58/2/2 59/2/2 62/2/2
f 62/2/2 59/2/2 63/2/2
f 60/2/2 61/2/2 64/2/2
f 64/2/2 61/2/2 65/2/2
f 66/2/2 67/2/2 68/2/2
f 68/2/2 67/2/2 69/2/2
f 70/3/2 71/3/2 72/3/2
f 72/3/2 71/3/2 73/3/2
f 70/3/2 72/3/2 74/3/2
f 74/3/2 72/3/2 75/3/2
f 76/2/2 77/2/2 78/2/2
f 78/2/2 77/2/2 79/2/2
f 80/2/2 81/2/2 82/2/2
f 82/2/2 81/2/2 83/2/2
f 84/3/2 85/3/2 88/3/2
f 88/3/2 85/3/2 89/3/2
f 86/3/2 87/3/2 90/3/2
f 90/3/2 87/3/2 91/3/2
f 88/2/2 89/2/2 92/2/2
f 90/2/2 91/2/2 93/2/2
f 88/2/2 92/2/2 94/2/2
f 92/2/2 93/2/2 94/2/2
f 94/2/2 93/2/2 95/2/2
f 88/2/2 94/2/2 96/2/2
f 94/3/2 95/3/2 97/3/2
f 96/2/2 94/2/2 97/2/2
f 95/2/2 93/2/2 98/2/2
f 97/3/2 95/3/2 98/3/2
f 98/2/2 93/2/2 99/2/2
f 88/2/2 96/2/2 100/2/2
f 96/3/2 97/3/2 101/3/2
f 100/2/2 96/2/2 101/2/2
f 97/3/2 98/3/2 101/3/2
f 98/3/2 99/3/2 101/3/2
f 99/2/2 93/2/2 102/2/2
f 101/3/2 99/3/2 102/3/2
f 102/2/2 93/2/2 103/2/2
f 100/3/2 101/3/2 104/3/2
f 101/3/2 102/3/2 104/3/2
f 102/3/2 103/3/2 104/3/2
f 104/3/2 103/3/2 105/3/2
f 105/3/2 103/3/2 106/3/2
f 103/2/2 93/2/2 107/2/2
f 106/3/2 103/3/2 107/3/2
f 105/3/2 106/3/2 108/3/2
f 104/2/2 105/2/2 108/2/2
f 108/3/2 106/3/2 109/3/2
f 109/3/2 106/3/2 110/3/2
f 106/2/2 107/2/2 111/2/2
f 110/3/2 106/3/2 111/3/2
f 109/3/2 110/3/2 112/3/2
f 108/2/2 109/2/2 112/2/2
f 110/2/2 111/2/2 113/2/2
f 112/3/2 110/3/2 113/3/2
f 104/2/2 108/2/2 114/2/2
f 108/2/2 112/2/2 114/2/2
f 112/2/2 113/2/2 114/2/2
f 93/2/2 91/2/2 115/2/2
f 114/2/2 113/2/2 115/2/2
f 107/2/2 93/2/2 115/2/2
f 113/2/2 111/2/2 115/2/2
f 111/2/2 107/2/2 115/2/2
f 118/3/3 117/3/3 116/3/3
f 119/3/3 117/3/3 118/3/3
f 123/3/3 121/3/3 120/3/3
f 124/2/3 122/2/3 121/2/3
f 124/3/3 121/3/3 123/3/3
f 125/2/3 122/2/3 124/2/3
f 126/2/3 122/2/3 125/2/3
f 127/2/3 122/2/3 126/2/3
f 128/2/3 126/2/3 125/2/3
f 129/2/3 122/2/3 127/2/3
f 132/2/3 128/2/3 125/2/3
f 132/2/3 129/2/3 128/2/3
f 133/2/3 129/2/3 132/2/3
f 133/2/3 132/2/3 131/2/3
f 134/2/3 122/2/3 129/2/3
f 134/2/3 129/2/3 133/2/3
f 135/3/3 131/3/3 130/3/3
f 136/2/3 133/2/3 131/2/3
f 136/3/3 131/3/3 135/3/3
f 137/3/3 134/3/3 133/3/3
f 137/2/3 133/2/3 136/2/3
f 138/2/3 122/2/3 134/2/3
f 138/3/3 134/3/3 137/3/3
f 139/2/3 122/2/3 138/2/3
f 145/3/3 141/3/3 140/3/3
f 146/2/3 142/2/3 141/2/3
f 146/3/3 141/3/3 145/3/3
f 147/2/3 142/2/3 146/2/3
f 148/2/3 144/2/3 143/2/3
f 149/2/3 144/2/3 148/2/3
f 150/3/3 149/3/3 148/3/3
f 151/2/3 144/2/3 149/2/3
f 151/3/3 149/3/3 150/3/3
f 152/2/3 151/2/3 150/2/3
f 153/2/3 144/2/3 151/2/3
f 153/2/3 151/2/3 152/2/3
f 156/2/3 155/2/3 154/2/3
f 157/2/3 155/2/3 156/2/3
f 161/3/3 157/3/3 156/3/3
f 162/2/3 155/2/3 157/2/3
f 162/3/3 157/3/3 161/3/3
f 163/2/3 162/2/3 161/2/3
f 164/2/3 155/2/3 162/2/3
f 164/2/3 162/2/3 163/2/3
f 165/3/3 159/3/3 158/3/3
f 166/2/3 160/2/3 159/2/3
f 166/3/3 159/3/3 165/3/3
f 167/2/3 160/2/3 166/2/3
f 168/3/4 169/3/4 170/3/4
f 170/3/4 169/3/4 171/3/4
f 172/3/4 173/3/4 175/3/4
f 173/2/4 174/2/4 176/2/4
f 175/3/4 173/3/4 176/3/4
f 176/2/4 174/2/4 177/2/4
f 178/3/4 179/3/4 181/3/4
f 179/2/4 180/2/4 182/2/4
f 181/3/4 179/3/4 182/3/4
f 182/2/4 180/2/4 183/2/4
f 184/2/4 185/2/4 186/2/4
f 186/2/4 185/2/4 187/2/4
f 186/3/4 187/3/4 188/3/4
f 187/2/4 185/2/4 189/2/4
f 188/3/4 187/3/4 189/3/4
f 188/2/4 189/2/4 190/2/4
f 189/2/4 185/2/4 191/2/4
f 190/2/4 189/2/4 191/2/4
f 192/2/4 193/2/4 194/2/4
f 194/2/4 193/2/4 195/2/4
f 194/3/4 195/3/4 196/3/4
f 195/2/4 193/2/4 197/2/4
f 196/3/4 195/3/4 197/3/4
f 196/2/4 197/2/4 198/2/4
f 197/2/4 193/2/4 199/2/4
f 198/2/4 197/2/4 199/2/4
f 201/2/4 202/2/4 203/2/4
f 203/2/4 202/2/4 204/2/4
f 200/3/4 201/3/4 205/3/4
f 201/2/4 203/2/4 206/2/4
f 205/3/4 201/3/4 206/3/4
f 206/2/4 203/2/4 207/2/4
f 207/2/4 203/2/4 208/2/4
f 203/4/4 204/4/4 209/4/4
f 208/2/4 203/2/4 209/2/4
f 209/4/4 204/4/4 210/4/4
f 204/2/4 202/2/4 211/2/4
f 210/4/4 204/4/4 211/4/4
f 209/4/4 210/4/4 212/4/4
f 210/1/4 211/1/4 213/1/4
f 212/4/4 210/4/4 213/4/4
f 211/2/4 202/2/4 214/2/4
f 213/1/4 211/1/4 214/1/4
f 212/2/4 213/2/4 215/2/4
f 213/2/4 214/2/4 215/2/4
f 214/2/4 202/2/4 216/2/4
f 215/2/4 214/2/4 216/2/4
f 207/2/4 208/2/4 219/2/4
f 219/2/4 208/2/4 220/2/4
f 215/4/4 216/4/4 221/4/4
f 221/4/4 216/4/4 222/4/4
f 216/2/4 202/2/4 223/2/4
f 222/4/4 216/4/4 223/4/4
f 219/2/4 220/2/4 224/2/4
f 221/4/4 222/4/4 224/4/4
f 218/2/4 219/2/4 224/2/4
f 220/2/4 221/2/4 224/2/4
f 222/1/4 223/1/4 225/1/4
f 224/4/4 222/4/4 225/4/4
f 223/2/4 202/2/4 226/2/4
f 225/1/4 223/1/4 226/1/4
f 217/3/4 218/3/4 227/3/4
f 224/2/4 225/2/4 228/2/4
f 227/3/4 218/3/4 228/3/4
f 218/2/4 224/2/4 228/2/4
f 225/2/4 226/2/4 228/2/4
f 226/2/4 202/2/4 229/2/4
f 228/2/4 226/2/4 229/2/4
f 230/2/4 231/2/4 232/2/4
f 232/2/4 231/2/4 233/2/4
f 232/3/4 233/3/4 234/3/4
f 234/3/4 233/3/4 235/3/4
f 234/2/4 235/2/4 236/2/4
f 236/2/4 235/2/4 237/2/4
f 236/3/4 237/3/4 238/3/4
f 238/3/4 237/3/4 239/3/4
f 238/2/4 239/2/4 240/2/4
f 240/2/4 239/2/4 241/2/4
f 246/3/5 243/3/5 242/3/5
f 247/3/5 243/3/5 246/3/5
f 248/3/5 245/3/5 244/3/5
f 249/3/5 245/3/5 248/3/5
f 254/3/5 251/3/5 250/3/5
f 255/3/5 251/3/5 254/3/5
f 256/3/5 253/3/5 252/3/5
f 257/3/5 253/3/5 256/3/5
f 261/2/5 259/2/5 258/2/5
f 262/2/5 259/2/5 261/2/5
f 264/2/5 261/2/5 260/2/5
f 264/2/5 263/2/5 262/2/5
f 264/2/5 262/2/5 261/2/5
f 265/2/5 263/2/5 264/2/5
f 266/2/5 263/2/5 265/2/5
f 267/2/5 263/2/5 266/2/5
f 268/2/5 266/2/5 265/2/5
f 269/2/5 266/2/5 268/2/5
f 272/3/5 271/3/5 270/3/5
f 273/3/5 271/3/5 272/3/5
f 276/2/5 275/2/5 274/2/5
f 277/2/5 275/2/5 276/2/5
f 278/2/5 275/2/5 277/2/5
f 279/2/5 275/2/5 278/2/5
f 280/2/5 276/2/5 274/2/5
f 281/3/5 277/3/5 276/3/5
f 281/2/5 276/2/5 280/2/5
f 282/2/5 278/2/5 277/2/5
f 282/3/5 277/3/5 281/3/5
f 283/3/5 279/3/5 278/3/5
f 283/2/5 278/2/5 282/2/5
f 284/2/5 275/2/5 279/2/5
f 284/3/5 279/3/5 283/3/5
f 285/2/5 275/2/5 284/2/5
f 286/3/6 287/3/6 288/3/6
f 288/3/6 287/3/6 289/3/6
f 290/3/6 291/3/6 292/3/6
f 292/3/6 291/3/6 293/3/6
f 294/2/6 295/2/6 298/2/6
f 296/2/6 297/2/6 298/2/6
f 295/2/6 296/2/6 298/2/6
f 298/2/6 297/2/6 299/2/6
f 299/2/6 297/2/6 300/2/6
f 300/2/6 297/2/6 301/2/6
f 294/2/6 298/2/6 302/2/6
f 298/3/6 299/3/6 303/3/6
f 302/2/6 298/2/6 303/2/6
f 299/2/6 300/2/6 304/2/6
f 303/3/6 299/3/6 304/3/6
f 300/3/6 301/3/6 305/3/6
f 304/2/6 300/2/6 305/2/6
f 301/2/6 297/2/6 306/2/6
f 305/3/6 301/3/6 306/3/6
f 306/2/6 297/2/6 307/2/6
f 308/2/6 309/2/6 310/2/6
f 310/2/6 309/2/6 311/2/6
f 310/3/6 311/3/6 312/3/6
f 311/2/6 309/2/6 313/2/6
f 312/3/6 311/3/6 313/3/6
f 308/2/6 310/2/6 314/2/6
f 310/3/6 312/3/6 315/3/6
f 314/2/6 310/2/6 315/2/6
f 315/3/6 312/3/6 316/3/6
f 312/2/6 313/2/6 317/2/6
f 316/3/6 312/3/6 317/3/6
f 308/2/6 314/2/6 318/2/6
f 315/3/6 316/3/6 319/3/6
f 318/2/6 314/2/6 319/2/6
f 314/3/6 315/3/6 319/3/6
f 319/3/6 316/3/6 320/3/6
f 316/2/6 317/2/6 321/2/6
f 320/3/6 316/3/6 321/3/6
f 308/2/6 318/2/6 322/2/6
f 319/3/6 320/3/6 322/3/6
f 318/3/6 319/3/6 322/3/6
f 320/2/6 321/2/6 323/2/6
f 322/3/6 320/3/6 323/3/6
f 308/2/6 322/2/6 324/2/6
f 322/2/6 323/2/6 324/2/6
f 324/2/6 323/2/6 325/2/6
f 325/2/6 323/2/6 326/2/6
f 326/2/6 323/2/6 327/2/6
f 323/2/6 321/2/6 328/2/6
f 327/2/6 323/2/6 328/2/6
f 321/2/6 317/2/6 329/2/6
f 328/2/6 321/2/6 329/2/6
f 317/2/6 313/2/6 330/2/6
f 329/2/6 317/2/6 330/2/6
f 313/2/6 309/2/6 331/2/6
f 330/2/6 313/2/6 331/2/6
f 308/2/6 324/2/6 332/2/6
f 327/2/6 328/2/6 335/2/6
f 335/2/6 328/2/6 336/2/6
f 331/2/6 309/2/6 339/2/6
f 337/2/6 338/2/6 340/2/6
f 338/2/6 339/2/6 340/2/6
f 333/2/6 334/2/6 340/2/6
f 308/2/6 332/2/6 340/2/6
f 336/2/6 337/2/6 340/2/6
f 335/2/6 336/2/6 340/2/6
f 334/2/6 335/2/6 340/2/6
f 332/2/6 333/2/6 340/2/6
f 339/2/6 309/2/6 341/2/6
f 340/2/6 339/2/6 341/2/6
f 342/2/6 343/2/6 346/2/6
f 346/2/6 343/2/6 347/2/6
f 344/2/6 345/2/6 348/2/6
f 348/2/6 345/2/6 349/2/6
