# MagicaVoxel @ Ephtracy

# group
g animal-21

# material
mtllib animal-0.mtl
usemtl palette

# normals
vn -1 0 0
vn 1 0 0
vn 0 0 1
vn 0 0 -1
vn 0 -1 0
vn 0 1 0

# texcoords
vt 0.00195312 0.5
vt 0.0292969 0.5
vt 0.0566406 0.5
vt 0.0683594 0.5
vt 0.0878906 0.5
vt 0.208984 0.5
vt 0.396484 0.5
vt 0.994141 0.5

# verts
v -4.5 0 4.5
v -4.5 0 2.5
v -4.5 0 -3.5
v -4.5 0 -5.5
v -4.5 1 4.5
v -4.5 1 2.5
v -4.5 1 -3.5
v -4.5 1 -5.5
v -4.5 2 2.5
v -4.5 2 -3.5
v -4.5 4 -4.5
v -4.5 4 -5.5
v -4.5 5 3.5
v -4.5 5 1.5
v -4.5 5 0.5
v -4.5 5 -1.5
v -4.5 5 -4.5
v -4.5 5 -5.5
v -4.5 6 -4.5
v -4.5 6 -5.5
v -4.5 7 -4.5
v -4.5 7 -5.5
v -4.5 10 4.5
v -4.5 10 3.5
v -4.5 10 1.5
v -4.5 10 0.5
v -4.5 10 -1.5
v -4.5 10 -2.5
v -4.5 10 -4.5
v -4.5 10 -5.5
v -4.5 11 -2.5
v -4.5 11 -4.5
v -3.5 11 -2.5
v -3.5 11 -4.5
v -3.5 12 -2.5
v -3.5 12 -4.5
v -2.5 5 -5.5
v -2.5 5 -6.5
v -2.5 7 -5.5
v -2.5 7 -6.5
v -2.5 12 -2.5
v -2.5 12 -4.5
v -2.5 13 -2.5
v -2.5 13 -4.5
v -1.5 7 -5.5
v -1.5 7 -6.5
v -1.5 8 -5.5
v -1.5 8 -6.5
v -0.5 5 6.5
v -0.5 5 4.5
v -0.5 6 6.5
v -0.5 6 5.5
v -0.5 6 4.5
v -0.5 8 6.5
v -0.5 8 5.5
v -0.5 10 6.5
v -0.5 10 5.5
v -0.5 11 6.5
v -0.5 11 5.5
v -0.5 12 5.5
v -0.5 12 3.5
v -0.5 13 6.5
v -0.5 13 5.5
v -0.5 13 3.5
v 0.5 5 -5.5
v 0.5 5 -6.5
v 0.5 6 -5.5
v 0.5 6 -6.5
v 0.5 10 -2.5
v 0.5 10 -4.5
v 0.5 12 -2.5
v 0.5 12 -4.5
v 1.5 12 -2.5
v 1.5 12 -4.5
v 1.5 13 -2.5
v 1.5 13 -4.5
v 2.5 0 4.5
v 2.5 0 2.5
v 2.5 0 -3.5
v 2.5 0 -5.5
v 2.5 1 4.5
v 2.5 1 2.5
v 2.5 1 -3.5
v 2.5 1 -5.5
v 2.5 2 4.5
v 2.5 2 2.5
v 2.5 2 -3.5
v 2.5 2 -5.5
v -2.5 0 4.5
v -2.5 0 2.5
v -2.5 0 -3.5
v -2.5 0 -5.5
v -2.5 1 4.5
v -2.5 1 2.5
v -2.5 1 -3.5
v -2.5 1 -5.5
v -2.5 2 4.5
v -2.5 2 2.5
v -2.5 2 -3.5
v -2.5 2 -5.5
v -1.5 12 -2.5
v -1.5 12 -4.5
v -1.5 13 -2.5
v -1.5 13 -4.5
v -0.5 5 -5.5
v -0.5 5 -6.5
v -0.5 6 -5.5
v -0.5 6 -6.5
v -0.5 10 -2.5
v -0.5 10 -4.5
v -0.5 12 -2.5
v -0.5 12 -4.5
v 0.5 5 6.5
v 0.5 5 4.5
v 0.5 6 6.5
v 0.5 6 5.5
v 0.5 6 4.5
v 0.5 8 6.5
v 0.5 8 5.5
v 0.5 10 6.5
v 0.5 10 5.5
v 0.5 11 6.5
v 0.5 11 5.5
v 0.5 12 5.5
v 0.5 12 3.5
v 0.5 13 6.5
v 0.5 13 5.5
v 0.5 13 3.5
v 1.5 7 -5.5
v 1.5 7 -6.5
v 1.5 8 -5.5
v 1.5 8 -6.5
v 2.5 5 -5.5
v 2.5 5 -6.5
v 2.5 7 -5.5
v 2.5 7 -6.5
v 2.5 12 -2.5
v 2.5 12 -4.5
v 2.5 13 -2.5
v 2.5 13 -4.5
v 3.5 11 -2.5
v 3.5 11 -4.5
v 3.5 12 -2.5
v 3.5 12 -4.5
v 4.5 0 4.5
v 4.5 0 2.5
v 4.5 0 -3.5
v 4.5 0 -5.5
v 4.5 1 4.5
v 4.5 1 2.5
v 4.5 1 -3.5
v 4.5 1 -5.5
v 4.5 2 2.5
v 4.5 2 -3.5
v 4.5 4 -4.5
v 4.5 4 -5.5
v 4.5 5 3.5
v 4.5 5 1.5
v 4.5 5 0.5
v 4.5 5 -1.5
v 4.5 5 -4.5
v 4.5 5 -5.5
v 4.5 6 -4.5
v 4.5 6 -5.5
v 4.5 7 -4.5
v 4.5 7 -5.5
v 4.5 10 4.5
v 4.5 10 3.5
v 4.5 10 1.5
v 4.5 10 0.5
v 4.5 10 -1.5
v 4.5 10 -2.5
v 4.5 10 -4.5
v 4.5 10 -5.5
v 4.5 11 -2.5
v 4.5 11 -4.5
v -0.5 5 6.5
v -0.5 6 6.5
v -0.5 8 6.5
v -0.5 10 6.5
v -0.5 11 6.5
v -0.5 13 6.5
v 0.5 5 6.5
v 0.5 6 6.5
v 0.5 8 6.5
v 0.5 10 6.5
v 0.5 11 6.5
v 0.5 13 6.5
v -4.5 0 4.5
v -4.5 1 4.5
v -4.5 10 4.5
v -2.5 0 4.5
v -2.5 1 4.5
v -2.5 2 4.5
v -2.5 6 4.5
v -0.5 5 4.5
v -0.5 6 4.5
v 0.5 5 4.5
v 0.5 6 4.5
v 2.5 0 4.5
v 2.5 1 4.5
v 2.5 2 4.5
v 2.5 6 4.5
v 4.5 0 4.5
v 4.5 1 4.5
v 4.5 10 4.5
v -4.5 10 -2.5
v -4.5 11 -2.5
v -3.5 11 -2.5
v -3.5 12 -2.5
v -2.5 12 -2.5
v -2.5 13 -2.5
v -1.5 12 -2.5
v -1.5 13 -2.5
v -0.5 10 -2.5
v -0.5 12 -2.5
v 0.5 10 -2.5
v 0.5 12 -2.5
v 1.5 12 -2.5
v 1.5 13 -2.5
v 2.5 12 -2.5
v 2.5 13 -2.5
v 3.5 11 -2.5
v 3.5 12 -2.5
v 4.5 10 -2.5
v 4.5 11 -2.5
v -4.5 0 -3.5
v -4.5 1 -3.5
v -4.5 2 -3.5
v -2.5 0 -3.5
v -2.5 1 -3.5
v -2.5 2 -3.5
v 2.5 0 -3.5
v 2.5 1 -3.5
v 2.5 2 -3.5
v 4.5 0 -3.5
v 4.5 1 -3.5
v 4.5 2 -3.5
v -0.5 6 5.5
v -0.5 8 5.5
v -0.5 10 5.5
v -0.5 11 5.5
v -0.5 12 5.5
v 0.5 6 5.5
v 0.5 8 5.5
v 0.5 10 5.5
v 0.5 11 5.5
v 0.5 12 5.5
v -0.5 12 3.5
v -0.5 13 3.5
v 0.5 12 3.5
v 0.5 13 3.5
v -4.5 0 2.5
v -4.5 1 2.5
v -4.5 2 2.5
v -2.5 0 2.5
v -2.5 1 2.5
v -2.5 2 2.5
v 2.5 0 2.5
v 2.5 1 2.5
v 2.5 2 2.5
v 4.5 0 2.5
v 4.5 1 2.5
v 4.5 2 2.5
v -4.5 10 -4.5
v -4.5 11 -4.5
v -3.5 10 -4.5
v -3.5 11 -4.5
v -3.5 12 -4.5
v -2.5 11 -4.5
v -2.5 12 -4.5
v -2.5 13 -4.5
v -1.5 10 -4.5
v -1.5 12 -4.5
v -1.5 13 -4.5
v -0.5 10 -4.5
v -0.5 12 -4.5
v 0.5 10 -4.5
v 0.5 12 -4.5
v 1.5 10 -4.5
v 1.5 12 -4.5
v 1.5 13 -4.5
v 2.5 11 -4.5
v 2.5 12 -4.5
v 2.5 13 -4.5
v 3.5 10 -4.5
v 3.5 11 -4.5
v 3.5 12 -4.5
v 4.5 10 -4.5
v 4.5 11 -4.5
v -4.5 0 -5.5
v -4.5 1 -5.5
v -4.5 4 -5.5
v -4.5 5 -5.5
v -4.5 6 -5.5
v -4.5 7 -5.5
v -4.5 10 -5.5
v -3.5 4 -5.5
v -3.5 5 -5.5
v -3.5 6 -5.5
v -3.5 7 -5.5
v -3.5 8 -5.5
v -3.5 9 -5.5
v -2.5 0 -5.5
v -2.5 1 -5.5
v -2.5 2 -5.5
v -2.5 4 -5.5
v -2.5 5 -5.5
v -2.5 7 -5.5
v -2.5 8 -5.5
v -2.5 9 -5.5
v -1.5 7 -5.5
v -1.5 8 -5.5
v -1.5 9 -5.5
v -0.5 5 -5.5
v -0.5 6 -5.5
v 0.5 5 -5.5
v 0.5 6 -5.5
v 1.5 7 -5.5
v 1.5 8 -5.5
v 1.5 9 -5.5
v 2.5 0 -5.5
v 2.5 1 -5.5
v 2.5 2 -5.5
v 2.5 4 -5.5
v 2.5 5 -5.5
v 2.5 7 -5.5
v 2.5 8 -5.5
v 2.5 9 -5.5
v 3.5 4 -5.5
v 3.5 5 -5.5
v 3.5 6 -5.5
v 3.5 7 -5.5
v 3.5 8 -5.5
v 3.5 9 -5.5
v 4.5 0 -5.5
v 4.5 1 -5.5
v 4.5 4 -5.5
v 4.5 5 -5.5
v 4.5 6 -5.5
v 4.5 7 -5.5
v 4.5 10 -5.5
v -2.5 5 -6.5
v -2.5 7 -6.5
v -1.5 7 -6.5
v -1.5 8 -6.5
v -0.5 5 -6.5
v -0.5 6 -6.5
v -0.5 7 -6.5
v 0.5 5 -6.5
v 0.5 6 -6.5
v 0.5 7 -6.5
v 1.5 7 -6.5
v 1.5 8 -6.5
v 2.5 5 -6.5
v 2.5 7 -6.5
v -4.5 0 4.5
v -2.5 0 4.5
v 2.5 0 4.5
v 4.5 0 4.5
v -4.5 0 2.5
v -2.5 0 2.5
v 2.5 0 2.5
v 4.5 0 2.5
v -4.5 0 -3.5
v -2.5 0 -3.5
v 2.5 0 -3.5
v 4.5 0 -3.5
v -4.5 0 -5.5
v -2.5 0 -5.5
v 2.5 0 -5.5
v 4.5 0 -5.5
v -2.5 2 4.5
v 2.5 2 4.5
v -4.5 2 2.5
v -2.5 2 2.5
v 2.5 2 2.5
v 4.5 2 2.5
v -4.5 2 -3.5
v -2.5 2 -3.5
v 2.5 2 -3.5
v 4.5 2 -3.5
v -2.5 2 -5.5
v 2.5 2 -5.5
v -0.5 5 6.5
v 0.5 5 6.5
v -0.5 5 4.5
v 0.5 5 4.5
v -2.5 5 -5.5
v -0.5 5 -5.5
v 0.5 5 -5.5
v 2.5 5 -5.5
v -2.5 5 -6.5
v -0.5 5 -6.5
v 0.5 5 -6.5
v 2.5 5 -6.5
v -0.5 6 -5.5
v 0.5 6 -5.5
v -0.5 6 -6.5
v 0.5 6 -6.5
v -0.5 12 5.5
v 0.5 12 5.5
v -0.5 12 3.5
v 0.5 12 3.5
v -0.5 6 5.5
v 0.5 6 5.5
v -0.5 6 4.5
v 0.5 6 4.5
v -2.5 7 -5.5
v -1.5 7 -5.5
v 1.5 7 -5.5
v 2.5 7 -5.5
v -2.5 7 -6.5
v -1.5 7 -6.5
v 1.5 7 -6.5
v 2.5 7 -6.5
v -1.5 8 -5.5
v 1.5 8 -5.5
v -1.5 8 -6.5
v 1.5 8 -6.5
v -4.5 10 4.5
v 4.5 10 4.5
v -4.5 10 3.5
v 4.5 10 3.5
v -4.5 10 1.5
v 4.5 10 1.5
v -4.5 10 0.5
v 4.5 10 0.5
v -4.5 10 -1.5
v 4.5 10 -1.5
v -4.5 10 -2.5
v -0.5 10 -2.5
v 0.5 10 -2.5
v 4.5 10 -2.5
v -4.5 10 -4.5
v -3.5 10 -4.5
v -1.5 10 -4.5
v -0.5 10 -4.5
v 0.5 10 -4.5
v 1.5 10 -4.5
v 3.5 10 -4.5
v 4.5 10 -4.5
v -4.5 10 -5.5
v 4.5 10 -5.5
v -4.5 11 -2.5
v -3.5 11 -2.5
v 3.5 11 -2.5
v 4.5 11 -2.5
v -4.5 11 -4.5
v -3.5 11 -4.5
v 3.5 11 -4.5
v 4.5 11 -4.5
v -3.5 12 -2.5
v -2.5 12 -2.5
v -1.5 12 -2.5
v -0.5 12 -2.5
v 0.5 12 -2.5
v 1.5 12 -2.5
v 2.5 12 -2.5
v 3.5 12 -2.5
v -3.5 12 -4.5
v -2.5 12 -4.5
v -1.5 12 -4.5
v -0.5 12 -4.5
v 0.5 12 -4.5
v 1.5 12 -4.5
v 2.5 12 -4.5
v 3.5 12 -4.5
v -0.5 13 6.5
v 0.5 13 6.5
v -0.5 13 5.5
v 0.5 13 5.5
v -0.5 13 3.5
v 0.5 13 3.5
v -2.5 13 -2.5
v -1.5 13 -2.5
v 1.5 13 -2.5
v 2.5 13 -2.5
v -2.5 13 -4.5
v -1.5 13 -4.5
v 1.5 13 -4.5
v 2.5 13 -4.5

# faces
f 5/6/1 2/6/1 1/6/1
f 6/6/1 2/6/1 5/6/1
f 7/6/1 4/6/1 3/6/1
f 8/6/1 4/6/1 7/6/1
f 9/4/1 6/4/1 5/4/1
f 10/4/1 8/4/1 7/4/1
f 11/4/1 8/4/1 10/4/1
f 11/4/1 10/4/1 9/4/1
f 12/4/1 8/4/1 11/4/1
f 13/4/1 9/4/1 5/4/1
f 13/4/1 11/4/1 9/4/1
f 14/4/1 11/4/1 13/4/1
f 15/4/1 11/4/1 14/4/1
f 16/4/1 11/4/1 15/4/1
f 17/5/1 12/5/1 11/5/1
f 17/4/1 11/4/1 16/4/1
f 18/5/1 12/5/1 17/5/1
f 19/4/1 17/4/1 16/4/1
f 19/4/1 18/4/1 17/4/1
f 20/4/1 18/4/1 19/4/1
f 21/4/1 19/4/1 16/4/1
f 21/5/1 20/5/1 19/5/1
f 22/5/1 20/5/1 21/5/1
f 23/4/1 13/4/1 5/4/1
f 24/5/1 14/5/1 13/5/1
f 24/4/1 13/4/1 23/4/1
f 25/4/1 15/4/1 14/4/1
f 25/5/1 14/5/1 24/5/1
f 26/5/1 16/5/1 15/5/1
f 26/4/1 15/4/1 25/4/1
f 27/4/1 21/4/1 16/4/1
f 27/5/1 16/5/1 26/5/1
f 27/4/1 22/4/1 21/4/1
f 28/4/1 22/4/1 27/4/1
f 29/4/1 22/4/1 28/4/1
f 30/4/1 22/4/1 29/4/1
f 31/4/1 29/4/1 28/4/1
f 32/4/1 29/4/1 31/4/1
f 35/4/1 34/4/1 33/4/1
f 36/4/1 34/4/1 35/4/1
f 39/4/1 38/4/1 37/4/1
f 40/4/1 38/4/1 39/4/1
f 43/4/1 42/4/1 41/4/1
f 44/4/1 42/4/1 43/4/1
f 47/7/1 46/7/1 45/7/1
f 48/7/1 46/7/1 47/7/1
f 51/4/1 50/4/1 49/4/1
f 52/4/1 50/4/1 51/4/1
f 53/4/1 50/4/1 52/4/1
f 54/5/1 52/5/1 51/5/1
f 55/5/1 52/5/1 54/5/1
f 56/4/1 55/4/1 54/4/1
f 57/4/1 55/4/1 56/4/1
f 58/5/1 57/5/1 56/5/1
f 59/5/1 57/5/1 58/5/1
f 60/4/1 59/4/1 58/4/1
f 62/4/1 60/4/1 58/4/1
f 63/5/1 61/5/1 60/5/1
f 63/4/1 60/4/1 62/4/1
f 64/5/1 61/5/1 63/5/1
f 67/4/1 66/4/1 65/4/1
f 68/4/1 66/4/1 67/4/1
f 71/4/1 70/4/1 69/4/1
f 72/4/1 70/4/1 71/4/1
f 75/4/1 74/4/1 73/4/1
f 76/4/1 74/4/1 75/4/1
f 81/6/1 78/6/1 77/6/1
f 82/6/1 78/6/1 81/6/1
f 83/6/1 80/6/1 79/6/1
f 84/6/1 80/6/1 83/6/1
f 85/4/1 82/4/1 81/4/1
f 86/4/1 82/4/1 85/4/1
f 87/4/1 84/4/1 83/4/1
f 88/4/1 84/4/1 87/4/1
f 89/6/2 90/6/2 93/6/2
f 93/6/2 90/6/2 94/6/2
f 91/6/2 92/6/2 95/6/2
f 95/6/2 92/6/2 96/6/2
f 93/4/2 94/4/2 97/4/2
f 97/4/2 94/4/2 98/4/2
f 95/4/2 96/4/2 99/4/2
f 99/4/2 96/4/2 100/4/2
f 101/4/2 102/4/2 103/4/2
f 103/4/2 102/4/2 104/4/2
f 105/4/2 106/4/2 107/4/2
f 107/4/2 106/4/2 108/4/2
f 109/4/2 110/4/2 111/4/2
f 111/4/2 110/4/2 112/4/2
f 113/4/2 114/4/2 115/4/2
f 115/4/2 114/4/2 116/4/2
f 116/4/2 114/4/2 117/4/2
f 115/5/2 116/5/2 118/5/2
f 118/5/2 116/5/2 119/5/2
f 118/4/2 119/4/2 120/4/2
f 120/4/2 119/4/2 121/4/2
f 120/5/2 121/5/2 122/5/2
f 122/5/2 121/5/2 123/5/2
f 122/4/2 123/4/2 124/4/2
f 122/4/2 124/4/2 126/4/2
f 124/5/2 125/5/2 127/5/2
f 126/4/2 124/4/2 127/4/2
f 127/5/2 125/5/2 128/5/2
f 129/7/2 130/7/2 131/7/2
f 131/7/2 130/7/2 132/7/2
f 133/4/2 134/4/2 135/4/2
f 135/4/2 134/4/2 136/4/2
f 137/4/2 138/4/2 139/4/2
f 139/4/2 138/4/2 140/4/2
f 141/4/2 142/4/2 143/4/2
f 143/4/2 142/4/2 144/4/2
f 145/6/2 146/6/2 149/6/2
f 149/6/2 146/6/2 150/6/2
f 147/6/2 148/6/2 151/6/2
f 151/6/2 148/6/2 152/6/2
f 149/4/2 150/4/2 153/4/2
f 151/4/2 152/4/2 154/4/2
f 154/4/2 152/4/2 155/4/2
f 153/4/2 154/4/2 155/4/2
f 155/4/2 152/4/2 156/4/2
f 149/4/2 153/4/2 157/4/2
f 153/4/2 155/4/2 157/4/2
f 157/4/2 155/4/2 158/4/2
f 158/4/2 155/4/2 159/4/2
f 159/4/2 155/4/2 160/4/2
f 155/5/2 156/5/2 161/5/2
f 160/4/2 155/4/2 161/4/2
f 161/5/2 156/5/2 162/5/2
f 160/4/2 161/4/2 163/4/2
f 161/4/2 162/4/2 163/4/2
f 163/4/2 162/4/2 164/4/2
f 160/4/2 163/4/2 165/4/2
f 163/5/2 164/5/2 165/5/2
f 165/5/2 164/5/2 166/5/2
f 149/4/2 157/4/2 167/4/2
f 157/5/2 158/5/2 168/5/2
f 167/4/2 157/4/2 168/4/2
f 158/4/2 159/4/2 169/4/2
f 168/5/2 158/5/2 169/5/2
f 159/5/2 160/5/2 170/5/2
f 169/4/2 159/4/2 170/4/2
f 160/4/2 165/4/2 171/4/2
f 170/5/2 160/5/2 171/5/2
f 165/4/2 166/4/2 171/4/2
f 171/4/2 166/4/2 172/4/2
f 172/4/2 166/4/2 173/4/2
f 173/4/2 166/4/2 174/4/2
f 172/4/2 173/4/2 175/4/2
f 175/4/2 173/4/2 176/4/2
f 183/4/3 178/4/3 177/4/3
f 184/5/3 179/5/3 178/5/3
f 184/4/3 178/4/3 183/4/3
f 185/4/3 180/4/3 179/4/3
f 185/5/3 179/5/3 184/5/3
f 186/5/3 181/5/3 180/5/3
f 186/4/3 180/4/3 185/4/3
f 187/4/3 182/4/3 181/4/3
f 187/5/3 181/5/3 186/5/3
f 188/4/3 182/4/3 187/4/3
f 192/6/3 190/6/3 189/6/3
f 193/4/3 191/4/3 190/4/3
f 193/6/3 190/6/3 192/6/3
f 194/4/3 191/4/3 193/4/3
f 195/4/3 191/4/3 194/4/3
f 196/6/3 195/6/3 194/6/3
f 197/4/3 191/4/3 195/4/3
f 197/6/3 195/6/3 196/6/3
f 198/6/3 196/6/3 194/6/3
f 199/4/3 191/4/3 197/4/3
f 202/6/3 198/6/3 194/6/3
f 202/6/3 199/6/3 198/6/3
f 203/4/3 191/4/3 199/4/3
f 203/6/3 199/6/3 202/6/3
f 204/6/3 201/6/3 200/6/3
f 205/4/3 202/4/3 201/4/3
f 205/6/3 201/6/3 204/6/3
f 205/4/3 203/4/3 202/4/3
f 206/4/3 191/4/3 203/4/3
f 206/4/3 203/4/3 205/4/3
f 209/4/3 208/4/3 207/4/3
f 211/4/3 210/4/3 209/4/3
f 213/4/3 211/4/3 209/4/3
f 213/4/3 212/4/3 211/4/3
f 214/4/3 212/4/3 213/4/3
f 215/4/3 209/4/3 207/4/3
f 215/4/3 213/4/3 209/4/3
f 216/4/3 213/4/3 215/4/3
f 219/4/3 218/4/3 217/4/3
f 221/4/3 219/4/3 217/4/3
f 221/4/3 220/4/3 219/4/3
f 222/4/3 220/4/3 221/4/3
f 223/4/3 221/4/3 217/4/3
f 224/4/3 221/4/3 223/4/3
f 225/4/3 223/4/3 217/4/3
f 226/4/3 223/4/3 225/4/3
f 230/6/3 228/6/3 227/6/3
f 231/4/3 229/4/3 228/4/3
f 231/6/3 228/6/3 230/6/3
f 232/4/3 229/4/3 231/4/3
f 236/6/3 234/6/3 233/6/3
f 237/4/3 235/4/3 234/4/3
f 237/6/3 234/6/3 236/6/3
f 238/4/3 235/4/3 237/4/3
f 239/5/4 240/5/4 244/5/4
f 240/4/4 241/4/4 245/4/4
f 244/5/4 240/5/4 245/5/4
f 241/5/4 242/5/4 246/5/4
f 245/4/4 241/4/4 246/4/4
f 242/4/4 243/4/4 247/4/4
f 246/5/4 242/5/4 247/5/4
f 247/4/4 243/4/4 248/4/4
f 249/5/4 250/5/4 251/5/4
f 251/5/4 250/5/4 252/5/4
f 253/6/4 254/6/4 256/6/4
f 254/4/4 255/4/4 257/4/4
f 256/6/4 254/6/4 257/6/4
f 257/4/4 255/4/4 258/4/4
f 259/6/4 260/6/4 262/6/4
f 260/4/4 261/4/4 263/4/4
f 262/6/4 260/6/4 263/6/4
f 263/4/4 261/4/4 264/4/4
f 265/4/4 266/4/4 267/4/4
f 267/4/4 266/4/4 268/4/4
f 267/7/4 268/7/4 270/7/4
f 268/4/4 269/4/4 270/4/4
f 270/4/4 269/4/4 271/4/4
f 267/7/4 270/7/4 273/7/4
f 270/7/4 271/7/4 273/7/4
f 271/4/4 272/4/4 274/4/4
f 273/7/4 271/7/4 274/7/4
f 274/4/4 272/4/4 275/4/4
f 273/4/4 274/4/4 276/4/4
f 276/4/4 274/4/4 277/4/4
f 278/4/4 279/4/4 280/4/4
f 280/4/4 279/4/4 281/4/4
f 280/7/4 281/7/4 283/7/4
f 281/4/4 282/4/4 284/4/4
f 283/7/4 281/7/4 284/7/4
f 284/4/4 282/4/4 285/4/4
f 280/7/4 283/7/4 286/7/4
f 283/4/4 284/4/4 287/4/4
f 286/7/4 283/7/4 287/7/4
f 287/4/4 284/4/4 288/4/4
f 286/4/4 287/4/4 289/4/4
f 289/4/4 287/4/4 290/4/4
f 292/4/4 293/4/4 298/4/4
f 293/5/4 294/5/4 298/5/4
f 294/4/4 295/4/4 299/4/4
f 298/5/4 294/5/4 299/5/4
f 295/5/4 296/5/4 300/5/4
f 299/4/4 295/4/4 300/4/4
f 296/4/4 297/4/4 301/4/4
f 300/5/4 296/5/4 301/5/4
f 301/4/4 297/4/4 302/4/4
f 302/4/4 297/4/4 303/4/4
f 291/6/4 292/6/4 304/6/4
f 292/4/4 298/4/4 305/4/4
f 304/6/4 292/6/4 305/6/4
f 305/4/4 298/4/4 306/4/4
f 299/6/4 300/6/4 307/6/4
f 306/4/4 298/4/4 307/4/4
f 298/6/4 299/6/4 307/6/4
f 300/6/4 301/6/4 307/6/4
f 307/6/4 301/6/4 308/6/4
f 301/8/4 302/8/4 309/8/4
f 308/6/4 301/6/4 309/6/4
f 302/1/4 303/1/4 310/1/4
f 309/8/4 302/8/4 310/8/4
f 303/4/4 297/4/4 311/4/4
f 310/1/4 303/1/4 311/1/4
f 309/8/4 310/8/4 312/8/4
f 310/8/4 311/8/4 312/8/4
f 312/8/4 311/8/4 313/8/4
f 311/4/4 297/4/4 314/4/4
f 313/8/4 311/8/4 314/8/4
f 306/6/4 307/6/4 315/6/4
f 307/6/4 308/6/4 315/6/4
f 306/6/4 315/6/4 317/6/4
f 315/6/4 316/6/4 317/6/4
f 317/6/4 316/6/4 318/6/4
f 313/4/4 314/4/4 320/4/4
f 314/4/4 297/4/4 321/4/4
f 320/4/4 314/4/4 321/4/4
f 306/6/4 317/6/4 324/6/4
f 324/6/4 317/6/4 325/6/4
f 325/6/4 317/6/4 326/6/4
f 319/8/4 320/8/4 327/8/4
f 320/8/4 321/8/4 327/8/4
f 327/8/4 321/8/4 328/8/4
f 321/4/4 297/4/4 329/4/4
f 328/8/4 321/8/4 329/8/4
f 325/6/4 326/6/4 330/6/4
f 324/4/4 325/4/4 330/4/4
f 323/4/4 324/4/4 330/4/4
f 326/6/4 327/6/4 330/6/4
f 330/6/4 327/6/4 331/6/4
f 331/6/4 327/6/4 332/6/4
f 327/8/4 328/8/4 333/8/4
f 332/6/4 327/6/4 333/6/4
f 328/1/4 329/1/4 334/1/4
f 333/8/4 328/8/4 334/8/4
f 329/4/4 297/4/4 335/4/4
f 334/1/4 329/1/4 335/1/4
f 322/6/4 323/6/4 336/6/4
f 323/4/4 330/4/4 337/4/4
f 336/6/4 323/6/4 337/6/4
f 330/5/4 331/5/4 338/5/4
f 337/4/4 330/4/4 338/4/4
f 331/4/4 332/4/4 339/4/4
f 338/5/4 331/5/4 339/5/4
f 332/5/4 333/5/4 340/5/4
f 339/4/4 332/4/4 340/4/4
f 333/4/4 334/4/4 341/4/4
f 340/5/4 333/5/4 341/5/4
f 334/4/4 335/4/4 341/4/4
f 335/4/4 297/4/4 342/4/4
f 341/4/4 335/4/4 342/4/4
f 343/4/4 344/4/4 345/4/4
f 343/4/4 345/4/4 347/4/4
f 347/4/4 345/4/4 348/4/4
f 345/7/4 346/7/4 349/7/4
f 348/4/4 345/4/4 349/4/4
f 348/7/4 349/7/4 351/7/4
f 349/7/4 346/7/4 352/7/4
f 351/7/4 349/7/4 352/7/4
f 350/4/4 351/4/4 353/4/4
f 352/7/4 346/7/4 353/7/4
f 351/4/4 352/4/4 353/4/4
f 353/7/4 346/7/4 354/7/4
f 350/4/4 353/4/4 355/4/4
f 355/4/4 353/4/4 356/4/4
f 361/6/5 358/6/5 357/6/5
f 362/6/5 358/6/5 361/6/5
f 363/6/5 360/6/5 359/6/5
f 364/6/5 360/6/5 363/6/5
f 369/6/5 366/6/5 365/6/5
f 370/6/5 366/6/5 369/6/5
f 371/6/5 368/6/5 367/6/5
f 372/6/5 368/6/5 371/6/5
f 376/6/5 374/6/5 373/6/5
f 377/6/5 374/6/5 376/6/5
f 379/4/5 376/4/5 375/4/5
f 380/6/5 377/6/5 376/6/5
f 380/4/5 376/4/5 379/4/5
f 381/4/5 378/4/5 377/4/5
f 381/6/5 377/6/5 380/6/5
f 382/4/5 378/4/5 381/4/5
f 383/6/5 381/6/5 380/6/5
f 384/6/5 381/6/5 383/6/5
f 387/4/5 386/4/5 385/4/5
f 388/4/5 386/4/5 387/4/5
f 393/4/5 390/4/5 389/4/5
f 394/4/5 390/4/5 393/4/5
f 395/4/5 392/4/5 391/4/5
f 396/4/5 392/4/5 395/4/5
f 399/7/5 398/7/5 397/7/5
f 400/7/5 398/7/5 399/7/5
f 403/5/5 402/5/5 401/5/5
f 404/5/5 402/5/5 403/5/5
f 405/4/6 406/4/6 407/4/6
f 407/4/6 406/4/6 408/4/6
f 409/4/6 410/4/6 413/4/6
f 413/4/6 410/4/6 414/4/6
f 411/4/6 412/4/6 415/4/6
f 415/4/6 412/4/6 416/4/6
f 417/7/6 418/7/6 419/7/6
f 419/7/6 418/7/6 420/7/6
f 421/4/6 422/4/6 423/4/6
f 423/4/6 422/4/6 424/4/6
f 423/5/6 424/5/6 425/5/6
f 425/5/6 424/5/6 426/5/6
f 425/4/6 426/4/6 427/4/6
f 427/4/6 426/4/6 428/4/6
f 427/5/6 428/5/6 429/5/6
f 429/5/6 428/5/6 430/5/6
f 429/4/6 430/4/6 431/4/6
f 431/4/6 430/4/6 432/4/6
f 432/4/6 430/4/6 433/4/6
f 433/4/6 430/4/6 434/4/6
f 432/4/6 433/4/6 438/4/6
f 438/4/6 433/4/6 439/4/6
f 436/4/6 437/4/6 443/4/6
f 441/4/6 442/4/6 443/4/6
f 440/4/6 441/4/6 443/4/6
f 439/4/6 440/4/6 443/4/6
f 438/4/6 439/4/6 443/4/6
f 437/4/6 438/4/6 443/4/6
f 435/4/6 436/4/6 443/4/6
f 443/4/6 442/4/6 444/4/6
f 445/4/6 446/4/6 449/4/6
f 449/4/6 446/4/6 450/4/6
f 447/4/6 448/4/6 451/4/6
f 451/4/6 448/4/6 452/4/6
f 453/4/6 454/4/6 461/4/6
f 461/4/6 454/4/6 462/4/6
f 455/4/6 456/4/6 463/4/6
f 463/4/6 456/4/6 464/4/6
f 457/4/6 458/4/6 465/4/6
f 465/4/6 458/4/6 466/4/6
f 459/4/6 460/4/6 467/4/6
f 467/4/6 460/4/6 468/4/6
f 469/4/6 470/4/6 471/4/6
f 471/4/6 470/4/6 472/4/6
f 471/5/6 472/5/6 473/5/6
f 473/5/6 472/5/6 474/5/6
f 475/4/6 476/4/6 479/4/6
f 479/4/6 476/4/6 480/4/6
f 477/4/6 478/4/6 481/4/6
f 481/4/6 478/4/6 482/4/6
