# MagicaVoxel @ Ephtracy

# group
g animal-1

# material
mtllib animal-0.mtl
usemtl palette

# normals
vn -1 0 0
vn 1 0 0
vn 0 0 1
vn 0 0 -1
vn 0 -1 0
vn 0 1 0

# texcoords
vt 0.00195312 0.5
vt 0.0292969 0.5
vt 0.0566406 0.5
vt 0.0878906 0.5
vt 0.142578 0.5
vt 0.208984 0.5
vt 0.330078 0.5
vt 0.779297 0.5
vt 0.830078 0.5

# verts
v -4.5 0 4.5
v -4.5 0 2.5
v -4.5 0 -3.5
v -4.5 0 -5.5
v -4.5 2 2.5
v -4.5 2 -3.5
v -4.5 4 -4.5
v -4.5 4 -5.5
v -4.5 5 -4.5
v -4.5 5 -5.5
v -4.5 6 -4.5
v -4.5 6 -5.5
v -4.5 7 -4.5
v -4.5 7 -5.5
v -4.5 10 4.5
v -4.5 10 -2.5
v -4.5 10 -4.5
v -4.5 10 -5.5
v -4.5 11 -2.5
v -4.5 11 -4.5
v -3.5 11 -2.5
v -3.5 11 -4.5
v -3.5 12 -2.5
v -3.5 12 -4.5
v -2.5 5 -5.5
v -2.5 5 -6.5
v -2.5 7 -5.5
v -2.5 7 -6.5
v -2.5 12 -2.5
v -2.5 12 -4.5
v -2.5 13 -2.5
v -2.5 13 -4.5
v -1.5 7 -5.5
v -1.5 7 -6.5
v -1.5 8 -5.5
v -1.5 8 -6.5
v -0.5 5 6.5
v -0.5 5 4.5
v -0.5 6 5.5
v -0.5 6 4.5
v -0.5 11 5.5
v -0.5 11 3.5
v -0.5 12 6.5
v -0.5 12 4.5
v -0.5 13 6.5
v -0.5 13 4.5
v -0.5 14 6.5
v -0.5 14 3.5
v 0.5 5 -5.5
v 0.5 5 -6.5
v 0.5 6 -5.5
v 0.5 6 -6.5
v 0.5 10 -2.5
v 0.5 10 -4.5
v 0.5 12 -2.5
v 0.5 12 -4.5
v 1.5 12 -2.5
v 1.5 12 -4.5
v 1.5 13 -2.5
v 1.5 13 -4.5
v 2.5 0 4.5
v 2.5 0 2.5
v 2.5 0 -3.5
v 2.5 0 -5.5
v 2.5 2 4.5
v 2.5 2 2.5
v 2.5 2 -3.5
v 2.5 2 -5.5
v -2.5 0 4.5
v -2.5 0 2.5
v -2.5 0 -3.5
v -2.5 0 -5.5
v -2.5 2 4.5
v -2.5 2 2.5
v -2.5 2 -3.5
v -2.5 2 -5.5
v -1.5 12 -2.5
v -1.5 12 -4.5
v -1.5 13 -2.5
v -1.5 13 -4.5
v -0.5 5 -5.5
v -0.5 5 -6.5
v -0.5 6 -5.5
v -0.5 6 -6.5
v -0.5 10 -2.5
v -0.5 10 -4.5
v -0.5 12 -2.5
v -0.5 12 -4.5
v 0.5 5 6.5
v 0.5 5 4.5
v 0.5 6 5.5
v 0.5 6 4.5
v 0.5 11 5.5
v 0.5 11 3.5
v 0.5 12 6.5
v 0.5 12 4.5
v 0.5 13 6.5
v 0.5 13 4.5
v 0.5 14 6.5
v 0.5 14 3.5
v 1.5 7 -5.5
v 1.5 7 -6.5
v 1.5 8 -5.5
v 1.5 8 -6.5
v 2.5 5 -5.5
v 2.5 5 -6.5
v 2.5 7 -5.5
v 2.5 7 -6.5
v 2.5 12 -2.5
v 2.5 12 -4.5
v 2.5 13 -2.5
v 2.5 13 -4.5
v 3.5 11 -2.5
v 3.5 11 -4.5
v 3.5 12 -2.5
v 3.5 12 -4.5
v 4.5 0 4.5
v 4.5 0 2.5
v 4.5 0 -3.5
v 4.5 0 -5.5
v 4.5 2 2.5
v 4.5 2 -3.5
v 4.5 4 -4.5
v 4.5 4 -5.5
v 4.5 5 -4.5
v 4.5 5 -5.5
v 4.5 6 -4.5
v 4.5 6 -5.5
v 4.5 7 -4.5
v 4.5 7 -5.5
v 4.5 10 4.5
v 4.5 10 -2.5
v 4.5 10 -4.5
v 4.5 10 -5.5
v 4.5 11 -2.5
v 4.5 11 -4.5
v -0.5 5 6.5
v -0.5 12 6.5
v -0.5 13 6.5
v -0.5 14 6.5
v 0.5 5 6.5
v 0.5 12 6.5
v 0.5 13 6.5
v 0.5 14 6.5
v -4.5 0 4.5
v -4.5 10 4.5
v -2.5 0 4.5
v -2.5 2 4.5
v -2.5 6 4.5
v -0.5 5 4.5
v -0.5 6 4.5
v -0.5 12 4.5
v -0.5 13 4.5
v 0.5 5 4.5
v 0.5 6 4.5
v 0.5 12 4.5
v 0.5 13 4.5
v 2.5 0 4.5
v 2.5 2 4.5
v 2.5 6 4.5
v 4.5 0 4.5
v 4.5 10 4.5
v -4.5 10 -2.5
v -4.5 11 -2.5
v -3.5 11 -2.5
v -3.5 12 -2.5
v -2.5 12 -2.5
v -2.5 13 -2.5
v -1.5 12 -2.5
v -1.5 13 -2.5
v -0.5 10 -2.5
v -0.5 12 -2.5
v 0.5 10 -2.5
v 0.5 12 -2.5
v 1.5 12 -2.5
v 1.5 13 -2.5
v 2.5 12 -2.5
v 2.5 13 -2.5
v 3.5 11 -2.5
v 3.5 12 -2.5
v 4.5 10 -2.5
v 4.5 11 -2.5
v -4.5 0 -3.5
v -4.5 2 -3.5
v -2.5 0 -3.5
v -2.5 2 -3.5
v 2.5 0 -3.5
v 2.5 2 -3.5
v 4.5 0 -3.5
v 4.5 2 -3.5
v -0.5 6 5.5
v -0.5 11 5.5
v 0.5 6 5.5
v 0.5 11 5.5
v -0.5 11 3.5
v -0.5 14 3.5
v 0.5 11 3.5
v 0.5 14 3.5
v -4.5 0 2.5
v -4.5 2 2.5
v -2.5 0 2.5
v -2.5 2 2.5
v 2.5 0 2.5
v 2.5 2 2.5
v 4.5 0 2.5
v 4.5 2 2.5
v -4.5 10 -4.5
v -4.5 11 -4.5
v -3.5 10 -4.5
v -3.5 11 -4.5
v -3.5 12 -4.5
v -2.5 11 -4.5
v -2.5 12 -4.5
v -2.5 13 -4.5
v -1.5 10 -4.5
v -1.5 12 -4.5
v -1.5 13 -4.5
v -0.5 10 -4.5
v -0.5 12 -4.5
v 0.5 10 -4.5
v 0.5 12 -4.5
v 1.5 10 -4.5
v 1.5 12 -4.5
v 1.5 13 -4.5
v 2.5 11 -4.5
v 2.5 12 -4.5
v 2.5 13 -4.5
v 3.5 10 -4.5
v 3.5 11 -4.5
v 3.5 12 -4.5
v 4.5 10 -4.5
v 4.5 11 -4.5
v -4.5 0 -5.5
v -4.5 4 -5.5
v -4.5 5 -5.5
v -4.5 6 -5.5
v -4.5 7 -5.5
v -4.5 10 -5.5
v -3.5 4 -5.5
v -3.5 5 -5.5
v -3.5 6 -5.5
v -3.5 7 -5.5
v -3.5 8 -5.5
v -3.5 9 -5.5
v -2.5 0 -5.5
v -2.5 2 -5.5
v -2.5 5 -5.5
v -2.5 7 -5.5
v -2.5 8 -5.5
v -2.5 9 -5.5
v -1.5 7 -5.5
v -1.5 8 -5.5
v -1.5 9 -5.5
v -0.5 5 -5.5
v -0.5 6 -5.5
v 0.5 5 -5.5
v 0.5 6 -5.5
v 1.5 7 -5.5
v 1.5 8 -5.5
v 1.5 9 -5.5
v 2.5 0 -5.5
v 2.5 2 -5.5
v 2.5 5 -5.5
v 2.5 7 -5.5
v 2.5 8 -5.5
v 2.5 9 -5.5
v 3.5 4 -5.5
v 3.5 5 -5.5
v 3.5 6 -5.5
v 3.5 7 -5.5
v 3.5 8 -5.5
v 3.5 9 -5.5
v 4.5 0 -5.5
v 4.5 4 -5.5
v 4.5 5 -5.5
v 4.5 6 -5.5
v 4.5 7 -5.5
v 4.5 10 -5.5
v -2.5 5 -6.5
v -2.5 7 -6.5
v -1.5 7 -6.5
v -1.5 8 -6.5
v -0.5 5 -6.5
v -0.5 6 -6.5
v -0.5 7 -6.5
v 0.5 5 -6.5
v 0.5 6 -6.5
v 0.5 7 -6.5
v 1.5 7 -6.5
v 1.5 8 -6.5
v 2.5 5 -6.5
v 2.5 7 -6.5
v -4.5 0 4.5
v -2.5 0 4.5
v 2.5 0 4.5
v 4.5 0 4.5
v -4.5 0 2.5
v -2.5 0 2.5
v 2.5 0 2.5
v 4.5 0 2.5
v -4.5 0 -3.5
v -2.5 0 -3.5
v 2.5 0 -3.5
v 4.5 0 -3.5
v -4.5 0 -5.5
v -2.5 0 -5.5
v 2.5 0 -5.5
v 4.5 0 -5.5
v -2.5 2 4.5
v 2.5 2 4.5
v -4.5 2 2.5
v -2.5 2 2.5
v 2.5 2 2.5
v 4.5 2 2.5
v -4.5 2 -3.5
v -2.5 2 -3.5
v 2.5 2 -3.5
v 4.5 2 -3.5
v -2.5 2 -5.5
v 2.5 2 -5.5
v -0.5 5 6.5
v 0.5 5 6.5
v -0.5 5 4.5
v 0.5 5 4.5
v -2.5 5 -5.5
v -0.5 5 -5.5
v 0.5 5 -5.5
v 2.5 5 -5.5
v -2.5 5 -6.5
v -0.5 5 -6.5
v 0.5 5 -6.5
v 2.5 5 -6.5
v -0.5 6 -5.5
v 0.5 6 -5.5
v -0.5 6 -6.5
v 0.5 6 -6.5
v -0.5 11 5.5
v 0.5 11 5.5
v -0.5 11 3.5
v 0.5 11 3.5
v -0.5 13 6.5
v 0.5 13 6.5
v -0.5 13 4.5
v 0.5 13 4.5
v -0.5 6 5.5
v 0.5 6 5.5
v -0.5 6 4.5
v 0.5 6 4.5
v -2.5 7 -5.5
v -1.5 7 -5.5
v 1.5 7 -5.5
v 2.5 7 -5.5
v -2.5 7 -6.5
v -1.5 7 -6.5
v 1.5 7 -6.5
v 2.5 7 -6.5
v -1.5 8 -5.5
v 1.5 8 -5.5
v -1.5 8 -6.5
v 1.5 8 -6.5
v -4.5 10 4.5
v 4.5 10 4.5
v -4.5 10 -2.5
v -0.5 10 -2.5
v 0.5 10 -2.5
v 4.5 10 -2.5
v -4.5 10 -4.5
v -3.5 10 -4.5
v -1.5 10 -4.5
v -0.5 10 -4.5
v 0.5 10 -4.5
v 1.5 10 -4.5
v 3.5 10 -4.5
v 4.5 10 -4.5
v -4.5 10 -5.5
v 4.5 10 -5.5
v -4.5 11 -2.5
v -3.5 11 -2.5
v 3.5 11 -2.5
v 4.5 11 -2.5
v -4.5 11 -4.5
v -3.5 11 -4.5
v 3.5 11 -4.5
v 4.5 11 -4.5
v -0.5 12 6.5
v 0.5 12 6.5
v -0.5 12 4.5
v 0.5 12 4.5
v -3.5 12 -2.5
v -2.5 12 -2.5
v -1.5 12 -2.5
v -0.5 12 -2.5
v 0.5 12 -2.5
v 1.5 12 -2.5
v 2.5 12 -2.5
v 3.5 12 -2.5
v -3.5 12 -4.5
v -2.5 12 -4.5
v -1.5 12 -4.5
v -0.5 12 -4.5
v 0.5 12 -4.5
v 1.5 12 -4.5
v 2.5 12 -4.5
v 3.5 12 -4.5
v -2.5 13 -2.5
v -1.5 13 -2.5
v 1.5 13 -2.5
v 2.5 13 -2.5
v -2.5 13 -4.5
v -1.5 13 -4.5
v 1.5 13 -4.5
v 2.5 13 -4.5
v -0.5 14 6.5
v 0.5 14 6.5
v -0.5 14 3.5
v 0.5 14 3.5

# faces
f 5/7/1 2/7/1 1/7/1
f 6/7/1 4/7/1 3/7/1
f 7/7/1 4/7/1 6/7/1
f 7/7/1 6/7/1 5/7/1
f 8/7/1 4/7/1 7/7/1
f 9/7/1 7/7/1 5/7/1
f 9/8/1 8/8/1 7/8/1
f 10/8/1 8/8/1 9/8/1
f 11/7/1 9/7/1 5/7/1
f 11/7/1 10/7/1 9/7/1
f 12/7/1 10/7/1 11/7/1
f 13/7/1 11/7/1 5/7/1
f 13/8/1 12/8/1 11/8/1
f 14/8/1 12/8/1 13/8/1
f 15/7/1 5/7/1 1/7/1
f 15/7/1 13/7/1 5/7/1
f 15/7/1 14/7/1 13/7/1
f 16/7/1 14/7/1 15/7/1
f 17/7/1 14/7/1 16/7/1
f 18/7/1 14/7/1 17/7/1
f 19/7/1 17/7/1 16/7/1
f 20/7/1 17/7/1 19/7/1
f 23/7/1 22/7/1 21/7/1
f 24/7/1 22/7/1 23/7/1
f 27/7/1 26/7/1 25/7/1
f 28/7/1 26/7/1 27/7/1
f 31/7/1 30/7/1 29/7/1
f 32/7/1 30/7/1 31/7/1
f 35/8/1 34/8/1 33/8/1
f 36/8/1 34/8/1 35/8/1
f 39/7/1 38/7/1 37/7/1
f 40/7/1 38/7/1 39/7/1
f 41/7/1 39/7/1 37/7/1
f 43/7/1 41/7/1 37/7/1
f 43/7/1 42/7/1 41/7/1
f 44/7/1 42/7/1 43/7/1
f 46/7/1 42/7/1 44/7/1
f 47/7/1 46/7/1 45/7/1
f 48/7/1 42/7/1 46/7/1
f 48/7/1 46/7/1 47/7/1
f 51/7/1 50/7/1 49/7/1
f 52/7/1 50/7/1 51/7/1
f 55/7/1 54/7/1 53/7/1
f 56/7/1 54/7/1 55/7/1
f 59/7/1 58/7/1 57/7/1
f 60/7/1 58/7/1 59/7/1
f 65/7/1 62/7/1 61/7/1
f 66/7/1 62/7/1 65/7/1
f 67/7/1 64/7/1 63/7/1
f 68/7/1 64/7/1 67/7/1
f 69/7/2 70/7/2 73/7/2
f 73/7/2 70/7/2 74/7/2
f 71/7/2 72/7/2 75/7/2
f 75/7/2 72/7/2 76/7/2
f 77/7/2 78/7/2 79/7/2
f 79/7/2 78/7/2 80/7/2
f 81/7/2 82/7/2 83/7/2
f 83/7/2 82/7/2 84/7/2
f 85/7/2 86/7/2 87/7/2
f 87/7/2 86/7/2 88/7/2
f 89/7/2 90/7/2 91/7/2
f 91/7/2 90/7/2 92/7/2
f 89/7/2 91/7/2 93/7/2
f 89/7/2 93/7/2 95/7/2
f 93/7/2 94/7/2 95/7/2
f 95/7/2 94/7/2 96/7/2
f 96/7/2 94/7/2 98/7/2
f 97/7/2 98/7/2 99/7/2
f 98/7/2 94/7/2 100/7/2
f 99/7/2 98/7/2 100/7/2
f 101/8/2 102/8/2 103/8/2
f 103/8/2 102/8/2 104/8/2
f 105/7/2 106/7/2 107/7/2
f 107/7/2 106/7/2 108/7/2
f 109/7/2 110/7/2 111/7/2
f 111/7/2 110/7/2 112/7/2
f 113/7/2 114/7/2 115/7/2
f 115/7/2 114/7/2 116/7/2
f 117/7/2 118/7/2 121/7/2
f 119/7/2 120/7/2 122/7/2
f 122/7/2 120/7/2 123/7/2
f 121/7/2 122/7/2 123/7/2
f 123/7/2 120/7/2 124/7/2
f 121/7/2 123/7/2 125/7/2
f 123/8/2 124/8/2 125/8/2
f 125/8/2 124/8/2 126/8/2
f 121/7/2 125/7/2 127/7/2
f 125/7/2 126/7/2 127/7/2
f 127/7/2 126/7/2 128/7/2
f 121/7/2 127/7/2 129/7/2
f 127/8/2 128/8/2 129/8/2
f 129/8/2 128/8/2 130/8/2
f 117/7/2 121/7/2 131/7/2
f 121/7/2 129/7/2 131/7/2
f 129/7/2 130/7/2 131/7/2
f 131/7/2 130/7/2 132/7/2
f 132/7/2 130/7/2 133/7/2
f 133/7/2 130/7/2 134/7/2
f 132/7/2 133/7/2 135/7/2
f 135/7/2 133/7/2 136/7/2
f 141/7/3 138/7/3 137/7/3
f 142/7/3 138/7/3 141/7/3
f 143/7/3 140/7/3 139/7/3
f 144/7/3 140/7/3 143/7/3
f 147/7/3 146/7/3 145/7/3
f 148/7/3 146/7/3 147/7/3
f 149/7/3 146/7/3 148/7/3
f 150/5/3 149/5/3 148/5/3
f 151/7/3 146/7/3 149/7/3
f 151/5/3 149/5/3 150/5/3
f 154/5/3 150/5/3 148/5/3
f 155/7/3 146/7/3 151/7/3
f 156/7/3 153/7/3 152/7/3
f 157/7/3 153/7/3 156/7/3
f 159/5/3 155/5/3 154/5/3
f 159/5/3 154/5/3 148/5/3
f 160/7/3 146/7/3 155/7/3
f 160/5/3 155/5/3 159/5/3
f 161/7/3 159/7/3 158/7/3
f 161/7/3 160/7/3 159/7/3
f 162/7/3 146/7/3 160/7/3
f 162/7/3 160/7/3 161/7/3
f 165/7/3 164/7/3 163/7/3
f 167/7/3 166/7/3 165/7/3
f 169/7/3 167/7/3 165/7/3
f 169/7/3 168/7/3 167/7/3
f 170/7/3 168/7/3 169/7/3
f 171/7/3 165/7/3 163/7/3
f 171/7/3 169/7/3 165/7/3
f 172/7/3 169/7/3 171/7/3
f 175/7/3 174/7/3 173/7/3
f 177/7/3 175/7/3 173/7/3
f 177/7/3 176/7/3 175/7/3
f 178/7/3 176/7/3 177/7/3
f 179/7/3 177/7/3 173/7/3
f 180/7/3 177/7/3 179/7/3
f 181/7/3 179/7/3 173/7/3
f 182/7/3 179/7/3 181/7/3
f 185/7/3 184/7/3 183/7/3
f 186/7/3 184/7/3 185/7/3
f 189/7/3 188/7/3 187/7/3
f 190/7/3 188/7/3 189/7/3
f 191/7/4 192/7/4 193/7/4
f 193/7/4 192/7/4 194/7/4
f 195/7/4 196/7/4 197/7/4
f 197/7/4 196/7/4 198/7/4
f 199/7/4 200/7/4 201/7/4
f 201/7/4 200/7/4 202/7/4
f 203/7/4 204/7/4 205/7/4
f 205/7/4 204/7/4 206/7/4
f 207/7/4 208/7/4 209/7/4
f 209/7/4 208/7/4 210/7/4
f 209/8/4 210/8/4 212/8/4
f 210/7/4 211/7/4 212/7/4
f 212/7/4 211/7/4 213/7/4
f 209/8/4 212/8/4 215/8/4
f 212/8/4 213/8/4 215/8/4
f 213/7/4 214/7/4 216/7/4
f 215/8/4 213/8/4 216/8/4
f 216/7/4 214/7/4 217/7/4
f 215/7/4 216/7/4 218/7/4
f 218/7/4 216/7/4 219/7/4
f 220/7/4 221/7/4 222/7/4
f 222/7/4 221/7/4 223/7/4
f 222/8/4 223/8/4 225/8/4
f 223/7/4 224/7/4 226/7/4
f 225/8/4 223/8/4 226/8/4
f 226/7/4 224/7/4 227/7/4
f 222/8/4 225/8/4 228/8/4
f 225/7/4 226/7/4 229/7/4
f 228/8/4 225/8/4 229/8/4
f 229/7/4 226/7/4 230/7/4
f 228/7/4 229/7/4 231/7/4
f 231/7/4 229/7/4 232/7/4
f 233/7/4 234/7/4 239/7/4
f 234/8/4 235/8/4 239/8/4
f 235/7/4 236/7/4 240/7/4
f 239/8/4 235/8/4 240/8/4
f 236/8/4 237/8/4 241/8/4
f 240/7/4 236/7/4 241/7/4
f 237/7/4 238/7/4 242/7/4
f 241/8/4 237/8/4 242/8/4
f 242/7/4 238/7/4 243/7/4
f 243/7/4 238/7/4 244/7/4
f 240/7/4 241/7/4 245/7/4
f 239/7/4 240/7/4 245/7/4
f 233/7/4 239/7/4 245/7/4
f 241/7/4 242/7/4 245/7/4
f 245/7/4 242/7/4 246/7/4
f 246/7/4 242/7/4 247/7/4
f 242/9/4 243/9/4 248/9/4
f 247/7/4 242/7/4 248/7/4
f 243/1/4 244/1/4 249/1/4
f 248/9/4 243/9/4 249/9/4
f 244/7/4 238/7/4 250/7/4
f 249/1/4 244/1/4 250/1/4
f 248/9/4 249/9/4 251/9/4
f 249/9/4 250/9/4 251/9/4
f 251/9/4 250/9/4 252/9/4
f 250/7/4 238/7/4 253/7/4
f 252/9/4 250/9/4 253/9/4
f 246/5/4 247/5/4 254/5/4
f 246/5/4 254/5/4 256/5/4
f 254/5/4 255/5/4 256/5/4
f 256/5/4 255/5/4 257/5/4
f 252/7/4 253/7/4 259/7/4
f 253/7/4 238/7/4 260/7/4
f 259/7/4 253/7/4 260/7/4
f 246/5/4 256/5/4 262/5/4
f 262/5/4 256/5/4 263/5/4
f 258/9/4 259/9/4 264/9/4
f 259/9/4 260/9/4 264/9/4
f 264/9/4 260/9/4 265/9/4
f 260/7/4 238/7/4 266/7/4
f 265/9/4 260/9/4 266/9/4
f 262/7/4 263/7/4 267/7/4
f 261/7/4 262/7/4 267/7/4
f 263/7/4 264/7/4 267/7/4
f 267/7/4 264/7/4 268/7/4
f 268/7/4 264/7/4 269/7/4
f 264/9/4 265/9/4 270/9/4
f 269/7/4 264/7/4 270/7/4
f 265/1/4 266/1/4 271/1/4
f 270/9/4 265/9/4 271/9/4
f 266/7/4 238/7/4 272/7/4
f 271/1/4 266/1/4 272/1/4
f 261/7/4 267/7/4 273/7/4
f 267/8/4 268/8/4 274/8/4
f 273/7/4 267/7/4 274/7/4
f 268/7/4 269/7/4 275/7/4
f 274/8/4 268/8/4 275/8/4
f 269/8/4 270/8/4 276/8/4
f 275/7/4 269/7/4 276/7/4
f 270/7/4 271/7/4 277/7/4
f 276/8/4 270/8/4 277/8/4
f 271/7/4 272/7/4 277/7/4
f 272/7/4 238/7/4 278/7/4
f 277/7/4 272/7/4 278/7/4
f 279/7/4 280/7/4 281/7/4
f 279/7/4 281/7/4 283/7/4
f 283/7/4 281/7/4 284/7/4
f 281/8/4 282/8/4 285/8/4
f 284/7/4 281/7/4 285/7/4
f 284/8/4 285/8/4 287/8/4
f 285/8/4 282/8/4 288/8/4
f 287/8/4 285/8/4 288/8/4
f 286/7/4 287/7/4 289/7/4
f 288/8/4 282/8/4 289/8/4
f 287/7/4 288/7/4 289/7/4
f 289/8/4 282/8/4 290/8/4
f 286/7/4 289/7/4 291/7/4
f 291/7/4 289/7/4 292/7/4
f 297/7/5 294/7/5 293/7/5
f 298/7/5 294/7/5 297/7/5
f 299/7/5 296/7/5 295/7/5
f 300/7/5 296/7/5 299/7/5
f 305/7/5 302/7/5 301/7/5
f 306/7/5 302/7/5 305/7/5
f 307/7/5 304/7/5 303/7/5
f 308/7/5 304/7/5 307/7/5
f 312/5/5 310/5/5 309/5/5
f 313/5/5 310/5/5 312/5/5
f 315/7/5 312/7/5 311/7/5
f 316/5/5 313/5/5 312/5/5
f 316/7/5 312/7/5 315/7/5
f 317/7/5 314/7/5 313/7/5
f 317/5/5 313/5/5 316/5/5
f 318/7/5 314/7/5 317/7/5
f 319/5/5 317/5/5 316/5/5
f 320/5/5 317/5/5 319/5/5
f 323/7/5 322/7/5 321/7/5
f 324/7/5 322/7/5 323/7/5
f 329/7/5 326/7/5 325/7/5
f 330/7/5 326/7/5 329/7/5
f 331/7/5 328/7/5 327/7/5
f 332/7/5 328/7/5 331/7/5
f 335/8/5 334/8/5 333/8/5
f 336/8/5 334/8/5 335/8/5
f 339/7/5 338/7/5 337/7/5
f 340/7/5 338/7/5 339/7/5
f 343/7/5 342/7/5 341/7/5
f 344/7/5 342/7/5 343/7/5
f 345/7/6 346/7/6 347/7/6
f 347/7/6 346/7/6 348/7/6
f 349/7/6 350/7/6 353/7/6
f 353/7/6 350/7/6 354/7/6
f 351/7/6 352/7/6 355/7/6
f 355/7/6 352/7/6 356/7/6
f 357/8/6 358/8/6 359/8/6
f 359/8/6 358/8/6 360/8/6
f 361/7/6 362/7/6 363/7/6
f 363/7/6 362/7/6 364/7/6
f 364/7/6 362/7/6 365/7/6
f 365/7/6 362/7/6 366/7/6
f 364/7/6 365/7/6 370/7/6
f 370/7/6 365/7/6 371/7/6
f 368/7/6 369/7/6 375/7/6
f 373/7/6 374/7/6 375/7/6
f 372/7/6 373/7/6 375/7/6
f 371/7/6 372/7/6 375/7/6
f 370/7/6 371/7/6 375/7/6
f 369/7/6 370/7/6 375/7/6
f 367/7/6 368/7/6 375/7/6
f 375/7/6 374/7/6 376/7/6
f 377/7/6 378/7/6 381/7/6
f 381/7/6 378/7/6 382/7/6
f 379/7/6 380/7/6 383/7/6
f 383/7/6 380/7/6 384/7/6
f 385/7/6 386/7/6 387/7/6
f 387/7/6 386/7/6 388/7/6
f 389/7/6 390/7/6 397/7/6
f 397/7/6 390/7/6 398/7/6
f 391/7/6 392/7/6 399/7/6
f 399/7/6 392/7/6 400/7/6
f 393/7/6 394/7/6 401/7/6
f 401/7/6 394/7/6 402/7/6
f 395/7/6 396/7/6 403/7/6
f 403/7/6 396/7/6 404/7/6
f 405/7/6 406/7/6 409/7/6
f 409/7/6 406/7/6 410/7/6
f 407/7/6 408/7/6 411/7/6
f 411/7/6 408/7/6 412/7/6
f 413/7/6 414/7/6 415/7/6
f 415/7/6 414/7/6 416/7/6
