# MagicaVoxel @ Ephtracy

# group
g animal-14

# material
mtllib animal-0.mtl
usemtl palette

# normals
vn -1 0 0
vn 1 0 0
vn 0 0 1
vn 0 0 -1
vn 0 -1 0
vn 0 1 0

# texcoords
vt 0.00195312 0.5
vt 0.0136719 0.5
vt 0.537109 0.5
vt 0.853516 0.5
vt 0.876953 0.5
vt 0.958984 0.5
vt 0.962891 0.5
vt 0.990234 0.5

# verts
v -3.5 0 -1
v -3.5 0 -4
v -3.5 1 -1
v -3.5 1 -4
v -3.5 4 1
v -3.5 4 -4
v -3.5 6 1
v -3.5 6 -4
v -2.5 1 -1
v -2.5 1 -2
v -2.5 2 2
v -2.5 2 -1
v -2.5 2 -2
v -2.5 2 -5
v -2.5 4 1
v -2.5 4 -4
v -2.5 6 2
v -2.5 6 1
v -2.5 6 -4
v -2.5 6 -5
v -2.5 7 2
v -2.5 7 -0
v -2.5 7 -1
v -2.5 7 -4
v -2.5 8 -2
v -2.5 8 -4
v -2.5 9 -2
v -2.5 9 -3
v -2.5 10 -1
v -2.5 10 -2
v -2.5 10 -3
v -2.5 10 -4
v -2.5 11 -0
v -2.5 11 -2
v -2.5 11 -5
v -1.5 0 -3
v -1.5 0 -4
v -1.5 1 -3
v -1.5 1 -4
v -1.5 2 3
v -1.5 2 2
v -1.5 6 4
v -1.5 6 3
v -1.5 6 2
v -1.5 7 4
v -1.5 7 2
v -0.5 4 4
v -0.5 4 3
v -0.5 5 6
v -0.5 5 4
v -0.5 6 7
v -0.5 6 6
v -0.5 6 4
v -0.5 6 3
v -0.5 7 7
v -0.5 7 4
v -0.5 7 -5
v -0.5 7 -7
v -0.5 9 -5
v -0.5 9 -7
v 0.5 0 -1
v 0.5 0 -4
v 0.5 1 -1
v 0.5 1 -4
v 1.5 1 -1
v 1.5 1 -2
v 1.5 2 -1
v 1.5 2 -2
v 2.5 0 -3
v 2.5 0 -4
v 2.5 1 -3
v 2.5 1 -4
v -2.5 0 -3
v -2.5 0 -4
v -2.5 1 -3
v -2.5 1 -4
v -1.5 1 -1
v -1.5 1 -2
v -1.5 2 -1
v -1.5 2 -2
v -0.5 0 -1
v -0.5 0 -4
v -0.5 1 -1
v -0.5 1 -4
v 0.5 4 4
v 0.5 4 3
v 0.5 5 6
v 0.5 5 4
v 0.5 6 7
v 0.5 6 6
v 0.5 6 4
v 0.5 6 3
v 0.5 7 7
v 0.5 7 4
v 0.5 7 -5
v 0.5 7 -7
v 0.5 9 -5
v 0.5 9 -7
v 1.5 0 -3
v 1.5 0 -4
v 1.5 1 -3
v 1.5 1 -4
v 1.5 2 3
v 1.5 2 2
v 1.5 6 4
v 1.5 6 3
v 1.5 6 2
v 1.5 7 4
v 1.5 7 2
v 2.5 1 -1
v 2.5 1 -2
v 2.5 2 2
v 2.5 2 -1
v 2.5 2 -2
v 2.5 2 -5
v 2.5 4 1
v 2.5 4 -4
v 2.5 6 2
v 2.5 6 1
v 2.5 6 -2
v 2.5 6 -4
v 2.5 6 -5
v 2.5 7 2
v 2.5 7 -0
v 2.5 7 -1
v 2.5 7 -2
v 2.5 8 -2
v 2.5 8 -4
v 2.5 9 -2
v 2.5 9 -3
v 2.5 10 -1
v 2.5 10 -2
v 2.5 10 -3
v 2.5 10 -4
v 2.5 11 -0
v 2.5 11 -2
v 2.5 11 -5
v 3.5 0 -1
v 3.5 0 -4
v 3.5 1 -1
v 3.5 1 -4
v 3.5 4 1
v 3.5 4 -4
v 3.5 6 1
v 3.5 6 -4
v -0.5 6 7
v -0.5 7 7
v 0.5 6 7
v 0.5 7 7
v -0.5 5 6
v -0.5 6 6
v 0.5 5 6
v 0.5 6 6
v -1.5 6 4
v -1.5 7 4
v -0.5 4 4
v -0.5 5 4
v -0.5 6 4
v -0.5 7 4
v 0.5 4 4
v 0.5 5 4
v 0.5 6 4
v 0.5 7 4
v 1.5 6 4
v 1.5 7 4
v -1.5 2 3
v -1.5 6 3
v -0.5 4 3
v -0.5 6 3
v 0.5 4 3
v 0.5 6 3
v 1.5 2 3
v 1.5 6 3
v -2.5 2 2
v -2.5 6 2
v -2.5 7 2
v -1.5 2 2
v -1.5 6 2
v -1.5 7 2
v 1.5 2 2
v 1.5 6 2
v 1.5 7 2
v 2.5 2 2
v 2.5 6 2
v 2.5 7 2
v -3.5 4 1
v -3.5 6 1
v -2.5 4 1
v -2.5 6 1
v 2.5 4 1
v 2.5 6 1
v 3.5 4 1
v 3.5 6 1
v -2.5 7 -0
v -2.5 11 -0
v 2.5 7 -0
v 2.5 11 -0
v -3.5 0 -1
v -3.5 1 -1
v -2.5 1 -1
v -2.5 2 -1
v -1.5 1 -1
v -1.5 2 -1
v -0.5 0 -1
v -0.5 1 -1
v 0.5 0 -1
v 0.5 1 -1
v 1.5 1 -1
v 1.5 2 -1
v 2.5 1 -1
v 2.5 2 -1
v 3.5 0 -1
v 3.5 1 -1
v -2.5 1 -2
v -2.5 2 -2
v -1.5 1 -2
v -1.5 2 -2
v 1.5 1 -2
v 1.5 2 -2
v 2.5 1 -2
v 2.5 2 -2
v -2.5 0 -3
v -2.5 1 -3
v -1.5 0 -3
v -1.5 1 -3
v 1.5 0 -3
v 1.5 1 -3
v 2.5 0 -3
v 2.5 1 -3
v -3.5 0 -4
v -3.5 1 -4
v -3.5 4 -4
v -3.5 6 -4
v -2.5 0 -4
v -2.5 1 -4
v -2.5 4 -4
v -2.5 6 -4
v -1.5 0 -4
v -1.5 1 -4
v -0.5 0 -4
v -0.5 1 -4
v 0.5 0 -4
v 0.5 1 -4
v 1.5 0 -4
v 1.5 1 -4
v 2.5 0 -4
v 2.5 1 -4
v 2.5 4 -4
v 2.5 6 -4
v 3.5 0 -4
v 3.5 1 -4
v 3.5 4 -4
v 3.5 6 -4
v -2.5 2 -5
v -2.5 6 -5
v -2.5 11 -5
v -1.5 5 -5
v -1.5 6 -5
v -0.5 4 -5
v -0.5 5 -5
v -0.5 7 -5
v -0.5 9 -5
v 0.5 4 -5
v 0.5 5 -5
v 0.5 7 -5
v 0.5 9 -5
v 1.5 5 -5
v 1.5 6 -5
v 2.5 2 -5
v 2.5 6 -5
v 2.5 11 -5
v -0.5 7 -7
v -0.5 9 -7
v 0.5 7 -7
v 0.5 9 -7
v -3.5 0 -1
v -0.5 0 -1
v 0.5 0 -1
v 3.5 0 -1
v -2.5 0 -3
v -1.5 0 -3
v 1.5 0 -3
v 2.5 0 -3
v -3.5 0 -4
v -2.5 0 -4
v -1.5 0 -4
v -0.5 0 -4
v 0.5 0 -4
v 1.5 0 -4
v 2.5 0 -4
v 3.5 0 -4
v -1.5 2 3
v 1.5 2 3
v -2.5 2 2
v -1.5 2 2
v 1.5 2 2
v 2.5 2 2
v -2.5 2 -1
v -1.5 2 -1
v 1.5 2 -1
v 2.5 2 -1
v -2.5 2 -2
v -1.5 2 -2
v 1.5 2 -2
v 2.5 2 -2
v -2.5 2 -5
v 2.5 2 -5
v -0.5 4 4
v 0.5 4 4
v -0.5 4 3
v 0.5 4 3
v -3.5 4 1
v -2.5 4 1
v 2.5 4 1
v 3.5 4 1
v -3.5 4 -4
v -2.5 4 -4
v 2.5 4 -4
v 3.5 4 -4
v -0.5 5 6
v 0.5 5 6
v -0.5 5 4
v 0.5 5 4
v -0.5 6 7
v 0.5 6 7
v -0.5 6 6
v 0.5 6 6
v -1.5 6 4
v -0.5 6 4
v 0.5 6 4
v 1.5 6 4
v -1.5 6 3
v -0.5 6 3
v 0.5 6 3
v 1.5 6 3
v -0.5 7 -5
v 0.5 7 -5
v -0.5 7 -7
v 0.5 7 -7
v -3.5 1 -1
v -2.5 1 -1
v -1.5 1 -1
v -0.5 1 -1
v 0.5 1 -1
v 1.5 1 -1
v 2.5 1 -1
v 3.5 1 -1
v -2.5 1 -2
v -1.5 1 -2
v 1.5 1 -2
v 2.5 1 -2
v -2.5 1 -3
v -1.5 1 -3
v 1.5 1 -3
v 2.5 1 -3
v -3.5 1 -4
v -2.5 1 -4
v -1.5 1 -4
v -0.5 1 -4
v 0.5 1 -4
v 1.5 1 -4
v 2.5 1 -4
v 3.5 1 -4
v -3.5 6 1
v -2.5 6 1
v 2.5 6 1
v 3.5 6 1
v 2.5 6 -2
v -3.5 6 -4
v -2.5 6 -4
v 2.5 6 -4
v 3.5 6 -4
v -0.5 7 7
v 0.5 7 7
v -1.5 7 4
v -0.5 7 4
v 0.5 7 4
v 1.5 7 4
v -2.5 7 2
v -1.5 7 2
v 1.5 7 2
v 2.5 7 2
v -2.5 7 -0
v 2.5 7 -0
v -0.5 9 -5
v 0.5 9 -5
v -0.5 9 -7
v 0.5 9 -7
v -2.5 11 -0
v 2.5 11 -0
v -2.5 11 -2
v -1.5 11 -2
v 1.5 11 -2
v 2.5 11 -2
v -1.5 11 -3
v -0.5 11 -3
v 0.5 11 -3
v 1.5 11 -3
v -0.5 11 -4
v 0.5 11 -4
v -2.5 11 -5
v 2.5 11 -5

# faces
f 3/8/1 2/8/1 1/8/1
f 4/8/1 2/8/1 3/8/1
f 7/3/1 6/3/1 5/3/1
f 8/3/1 6/3/1 7/3/1
f 12/8/1 10/8/1 9/8/1
f 13/8/1 10/8/1 12/8/1
f 15/7/1 12/7/1 11/7/1
f 15/7/1 14/7/1 13/7/1
f 15/7/1 13/7/1 12/7/1
f 16/7/1 14/7/1 15/7/1
f 17/7/1 15/7/1 11/7/1
f 18/7/1 15/7/1 17/7/1
f 19/7/1 14/7/1 16/7/1
f 20/7/1 14/7/1 19/7/1
f 21/3/1 18/3/1 17/3/1
f 21/3/1 19/3/1 18/3/1
f 22/3/1 19/3/1 21/3/1
f 23/3/1 19/3/1 22/3/1
f 24/4/1 20/4/1 19/4/1
f 24/3/1 19/3/1 23/3/1
f 25/4/1 24/4/1 23/4/1
f 26/4/1 20/4/1 24/4/1
f 26/4/1 24/4/1 25/4/1
f 27/4/1 25/4/1 23/4/1
f 27/5/1 26/5/1 25/5/1
f 28/5/1 26/5/1 27/5/1
f 29/3/1 23/3/1 22/3/1
f 29/4/1 27/4/1 23/4/1
f 30/6/1 28/6/1 27/6/1
f 30/4/1 27/4/1 29/4/1
f 31/5/1 26/5/1 28/5/1
f 31/6/1 28/6/1 30/6/1
f 32/4/1 20/4/1 26/4/1
f 32/5/1 26/5/1 31/5/1
f 33/3/1 30/3/1 29/3/1
f 33/3/1 29/3/1 22/3/1
f 34/4/1 31/4/1 30/4/1
f 34/3/1 30/3/1 33/3/1
f 34/4/1 32/4/1 31/4/1
f 35/4/1 20/4/1 32/4/1
f 35/4/1 32/4/1 34/4/1
f 38/8/1 37/8/1 36/8/1
f 39/8/1 37/8/1 38/8/1
f 43/7/1 41/7/1 40/7/1
f 44/7/1 41/7/1 43/7/1
f 45/3/1 43/3/1 42/3/1
f 45/3/1 44/3/1 43/3/1
f 46/3/1 44/3/1 45/3/1
f 50/7/1 48/7/1 47/7/1
f 52/3/1 50/3/1 49/3/1
f 53/7/1 48/7/1 50/7/1
f 53/3/1 50/3/1 52/3/1
f 54/7/1 48/7/1 53/7/1
f 55/3/1 52/3/1 51/3/1
f 55/3/1 53/3/1 52/3/1
f 56/3/1 53/3/1 55/3/1
f 59/5/1 58/5/1 57/5/1
f 60/5/1 58/5/1 59/5/1
f 63/8/1 62/8/1 61/8/1
f 64/8/1 62/8/1 63/8/1
f 67/8/1 66/8/1 65/8/1
f 68/8/1 66/8/1 67/8/1
f 71/8/1 70/8/1 69/8/1
f 72/8/1 70/8/1 71/8/1
f 73/8/2 74/8/2 75/8/2
f 75/8/2 74/8/2 76/8/2
f 77/8/2 78/8/2 79/8/2
f 79/8/2 78/8/2 80/8/2
f 81/8/2 82/8/2 83/8/2
f 83/8/2 82/8/2 84/8/2
f 85/7/2 86/7/2 88/7/2
f 87/3/2 88/3/2 90/3/2
f 88/7/2 86/7/2 91/7/2
f 90/3/2 88/3/2 91/3/2
f 91/7/2 86/7/2 92/7/2
f 89/3/2 90/3/2 93/3/2
f 90/3/2 91/3/2 93/3/2
f 93/3/2 91/3/2 94/3/2
f 95/5/2 96/5/2 97/5/2
f 97/5/2 96/5/2 98/5/2
f 99/8/2 100/8/2 101/8/2
f 101/8/2 100/8/2 102/8/2
f 103/7/2 104/7/2 106/7/2
f 106/7/2 104/7/2 107/7/2
f 105/3/2 106/3/2 108/3/2
f 106/3/2 107/3/2 108/3/2
f 108/3/2 107/3/2 109/3/2
f 110/8/2 111/8/2 113/8/2
f 113/8/2 111/8/2 114/8/2
f 112/7/2 113/7/2 116/7/2
f 114/7/2 115/7/2 116/7/2
f 113/7/2 114/7/2 116/7/2
f 116/7/2 115/7/2 117/7/2
f 112/7/2 116/7/2 118/7/2
f 118/7/2 116/7/2 119/7/2
f 117/7/2 115/7/2 121/7/2
f 121/7/2 115/7/2 122/7/2
f 119/3/2 120/3/2 123/3/2
f 118/3/2 119/3/2 123/3/2
f 123/3/2 120/3/2 124/3/2
f 124/3/2 120/3/2 125/3/2
f 121/4/2 122/4/2 126/4/2
f 125/3/2 120/3/2 126/3/2
f 120/4/2 121/4/2 126/4/2
f 126/4/2 122/4/2 127/4/2
f 125/4/2 126/4/2 127/4/2
f 127/4/2 122/4/2 128/4/2
f 125/4/2 127/4/2 129/4/2
f 127/5/2 128/5/2 129/5/2
f 129/5/2 128/5/2 130/5/2
f 124/3/2 125/3/2 131/3/2
f 125/4/2 129/4/2 131/4/2
f 129/1/2 130/1/2 132/1/2
f 131/4/2 129/4/2 132/4/2
f 130/5/2 128/5/2 133/5/2
f 132/1/2 130/1/2 133/1/2
f 128/4/2 122/4/2 134/4/2
f 133/5/2 128/5/2 134/5/2
f 131/3/2 132/3/2 135/3/2
f 124/3/2 131/3/2 135/3/2
f 132/4/2 133/4/2 136/4/2
f 135/3/2 132/3/2 136/3/2
f 133/4/2 134/4/2 136/4/2
f 134/4/2 122/4/2 137/4/2
f 136/4/2 134/4/2 137/4/2
f 138/8/2 139/8/2 140/8/2
f 140/8/2 139/8/2 141/8/2
f 142/3/2 143/3/2 144/3/2
f 144/3/2 143/3/2 145/3/2
f 148/3/3 147/3/3 146/3/3
f 149/3/3 147/3/3 148/3/3
f 152/3/3 151/3/3 150/3/3
f 153/3/3 151/3/3 152/3/3
f 158/3/3 155/3/3 154/3/3
f 159/3/3 155/3/3 158/3/3
f 160/7/3 157/7/3 156/7/3
f 161/7/3 157/7/3 160/7/3
f 164/3/3 163/3/3 162/3/3
f 165/3/3 163/3/3 164/3/3
f 168/7/3 167/7/3 166/7/3
f 169/7/3 167/7/3 168/7/3
f 170/7/3 168/7/3 166/7/3
f 172/7/3 170/7/3 166/7/3
f 172/7/3 171/7/3 170/7/3
f 173/7/3 171/7/3 172/7/3
f 177/7/3 175/7/3 174/7/3
f 178/3/3 176/3/3 175/3/3
f 178/7/3 175/7/3 177/7/3
f 179/3/3 176/3/3 178/3/3
f 183/7/3 181/7/3 180/7/3
f 184/3/3 182/3/3 181/3/3
f 184/7/3 181/7/3 183/7/3
f 185/3/3 182/3/3 184/3/3
f 188/3/3 187/3/3 186/3/3
f 189/3/3 187/3/3 188/3/3
f 192/3/3 191/3/3 190/3/3
f 193/3/3 191/3/3 192/3/3
f 196/3/3 195/3/3 194/3/3
f 197/3/3 195/3/3 196/3/3
f 200/8/3 199/8/3 198/8/3
f 202/8/3 200/8/3 198/8/3
f 202/8/3 201/8/3 200/8/3
f 203/8/3 201/8/3 202/8/3
f 204/8/3 202/8/3 198/8/3
f 205/8/3 202/8/3 204/8/3
f 208/8/3 207/8/3 206/8/3
f 210/8/3 208/8/3 206/8/3
f 210/8/3 209/8/3 208/8/3
f 211/8/3 209/8/3 210/8/3
f 212/8/3 210/8/3 206/8/3
f 213/8/3 210/8/3 212/8/3
f 214/8/4 215/8/4 216/8/4
f 216/8/4 215/8/4 217/8/4
f 218/8/4 219/8/4 220/8/4
f 220/8/4 219/8/4 221/8/4
f 222/8/4 223/8/4 224/8/4
f 224/8/4 223/8/4 225/8/4
f 226/8/4 227/8/4 228/8/4
f 228/8/4 227/8/4 229/8/4
f 230/8/4 231/8/4 234/8/4
f 234/8/4 231/8/4 235/8/4
f 232/3/4 233/3/4 236/3/4
f 236/3/4 233/3/4 237/3/4
f 238/8/4 239/8/4 240/8/4
f 240/8/4 239/8/4 241/8/4
f 242/8/4 243/8/4 244/8/4
f 244/8/4 243/8/4 245/8/4
f 246/8/4 247/8/4 250/8/4
f 250/8/4 247/8/4 251/8/4
f 248/3/4 249/3/4 252/3/4
f 252/3/4 249/3/4 253/3/4
f 254/7/4 255/7/4 257/7/4
f 255/4/4 256/4/4 258/4/4
f 257/7/4 255/7/4 258/7/4
f 254/7/4 257/7/4 259/7/4
f 257/4/4 258/4/4 260/4/4
f 259/7/4 257/7/4 260/7/4
f 258/4/4 256/4/4 261/4/4
f 260/4/4 258/4/4 261/4/4
f 261/4/4 256/4/4 262/4/4
f 259/4/4 260/4/4 263/4/4
f 254/7/4 259/7/4 263/7/4
f 260/4/4 261/4/4 263/4/4
f 263/4/4 261/4/4 264/4/4
f 264/4/4 261/4/4 265/4/4
f 262/4/4 256/4/4 266/4/4
f 264/4/4 265/4/4 267/4/4
f 265/4/4 266/4/4 267/4/4
f 263/7/4 264/7/4 267/7/4
f 267/4/4 266/4/4 268/4/4
f 254/7/4 263/7/4 269/7/4
f 263/7/4 267/7/4 269/7/4
f 267/7/4 268/7/4 269/7/4
f 268/4/4 266/4/4 270/4/4
f 269/7/4 268/7/4 270/7/4
f 266/4/4 256/4/4 271/4/4
f 270/4/4 266/4/4 271/4/4
f 272/5/4 273/5/4 274/5/4
f 274/5/4 273/5/4 275/5/4
f 280/8/5 277/8/5 276/8/5
f 281/8/5 277/8/5 280/8/5
f 282/8/5 279/8/5 278/8/5
f 283/8/5 279/8/5 282/8/5
f 284/8/5 280/8/5 276/8/5
f 285/8/5 280/8/5 284/8/5
f 286/8/5 277/8/5 281/8/5
f 287/8/5 277/8/5 286/8/5
f 288/8/5 282/8/5 278/8/5
f 289/8/5 282/8/5 288/8/5
f 290/8/5 279/8/5 283/8/5
f 291/8/5 279/8/5 290/8/5
f 295/7/5 293/7/5 292/7/5
f 296/7/5 293/7/5 295/7/5
f 298/7/5 295/7/5 294/7/5
f 298/7/5 297/7/5 296/7/5
f 298/7/5 296/7/5 295/7/5
f 299/7/5 297/7/5 298/7/5
f 300/7/5 297/7/5 299/7/5
f 301/7/5 297/7/5 300/7/5
f 303/7/5 300/7/5 299/7/5
f 304/7/5 300/7/5 303/7/5
f 306/7/5 303/7/5 302/7/5
f 306/7/5 305/7/5 304/7/5
f 306/7/5 304/7/5 303/7/5
f 307/7/5 305/7/5 306/7/5
f 310/7/5 309/7/5 308/7/5
f 311/7/5 309/7/5 310/7/5
f 316/3/5 313/3/5 312/3/5
f 317/3/5 313/3/5 316/3/5
f 318/3/5 315/3/5 314/3/5
f 319/3/5 315/3/5 318/3/5
f 322/3/5 321/3/5 320/3/5
f 323/3/5 321/3/5 322/3/5
f 326/3/5 325/3/5 324/3/5
f 327/3/5 325/3/5 326/3/5
f 332/3/5 329/3/5 328/3/5
f 333/3/5 329/3/5 332/3/5
f 334/3/5 331/3/5 330/3/5
f 335/3/5 331/3/5 334/3/5
f 338/5/5 337/5/5 336/5/5
f 339/5/5 337/5/5 338/5/5
f 340/8/6 341/8/6 348/8/6
f 342/8/6 343/8/6 349/8/6
f 344/8/6 345/8/6 350/8/6
f 346/8/6 347/8/6 351/8/6
f 340/8/6 348/8/6 352/8/6
f 348/8/6 349/8/6 352/8/6
f 349/8/6 343/8/6 353/8/6
f 352/8/6 349/8/6 353/8/6
f 344/8/6 350/8/6 354/8/6
f 350/8/6 351/8/6 354/8/6
f 351/8/6 347/8/6 355/8/6
f 354/8/6 351/8/6 355/8/6
f 340/8/6 352/8/6 356/8/6
f 356/8/6 352/8/6 357/8/6
f 353/8/6 343/8/6 358/8/6
f 358/8/6 343/8/6 359/8/6
f 344/8/6 354/8/6 360/8/6
f 360/8/6 354/8/6 361/8/6
f 355/8/6 347/8/6 362/8/6
f 362/8/6 347/8/6 363/8/6
f 366/3/6 367/3/6 368/3/6
f 364/3/6 365/3/6 369/3/6
f 369/3/6 365/3/6 370/3/6
f 368/3/6 367/3/6 371/3/6
f 371/3/6 367/3/6 372/3/6
f 373/3/6 374/3/6 376/3/6
f 376/3/6 374/3/6 377/3/6
f 375/3/6 376/3/6 380/3/6
f 377/3/6 378/3/6 380/3/6
f 376/3/6 377/3/6 380/3/6
f 380/3/6 378/3/6 381/3/6
f 379/3/6 380/3/6 383/3/6
f 381/3/6 382/3/6 383/3/6
f 380/3/6 381/3/6 383/3/6
f 383/3/6 382/3/6 384/3/6
f 385/5/6 386/5/6 387/5/6
f 387/5/6 386/5/6 388/5/6
f 389/3/6 390/3/6 391/3/6
f 391/3/6 390/3/6 392/3/6
f 392/3/6 390/3/6 393/3/6
f 393/3/6 390/3/6 394/3/6
f 391/4/6 392/4/6 395/4/6
f 392/3/6 393/3/6 395/3/6
f 395/3/6 393/3/6 396/3/6
f 396/3/6 393/3/6 397/3/6
f 393/4/6 394/4/6 398/4/6
f 397/3/6 393/3/6 398/3/6
f 396/3/6 397/3/6 399/3/6
f 395/4/6 396/4/6 399/4/6
f 397/4/6 398/4/6 400/4/6
f 399/3/6 397/3/6 400/3/6
f 391/4/6 395/4/6 401/4/6
f 395/4/6 399/4/6 401/4/6
f 399/4/6 400/4/6 401/4/6
f 398/4/6 394/4/6 402/4/6
f 401/4/6 400/4/6 402/4/6
f 400/4/6 398/4/6 402/4/6
