# MagicaVoxel @ Ephtracy

# group
g animal-20

# material
mtllib animal-0.mtl
usemtl palette

# normals
vn -1 0 0
vn 1 0 0
vn 0 0 1
vn 0 0 -1
vn 0 -1 0
vn 0 1 0

# texcoords
vt 0.00195312 0.5
vt 0.00585938 0.5
vt 0.0292969 0.5
vt 0.0371094 0.5
vt 0.0566406 0.5
vt 0.208984 0.5
vt 0.373047 0.5
vt 0.533203 0.5
vt 0.537109 0.5
vt 0.958984 0.5
vt 0.994141 0.5

# verts
v -4 0 5
v -4 0 3
v -4 0 -5
v -4 0 -7
v -4 1 5
v -4 1 3
v -4 1 -5
v -4 1 -7
v -4 4 3
v -4 4 -5
v -4 9 5
v -4 9 -2
v -4 9 -7
v -4 9 -10
v -4 11 -4
v -4 11 -6
v -4 12 -4
v -4 12 -5
v -4 13 -4
v -4 13 -5
v -4 13 -6
v -4 14 -2
v -4 14 -10
v -3 14 -3
v -3 14 -4
v -3 16 -3
v -3 16 -4
v -1 9 3
v -1 9 -2
v -1 10 3
v -1 10 2
v -1 10 -2
v -1 11 2
v -1 11 1
v -1 12 1
v -1 12 -0
v -1 13 -0
v -1 13 -1
v -1 14 -1
v -1 14 -2
v -1 14 -3
v -1 14 -4
v -1 14 -9
v -1 15 -2
v -1 15 -3
v -1 15 -4
v -1 15 -8
v -1 15 -9
v -1 16 -4
v -1 16 -8
v 0 3 10
v 0 3 6
v 0 4 10
v 0 4 7
v 0 5 10
v 0 5 8
v 0 8 6
v 0 8 5
v 0 9 7
v 0 9 5
v 0 10 8
v 0 10 5
v 2 0 5
v 2 0 3
v 2 0 -5
v 2 0 -7
v 2 1 5
v 2 1 3
v 2 1 -5
v 2 1 -7
v 2 4 5
v 2 4 4
v 2 4 3
v 2 4 -5
v 2 4 -7
v -2 0 5
v -2 0 3
v -2 0 -5
v -2 0 -7
v -2 1 5
v -2 1 3
v -2 1 -5
v -2 1 -7
v -2 4 5
v -2 4 4
v -2 4 3
v -2 4 -5
v -2 4 -7
v 1 3 10
v 1 3 6
v 1 4 10
v 1 4 7
v 1 5 10
v 1 5 8
v 1 8 6
v 1 8 5
v 1 9 7
v 1 9 5
v 1 9 3
v 1 9 -2
v 1 10 8
v 1 10 5
v 1 10 3
v 1 10 2
v 1 10 -2
v 1 11 2
v 1 11 1
v 1 12 1
v 1 12 -0
v 1 13 -0
v 1 13 -1
v 1 14 -1
v 1 14 -2
v 1 14 -3
v 1 14 -4
v 1 14 -9
v 1 15 -2
v 1 15 -3
v 1 15 -4
v 1 15 -8
v 1 15 -9
v 1 16 -4
v 1 16 -8
v 3 14 -3
v 3 14 -4
v 3 16 -3
v 3 16 -4
v 4 0 5
v 4 0 3
v 4 0 -5
v 4 0 -7
v 4 1 5
v 4 1 3
v 4 1 -5
v 4 1 -7
v 4 4 3
v 4 4 -5
v 4 9 5
v 4 9 -2
v 4 9 -7
v 4 9 -10
v 4 11 -4
v 4 11 -6
v 4 12 -4
v 4 12 -5
v 4 13 -4
v 4 13 -5
v 4 13 -6
v 4 14 -2
v 4 14 -10
v 0 3 10
v 0 4 10
v 0 5 10
v 1 3 10
v 1 4 10
v 1 5 10
v 0 5 8
v 0 10 8
v 1 5 8
v 1 10 8
v -4 0 5
v -4 1 5
v -4 9 5
v -2 0 5
v -2 1 5
v -2 4 5
v 0 8 5
v 0 9 5
v 1 8 5
v 1 9 5
v 2 0 5
v 2 1 5
v 2 4 5
v 4 0 5
v 4 1 5
v 4 9 5
v -1 9 3
v -1 10 3
v 1 9 3
v 1 10 3
v -1 10 2
v -1 11 2
v 1 10 2
v 1 11 2
v -1 11 1
v -1 12 1
v 1 11 1
v 1 12 1
v -1 12 -0
v -1 13 -0
v 1 12 -0
v 1 13 -0
v -1 13 -1
v -1 14 -1
v 1 13 -1
v 1 14 -1
v -4 9 -2
v -4 14 -2
v -1 9 -2
v -1 10 -2
v -1 14 -2
v -1 15 -2
v 1 9 -2
v 1 10 -2
v 1 14 -2
v 1 15 -2
v 4 9 -2
v 4 14 -2
v -3 14 -3
v -3 16 -3
v -2 14 -3
v -2 15 -3
v -1 14 -3
v -1 15 -3
v -1 16 -3
v 1 14 -3
v 1 15 -3
v 1 16 -3
v 2 14 -3
v 2 15 -3
v 3 14 -3
v 3 16 -3
v -4 0 -5
v -4 1 -5
v -4 4 -5
v -2 0 -5
v -2 1 -5
v -2 4 -5
v 2 0 -5
v 2 1 -5
v 2 4 -5
v 3 4 -5
v 4 0 -5
v 4 1 -5
v 4 4 -5
v 0 3 6
v 0 8 6
v 1 3 6
v 1 8 6
v 0 9 5
v 0 10 5
v 1 9 5
v 1 10 5
v -4 0 3
v -4 1 3
v -4 4 3
v -2 0 3
v -2 1 3
v -2 4 3
v 2 0 3
v 2 1 3
v 2 4 3
v 3 4 3
v 4 0 3
v 4 1 3
v 4 4 3
v -3 14 -4
v -3 16 -4
v -2 14 -4
v -2 15 -4
v -1 14 -4
v -1 15 -4
v -1 16 -4
v 1 14 -4
v 1 15 -4
v 1 16 -4
v 2 14 -4
v 2 15 -4
v 3 14 -4
v 3 16 -4
v -4 0 -7
v -4 1 -7
v -4 9 -7
v -2 0 -7
v -2 1 -7
v -2 4 -7
v -2 9 -7
v 2 0 -7
v 2 1 -7
v 2 4 -7
v 2 9 -7
v 4 0 -7
v 4 1 -7
v 4 9 -7
v -1 15 -8
v -1 16 -8
v 1 15 -8
v 1 16 -8
v -1 14 -9
v -1 15 -9
v 1 14 -9
v 1 15 -9
v -4 9 -10
v -4 14 -10
v -3 10 -10
v -3 13 -10
v -2 10 -10
v -2 13 -10
v -1 10 -10
v -1 13 -10
v 1 10 -10
v 1 13 -10
v 2 10 -10
v 2 13 -10
v 3 10 -10
v 3 13 -10
v 4 9 -10
v 4 14 -10
v -4 0 5
v -2 0 5
v 2 0 5
v 4 0 5
v -4 0 3
v -2 0 3
v 2 0 3
v 4 0 3
v -4 0 -5
v -2 0 -5
v 2 0 -5
v 4 0 -5
v -4 0 -7
v -2 0 -7
v 2 0 -7
v 4 0 -7
v 0 3 10
v 1 3 10
v 0 3 6
v 1 3 6
v -2 4 5
v 2 4 5
v -2 4 4
v 2 4 4
v -4 4 3
v -2 4 3
v 2 4 3
v 3 4 3
v 4 4 3
v -4 4 -5
v -2 4 -5
v 2 4 -5
v 3 4 -5
v 4 4 -5
v -2 4 -7
v 2 4 -7
v 0 8 6
v 1 8 6
v 0 8 5
v 1 8 5
v -4 9 -7
v -2 9 -7
v 2 9 -7
v 4 9 -7
v -4 9 -10
v 4 9 -10
v 0 5 10
v 1 5 10
v 0 5 8
v 1 5 8
v -4 9 5
v 0 9 5
v 1 9 5
v 4 9 5
v -1 9 3
v 1 9 3
v -4 9 -2
v -1 9 -2
v 1 9 -2
v 4 9 -2
v 0 10 8
v 1 10 8
v 0 10 5
v 1 10 5
v -1 10 3
v 1 10 3
v -1 10 2
v 1 10 2
v -1 11 2
v 1 11 2
v -1 11 1
v 1 11 1
v -1 12 1
v 1 12 1
v -1 12 -0
v 1 12 -0
v -1 13 -0
v 1 13 -0
v -1 13 -1
v 1 13 -1
v -1 14 -1
v 1 14 -1
v -4 14 -2
v -1 14 -2
v 1 14 -2
v 4 14 -2
v -3 14 -3
v -2 14 -3
v -1 14 -3
v 1 14 -3
v 2 14 -3
v 3 14 -3
v -3 14 -4
v -2 14 -4
v -1 14 -4
v 1 14 -4
v 2 14 -4
v 3 14 -4
v -1 14 -9
v 1 14 -9
v -4 14 -10
v 4 14 -10
v -1 15 -2
v 1 15 -2
v -1 15 -3
v 1 15 -3
v -1 15 -8
v 1 15 -8
v -1 15 -9
v 1 15 -9
v -3 16 -3
v -1 16 -3
v 1 16 -3
v 3 16 -3
v -3 16 -4
v -1 16 -4
v 1 16 -4
v 3 16 -4
v -1 16 -8
v 1 16 -8

# faces
f 5/8/1 2/8/1 1/8/1
f 6/8/1 2/8/1 5/8/1
f 7/8/1 4/8/1 3/8/1
f 8/8/1 4/8/1 7/8/1
f 9/6/1 6/6/1 5/6/1
f 10/6/1 8/6/1 7/6/1
f 11/6/1 9/6/1 5/6/1
f 11/6/1 10/6/1 9/6/1
f 12/6/1 10/6/1 11/6/1
f 13/6/1 8/6/1 10/6/1
f 13/6/1 10/6/1 12/6/1
f 15/6/1 13/6/1 12/6/1
f 15/6/1 14/6/1 13/6/1
f 16/6/1 14/6/1 15/6/1
f 17/6/1 15/6/1 12/6/1
f 17/9/1 16/9/1 15/9/1
f 18/9/1 16/9/1 17/9/1
f 19/6/1 17/6/1 12/6/1
f 19/10/1 18/10/1 17/10/1
f 20/9/1 16/9/1 18/9/1
f 20/10/1 18/10/1 19/10/1
f 21/6/1 14/6/1 16/6/1
f 21/9/1 16/9/1 20/9/1
f 22/6/1 20/6/1 19/6/1
f 22/6/1 19/6/1 12/6/1
f 22/6/1 21/6/1 20/6/1
f 23/6/1 14/6/1 21/6/1
f 23/6/1 21/6/1 22/6/1
f 26/6/1 25/6/1 24/6/1
f 27/6/1 25/6/1 26/6/1
f 30/9/1 29/9/1 28/9/1
f 31/9/1 29/9/1 30/9/1
f 32/9/1 29/9/1 31/9/1
f 33/7/1 32/7/1 31/7/1
f 34/7/1 32/7/1 33/7/1
f 35/7/1 32/7/1 34/7/1
f 36/7/1 32/7/1 35/7/1
f 37/7/1 32/7/1 36/7/1
f 38/7/1 32/7/1 37/7/1
f 39/7/1 32/7/1 38/7/1
f 40/7/1 32/7/1 39/7/1
f 44/7/1 41/7/1 40/7/1
f 45/7/1 41/7/1 44/7/1
f 46/9/1 43/9/1 42/9/1
f 47/9/1 43/9/1 46/9/1
f 48/9/1 43/9/1 47/9/1
f 49/7/1 47/7/1 46/7/1
f 50/7/1 47/7/1 49/7/1
f 53/9/1 52/9/1 51/9/1
f 54/9/1 52/9/1 53/9/1
f 55/7/1 54/7/1 53/7/1
f 56/7/1 54/7/1 55/7/1
f 57/9/1 52/9/1 54/9/1
f 59/7/1 54/7/1 56/7/1
f 59/9/1 58/9/1 57/9/1
f 59/9/1 57/9/1 54/9/1
f 60/9/1 58/9/1 59/9/1
f 61/7/1 59/7/1 56/7/1
f 61/7/1 60/7/1 59/7/1
f 62/7/1 60/7/1 61/7/1
f 67/8/1 64/8/1 63/8/1
f 68/8/1 64/8/1 67/8/1
f 69/8/1 66/8/1 65/8/1
f 70/8/1 66/8/1 69/8/1
f 71/6/1 68/6/1 67/6/1
f 72/6/1 68/6/1 71/6/1
f 73/6/1 68/6/1 72/6/1
f 74/6/1 70/6/1 69/6/1
f 75/6/1 70/6/1 74/6/1
f 76/8/2 77/8/2 80/8/2
f 80/8/2 77/8/2 81/8/2
f 78/8/2 79/8/2 82/8/2
f 82/8/2 79/8/2 83/8/2
f 80/6/2 81/6/2 84/6/2
f 84/6/2 81/6/2 85/6/2
f 85/6/2 81/6/2 86/6/2
f 82/6/2 83/6/2 87/6/2
f 87/6/2 83/6/2 88/6/2
f 89/9/2 90/9/2 91/9/2
f 91/9/2 90/9/2 92/9/2
f 91/7/2 92/7/2 93/7/2
f 93/7/2 92/7/2 94/7/2
f 92/9/2 90/9/2 95/9/2
f 94/7/2 92/7/2 97/7/2
f 95/9/2 96/9/2 97/9/2
f 92/9/2 95/9/2 97/9/2
f 97/9/2 96/9/2 98/9/2
f 94/7/2 97/7/2 101/7/2
f 97/7/2 98/7/2 101/7/2
f 101/7/2 98/7/2 102/7/2
f 99/9/2 100/9/2 103/9/2
f 103/9/2 100/9/2 104/9/2
f 104/9/2 100/9/2 105/9/2
f 104/7/2 105/7/2 106/7/2
f 106/7/2 105/7/2 107/7/2
f 107/7/2 105/7/2 108/7/2
f 108/7/2 105/7/2 109/7/2
f 109/7/2 105/7/2 110/7/2
f 110/7/2 105/7/2 111/7/2
f 111/7/2 105/7/2 112/7/2
f 112/7/2 105/7/2 113/7/2
f 113/7/2 114/7/2 117/7/2
f 117/7/2 114/7/2 118/7/2
f 115/9/2 116/9/2 119/9/2
f 119/9/2 116/9/2 120/9/2
f 120/9/2 116/9/2 121/9/2
f 119/7/2 120/7/2 122/7/2
f 122/7/2 120/7/2 123/7/2
f 124/6/2 125/6/2 126/6/2
f 126/6/2 125/6/2 127/6/2
f 128/8/2 129/8/2 132/8/2
f 132/8/2 129/8/2 133/8/2
f 130/8/2 131/8/2 134/8/2
f 134/8/2 131/8/2 135/8/2
f 132/6/2 133/6/2 136/6/2
f 134/6/2 135/6/2 137/6/2
f 132/6/2 136/6/2 138/6/2
f 136/6/2 137/6/2 138/6/2
f 138/6/2 137/6/2 139/6/2
f 137/6/2 135/6/2 140/6/2
f 139/6/2 137/6/2 140/6/2
f 139/6/2 140/6/2 142/6/2
f 140/6/2 141/6/2 142/6/2
f 142/6/2 141/6/2 143/6/2
f 139/6/2 142/6/2 144/6/2
f 142/9/2 143/9/2 144/9/2
f 144/9/2 143/9/2 145/9/2
f 139/6/2 144/6/2 146/6/2
f 144/10/2 145/10/2 146/10/2
f 145/9/2 143/9/2 147/9/2
f 146/10/2 145/10/2 147/10/2
f 143/6/2 141/6/2 148/6/2
f 147/9/2 143/9/2 148/9/2
f 146/6/2 147/6/2 149/6/2
f 139/6/2 146/6/2 149/6/2
f 147/6/2 148/6/2 149/6/2
f 148/6/2 141/6/2 150/6/2
f 149/6/2 148/6/2 150/6/2
f 154/9/3 152/9/3 151/9/3
f 155/7/3 153/7/3 152/7/3
f 155/9/3 152/9/3 154/9/3
f 156/7/3 153/7/3 155/7/3
f 159/7/3 158/7/3 157/7/3
f 160/7/3 158/7/3 159/7/3
f 164/8/3 162/8/3 161/8/3
f 165/6/3 163/6/3 162/6/3
f 165/8/3 162/8/3 164/8/3
f 166/6/3 163/6/3 165/6/3
f 167/6/3 163/6/3 166/6/3
f 168/6/3 163/6/3 167/6/3
f 169/6/3 167/6/3 166/6/3
f 173/6/3 169/6/3 166/6/3
f 173/6/3 170/6/3 169/6/3
f 174/8/3 172/8/3 171/8/3
f 175/6/3 173/6/3 172/6/3
f 175/8/3 172/8/3 174/8/3
f 176/6/3 170/6/3 173/6/3
f 176/6/3 173/6/3 175/6/3
f 179/9/3 178/9/3 177/9/3
f 180/9/3 178/9/3 179/9/3
f 183/7/3 182/7/3 181/7/3
f 184/7/3 182/7/3 183/7/3
f 187/7/3 186/7/3 185/7/3
f 188/7/3 186/7/3 187/7/3
f 191/7/3 190/7/3 189/7/3
f 192/7/3 190/7/3 191/7/3
f 195/7/3 194/7/3 193/7/3
f 196/7/3 194/7/3 195/7/3
f 199/6/3 198/6/3 197/6/3
f 200/6/3 198/6/3 199/6/3
f 201/6/3 198/6/3 200/6/3
f 205/7/3 202/7/3 201/7/3
f 206/7/3 202/7/3 205/7/3
f 207/6/3 204/6/3 203/6/3
f 207/6/3 205/6/3 204/6/3
f 208/6/3 205/6/3 207/6/3
f 211/6/3 210/6/3 209/6/3
f 212/6/3 210/6/3 211/6/3
f 213/9/3 212/9/3 211/9/3
f 214/6/3 210/6/3 212/6/3
f 214/9/3 212/9/3 213/9/3
f 215/6/3 210/6/3 214/6/3
f 217/7/3 215/7/3 214/7/3
f 218/7/3 215/7/3 217/7/3
f 219/9/3 217/9/3 216/9/3
f 220/6/3 218/6/3 217/6/3
f 220/9/3 217/9/3 219/9/3
f 221/6/3 220/6/3 219/6/3
f 222/6/3 218/6/3 220/6/3
f 222/6/3 220/6/3 221/6/3
f 226/8/3 224/8/3 223/8/3
f 227/6/3 225/6/3 224/6/3
f 227/8/3 224/8/3 226/8/3
f 228/6/3 225/6/3 227/6/3
f 232/6/3 231/6/3 230/6/3
f 233/8/3 230/8/3 229/8/3
f 234/6/3 232/6/3 230/6/3
f 234/8/3 230/8/3 233/8/3
f 235/6/3 232/6/3 234/6/3
f 236/9/4 237/9/4 238/9/4
f 238/9/4 237/9/4 239/9/4
f 240/7/4 241/7/4 242/7/4
f 242/7/4 241/7/4 243/7/4
f 244/8/4 245/8/4 247/8/4
f 245/6/4 246/6/4 248/6/4
f 247/8/4 245/8/4 248/8/4
f 248/6/4 246/6/4 249/6/4
f 251/6/4 252/6/4 253/6/4
f 250/8/4 251/8/4 254/8/4
f 251/6/4 253/6/4 255/6/4
f 254/8/4 251/8/4 255/8/4
f 255/6/4 253/6/4 256/6/4
f 257/6/4 258/6/4 259/6/4
f 259/6/4 258/6/4 260/6/4
f 259/9/4 260/9/4 261/9/4
f 260/6/4 258/6/4 262/6/4
f 261/9/4 260/9/4 262/9/4
f 262/6/4 258/6/4 263/6/4
f 264/9/4 265/9/4 267/9/4
f 265/6/4 266/6/4 268/6/4
f 267/9/4 265/9/4 268/9/4
f 267/6/4 268/6/4 269/6/4
f 268/6/4 266/6/4 270/6/4
f 269/6/4 268/6/4 270/6/4
f 271/8/4 272/8/4 274/8/4
f 272/6/4 273/6/4 275/6/4
f 274/8/4 272/8/4 275/8/4
f 275/6/4 273/6/4 276/6/4
f 276/6/4 273/6/4 277/6/4
f 276/4/4 277/4/4 280/4/4
f 280/4/4 277/4/4 281/4/4
f 278/8/4 279/8/4 282/8/4
f 279/6/4 280/6/4 283/6/4
f 282/8/4 279/8/4 283/8/4
f 280/6/4 281/6/4 283/6/4
f 283/6/4 281/6/4 284/6/4
f 285/7/4 286/7/4 287/7/4
f 287/7/4 286/7/4 288/7/4
f 289/9/4 290/9/4 291/9/4
f 291/9/4 290/9/4 292/9/4
f 293/6/4 294/6/4 295/6/4
f 295/6/4 294/6/4 296/6/4
f 293/6/4 295/6/4 297/6/4
f 295/9/4 296/9/4 297/9/4
f 296/6/4 294/6/4 298/6/4
f 297/9/4 296/9/4 298/9/4
f 293/6/4 297/6/4 299/6/4
f 297/7/4 298/7/4 299/7/4
f 298/6/4 294/6/4 300/6/4
f 299/7/4 298/7/4 300/7/4
f 293/6/4 299/6/4 301/6/4
f 299/6/4 300/6/4 301/6/4
f 300/6/4 294/6/4 302/6/4
f 301/6/4 300/6/4 302/6/4
f 293/6/4 301/6/4 303/6/4
f 301/7/4 302/7/4 303/7/4
f 302/6/4 294/6/4 304/6/4
f 303/7/4 302/7/4 304/7/4
f 293/6/4 303/6/4 305/6/4
f 303/9/4 304/9/4 305/9/4
f 304/6/4 294/6/4 306/6/4
f 305/9/4 304/9/4 306/9/4
f 293/6/4 305/6/4 307/6/4
f 305/6/4 306/6/4 307/6/4
f 306/6/4 294/6/4 308/6/4
f 307/6/4 306/6/4 308/6/4
f 313/8/5 310/8/5 309/8/5
f 314/8/5 310/8/5 313/8/5
f 315/8/5 312/8/5 311/8/5
f 316/8/5 312/8/5 315/8/5
f 321/8/5 318/8/5 317/8/5
f 322/8/5 318/8/5 321/8/5
f 323/8/5 320/8/5 319/8/5
f 324/8/5 320/8/5 323/8/5
f 327/9/5 326/9/5 325/9/5
f 328/9/5 326/9/5 327/9/5
f 331/6/5 330/6/5 329/6/5
f 332/6/5 330/6/5 331/6/5
f 334/4/5 332/4/5 331/4/5
f 335/4/5 332/4/5 334/4/5
f 338/6/5 334/6/5 333/6/5
f 339/4/5 335/4/5 334/4/5
f 339/6/5 334/6/5 338/6/5
f 339/4/5 336/4/5 335/4/5
f 340/4/5 336/4/5 339/4/5
f 341/6/5 337/6/5 336/6/5
f 341/4/5 336/4/5 340/4/5
f 342/6/5 337/6/5 341/6/5
f 343/4/5 340/4/5 339/4/5
f 344/4/5 340/4/5 343/4/5
f 347/9/5 346/9/5 345/9/5
f 348/9/5 346/9/5 347/9/5
f 353/6/5 350/6/5 349/6/5
f 353/6/5 352/6/5 351/6/5
f 353/6/5 351/6/5 350/6/5
f 354/6/5 352/6/5 353/6/5
f 355/7/6 356/7/6 357/7/6
f 357/7/6 356/7/6 358/7/6
f 359/6/6 360/6/6 363/6/6
f 361/6/6 362/6/6 363/6/6
f 360/6/6 361/6/6 363/6/6
f 363/6/6 362/6/6 364/6/6
f 359/6/6 363/6/6 365/6/6
f 365/6/6 363/6/6 366/6/6
f 364/6/6 362/6/6 367/6/6
f 367/6/6 362/6/6 368/6/6
f 369/7/6 370/7/6 371/7/6
f 371/7/6 370/7/6 372/7/6
f 373/9/6 374/9/6 375/9/6
f 375/9/6 374/9/6 376/9/6
f 377/7/6 378/7/6 379/7/6
f 379/7/6 378/7/6 380/7/6
f 381/7/6 382/7/6 383/7/6
f 383/7/6 382/7/6 384/7/6
f 385/7/6 386/7/6 387/7/6
f 387/7/6 386/7/6 388/7/6
f 389/7/6 390/7/6 392/7/6
f 392/7/6 390/7/6 393/7/6
f 391/6/6 392/6/6 395/6/6
f 395/6/6 392/6/6 396/6/6
f 396/6/6 392/6/6 397/6/6
f 393/6/6 394/6/6 398/6/6
f 398/6/6 394/6/6 399/6/6
f 399/6/6 394/6/6 400/6/6
f 391/6/6 395/6/6 401/6/6
f 400/6/6 394/6/6 406/6/6
f 401/6/6 402/6/6 407/6/6
f 402/6/6 403/6/6 407/6/6
f 404/6/6 405/6/6 408/6/6
f 405/6/6 406/6/6 408/6/6
f 401/6/6 407/6/6 409/6/6
f 407/6/6 408/6/6 409/6/6
f 391/6/6 401/6/6 409/6/6
f 408/6/6 406/6/6 410/6/6
f 409/6/6 408/6/6 410/6/6
f 406/6/6 394/6/6 410/6/6
f 411/7/6 412/7/6 413/7/6
f 413/7/6 412/7/6 414/7/6
f 415/9/6 416/9/6 417/9/6
f 417/9/6 416/9/6 418/9/6
f 419/6/6 420/6/6 423/6/6
f 420/7/6 421/7/6 424/7/6
f 423/6/6 420/6/6 424/6/6
f 421/6/6 422/6/6 425/6/6
f 424/7/6 421/7/6 425/7/6
f 425/6/6 422/6/6 426/6/6
f 424/7/6 425/7/6 427/7/6
f 427/7/6 425/7/6 428/7/6
