# MagicaVoxel @ Ephtracy

# group
g animal-37

# material
mtllib animal-0.mtl
usemtl palette

# normals
vn -1 0 0
vn 1 0 0
vn 0 0 1
vn 0 0 -1
vn 0 -1 0
vn 0 1 0

# texcoords
vt 0.0253906 0.5
vt 0.0566406 0.5
vt 0.0605469 0.5
vt 0.220703 0.5
vt 0.248047 0.5
vt 0.255859 0.5
vt 0.416016 0.5
vt 0.431641 0.5
vt 0.462891 0.5
vt 0.791016 0.5
vt 0.958984 0.5

# verts
v -5 0 7
v -5 0 5
v -5 0 -3
v -5 1 7
v -5 1 5
v -5 1 1
v -5 5 8
v -5 5 1
v -5 11 10
v -5 11 9
v -5 12 10
v -5 12 9
v -5 12 8
v -5 12 2
v -5 12 -1
v -5 14 10
v -5 14 8
v -5 14 2
v -5 14 1
v -5 14 -0
v -5 14 -1
v -5 14 -3
v -5 15 -0
v -5 15 -1
v -5 15 -2
v -5 16 5
v -5 16 2
v -5 16 -1
v -5 16 -2
v -5 16 -3
v -5 17 1
v -5 17 -0
v -5 17 -2
v -5 17 -3
v -5 17 -4
v -5 18 -3
v -5 18 -4
v -5 18 -5
v -5 19 13
v -5 19 8
v -5 19 6
v -5 19 5
v -5 19 2
v -5 19 -0
v -5 19 -4
v -5 19 -5
v -5 21 13
v -5 21 12
v -5 21 6
v -5 21 4
v -5 21 2
v -5 24 13
v -5 24 12
v -5 24 7
v -5 24 5
v -5 24 4
v -5 24 2
v -5 25 7
v -5 25 6
v -5 26 7
v -5 26 6
v -5 26 5
v -5 26 2
v -5 28 13
v -5 28 5
v -5 28 2
v -3 0 7
v -3 0 5
v -3 1 7
v -3 1 5
v -2 6 -3
v -2 6 -8
v -2 7 -8
v -2 7 -9
v -2 8 -9
v -2 8 -10
v -2 9 -6
v -2 9 -10
v -2 9 -11
v -2 10 -6
v -2 10 -10
v -2 11 -3
v -2 11 -5
v -2 11 -6
v -2 11 -10
v -2 11 -11
v -2 11 -13
v -2 12 -11
v -2 12 -13
v -2 13 -4
v -2 13 -5
v -2 14 -3
v -2 14 -4
v -1 10 -11
v -1 10 -12
v -1 11 -11
v -1 11 -12
v 2 0 7
v 2 0 5
v 2 0 -3
v 2 1 7
v 2 1 5
v 2 1 1
v 2 5 1
v 2 5 -3
v 3 11 11
v 3 11 10
v 3 12 11
v 3 12 10
v 3 12 8
v 3 14 11
v 3 14 8
v 4 0 7
v 4 0 5
v 4 1 7
v 4 1 5
v 4 14 1
v 4 14 -0
v 4 14 -1
v 4 15 -0
v 4 15 -1
v 4 15 -2
v 4 16 -1
v 4 16 -2
v 4 16 -3
v 4 17 1
v 4 17 -0
v 4 17 -2
v 4 17 -3
v 4 17 -4
v 4 18 -3
v 4 18 -4
v 4 18 -5
v 4 19 -0
v 4 19 -4
v 4 19 -5
v 4 20 12
v 4 20 9
v 4 21 12
v 4 21 9
v 4 23 11
v 4 23 9
v 4 24 12
v 4 24 11
v -4 0 7
v -4 0 5
v -4 1 7
v -4 1 5
v -4 14 1
v -4 14 -0
v -4 14 -1
v -4 15 -0
v -4 15 -1
v -4 15 -2
v -4 16 -1
v -4 16 -2
v -4 16 -3
v -4 17 1
v -4 17 -0
v -4 17 -2
v -4 17 -3
v -4 17 -4
v -4 18 -3
v -4 18 -4
v -4 18 -5
v -4 19 -0
v -4 19 -4
v -4 19 -5
v -3 11 10
v -3 11 9
v -3 12 10
v -3 12 9
v -3 12 8
v -3 14 10
v -3 14 8
v -2 0 7
v -2 0 5
v -2 0 -3
v -2 1 7
v -2 1 5
v -2 1 1
v -2 5 1
v -2 5 -3
v 1 20 12
v 1 20 9
v 1 21 12
v 1 23 11
v 1 23 9
v 1 24 12
v 1 24 11
v 2 6 -3
v 2 6 -8
v 2 7 -8
v 2 7 -9
v 2 8 -9
v 2 8 -10
v 2 9 -6
v 2 9 -10
v 2 9 -11
v 2 10 -6
v 2 10 -10
v 2 10 -11
v 2 10 -12
v 2 11 -3
v 2 11 -5
v 2 11 -6
v 2 11 -10
v 2 11 -11
v 2 11 -12
v 2 11 -13
v 2 12 -11
v 2 12 -13
v 2 13 -4
v 2 13 -5
v 2 14 -3
v 2 14 -4
v 3 0 7
v 3 0 5
v 3 1 7
v 3 1 5
v 5 0 7
v 5 0 5
v 5 0 -3
v 5 1 7
v 5 1 5
v 5 1 1
v 5 5 8
v 5 5 1
v 5 11 11
v 5 11 10
v 5 12 11
v 5 12 10
v 5 12 8
v 5 12 2
v 5 12 -1
v 5 14 11
v 5 14 8
v 5 14 2
v 5 14 1
v 5 14 -0
v 5 14 -1
v 5 14 -3
v 5 15 -0
v 5 15 -1
v 5 15 -2
v 5 16 5
v 5 16 2
v 5 16 -1
v 5 16 -2
v 5 16 -3
v 5 17 1
v 5 17 -0
v 5 17 -2
v 5 17 -3
v 5 17 -4
v 5 18 -3
v 5 18 -4
v 5 18 -5
v 5 19 13
v 5 19 8
v 5 19 6
v 5 19 5
v 5 19 2
v 5 19 -0
v 5 19 -4
v 5 19 -5
v 5 21 13
v 5 21 12
v 5 21 6
v 5 21 4
v 5 21 2
v 5 24 13
v 5 24 12
v 5 24 7
v 5 24 5
v 5 24 4
v 5 24 2
v 5 25 7
v 5 25 6
v 5 26 7
v 5 26 6
v 5 26 5
v 5 26 2
v 5 28 13
v 5 28 5
v 5 28 2
v -5 19 13
v -5 21 13
v -5 24 13
v -5 28 13
v -4 21 13
v -4 24 13
v -3 21 13
v -3 24 13
v 3 21 13
v 3 24 13
v 4 21 13
v 4 24 13
v 5 19 13
v 5 21 13
v 5 24 13
v 5 28 13
v 1 23 11
v 1 24 11
v 3 11 11
v 3 12 11
v 3 14 11
v 4 23 11
v 4 24 11
v 5 11 11
v 5 12 11
v 5 14 11
v -5 11 10
v -5 12 10
v -5 14 10
v -3 11 10
v -3 12 10
v -3 14 10
v 1 20 9
v 1 23 9
v 4 20 9
v 4 21 9
v 4 23 9
v -5 5 8
v -5 12 8
v -5 14 8
v -5 19 8
v -3 12 8
v -3 14 8
v -2 5 8
v -2 19 8
v 2 5 8
v 2 19 8
v 3 12 8
v 3 14 8
v 5 5 8
v 5 12 8
v 5 14 8
v 5 19 8
v -5 0 7
v -5 1 7
v -4 0 7
v -4 1 7
v -3 0 7
v -3 1 7
v -2 0 7
v -2 1 7
v 2 0 7
v 2 1 7
v 3 0 7
v 3 1 7
v 4 0 7
v 4 1 7
v 5 0 7
v 5 1 7
v -4 0 5
v -4 1 5
v -3 0 5
v -3 1 5
v 3 0 5
v 3 1 5
v 4 0 5
v 4 1 5
v -5 1 1
v -5 5 1
v -5 14 1
v -5 17 1
v -4 14 1
v -4 17 1
v -2 1 1
v -2 5 1
v 2 1 1
v 2 5 1
v 4 14 1
v 4 17 1
v 5 1 1
v 5 5 1
v 5 14 1
v 5 17 1
v -5 17 -0
v -5 19 -0
v -4 17 -0
v -4 19 -0
v 4 17 -0
v 4 19 -0
v 5 17 -0
v 5 19 -0
v -2 10 -10
v -2 11 -10
v 2 10 -10
v 2 11 -10
v -2 11 -11
v -2 12 -11
v 2 11 -11
v 2 12 -11
v 1 20 12
v 1 21 12
v 1 24 12
v 3 21 12
v 3 24 12
v 4 20 12
v 4 21 12
v 4 24 12
v 3 11 10
v 3 12 10
v 5 11 10
v 5 12 10
v -5 11 9
v -5 12 9
v -3 11 9
v -3 12 9
v -5 14 2
v -5 16 2
v -5 19 2
v -5 21 2
v -5 24 2
v -5 26 2
v -5 28 2
v 5 14 2
v 5 16 2
v 5 19 2
v 5 21 2
v 5 24 2
v 5 26 2
v 5 28 2
v -5 14 -1
v -5 15 -1
v -4 14 -1
v -4 15 -1
v 4 14 -1
v 4 15 -1
v 5 14 -1
v 5 15 -1
v -5 15 -2
v -5 16 -2
v -4 15 -2
v -4 16 -2
v 4 15 -2
v 4 16 -2
v 5 15 -2
v 5 16 -2
v -5 0 -3
v -5 14 -3
v -5 16 -3
v -5 17 -3
v -4 16 -3
v -4 17 -3
v -2 0 -3
v -2 5 -3
v -2 6 -3
v -2 11 -3
v -2 14 -3
v -1 6 -3
v 1 6 -3
v 2 0 -3
v 2 5 -3
v 2 6 -3
v 2 11 -3
v 2 14 -3
v 4 16 -3
v 4 17 -3
v 5 0 -3
v 5 14 -3
v 5 16 -3
v 5 17 -3
v -5 17 -4
v -5 18 -4
v -4 17 -4
v -4 18 -4
v -2 13 -4
v -2 14 -4
v 2 13 -4
v 2 14 -4
v 4 17 -4
v 4 18 -4
v 5 17 -4
v 5 18 -4
v -5 18 -5
v -5 19 -5
v -4 18 -5
v -4 19 -5
v -2 11 -5
v -2 13 -5
v 2 11 -5
v 2 13 -5
v 4 18 -5
v 4 19 -5
v 5 18 -5
v 5 19 -5
v -2 10 -6
v -2 11 -6
v 2 10 -6
v 2 11 -6
v -2 6 -8
v -2 7 -8
v -1 6 -8
v -1 7 -8
v 1 6 -8
v 1 7 -8
v 2 6 -8
v 2 7 -8
v -2 7 -9
v -2 8 -9
v 2 7 -9
v 2 8 -9
v -2 8 -10
v -2 9 -10
v 2 8 -10
v 2 9 -10
v -2 9 -11
v -2 11 -11
v -1 10 -11
v -1 11 -11
v 2 9 -11
v 2 10 -11
v -1 10 -12
v -1 11 -12
v 2 10 -12
v 2 11 -12
v -2 11 -13
v -2 12 -13
v 2 11 -13
v 2 12 -13
v -5 0 7
v -4 0 7
v -3 0 7
v -2 0 7
v 2 0 7
v 3 0 7
v 4 0 7
v 5 0 7
v -5 0 5
v -4 0 5
v -3 0 5
v -2 0 5
v 2 0 5
v 3 0 5
v 4 0 5
v 5 0 5
v -5 0 -3
v -2 0 -3
v 2 0 -3
v 5 0 -3
v -5 5 8
v -2 5 8
v 2 5 8
v 5 5 8
v -5 5 1
v -2 5 1
v 2 5 1
v 5 5 1
v -2 5 -3
v 2 5 -3
v -2 6 -3
v -1 6 -3
v 1 6 -3
v 2 6 -3
v -2 6 -8
v -1 6 -8
v 1 6 -8
v 2 6 -8
v -2 7 -8
v -1 7 -8
v 1 7 -8
v 2 7 -8
v -2 7 -9
v 2 7 -9
v -2 8 -9
v 2 8 -9
v -2 8 -10
v 2 8 -10
v -2 9 -10
v 2 9 -10
v -2 9 -11
v 2 9 -11
v -1 10 -11
v 2 10 -11
v -1 10 -12
v 2 10 -12
v 3 11 11
v 5 11 11
v -5 11 10
v -3 11 10
v 3 11 10
v 5 11 10
v -5 11 9
v -3 11 9
v -2 11 -11
v -1 11 -11
v -1 11 -12
v 2 11 -12
v -2 11 -13
v 2 11 -13
v 3 12 10
v 5 12 10
v -5 12 9
v -3 12 9
v -5 12 8
v -3 12 8
v 3 12 8
v 5 12 8
v -5 15 -1
v -4 15 -1
v 4 15 -1
v 5 15 -1
v -5 15 -2
v -4 15 -2
v 4 15 -2
v 5 15 -2
v -5 16 -2
v -4 16 -2
v 4 16 -2
v 5 16 -2
v -5 16 -3
v -4 16 -3
v 4 16 -3
v 5 16 -3
v -5 17 -3
v -4 17 -3
v 4 17 -3
v 5 17 -3
v -5 17 -4
v -4 17 -4
v 4 17 -4
v 5 17 -4
v -5 18 -4
v -4 18 -4
v 4 18 -4
v 5 18 -4
v -5 18 -5
v -4 18 -5
v 4 18 -5
v 5 18 -5
v -5 19 13
v 5 19 13
v -5 19 8
v -2 19 8
v 2 19 8
v 5 19 8
v 1 23 11
v 4 23 11
v 1 23 9
v 4 23 9
v 1 24 12
v 3 24 12
v 4 24 12
v 1 24 11
v 4 24 11
v -5 1 7
v -4 1 7
v -3 1 7
v -2 1 7
v 2 1 7
v 3 1 7
v 4 1 7
v 5 1 7
v -5 1 5
v -4 1 5
v -3 1 5
v -2 1 5
v 2 1 5
v 3 1 5
v 4 1 5
v 5 1 5
v -5 1 1
v -2 1 1
v 2 1 1
v 5 1 1
v -2 10 -6
v 2 10 -6
v -2 10 -10
v 2 10 -10
v -2 11 -5
v 2 11 -5
v -2 11 -6
v 2 11 -6
v -2 11 -10
v 2 11 -10
v -2 11 -11
v 2 11 -11
v -2 12 -11
v 2 12 -11
v -2 12 -13
v 2 12 -13
v -2 13 -4
v 2 13 -4
v -2 13 -5
v 2 13 -5
v 3 14 11
v 5 14 11
v -5 14 10
v -3 14 10
v -5 14 8
v -3 14 8
v 3 14 8
v 5 14 8
v -5 14 2
v 5 14 2
v -5 14 1
v -4 14 1
v 4 14 1
v 5 14 1
v -4 14 -0
v 4 14 -0
v -5 14 -1
v -4 14 -1
v 4 14 -1
v 5 14 -1
v -5 14 -3
v -2 14 -3
v 2 14 -3
v 5 14 -3
v -2 14 -4
v 2 14 -4
v -5 17 1
v -4 17 1
v 4 17 1
v 5 17 1
v -5 17 -0
v -4 17 -0
v 4 17 -0
v 5 17 -0
v -5 19 -0
v -4 19 -0
v 4 19 -0
v 5 19 -0
v -5 19 -4
v -4 19 -4
v 4 19 -4
v 5 19 -4
v -5 19 -5
v -4 19 -5
v 4 19 -5
v 5 19 -5
v 1 20 12
v 4 20 12
v 1 20 9
v 4 20 9
v -5 28 13
v 5 28 13
v -4 28 10
v 4 28 10
v -4 28 7
v 4 28 7
v -5 28 5
v 5 28 5
v -5 28 2
v 5 28 2

# faces
f 4/7/1 2/7/1 1/7/1
f 5/4/1 3/4/1 2/4/1
f 5/7/1 2/7/1 4/7/1
f 6/4/1 3/4/1 5/4/1
f 8/4/1 3/4/1 6/4/1
f 11/7/1 10/7/1 9/7/1
f 12/7/1 10/7/1 11/7/1
f 13/4/1 8/4/1 7/4/1
f 14/4/1 8/4/1 13/4/1
f 15/4/1 3/4/1 8/4/1
f 15/4/1 8/4/1 14/4/1
f 16/4/1 14/4/1 13/4/1
f 16/4/1 12/4/1 11/4/1
f 16/4/1 13/4/1 12/4/1
f 17/4/1 14/4/1 16/4/1
f 18/5/1 15/5/1 14/5/1
f 18/4/1 14/4/1 17/4/1
f 19/5/1 15/5/1 18/5/1
f 20/5/1 15/5/1 19/5/1
f 21/4/1 3/4/1 15/4/1
f 21/5/1 15/5/1 20/5/1
f 22/4/1 3/4/1 21/4/1
f 23/11/1 20/11/1 19/11/1
f 23/2/1 21/2/1 20/2/1
f 24/2/1 21/2/1 23/2/1
f 26/4/1 18/4/1 17/4/1
f 27/4/1 18/4/1 26/4/1
f 28/2/1 25/2/1 24/2/1
f 28/11/1 24/11/1 23/11/1
f 29/2/1 25/2/1 28/2/1
f 31/11/1 23/11/1 19/11/1
f 31/11/1 28/11/1 23/11/1
f 31/11/1 29/11/1 28/11/1
f 32/11/1 29/11/1 31/11/1
f 33/2/1 30/2/1 29/2/1
f 33/11/1 29/11/1 32/11/1
f 34/2/1 30/2/1 33/2/1
f 36/11/1 34/11/1 33/11/1
f 36/2/1 35/2/1 34/2/1
f 36/11/1 33/11/1 32/11/1
f 37/2/1 35/2/1 36/2/1
f 40/4/1 26/4/1 17/4/1
f 41/4/1 26/4/1 40/4/1
f 42/5/1 27/5/1 26/5/1
f 42/4/1 26/4/1 41/4/1
f 43/5/1 27/5/1 42/5/1
f 44/11/1 36/11/1 32/11/1
f 44/11/1 37/11/1 36/11/1
f 45/2/1 38/2/1 37/2/1
f 45/11/1 37/11/1 44/11/1
f 46/2/1 38/2/1 45/2/1
f 47/1/1 41/1/1 40/1/1
f 47/1/1 40/1/1 39/1/1
f 48/1/1 41/1/1 47/1/1
f 49/4/1 43/4/1 42/4/1
f 49/1/1 41/1/1 48/1/1
f 49/4/1 42/4/1 41/4/1
f 50/4/1 43/4/1 49/4/1
f 51/4/1 43/4/1 50/4/1
f 52/7/1 48/7/1 47/7/1
f 53/4/1 49/4/1 48/4/1
f 53/7/1 48/7/1 52/7/1
f 53/4/1 50/4/1 49/4/1
f 54/4/1 50/4/1 53/4/1
f 55/4/1 50/4/1 54/4/1
f 56/5/1 51/5/1 50/5/1
f 56/4/1 50/4/1 55/4/1
f 57/5/1 51/5/1 56/5/1
f 58/7/1 55/7/1 54/7/1
f 58/4/1 53/4/1 52/4/1
f 58/4/1 54/4/1 53/4/1
f 59/7/1 55/7/1 58/7/1
f 60/4/1 58/4/1 52/4/1
f 60/11/1 59/11/1 58/11/1
f 61/7/1 55/7/1 59/7/1
f 61/11/1 59/11/1 60/11/1
f 62/4/1 57/4/1 56/4/1
f 62/7/1 55/7/1 61/7/1
f 62/4/1 56/4/1 55/4/1
f 63/4/1 57/4/1 62/4/1
f 64/4/1 61/4/1 60/4/1
f 64/4/1 60/4/1 52/4/1
f 64/4/1 62/4/1 61/4/1
f 65/5/1 63/5/1 62/5/1
f 65/4/1 62/4/1 64/4/1
f 66/5/1 63/5/1 65/5/1
f 69/7/1 68/7/1 67/7/1
f 70/7/1 68/7/1 69/7/1
f 73/4/1 72/4/1 71/4/1
f 75/4/1 74/4/1 73/4/1
f 77/4/1 73/4/1 71/4/1
f 77/4/1 76/4/1 75/4/1
f 77/4/1 75/4/1 73/4/1
f 78/4/1 76/4/1 77/4/1
f 80/4/1 77/4/1 71/4/1
f 80/5/1 78/5/1 77/5/1
f 81/4/1 79/4/1 78/4/1
f 81/5/1 78/5/1 80/5/1
f 82/4/1 80/4/1 71/4/1
f 83/4/1 80/4/1 82/4/1
f 84/4/1 80/4/1 83/4/1
f 85/4/1 79/4/1 81/4/1
f 86/4/1 79/4/1 85/4/1
f 88/4/1 87/4/1 86/4/1
f 89/4/1 87/4/1 88/4/1
f 90/5/1 83/5/1 82/5/1
f 91/5/1 83/5/1 90/5/1
f 92/5/1 90/5/1 82/5/1
f 93/5/1 90/5/1 92/5/1
f 96/4/1 95/4/1 94/4/1
f 97/4/1 95/4/1 96/4/1
f 101/7/1 99/7/1 98/7/1
f 102/4/1 100/4/1 99/4/1
f 102/7/1 99/7/1 101/7/1
f 103/4/1 100/4/1 102/4/1
f 104/4/1 100/4/1 103/4/1
f 105/4/1 100/4/1 104/4/1
f 108/7/1 107/7/1 106/7/1
f 109/7/1 107/7/1 108/7/1
f 111/4/1 109/4/1 108/4/1
f 111/4/1 110/4/1 109/4/1
f 112/4/1 110/4/1 111/4/1
f 115/7/1 114/7/1 113/7/1
f 116/7/1 114/7/1 115/7/1
f 120/11/1 118/11/1 117/11/1
f 120/2/1 119/2/1 118/2/1
f 121/2/1 119/2/1 120/2/1
f 123/11/1 121/11/1 120/11/1
f 123/2/1 122/2/1 121/2/1
f 124/2/1 122/2/1 123/2/1
f 126/11/1 120/11/1 117/11/1
f 126/11/1 123/11/1 120/11/1
f 126/11/1 124/11/1 123/11/1
f 127/11/1 124/11/1 126/11/1
f 128/2/1 125/2/1 124/2/1
f 128/11/1 124/11/1 127/11/1
f 129/2/1 125/2/1 128/2/1
f 131/2/1 130/2/1 129/2/1
f 131/11/1 129/11/1 128/11/1
f 131/11/1 128/11/1 127/11/1
f 132/2/1 130/2/1 131/2/1
f 134/11/1 131/11/1 127/11/1
f 134/11/1 132/11/1 131/11/1
f 135/2/1 133/2/1 132/2/1
f 135/11/1 132/11/1 134/11/1
f 136/2/1 133/2/1 135/2/1
f 139/1/1 138/1/1 137/1/1
f 140/1/1 138/1/1 139/1/1
f 141/4/1 140/4/1 139/4/1
f 142/4/1 140/4/1 141/4/1
f 143/4/1 141/4/1 139/4/1
f 144/4/1 141/4/1 143/4/1
f 145/7/2 146/7/2 147/7/2
f 147/7/2 146/7/2 148/7/2
f 149/11/2 150/11/2 152/11/2
f 150/2/2 151/2/2 152/2/2
f 152/2/2 151/2/2 153/2/2
f 152/11/2 153/11/2 155/11/2
f 153/2/2 154/2/2 155/2/2
f 155/2/2 154/2/2 156/2/2
f 149/11/2 152/11/2 158/11/2
f 152/11/2 155/11/2 158/11/2
f 155/11/2 156/11/2 158/11/2
f 158/11/2 156/11/2 159/11/2
f 156/2/2 157/2/2 160/2/2
f 159/11/2 156/11/2 160/11/2
f 160/2/2 157/2/2 161/2/2
f 161/2/2 162/2/2 163/2/2
f 160/11/2 161/11/2 163/11/2
f 159/11/2 160/11/2 163/11/2
f 163/2/2 162/2/2 164/2/2
f 159/11/2 163/11/2 166/11/2
f 163/11/2 164/11/2 166/11/2
f 164/2/2 165/2/2 167/2/2
f 166/11/2 164/11/2 167/11/2
f 167/2/2 165/2/2 168/2/2
f 169/7/2 170/7/2 171/7/2
f 171/7/2 170/7/2 172/7/2
f 171/4/2 172/4/2 174/4/2
f 172/4/2 173/4/2 174/4/2
f 174/4/2 173/4/2 175/4/2
f 176/7/2 177/7/2 179/7/2
f 177/4/2 178/4/2 180/4/2
f 179/7/2 177/7/2 180/7/2
f 180/4/2 178/4/2 181/4/2
f 181/4/2 178/4/2 182/4/2
f 182/4/2 178/4/2 183/4/2
f 184/6/2 185/6/2 186/6/2
f 186/6/2 185/6/2 187/6/2
f 187/6/2 185/6/2 188/6/2
f 186/6/2 187/6/2 189/6/2
f 189/6/2 187/6/2 190/6/2
f 191/4/2 192/4/2 193/4/2
f 193/4/2 194/4/2 195/4/2
f 191/4/2 193/4/2 197/4/2
f 195/4/2 196/4/2 197/4/2
f 193/4/2 195/4/2 197/4/2
f 197/4/2 196/4/2 198/4/2
f 191/4/2 197/4/2 200/4/2
f 197/5/2 198/5/2 200/5/2
f 198/4/2 199/4/2 201/4/2
f 200/5/2 198/5/2 201/5/2
f 201/4/2 199/4/2 202/4/2
f 191/4/2 200/4/2 204/4/2
f 204/4/2 200/4/2 205/4/2
f 205/4/2 200/4/2 206/4/2
f 202/4/2 203/4/2 207/4/2
f 201/4/2 202/4/2 207/4/2
f 207/4/2 203/4/2 208/4/2
f 208/4/2 203/4/2 209/4/2
f 209/4/2 210/4/2 211/4/2
f 208/4/2 209/4/2 211/4/2
f 211/4/2 210/4/2 212/4/2
f 204/5/2 205/5/2 213/5/2
f 213/5/2 205/5/2 214/5/2
f 204/5/2 213/5/2 215/5/2
f 215/5/2 213/5/2 216/5/2
f 217/7/2 218/7/2 219/7/2
f 219/7/2 218/7/2 220/7/2
f 221/7/2 222/7/2 224/7/2
f 222/4/2 223/4/2 225/4/2
f 224/7/2 222/7/2 225/7/2
f 225/4/2 223/4/2 226/4/2
f 226/4/2 223/4/2 228/4/2
f 229/7/2 230/7/2 231/7/2
f 231/7/2 230/7/2 232/7/2
f 227/4/2 228/4/2 233/4/2
f 233/4/2 228/4/2 234/4/2
f 228/4/2 223/4/2 235/4/2
f 234/4/2 228/4/2 235/4/2
f 233/4/2 234/4/2 236/4/2
f 231/4/2 232/4/2 236/4/2
f 232/4/2 233/4/2 236/4/2
f 236/4/2 234/4/2 237/4/2
f 234/5/2 235/5/2 238/5/2
f 237/4/2 234/4/2 238/4/2
f 238/5/2 235/5/2 239/5/2
f 239/5/2 235/5/2 240/5/2
f 235/4/2 223/4/2 241/4/2
f 240/5/2 235/5/2 241/5/2
f 241/4/2 223/4/2 242/4/2
f 239/11/2 240/11/2 243/11/2
f 240/2/2 241/2/2 243/2/2
f 243/2/2 241/2/2 244/2/2
f 237/4/2 238/4/2 246/4/2
f 246/4/2 238/4/2 247/4/2
f 244/2/2 245/2/2 248/2/2
f 243/11/2 244/11/2 248/11/2
f 248/2/2 245/2/2 249/2/2
f 239/11/2 243/11/2 251/11/2
f 243/11/2 248/11/2 251/11/2
f 248/11/2 249/11/2 251/11/2
f 251/11/2 249/11/2 252/11/2
f 249/2/2 250/2/2 253/2/2
f 252/11/2 249/11/2 253/11/2
f 253/2/2 250/2/2 254/2/2
f 253/11/2 254/11/2 256/11/2
f 254/2/2 255/2/2 256/2/2
f 252/11/2 253/11/2 256/11/2
f 256/2/2 255/2/2 257/2/2
f 237/4/2 246/4/2 260/4/2
f 260/4/2 246/4/2 261/4/2
f 246/5/2 247/5/2 262/5/2
f 261/4/2 246/4/2 262/4/2
f 262/5/2 247/5/2 263/5/2
f 252/11/2 256/11/2 264/11/2
f 256/11/2 257/11/2 264/11/2
f 257/2/2 258/2/2 265/2/2
f 264/11/2 257/11/2 265/11/2
f 265/2/2 258/2/2 266/2/2
f 260/1/2 261/1/2 267/1/2
f 259/1/2 260/1/2 267/1/2
f 267/1/2 261/1/2 268/1/2
f 262/4/2 263/4/2 269/4/2
f 268/1/2 261/1/2 269/1/2
f 261/4/2 262/4/2 269/4/2
f 269/4/2 263/4/2 270/4/2
f 270/4/2 263/4/2 271/4/2
f 267/7/2 268/7/2 272/7/2
f 268/4/2 269/4/2 273/4/2
f 272/7/2 268/7/2 273/7/2
f 269/4/2 270/4/2 273/4/2
f 273/4/2 270/4/2 274/4/2
f 274/4/2 270/4/2 275/4/2
f 270/5/2 271/5/2 276/5/2
f 275/4/2 270/4/2 276/4/2
f 276/5/2 271/5/2 277/5/2
f 274/7/2 275/7/2 278/7/2
f 272/4/2 273/4/2 278/4/2
f 273/4/2 274/4/2 278/4/2
f 278/7/2 275/7/2 279/7/2
f 272/4/2 278/4/2 280/4/2
f 278/11/2 279/11/2 280/11/2
f 279/7/2 275/7/2 281/7/2
f 280/11/2 279/11/2 281/11/2
f 276/4/2 277/4/2 282/4/2
f 281/7/2 275/7/2 282/7/2
f 275/4/2 276/4/2 282/4/2
f 282/4/2 277/4/2 283/4/2
f 280/4/2 281/4/2 284/4/2
f 272/4/2 280/4/2 284/4/2
f 281/4/2 282/4/2 284/4/2
f 282/5/2 283/5/2 285/5/2
f 284/4/2 282/4/2 285/4/2
f 285/5/2 283/5/2 286/5/2
f 291/1/3 288/1/3 287/1/3
f 291/7/3 289/7/3 288/7/3
f 292/4/3 290/4/3 289/4/3
f 292/7/3 289/7/3 291/7/3
f 293/1/3 291/1/3 287/1/3
f 293/1/3 292/1/3 291/1/3
f 294/4/3 290/4/3 292/4/3
f 294/1/3 292/1/3 293/1/3
f 295/1/3 293/1/3 287/1/3
f 295/4/3 294/4/3 293/4/3
f 296/4/3 290/4/3 294/4/3
f 296/4/3 294/4/3 295/4/3
f 297/1/3 295/1/3 287/1/3
f 297/1/3 296/1/3 295/1/3
f 298/4/3 290/4/3 296/4/3
f 298/1/3 296/1/3 297/1/3
f 299/1/3 297/1/3 287/1/3
f 300/7/3 298/7/3 297/7/3
f 300/1/3 297/1/3 299/1/3
f 301/4/3 290/4/3 298/4/3
f 301/7/3 298/7/3 300/7/3
f 302/4/3 290/4/3 301/4/3
f 308/6/3 304/6/3 303/6/3
f 309/6/3 304/6/3 308/6/3
f 310/7/3 306/7/3 305/7/3
f 311/4/3 307/4/3 306/4/3
f 311/7/3 306/7/3 310/7/3
f 312/4/3 307/4/3 311/4/3
f 316/7/3 314/7/3 313/7/3
f 317/4/3 315/4/3 314/4/3
f 317/7/3 314/7/3 316/7/3
f 318/4/3 315/4/3 317/4/3
f 321/6/3 320/6/3 319/6/3
f 322/6/3 320/6/3 321/6/3
f 323/6/3 320/6/3 322/6/3
f 328/4/3 325/4/3 324/4/3
f 329/4/3 327/4/3 326/4/3
f 330/4/3 328/4/3 324/4/3
f 330/4/3 329/4/3 328/4/3
f 331/4/3 327/4/3 329/4/3
f 331/4/3 329/4/3 330/4/3
f 332/1/3 331/1/3 330/1/3
f 333/1/3 331/1/3 332/1/3
f 334/4/3 333/4/3 332/4/3
f 335/4/3 333/4/3 334/4/3
f 336/4/3 334/4/3 332/4/3
f 337/4/3 334/4/3 336/4/3
f 338/4/3 333/4/3 335/4/3
f 339/4/3 333/4/3 338/4/3
f 342/7/3 341/7/3 340/7/3
f 343/7/3 341/7/3 342/7/3
f 346/7/3 345/7/3 344/7/3
f 347/7/3 345/7/3 346/7/3
f 350/7/3 349/7/3 348/7/3
f 351/7/3 349/7/3 350/7/3
f 354/7/3 353/7/3 352/7/3
f 355/7/3 353/7/3 354/7/3
f 358/4/3 357/4/3 356/4/3
f 359/4/3 357/4/3 358/4/3
f 362/4/3 361/4/3 360/4/3
f 363/4/3 361/4/3 362/4/3
f 368/11/3 367/11/3 366/11/3
f 369/11/3 367/11/3 368/11/3
f 370/4/3 365/4/3 364/4/3
f 371/4/3 365/4/3 370/4/3
f 376/4/3 373/4/3 372/4/3
f 377/4/3 373/4/3 376/4/3
f 378/11/3 375/11/3 374/11/3
f 379/11/3 375/11/3 378/11/3
f 382/11/3 381/11/3 380/11/3
f 383/11/3 381/11/3 382/11/3
f 386/11/3 385/11/3 384/11/3
f 387/11/3 385/11/3 386/11/3
f 390/4/3 389/4/3 388/4/3
f 391/4/3 389/4/3 390/4/3
f 394/4/3 393/4/3 392/4/3
f 395/4/3 393/4/3 394/4/3
f 396/1/4 397/1/4 399/1/4
f 397/4/4 398/4/4 399/4/4
f 399/4/4 398/4/4 400/4/4
f 396/1/4 399/1/4 401/1/4
f 399/1/4 400/1/4 401/1/4
f 401/1/4 400/1/4 402/1/4
f 402/1/4 400/1/4 403/1/4
f 404/7/4 405/7/4 406/7/4
f 406/7/4 405/7/4 407/7/4
f 408/7/4 409/7/4 410/7/4
f 410/7/4 409/7/4 411/7/4
f 412/4/4 413/4/4 419/4/4
f 413/5/4 414/5/4 420/5/4
f 419/4/4 413/4/4 420/4/4
f 414/4/4 415/4/4 421/4/4
f 420/5/4 414/5/4 421/5/4
f 415/5/4 416/5/4 422/5/4
f 421/4/4 415/4/4 422/4/4
f 416/4/4 417/4/4 423/4/4
f 422/5/4 416/5/4 423/5/4
f 417/5/4 418/5/4 424/5/4
f 423/4/4 417/4/4 424/4/4
f 424/5/4 418/5/4 425/5/4
f 426/2/4 427/2/4 428/2/4
f 428/2/4 427/2/4 429/2/4
f 430/2/4 431/2/4 432/2/4
f 432/2/4 431/2/4 433/2/4
f 434/2/4 435/2/4 436/2/4
f 436/2/4 435/2/4 437/2/4
f 438/2/4 439/2/4 440/2/4
f 440/2/4 439/2/4 441/2/4
f 444/2/4 445/2/4 446/2/4
f 446/2/4 445/2/4 447/2/4
f 442/4/4 443/4/4 448/4/4
f 448/4/4 443/4/4 449/4/4
f 449/4/4 443/4/4 450/4/4
f 450/4/4 443/4/4 451/4/4
f 451/4/4 443/4/4 452/4/4
f 449/1/4 450/1/4 453/1/4
f 449/1/4 453/1/4 454/1/4
f 449/1/4 454/1/4 456/1/4
f 456/1/4 454/1/4 457/1/4
f 458/4/4 459/4/4 462/4/4
f 456/4/4 457/4/4 462/4/4
f 457/4/4 458/4/4 462/4/4
f 455/4/4 456/4/4 462/4/4
f 462/4/4 459/4/4 463/4/4
f 460/2/4 461/2/4 464/2/4
f 464/2/4 461/2/4 465/2/4
f 466/2/4 467/2/4 468/2/4
f 468/2/4 467/2/4 469/2/4
f 470/5/4 471/5/4 472/5/4
f 472/5/4 471/5/4 473/5/4
f 474/2/4 475/2/4 476/2/4
f 476/2/4 475/2/4 477/2/4
f 478/2/4 479/2/4 480/2/4
f 480/2/4 479/2/4 481/2/4
f 482/5/4 483/5/4 484/5/4
f 484/5/4 483/5/4 485/5/4
f 486/2/4 487/2/4 488/2/4
f 488/2/4 487/2/4 489/2/4
f 490/4/4 491/4/4 492/4/4
f 492/4/4 491/4/4 493/4/4
f 494/4/4 495/4/4 496/4/4
f 496/4/4 495/4/4 497/4/4
f 496/1/4 497/1/4 498/1/4
f 498/1/4 497/1/4 499/1/4
f 498/4/4 499/4/4 500/4/4
f 500/4/4 499/4/4 501/4/4
f 502/4/4 503/4/4 504/4/4
f 504/4/4 503/4/4 505/4/4
f 506/4/4 507/4/4 508/4/4
f 508/4/4 507/4/4 509/4/4
f 510/4/4 511/4/4 512/4/4
f 512/4/4 511/4/4 513/4/4
f 510/4/4 512/4/4 514/4/4
f 514/4/4 512/4/4 515/4/4
f 516/4/4 517/4/4 518/4/4
f 518/4/4 517/4/4 519/4/4
f 520/4/4 521/4/4 522/4/4
f 522/4/4 521/4/4 523/4/4
f 532/7/5 525/7/5 524/7/5
f 533/7/5 525/7/5 532/7/5
f 534/7/5 527/7/5 526/7/5
f 535/7/5 527/7/5 534/7/5
f 536/7/5 529/7/5 528/7/5
f 537/7/5 529/7/5 536/7/5
f 538/7/5 531/7/5 530/7/5
f 539/7/5 531/7/5 538/7/5
f 540/4/5 533/4/5 532/4/5
f 540/4/5 535/4/5 534/4/5
f 540/4/5 534/4/5 533/4/5
f 541/4/5 535/4/5 540/4/5
f 542/4/5 537/4/5 536/4/5
f 542/4/5 539/4/5 538/4/5
f 542/4/5 538/4/5 537/4/5
f 543/4/5 539/4/5 542/4/5
f 548/4/5 545/4/5 544/4/5
f 549/1/5 546/1/5 545/1/5
f 549/4/5 545/4/5 548/4/5
f 550/4/5 547/4/5 546/4/5
f 550/1/5 546/1/5 549/1/5
f 551/4/5 547/4/5 550/4/5
f 552/1/5 550/1/5 549/1/5
f 553/1/5 550/1/5 552/1/5
f 558/4/5 555/4/5 554/4/5
f 559/1/5 556/1/5 555/1/5
f 559/4/5 555/4/5 558/4/5
f 560/4/5 557/4/5 556/4/5
f 560/1/5 556/1/5 559/1/5
f 561/4/5 557/4/5 560/4/5
f 566/4/5 563/4/5 562/4/5
f 566/4/5 565/4/5 564/4/5
f 566/4/5 564/4/5 563/4/5
f 567/4/5 565/4/5 566/4/5
f 570/4/5 569/4/5 568/4/5
f 571/4/5 569/4/5 570/4/5
f 574/4/5 573/4/5 572/4/5
f 575/4/5 573/4/5 574/4/5
f 578/4/5 577/4/5 576/4/5
f 579/4/5 577/4/5 578/4/5
f 584/7/5 581/7/5 580/7/5
f 585/7/5 581/7/5 584/7/5
f 586/7/5 583/7/5 582/7/5
f 587/7/5 583/7/5 586/7/5
f 590/4/5 589/4/5 588/4/5
f 592/4/5 590/4/5 588/4/5
f 592/4/5 591/4/5 590/4/5
f 593/4/5 591/4/5 592/4/5
f 598/4/5 597/4/5 596/4/5
f 599/4/5 597/4/5 598/4/5
f 600/4/5 595/4/5 594/4/5
f 601/4/5 595/4/5 600/4/5
f 606/2/5 603/2/5 602/2/5
f 607/2/5 603/2/5 606/2/5
f 608/2/5 605/2/5 604/2/5
f 609/2/5 605/2/5 608/2/5
f 614/2/5 611/2/5 610/2/5
f 615/2/5 611/2/5 614/2/5
f 616/2/5 613/2/5 612/2/5
f 617/2/5 613/2/5 616/2/5
f 622/2/5 619/2/5 618/2/5
f 623/2/5 619/2/5 622/2/5
f 624/2/5 621/2/5 620/2/5
f 625/2/5 621/2/5 624/2/5
f 630/2/5 627/2/5 626/2/5
f 631/2/5 627/2/5 630/2/5
f 632/2/5 629/2/5 628/2/5
f 633/2/5 629/2/5 632/2/5
f 636/1/5 635/1/5 634/1/5
f 637/1/5 635/1/5 636/1/5
f 638/1/5 635/1/5 637/1/5
f 639/1/5 635/1/5 638/1/5
f 642/6/5 641/6/5 640/6/5
f 643/6/5 641/6/5 642/6/5
f 647/10/5 645/10/5 644/10/5
f 647/10/5 646/10/5 645/10/5
f 648/10/5 646/10/5 647/10/5
f 649/7/6 650/7/6 657/7/6
f 657/7/6 650/7/6 658/7/6
f 651/7/6 652/7/6 659/7/6
f 659/7/6 652/7/6 660/7/6
f 653/7/6 654/7/6 661/7/6
f 661/7/6 654/7/6 662/7/6
f 655/7/6 656/7/6 663/7/6
f 663/7/6 656/7/6 664/7/6
f 657/4/6 658/4/6 665/4/6
f 659/4/6 660/4/6 665/4/6
f 658/4/6 659/4/6 665/4/6
f 665/4/6 660/4/6 666/4/6
f 661/4/6 662/4/6 667/4/6
f 663/4/6 664/4/6 667/4/6
f 662/4/6 663/4/6 667/4/6
f 667/4/6 664/4/6 668/4/6
f 669/5/6 670/5/6 671/5/6
f 671/5/6 670/5/6 672/5/6
f 673/4/6 674/4/6 675/4/6
f 675/4/6 674/4/6 676/4/6
f 677/4/6 678/4/6 679/4/6
f 679/4/6 678/4/6 680/4/6
f 681/4/6 682/4/6 683/4/6
f 683/4/6 682/4/6 684/4/6
f 685/5/6 686/5/6 687/5/6
f 687/5/6 686/5/6 688/5/6
f 691/4/6 692/4/6 693/4/6
f 693/4/6 692/4/6 694/4/6
f 689/4/6 690/4/6 695/4/6
f 695/4/6 690/4/6 696/4/6
f 697/5/6 698/5/6 699/5/6
f 699/5/6 698/5/6 700/5/6
f 700/5/6 698/5/6 701/5/6
f 701/5/6 698/5/6 702/5/6
f 700/5/6 701/5/6 703/5/6
f 703/5/6 701/5/6 704/5/6
f 703/5/6 704/5/6 706/5/6
f 706/5/6 704/5/6 707/5/6
f 706/4/6 707/4/6 709/4/6
f 707/4/6 708/4/6 709/4/6
f 705/4/6 706/4/6 709/4/6
f 709/4/6 708/4/6 710/4/6
f 710/4/6 708/4/6 711/4/6
f 711/4/6 708/4/6 712/4/6
f 710/5/6 711/5/6 713/5/6
f 713/5/6 711/5/6 714/5/6
f 715/11/6 716/11/6 719/11/6
f 719/11/6 716/11/6 720/11/6
f 717/11/6 718/11/6 721/11/6
f 721/11/6 718/11/6 722/11/6
f 723/11/6 724/11/6 727/11/6
f 727/11/6 724/11/6 728/11/6
f 725/11/6 726/11/6 729/11/6
f 729/11/6 726/11/6 730/11/6
f 727/2/6 728/2/6 731/2/6
f 731/2/6 728/2/6 732/2/6
f 729/2/6 730/2/6 733/2/6
f 733/2/6 730/2/6 734/2/6
f 735/1/6 736/1/6 737/1/6
f 737/1/6 736/1/6 738/1/6
f 739/4/6 740/4/6 741/4/6
f 741/4/6 740/4/6 742/4/6
f 739/4/6 741/4/6 743/4/6
f 741/5/6 742/5/6 743/5/6
f 742/4/6 740/4/6 744/4/6
f 743/5/6 742/5/6 744/5/6
f 739/4/6 743/4/6 745/4/6
f 743/4/6 744/4/6 745/4/6
f 744/4/6 740/4/6 746/4/6
f 745/4/6 744/4/6 746/4/6
f 745/5/6 746/5/6 747/5/6
f 747/5/6 746/5/6 748/5/6
