# MagicaVoxel @ Ephtracy

# group
g animal-32

# material
mtllib animal-0.mtl
usemtl palette

# normals
vn -1 0 0
vn 1 0 0
vn 0 0 1
vn 0 0 -1
vn 0 -1 0
vn 0 1 0

# texcoords
vt 0.0292969 0.5
vt 0.0566406 0.5
vt 0.205078 0.5
vt 0.232422 0.5
vt 0.373047 0.5
vt 0.537109 0.5
vt 0.958984 0.5
vt 0.994141 0.5

# verts
v -6.5 12 -1
v -6.5 12 -2
v -6.5 14 -1
v -6.5 14 -2
v -4.5 0 6
v -4.5 0 4
v -4.5 0 -4
v -4.5 0 -6
v -4.5 1 6
v -4.5 1 4
v -4.5 1 -4
v -4.5 1 -6
v -4.5 3 4
v -4.5 3 -4
v -4.5 9 -6
v -4.5 9 -9
v -4.5 10 6
v -4.5 10 -1
v -4.5 11 -3
v -4.5 11 -5
v -4.5 12 -1
v -4.5 12 -2
v -4.5 12 -3
v -4.5 12 -4
v -4.5 13 -3
v -4.5 13 -4
v -4.5 13 -5
v -4.5 14 -2
v -4.5 14 -9
v -2.5 7 -8
v -2.5 7 -9
v -2.5 9 -8
v -2.5 9 -9
v -2.5 14 2
v -2.5 14 -1
v -2.5 14 -2
v -2.5 14 -4
v -2.5 15 1
v -2.5 15 -1
v -2.5 17 1
v -2.5 17 -2
v -2.5 19 2
v -2.5 19 -4
v -1.5 6 -8
v -1.5 6 -9
v -1.5 7 9
v -1.5 7 6
v -1.5 7 -8
v -1.5 7 -9
v -1.5 10 9
v -1.5 10 6
v 1.5 14 2
v 1.5 14 -1
v 1.5 14 -2
v 1.5 14 -4
v 1.5 15 1
v 1.5 15 -1
v 1.5 17 1
v 1.5 17 -2
v 1.5 19 2
v 1.5 19 -4
v 2.5 0 6
v 2.5 0 4
v 2.5 0 -4
v 2.5 0 -6
v 2.5 1 6
v 2.5 1 4
v 2.5 1 -4
v 2.5 1 -6
v 2.5 3 6
v 2.5 3 4
v 2.5 3 -4
v 2.5 3 -6
v -2.5 0 6
v -2.5 0 4
v -2.5 0 -4
v -2.5 0 -6
v -2.5 1 6
v -2.5 1 4
v -2.5 1 -4
v -2.5 1 -6
v -2.5 3 6
v -2.5 3 4
v -2.5 3 -4
v -2.5 3 -6
v -1.5 14 2
v -1.5 14 -1
v -1.5 14 -2
v -1.5 14 -4
v -1.5 15 1
v -1.5 15 -1
v -1.5 17 1
v -1.5 17 -2
v -1.5 19 2
v -1.5 19 -4
v 1.5 6 -8
v 1.5 6 -9
v 1.5 7 9
v 1.5 7 6
v 1.5 7 -8
v 1.5 7 -9
v 1.5 10 9
v 1.5 10 6
v 2.5 7 -8
v 2.5 7 -9
v 2.5 9 -8
v 2.5 9 -9
v 2.5 14 2
v 2.5 14 -1
v 2.5 14 -2
v 2.5 14 -4
v 2.5 15 1
v 2.5 15 -1
v 2.5 17 1
v 2.5 17 -2
v 2.5 19 2
v 2.5 19 -4
v 4.5 0 6
v 4.5 0 4
v 4.5 0 -4
v 4.5 0 -6
v 4.5 1 6
v 4.5 1 4
v 4.5 1 -4
v 4.5 1 -6
v 4.5 3 4
v 4.5 3 -4
v 4.5 9 -6
v 4.5 9 -9
v 4.5 10 6
v 4.5 10 -1
v 4.5 11 -3
v 4.5 11 -5
v 4.5 12 -1
v 4.5 12 -2
v 4.5 12 -3
v 4.5 12 -4
v 4.5 13 -3
v 4.5 13 -4
v 4.5 13 -5
v 4.5 14 -2
v 4.5 14 -9
v 6.5 12 -1
v 6.5 12 -2
v 6.5 14 -1
v 6.5 14 -2
v -1.5 7 9
v -1.5 10 9
v 1.5 7 9
v 1.5 10 9
v -4.5 0 6
v -4.5 1 6
v -4.5 10 6
v -2.5 0 6
v -2.5 1 6
v -2.5 3 6
v -1.5 7 6
v -1.5 10 6
v 1.5 7 6
v 1.5 10 6
v 2.5 0 6
v 2.5 1 6
v 2.5 3 6
v 4.5 0 6
v 4.5 1 6
v 4.5 10 6
v -2.5 14 2
v -2.5 19 2
v -1.5 14 2
v -1.5 19 2
v 1.5 14 2
v 1.5 19 2
v 2.5 14 2
v 2.5 19 2
v -6.5 12 -1
v -6.5 14 -1
v -4.5 10 -1
v -4.5 12 -1
v -2.5 14 -1
v -1.5 14 -1
v 1.5 14 -1
v 2.5 14 -1
v 4.5 10 -1
v 4.5 12 -1
v 6.5 12 -1
v 6.5 14 -1
v -2.5 14 -2
v -2.5 17 -2
v -1.5 14 -2
v -1.5 17 -2
v 1.5 14 -2
v 1.5 17 -2
v 2.5 14 -2
v 2.5 17 -2
v -4.5 0 -4
v -4.5 1 -4
v -4.5 3 -4
v -2.5 0 -4
v -2.5 1 -4
v -2.5 3 -4
v 2.5 0 -4
v 2.5 1 -4
v 2.5 3 -4
v 4.5 0 -4
v 4.5 1 -4
v 4.5 3 -4
v -2.5 7 -8
v -2.5 9 -8
v -1.5 6 -8
v -1.5 7 -8
v 1.5 6 -8
v 1.5 7 -8
v 2.5 7 -8
v 2.5 9 -8
v -4.5 0 4
v -4.5 1 4
v -4.5 3 4
v -2.5 0 4
v -2.5 1 4
v -2.5 3 4
v 2.5 0 4
v 2.5 1 4
v 2.5 3 4
v 4.5 0 4
v 4.5 1 4
v 4.5 3 4
v -2.5 15 1
v -2.5 17 1
v -1.5 15 1
v -1.5 17 1
v 1.5 15 1
v 1.5 17 1
v 2.5 15 1
v 2.5 17 1
v -2.5 14 -1
v -2.5 15 -1
v -1.5 14 -1
v -1.5 15 -1
v 1.5 14 -1
v 1.5 15 -1
v 2.5 14 -1
v 2.5 15 -1
v -6.5 12 -2
v -6.5 14 -2
v -4.5 12 -2
v -4.5 14 -2
v 4.5 12 -2
v 4.5 14 -2
v 6.5 12 -2
v 6.5 14 -2
v -2.5 14 -4
v -2.5 19 -4
v -1.5 14 -4
v -1.5 19 -4
v 1.5 14 -4
v 1.5 19 -4
v 2.5 14 -4
v 2.5 19 -4
v -4.5 0 -6
v -4.5 1 -6
v -4.5 9 -6
v -2.5 0 -6
v -2.5 1 -6
v -2.5 3 -6
v 2.5 0 -6
v 2.5 1 -6
v 2.5 3 -6
v 4.5 0 -6
v 4.5 1 -6
v 4.5 9 -6
v -4.5 9 -9
v -4.5 14 -9
v -3.5 10 -9
v -3.5 13 -9
v -2.5 7 -9
v -2.5 9 -9
v -2.5 10 -9
v -2.5 13 -9
v -1.5 6 -9
v -1.5 7 -9
v -1.5 10 -9
v -1.5 13 -9
v 1.5 6 -9
v 1.5 7 -9
v 1.5 10 -9
v 1.5 13 -9
v 2.5 7 -9
v 2.5 9 -9
v 2.5 10 -9
v 2.5 13 -9
v 3.5 10 -9
v 3.5 13 -9
v 4.5 9 -9
v 4.5 14 -9
v -4.5 0 6
v -2.5 0 6
v 2.5 0 6
v 4.5 0 6
v -4.5 0 4
v -2.5 0 4
v 2.5 0 4
v 4.5 0 4
v -4.5 0 -4
v -2.5 0 -4
v 2.5 0 -4
v 4.5 0 -4
v -4.5 0 -6
v -2.5 0 -6
v 2.5 0 -6
v 4.5 0 -6
v -2.5 3 6
v 2.5 3 6
v -4.5 3 4
v -2.5 3 4
v 2.5 3 4
v 4.5 3 4
v -4.5 3 -4
v -2.5 3 -4
v 2.5 3 -4
v 4.5 3 -4
v -2.5 3 -6
v 2.5 3 -6
v -1.5 6 -8
v 1.5 6 -8
v -1.5 6 -9
v 1.5 6 -9
v -1.5 7 9
v 1.5 7 9
v -1.5 7 6
v 1.5 7 6
v -2.5 7 -8
v -1.5 7 -8
v 1.5 7 -8
v 2.5 7 -8
v -2.5 7 -9
v -1.5 7 -9
v 1.5 7 -9
v 2.5 7 -9
v -4.5 9 -6
v 4.5 9 -6
v -2.5 9 -8
v 2.5 9 -8
v -4.5 9 -9
v -2.5 9 -9
v 2.5 9 -9
v 4.5 9 -9
v -6.5 12 -1
v -4.5 12 -1
v 4.5 12 -1
v 6.5 12 -1
v -6.5 12 -2
v -4.5 12 -2
v 4.5 12 -2
v 6.5 12 -2
v -2.5 14 2
v -1.5 14 2
v 1.5 14 2
v 2.5 14 2
v -2.5 14 -1
v -1.5 14 -1
v 1.5 14 -1
v 2.5 14 -1
v -2.5 17 1
v -1.5 17 1
v 1.5 17 1
v 2.5 17 1
v -2.5 17 -2
v -1.5 17 -2
v 1.5 17 -2
v 2.5 17 -2
v -1.5 10 9
v 1.5 10 9
v -4.5 10 6
v -1.5 10 6
v 1.5 10 6
v 4.5 10 6
v -4.5 10 -1
v 4.5 10 -1
v -6.5 14 -1
v -2.5 14 -1
v -1.5 14 -1
v 1.5 14 -1
v 2.5 14 -1
v 6.5 14 -1
v -6.5 14 -2
v -4.5 14 -2
v -2.5 14 -2
v -1.5 14 -2
v 1.5 14 -2
v 2.5 14 -2
v 4.5 14 -2
v 6.5 14 -2
v -2.5 14 -4
v -1.5 14 -4
v 1.5 14 -4
v 2.5 14 -4
v -4.5 14 -9
v 4.5 14 -9
v -2.5 15 1
v -1.5 15 1
v 1.5 15 1
v 2.5 15 1
v -2.5 15 -1
v -1.5 15 -1
v 1.5 15 -1
v 2.5 15 -1
v -2.5 19 2
v -1.5 19 2
v 1.5 19 2
v 2.5 19 2
v -2.5 19 -4
v -1.5 19 -4
v 1.5 19 -4
v 2.5 19 -4

# faces
f 3/5/1 2/5/1 1/5/1
f 4/5/1 2/5/1 3/5/1
f 9/6/1 6/6/1 5/6/1
f 10/6/1 6/6/1 9/6/1
f 11/6/1 8/6/1 7/6/1
f 12/6/1 8/6/1 11/6/1
f 13/5/1 10/5/1 9/5/1
f 14/5/1 12/5/1 11/5/1
f 15/5/1 12/5/1 14/5/1
f 15/5/1 14/5/1 13/5/1
f 17/5/1 15/5/1 13/5/1
f 17/5/1 16/5/1 15/5/1
f 17/5/1 13/5/1 9/5/1
f 18/5/1 16/5/1 17/5/1
f 19/5/1 16/5/1 18/5/1
f 20/5/1 16/5/1 19/5/1
f 21/5/1 19/5/1 18/5/1
f 22/5/1 19/5/1 21/5/1
f 23/8/1 20/8/1 19/8/1
f 23/5/1 19/5/1 22/5/1
f 24/8/1 20/8/1 23/8/1
f 25/5/1 23/5/1 22/5/1
f 25/7/1 24/7/1 23/7/1
f 26/8/1 20/8/1 24/8/1
f 26/7/1 24/7/1 25/7/1
f 27/5/1 16/5/1 20/5/1
f 27/8/1 20/8/1 26/8/1
f 28/5/1 26/5/1 25/5/1
f 28/5/1 25/5/1 22/5/1
f 28/5/1 27/5/1 26/5/1
f 29/5/1 16/5/1 27/5/1
f 29/5/1 27/5/1 28/5/1
f 32/6/1 31/6/1 30/6/1
f 33/6/1 31/6/1 32/6/1
f 38/4/1 35/4/1 34/4/1
f 39/4/1 35/4/1 38/4/1
f 40/4/1 38/4/1 34/4/1
f 41/4/1 37/4/1 36/4/1
f 42/4/1 40/4/1 34/4/1
f 42/4/1 41/4/1 40/4/1
f 43/4/1 37/4/1 41/4/1
f 43/4/1 41/4/1 42/4/1
f 48/6/1 45/6/1 44/6/1
f 49/6/1 45/6/1 48/6/1
f 50/5/1 47/5/1 46/5/1
f 51/5/1 47/5/1 50/5/1
f 56/4/1 53/4/1 52/4/1
f 57/4/1 53/4/1 56/4/1
f 58/4/1 56/4/1 52/4/1
f 59/4/1 55/4/1 54/4/1
f 60/4/1 58/4/1 52/4/1
f 60/4/1 59/4/1 58/4/1
f 61/4/1 55/4/1 59/4/1
f 61/4/1 59/4/1 60/4/1
f 66/6/1 63/6/1 62/6/1
f 67/6/1 63/6/1 66/6/1
f 68/6/1 65/6/1 64/6/1
f 69/6/1 65/6/1 68/6/1
f 70/5/1 67/5/1 66/5/1
f 71/5/1 67/5/1 70/5/1
f 72/5/1 69/5/1 68/5/1
f 73/5/1 69/5/1 72/5/1
f 74/6/2 75/6/2 78/6/2
f 78/6/2 75/6/2 79/6/2
f 76/6/2 77/6/2 80/6/2
f 80/6/2 77/6/2 81/6/2
f 78/5/2 79/5/2 82/5/2
f 82/5/2 79/5/2 83/5/2
f 80/5/2 81/5/2 84/5/2
f 84/5/2 81/5/2 85/5/2
f 86/4/2 87/4/2 90/4/2
f 90/4/2 87/4/2 91/4/2
f 86/4/2 90/4/2 92/4/2
f 88/4/2 89/4/2 93/4/2
f 86/4/2 92/4/2 94/4/2
f 92/4/2 93/4/2 94/4/2
f 93/4/2 89/4/2 95/4/2
f 94/4/2 93/4/2 95/4/2
f 96/6/2 97/6/2 100/6/2
f 100/6/2 97/6/2 101/6/2
f 98/5/2 99/5/2 102/5/2
f 102/5/2 99/5/2 103/5/2
f 104/6/2 105/6/2 106/6/2
f 106/6/2 105/6/2 107/6/2
f 108/4/2 109/4/2 112/4/2
f 112/4/2 109/4/2 113/4/2
f 108/4/2 112/4/2 114/4/2
f 110/4/2 111/4/2 115/4/2
f 108/4/2 114/4/2 116/4/2
f 114/4/2 115/4/2 116/4/2
f 115/4/2 111/4/2 117/4/2
f 116/4/2 115/4/2 117/4/2
f 118/6/2 119/6/2 122/6/2
f 122/6/2 119/6/2 123/6/2
f 120/6/2 121/6/2 124/6/2
f 124/6/2 121/6/2 125/6/2
f 122/5/2 123/5/2 126/5/2
f 124/5/2 125/5/2 127/5/2
f 127/5/2 125/5/2 128/5/2
f 126/5/2 127/5/2 128/5/2
f 126/5/2 128/5/2 130/5/2
f 128/5/2 129/5/2 130/5/2
f 122/5/2 126/5/2 130/5/2
f 130/5/2 129/5/2 131/5/2
f 131/5/2 129/5/2 132/5/2
f 132/5/2 129/5/2 133/5/2
f 131/5/2 132/5/2 134/5/2
f 134/5/2 132/5/2 135/5/2
f 132/8/2 133/8/2 136/8/2
f 135/5/2 132/5/2 136/5/2
f 136/8/2 133/8/2 137/8/2
f 135/5/2 136/5/2 138/5/2
f 136/7/2 137/7/2 138/7/2
f 137/8/2 133/8/2 139/8/2
f 138/7/2 137/7/2 139/7/2
f 133/5/2 129/5/2 140/5/2
f 139/8/2 133/8/2 140/8/2
f 138/5/2 139/5/2 141/5/2
f 135/5/2 138/5/2 141/5/2
f 139/5/2 140/5/2 141/5/2
f 140/5/2 129/5/2 142/5/2
f 141/5/2 140/5/2 142/5/2
f 143/5/2 144/5/2 145/5/2
f 145/5/2 144/5/2 146/5/2
f 149/5/3 148/5/3 147/5/3
f 150/5/3 148/5/3 149/5/3
f 154/6/3 152/6/3 151/6/3
f 155/5/3 153/5/3 152/5/3
f 155/6/3 152/6/3 154/6/3
f 156/5/3 153/5/3 155/5/3
f 157/5/3 153/5/3 156/5/3
f 158/5/3 153/5/3 157/5/3
f 159/5/3 157/5/3 156/5/3
f 163/5/3 159/5/3 156/5/3
f 163/5/3 160/5/3 159/5/3
f 164/6/3 162/6/3 161/6/3
f 165/5/3 163/5/3 162/5/3
f 165/6/3 162/6/3 164/6/3
f 166/5/3 160/5/3 163/5/3
f 166/5/3 163/5/3 165/5/3
f 169/4/3 168/4/3 167/4/3
f 170/4/3 168/4/3 169/4/3
f 173/4/3 172/4/3 171/4/3
f 174/4/3 172/4/3 173/4/3
f 178/5/3 176/5/3 175/5/3
f 179/5/3 176/5/3 178/5/3
f 179/5/3 178/5/3 177/5/3
f 180/5/3 179/5/3 177/5/3
f 181/5/3 180/5/3 177/5/3
f 182/5/3 181/5/3 177/5/3
f 183/5/3 182/5/3 177/5/3
f 184/5/3 182/5/3 183/5/3
f 185/5/3 182/5/3 184/5/3
f 186/5/3 182/5/3 185/5/3
f 189/4/3 188/4/3 187/4/3
f 190/4/3 188/4/3 189/4/3
f 193/4/3 192/4/3 191/4/3
f 194/4/3 192/4/3 193/4/3
f 198/6/3 196/6/3 195/6/3
f 199/5/3 197/5/3 196/5/3
f 199/6/3 196/6/3 198/6/3
f 200/5/3 197/5/3 199/5/3
f 204/6/3 202/6/3 201/6/3
f 205/5/3 203/5/3 202/5/3
f 205/6/3 202/6/3 204/6/3
f 206/5/3 203/5/3 205/5/3
f 210/6/3 208/6/3 207/6/3
f 211/6/3 210/6/3 209/6/3
f 212/6/3 208/6/3 210/6/3
f 212/6/3 210/6/3 211/6/3
f 213/6/3 208/6/3 212/6/3
f 214/6/3 208/6/3 213/6/3
f 215/6/4 216/6/4 218/6/4
f 216/5/4 217/5/4 219/5/4
f 218/6/4 216/6/4 219/6/4
f 219/5/4 217/5/4 220/5/4
f 221/6/4 222/6/4 224/6/4
f 222/5/4 223/5/4 225/5/4
f 224/6/4 222/6/4 225/6/4
f 225/5/4 223/5/4 226/5/4
f 227/4/4 228/4/4 229/4/4
f 229/4/4 228/4/4 230/4/4
f 231/4/4 232/4/4 233/4/4
f 233/4/4 232/4/4 234/4/4
f 235/4/4 236/4/4 237/4/4
f 237/4/4 236/4/4 238/4/4
f 239/4/4 240/4/4 241/4/4
f 241/4/4 240/4/4 242/4/4
f 243/5/4 244/5/4 245/5/4
f 245/5/4 244/5/4 246/5/4
f 247/5/4 248/5/4 249/5/4
f 249/5/4 248/5/4 250/5/4
f 251/4/4 252/4/4 253/4/4
f 253/4/4 252/4/4 254/4/4
f 255/4/4 256/4/4 257/4/4
f 257/4/4 256/4/4 258/4/4
f 259/6/4 260/6/4 262/6/4
f 260/5/4 261/5/4 263/5/4
f 262/6/4 260/6/4 263/6/4
f 263/5/4 261/5/4 264/5/4
f 264/5/4 261/5/4 267/5/4
f 265/6/4 266/6/4 268/6/4
f 266/5/4 267/5/4 269/5/4
f 268/6/4 266/6/4 269/6/4
f 267/5/4 261/5/4 270/5/4
f 269/5/4 267/5/4 270/5/4
f 271/5/4 272/5/4 273/5/4
f 273/5/4 272/5/4 274/5/4
f 271/5/4 273/5/4 276/5/4
f 273/6/4 274/6/4 277/6/4
f 276/5/4 273/5/4 277/5/4
f 274/5/4 272/5/4 278/5/4
f 277/6/4 274/6/4 278/6/4
f 275/6/4 276/6/4 280/6/4
f 276/5/4 277/5/4 281/5/4
f 277/3/4 278/3/4 281/3/4
f 278/5/4 272/5/4 282/5/4
f 281/3/4 278/3/4 282/3/4
f 279/6/4 280/6/4 283/6/4
f 280/6/4 276/6/4 284/6/4
f 283/6/4 280/6/4 284/6/4
f 276/5/4 281/5/4 285/5/4
f 281/5/4 282/5/4 285/5/4
f 282/5/4 272/5/4 286/5/4
f 285/5/4 282/5/4 286/5/4
f 284/6/4 276/6/4 287/6/4
f 276/5/4 285/5/4 288/5/4
f 287/6/4 276/6/4 288/6/4
f 285/3/4 286/3/4 289/3/4
f 288/5/4 285/5/4 289/5/4
f 286/5/4 272/5/4 290/5/4
f 289/3/4 286/3/4 290/3/4
f 288/5/4 289/5/4 291/5/4
f 289/6/4 290/6/4 291/6/4
f 290/5/4 272/5/4 292/5/4
f 291/6/4 290/6/4 292/6/4
f 288/5/4 291/5/4 293/5/4
f 291/5/4 292/5/4 293/5/4
f 292/5/4 272/5/4 294/5/4
f 293/5/4 292/5/4 294/5/4
f 299/6/5 296/6/5 295/6/5
f 300/6/5 296/6/5 299/6/5
f 301/6/5 298/6/5 297/6/5
f 302/6/5 298/6/5 301/6/5
f 307/6/5 304/6/5 303/6/5
f 308/6/5 304/6/5 307/6/5
f 309/6/5 306/6/5 305/6/5
f 310/6/5 306/6/5 309/6/5
f 314/5/5 312/5/5 311/5/5
f 315/5/5 312/5/5 314/5/5
f 317/5/5 314/5/5 313/5/5
f 317/5/5 316/5/5 315/5/5
f 317/5/5 315/5/5 314/5/5
f 318/5/5 316/5/5 317/5/5
f 319/5/5 316/5/5 318/5/5
f 320/5/5 316/5/5 319/5/5
f 321/5/5 319/5/5 318/5/5
f 322/5/5 319/5/5 321/5/5
f 325/6/5 324/6/5 323/6/5
f 326/6/5 324/6/5 325/6/5
f 329/5/5 328/5/5 327/5/5
f 330/5/5 328/5/5 329/5/5
f 335/6/5 332/6/5 331/6/5
f 336/6/5 332/6/5 335/6/5
f 337/6/5 334/6/5 333/6/5
f 338/6/5 334/6/5 337/6/5
f 341/5/5 340/5/5 339/5/5
f 342/5/5 340/5/5 341/5/5
f 343/5/5 341/5/5 339/5/5
f 344/5/5 341/5/5 343/5/5
f 345/5/5 340/5/5 342/5/5
f 346/5/5 340/5/5 345/5/5
f 351/5/5 348/5/5 347/5/5
f 352/5/5 348/5/5 351/5/5
f 353/5/5 350/5/5 349/5/5
f 354/5/5 350/5/5 353/5/5
f 359/4/5 356/4/5 355/4/5
f 360/4/5 356/4/5 359/4/5
f 361/4/5 358/4/5 357/4/5
f 362/4/5 358/4/5 361/4/5
f 367/4/5 364/4/5 363/4/5
f 368/4/5 364/4/5 367/4/5
f 369/4/5 366/4/5 365/4/5
f 370/4/5 366/4/5 369/4/5
f 371/5/6 372/5/6 374/5/6
f 374/5/6 372/5/6 375/5/6
f 373/5/6 374/5/6 377/5/6
f 375/5/6 376/5/6 377/5/6
f 374/5/6 375/5/6 377/5/6
f 377/5/6 376/5/6 378/5/6
f 379/5/6 380/5/6 385/5/6
f 383/5/6 384/5/6 385/5/6
f 382/5/6 383/5/6 385/5/6
f 381/5/6 382/5/6 385/5/6
f 380/5/6 381/5/6 385/5/6
f 385/5/6 384/5/6 386/5/6
f 386/5/6 384/5/6 387/5/6
f 387/5/6 384/5/6 388/5/6
f 388/5/6 384/5/6 389/5/6
f 389/5/6 384/5/6 390/5/6
f 390/5/6 384/5/6 391/5/6
f 391/5/6 384/5/6 392/5/6
f 386/5/6 387/5/6 393/5/6
f 388/5/6 389/5/6 394/5/6
f 394/5/6 389/5/6 395/5/6
f 390/5/6 391/5/6 396/5/6
f 394/5/6 395/5/6 397/5/6
f 395/5/6 396/5/6 397/5/6
f 386/5/6 393/5/6 397/5/6
f 393/5/6 394/5/6 397/5/6
f 396/5/6 391/5/6 398/5/6
f 397/5/6 396/5/6 398/5/6
f 399/4/6 400/4/6 403/4/6
f 403/4/6 400/4/6 404/4/6
f 401/4/6 402/4/6 405/4/6
f 405/4/6 402/4/6 406/4/6
f 407/4/6 408/4/6 411/4/6
f 411/4/6 408/4/6 412/4/6
f 409/4/6 410/4/6 413/4/6
f 413/4/6 410/4/6 414/4/6
