# MagicaVoxel @ Ephtracy

# group
g animal-15

# material
mtllib animal-0.mtl
usemtl palette

# normals
vn -1 0 0
vn 1 0 0
vn 0 0 1
vn 0 0 -1
vn 0 -1 0
vn 0 1 0

# texcoords
vt 0.0136719 0.5
vt 0.208984 0.5
vt 0.232422 0.5
vt 0.373047 0.5
vt 0.537109 0.5
vt 0.876953 0.5
vt 0.962891 0.5

# verts
v -3.5 0 -1
v -3.5 0 -5
v -3.5 0 -6
v -3.5 1 -1
v -3.5 1 -5
v -3.5 1 -6
v -3.5 4 3
v -3.5 4 -1
v -3.5 5 4
v -3.5 5 3
v -3.5 5 -1
v -3.5 5 -2
v -3.5 6 -1
v -3.5 6 -2
v -3.5 6 -3
v -3.5 7 4
v -3.5 7 3
v -3.5 7 -2
v -3.5 7 -3
v -3.5 7 -4
v -3.5 8 3
v -3.5 8 2
v -3.5 8 -3
v -3.5 8 -4
v -3.5 8 -5
v -3.5 9 2
v -3.5 9 1
v -3.5 10 1
v -3.5 10 -0
v -3.5 10 -4
v -3.5 10 -5
v -3.5 11 -0
v -3.5 11 -5
v -2.5 0 1
v -2.5 0 -0
v -2.5 0 -1
v -2.5 1 1
v -2.5 1 -0
v -2.5 1 -1
v -2.5 1 -3
v -2.5 3 -0
v -2.5 3 -1
v -2.5 3 -3
v -2.5 3 -4
v -2.5 4 4
v -2.5 4 3
v -2.5 4 -0
v -2.5 4 -1
v -2.5 4 -4
v -2.5 4 -6
v -2.5 5 6
v -2.5 5 4
v -2.5 5 3
v -2.5 5 -1
v -2.5 5 -2
v -2.5 6 9
v -2.5 6 6
v -2.5 6 5
v -2.5 6 4
v -2.5 6 -2
v -2.5 6 -3
v -2.5 7 9
v -2.5 7 7
v -2.5 7 5
v -2.5 7 4
v -2.5 7 3
v -2.5 7 -3
v -2.5 7 -4
v -2.5 8 7
v -2.5 8 6
v -2.5 8 3
v -2.5 8 2
v -2.5 8 -4
v -2.5 8 -5
v -2.5 9 2
v -2.5 9 1
v -2.5 10 6
v -2.5 10 1
v -2.5 10 -5
v -2.5 10 -6
v -2.5 11 -1
v -2.5 11 -5
v -2.5 14 -3
v -2.5 14 -5
v -2.5 15 -4
v -2.5 15 -5
v -2.5 16 -2
v -2.5 16 -3
v -2.5 16 -4
v -2.5 16 -5
v -2.5 17 -2
v -2.5 17 -5
v -2.5 18 -1
v -2.5 18 -6
v -1.5 0 -3
v -1.5 0 -5
v -1.5 0 -6
v -1.5 1 -3
v -1.5 1 -5
v -1.5 1 -6
v -0.5 14 -8
v -0.5 14 -9
v -0.5 15 -6
v -0.5 15 -8
v -0.5 16 -6
v -0.5 16 -8
v -0.5 17 -6
v -0.5 17 -9
v 0.5 0 -1
v 0.5 0 -5
v 0.5 0 -6
v 0.5 1 -1
v 0.5 1 -5
v 0.5 1 -6
v 1.5 0 1
v 1.5 0 -0
v 1.5 0 -1
v 1.5 1 1
v 1.5 1 -0
v 1.5 1 -1
v 1.5 1 -3
v 1.5 3 -0
v 1.5 3 -1
v 1.5 3 -3
v 1.5 3 -4
v 1.5 4 -0
v 1.5 4 -4
v 2.5 0 -3
v 2.5 0 -5
v 2.5 0 -6
v 2.5 1 -3
v 2.5 1 -5
v 2.5 1 -6
v 2.5 10 -0
v 2.5 10 -1
v 2.5 11 -0
v 2.5 11 -1
v -2.5 0 -3
v -2.5 0 -5
v -2.5 0 -6
v -2.5 1 -3
v -2.5 1 -5
v -2.5 1 -6
v -2.5 10 -0
v -2.5 10 -1
v -2.5 11 -0
v -2.5 11 -1
v -1.5 0 1
v -1.5 0 -0
v -1.5 0 -1
v -1.5 1 1
v -1.5 1 -0
v -1.5 1 -1
v -1.5 1 -3
v -1.5 3 -0
v -1.5 3 -1
v -1.5 3 -3
v -1.5 3 -4
v -1.5 4 -0
v -1.5 4 -4
v -0.5 0 -1
v -0.5 0 -5
v -0.5 0 -6
v -0.5 1 -1
v -0.5 1 -5
v -0.5 1 -6
v 0.5 14 -8
v 0.5 14 -9
v 0.5 15 -6
v 0.5 15 -8
v 0.5 16 -6
v 0.5 16 -8
v 0.5 17 -6
v 0.5 17 -9
v 1.5 0 -3
v 1.5 0 -5
v 1.5 0 -6
v 1.5 1 -3
v 1.5 1 -5
v 1.5 1 -6
v 2.5 0 1
v 2.5 0 -0
v 2.5 0 -1
v 2.5 1 1
v 2.5 1 -0
v 2.5 1 -1
v 2.5 1 -3
v 2.5 3 -0
v 2.5 3 -1
v 2.5 3 -3
v 2.5 3 -4
v 2.5 4 4
v 2.5 4 3
v 2.5 4 -0
v 2.5 4 -1
v 2.5 4 -4
v 2.5 4 -6
v 2.5 5 6
v 2.5 5 4
v 2.5 5 3
v 2.5 5 -1
v 2.5 5 -2
v 2.5 6 9
v 2.5 6 6
v 2.5 6 4
v 2.5 6 -2
v 2.5 6 -3
v 2.5 7 9
v 2.5 7 7
v 2.5 7 6
v 2.5 7 4
v 2.5 7 3
v 2.5 7 -3
v 2.5 7 -4
v 2.5 8 7
v 2.5 8 6
v 2.5 8 3
v 2.5 8 2
v 2.5 8 -4
v 2.5 8 -5
v 2.5 9 2
v 2.5 9 1
v 2.5 9 -5
v 2.5 10 6
v 2.5 10 1
v 2.5 10 -5
v 2.5 10 -6
v 2.5 11 -1
v 2.5 11 -5
v 2.5 14 -3
v 2.5 14 -5
v 2.5 15 -3
v 2.5 15 -4
v 2.5 16 -2
v 2.5 16 -4
v 2.5 16 -5
v 2.5 17 -2
v 2.5 17 -5
v 2.5 18 -1
v 2.5 18 -6
v 3.5 0 -1
v 3.5 0 -5
v 3.5 0 -6
v 3.5 1 -1
v 3.5 1 -5
v 3.5 1 -6
v 3.5 4 3
v 3.5 4 -1
v 3.5 5 4
v 3.5 5 3
v 3.5 5 -1
v 3.5 5 -2
v 3.5 6 -1
v 3.5 6 -2
v 3.5 6 -3
v 3.5 7 4
v 3.5 7 3
v 3.5 7 -2
v 3.5 7 -3
v 3.5 7 -4
v 3.5 8 3
v 3.5 8 2
v 3.5 8 -3
v 3.5 8 -4
v 3.5 8 -5
v 3.5 9 2
v 3.5 9 1
v 3.5 9 -4
v 3.5 9 -5
v 3.5 10 1
v 3.5 10 -0
v 3.5 11 -0
v 3.5 11 -5
v -2.5 6 9
v -2.5 7 9
v 2.5 6 9
v 2.5 7 9
v -2.5 7 7
v -2.5 8 7
v 2.5 7 7
v 2.5 8 7
v -2.5 5 6
v -2.5 6 6
v -2.5 8 6
v -2.5 10 6
v 2.5 5 6
v 2.5 6 6
v 2.5 8 6
v 2.5 10 6
v -3.5 5 4
v -3.5 7 4
v -2.5 4 4
v -2.5 5 4
v -2.5 6 4
v -2.5 7 4
v 2.5 4 4
v 2.5 5 4
v 2.5 6 4
v 2.5 7 4
v 3.5 5 4
v 3.5 7 4
v -3.5 4 3
v -3.5 5 3
v -3.5 7 3
v -3.5 8 3
v -2.5 4 3
v -2.5 5 3
v -2.5 7 3
v -2.5 8 3
v 2.5 4 3
v 2.5 5 3
v 2.5 7 3
v 2.5 8 3
v 3.5 4 3
v 3.5 5 3
v 3.5 7 3
v 3.5 8 3
v -3.5 8 2
v -3.5 9 2
v -2.5 8 2
v -2.5 9 2
v 2.5 8 2
v 2.5 9 2
v 3.5 8 2
v 3.5 9 2
v -3.5 9 1
v -3.5 10 1
v -2.5 0 1
v -2.5 1 1
v -2.5 9 1
v -2.5 10 1
v -1.5 0 1
v -1.5 1 1
v 1.5 0 1
v 1.5 1 1
v 2.5 0 1
v 2.5 1 1
v 2.5 9 1
v 2.5 10 1
v 3.5 9 1
v 3.5 10 1
v -3.5 10 -0
v -3.5 11 -0
v -2.5 3 -0
v -2.5 4 -0
v -2.5 10 -0
v -2.5 11 -0
v -1.5 3 -0
v -1.5 4 -0
v 1.5 3 -0
v 1.5 4 -0
v 2.5 3 -0
v 2.5 4 -0
v 2.5 10 -0
v 2.5 11 -0
v 3.5 10 -0
v 3.5 11 -0
v -3.5 0 -1
v -3.5 1 -1
v -2.5 0 -1
v -2.5 1 -1
v -2.5 3 -1
v -2.5 10 -1
v -2.5 11 -1
v -2.5 18 -1
v -1.5 0 -1
v -1.5 1 -1
v -1.5 3 -1
v -0.5 0 -1
v -0.5 1 -1
v 0.5 0 -1
v 0.5 1 -1
v 1.5 0 -1
v 1.5 1 -1
v 1.5 3 -1
v 2.5 0 -1
v 2.5 1 -1
v 2.5 3 -1
v 2.5 10 -1
v 2.5 11 -1
v 2.5 18 -1
v 3.5 0 -1
v 3.5 1 -1
v -0.5 14 -8
v -0.5 15 -8
v 0.5 14 -8
v 0.5 15 -8
v -3.5 4 -1
v -3.5 5 -1
v -2.5 4 -1
v -2.5 5 -1
v 2.5 4 -1
v 2.5 5 -1
v 3.5 4 -1
v 3.5 5 -1
v -3.5 5 -2
v -3.5 6 -2
v -2.5 5 -2
v -2.5 6 -2
v 2.5 5 -2
v 2.5 6 -2
v 3.5 5 -2
v 3.5 6 -2
v -3.5 6 -3
v -3.5 7 -3
v -2.5 0 -3
v -2.5 1 -3
v -2.5 3 -3
v -2.5 6 -3
v -2.5 7 -3
v -1.5 0 -3
v -1.5 1 -3
v -1.5 3 -3
v 1.5 0 -3
v 1.5 1 -3
v 1.5 3 -3
v 2.5 0 -3
v 2.5 1 -3
v 2.5 3 -3
v 2.5 6 -3
v 2.5 7 -3
v 3.5 6 -3
v 3.5 7 -3
v -3.5 7 -4
v -3.5 8 -4
v -2.5 3 -4
v -2.5 4 -4
v -2.5 7 -4
v -2.5 8 -4
v -1.5 3 -4
v -1.5 4 -4
v 1.5 3 -4
v 1.5 4 -4
v 2.5 3 -4
v 2.5 4 -4
v 2.5 7 -4
v 2.5 8 -4
v 3.5 7 -4
v 3.5 8 -4
v -3.5 8 -5
v -3.5 10 -5
v -3.5 11 -5
v -2.5 8 -5
v -2.5 10 -5
v -2.5 11 -5
v 2.5 8 -5
v 2.5 9 -5
v 2.5 10 -5
v 2.5 11 -5
v 3.5 8 -5
v 3.5 9 -5
v 3.5 11 -5
v -3.5 0 -6
v -3.5 1 -6
v -2.5 0 -6
v -2.5 1 -6
v -2.5 4 -6
v -2.5 10 -6
v -2.5 18 -6
v -1.5 0 -6
v -1.5 1 -6
v -0.5 0 -6
v -0.5 1 -6
v -0.5 15 -6
v -0.5 16 -6
v -0.5 17 -6
v 0.5 0 -6
v 0.5 1 -6
v 0.5 15 -6
v 0.5 16 -6
v 0.5 17 -6
v 1.5 0 -6
v 1.5 1 -6
v 2.5 0 -6
v 2.5 1 -6
v 2.5 4 -6
v 2.5 10 -6
v 2.5 18 -6
v 3.5 0 -6
v 3.5 1 -6
v -0.5 14 -9
v -0.5 17 -9
v 0.5 14 -9
v 0.5 17 -9
v -2.5 0 1
v -1.5 0 1
v 1.5 0 1
v 2.5 0 1
v -2.5 0 -0
v -1.5 0 -0
v 1.5 0 -0
v 2.5 0 -0
v -3.5 0 -1
v -2.5 0 -1
v -1.5 0 -1
v -0.5 0 -1
v 0.5 0 -1
v 1.5 0 -1
v 2.5 0 -1
v 3.5 0 -1
v -2.5 0 -3
v -1.5 0 -3
v 1.5 0 -3
v 2.5 0 -3
v -3.5 0 -5
v -2.5 0 -5
v -1.5 0 -5
v -0.5 0 -5
v 0.5 0 -5
v 1.5 0 -5
v 2.5 0 -5
v 3.5 0 -5
v -3.5 0 -6
v -2.5 0 -6
v -1.5 0 -6
v -0.5 0 -6
v 0.5 0 -6
v 1.5 0 -6
v 2.5 0 -6
v 3.5 0 -6
v -2.5 3 -0
v -1.5 3 -0
v 1.5 3 -0
v 2.5 3 -0
v -2.5 3 -1
v -1.5 3 -1
v 1.5 3 -1
v 2.5 3 -1
v -2.5 3 -3
v -1.5 3 -3
v 1.5 3 -3
v 2.5 3 -3
v -2.5 3 -4
v -1.5 3 -4
v 1.5 3 -4
v 2.5 3 -4
v -2.5 4 4
v 2.5 4 4
v -3.5 4 3
v -2.5 4 3
v 2.5 4 3
v 3.5 4 3
v -2.5 4 -0
v -1.5 4 -0
v 1.5 4 -0
v 2.5 4 -0
v -3.5 4 -1
v -2.5 4 -1
v 2.5 4 -1
v 3.5 4 -1
v -2.5 4 -4
v -1.5 4 -4
v 1.5 4 -4
v 2.5 4 -4
v -2.5 4 -6
v 2.5 4 -6
v -2.5 5 6
v 2.5 5 6
v -3.5 5 4
v -2.5 5 4
v 2.5 5 4
v 3.5 5 4
v -3.5 5 3
v -2.5 5 3
v 2.5 5 3
v 3.5 5 3
v -3.5 5 -1
v -2.5 5 -1
v 2.5 5 -1
v 3.5 5 -1
v -3.5 5 -2
v -2.5 5 -2
v 2.5 5 -2
v 3.5 5 -2
v -2.5 6 9
v 2.5 6 9
v -2.5 6 6
v 2.5 6 6
v -3.5 6 -2
v -2.5 6 -2
v 2.5 6 -2
v 3.5 6 -2
v -3.5 6 -3
v -2.5 6 -3
v 2.5 6 -3
v 3.5 6 -3
v -3.5 7 -3
v -2.5 7 -3
v 2.5 7 -3
v 3.5 7 -3
v -3.5 7 -4
v -2.5 7 -4
v 2.5 7 -4
v 3.5 7 -4
v -3.5 8 -4
v -2.5 8 -4
v 2.5 8 -4
v 3.5 8 -4
v -3.5 8 -5
v -2.5 8 -5
v 2.5 8 -5
v 3.5 8 -5
v -0.5 14 -8
v 0.5 14 -8
v -0.5 14 -9
v 0.5 14 -9
v -0.5 15 -6
v 0.5 15 -6
v -0.5 15 -8
v 0.5 15 -8
v -2.5 1 1
v -1.5 1 1
v 1.5 1 1
v 2.5 1 1
v -2.5 1 -0
v -1.5 1 -0
v 1.5 1 -0
v 2.5 1 -0
v -3.5 1 -1
v -2.5 1 -1
v -1.5 1 -1
v -0.5 1 -1
v 0.5 1 -1
v 1.5 1 -1
v 2.5 1 -1
v 3.5 1 -1
v -2.5 1 -3
v -1.5 1 -3
v 1.5 1 -3
v 2.5 1 -3
v -3.5 1 -5
v -2.5 1 -5
v -1.5 1 -5
v -0.5 1 -5
v 0.5 1 -5
v 1.5 1 -5
v 2.5 1 -5
v 3.5 1 -5
v -3.5 1 -6
v -2.5 1 -6
v -1.5 1 -6
v -0.5 1 -6
v 0.5 1 -6
v 1.5 1 -6
v 2.5 1 -6
v 3.5 1 -6
v -2.5 7 9
v 2.5 7 9
v -2.5 7 7
v 2.5 7 7
v -3.5 7 4
v -2.5 7 4
v 2.5 7 4
v 3.5 7 4
v -3.5 7 3
v -2.5 7 3
v 2.5 7 3
v 3.5 7 3
v -2.5 8 7
v 2.5 8 7
v -2.5 8 6
v 2.5 8 6
v -3.5 8 3
v -2.5 8 3
v 2.5 8 3
v 3.5 8 3
v -3.5 8 2
v -2.5 8 2
v 2.5 8 2
v 3.5 8 2
v -3.5 9 2
v -2.5 9 2
v 2.5 9 2
v 3.5 9 2
v -3.5 9 1
v -2.5 9 1
v 2.5 9 1
v 3.5 9 1
v -2.5 10 6
v 2.5 10 6
v -3.5 10 1
v -2.5 10 1
v 2.5 10 1
v 3.5 10 1
v -3.5 10 -0
v -2.5 10 -0
v 2.5 10 -0
v 3.5 10 -0
v -2.5 10 -1
v 2.5 10 -1
v -3.5 11 -0
v -2.5 11 -0
v 2.5 11 -0
v 3.5 11 -0
v -2.5 11 -1
v 2.5 11 -1
v -3.5 11 -5
v -2.5 11 -5
v 2.5 11 -5
v 3.5 11 -5
v -0.5 17 -6
v 0.5 17 -6
v -0.5 17 -9
v 0.5 17 -9
v -2.5 18 -1
v 2.5 18 -1
v -2.5 18 -6
v 2.5 18 -6

# faces
f 4/2/1 2/2/1 1/2/1
f 5/4/1 3/4/1 2/4/1
f 5/2/1 2/2/1 4/2/1
f 6/4/1 3/4/1 5/4/1
f 10/4/1 8/4/1 7/4/1
f 11/4/1 8/4/1 10/4/1
f 13/5/1 10/5/1 9/5/1
f 13/4/1 12/4/1 11/4/1
f 13/5/1 11/5/1 10/5/1
f 14/4/1 12/4/1 13/4/1
f 16/5/1 13/5/1 9/5/1
f 16/5/1 14/5/1 13/5/1
f 17/5/1 14/5/1 16/5/1
f 18/4/1 15/4/1 14/4/1
f 18/5/1 14/5/1 17/5/1
f 19/4/1 15/4/1 18/4/1
f 21/5/1 18/5/1 17/5/1
f 21/5/1 19/5/1 18/5/1
f 22/5/1 19/5/1 21/5/1
f 23/4/1 20/4/1 19/4/1
f 23/5/1 19/5/1 22/5/1
f 24/4/1 20/4/1 23/4/1
f 26/5/1 23/5/1 22/5/1
f 26/5/1 24/5/1 23/5/1
f 27/5/1 24/5/1 26/5/1
f 28/5/1 24/5/1 27/5/1
f 29/5/1 24/5/1 28/5/1
f 30/4/1 25/4/1 24/4/1
f 30/5/1 24/5/1 29/5/1
f 31/4/1 25/4/1 30/4/1
f 32/5/1 30/5/1 29/5/1
f 32/5/1 31/5/1 30/5/1
f 33/5/1 31/5/1 32/5/1
f 37/4/1 35/4/1 34/4/1
f 38/2/1 36/2/1 35/2/1
f 38/4/1 35/4/1 37/4/1
f 39/2/1 36/2/1 38/2/1
f 42/5/1 40/5/1 39/5/1
f 43/5/1 40/5/1 42/5/1
f 47/5/1 42/5/1 41/5/1
f 47/5/1 43/5/1 42/5/1
f 47/5/1 44/5/1 43/5/1
f 48/5/1 44/5/1 47/5/1
f 49/5/1 44/5/1 48/5/1
f 52/4/1 46/4/1 45/4/1
f 53/4/1 46/4/1 52/4/1
f 54/5/1 49/5/1 48/5/1
f 54/5/1 50/5/1 49/5/1
f 55/5/1 50/5/1 54/5/1
f 57/4/1 52/4/1 51/4/1
f 58/4/1 52/4/1 57/4/1
f 59/4/1 52/4/1 58/4/1
f 60/5/1 50/5/1 55/5/1
f 61/5/1 50/5/1 60/5/1
f 62/4/1 57/4/1 56/4/1
f 62/4/1 58/4/1 57/4/1
f 63/4/1 58/4/1 62/4/1
f 64/5/1 59/5/1 58/5/1
f 64/4/1 58/4/1 63/4/1
f 65/5/1 59/5/1 64/5/1
f 67/5/1 50/5/1 61/5/1
f 68/5/1 50/5/1 67/5/1
f 69/5/1 66/5/1 65/5/1
f 69/5/1 64/5/1 63/5/1
f 69/5/1 65/5/1 64/5/1
f 70/5/1 66/5/1 69/5/1
f 71/5/1 66/5/1 70/5/1
f 73/5/1 50/5/1 68/5/1
f 74/5/1 50/5/1 73/5/1
f 75/5/1 72/5/1 71/5/1
f 75/5/1 71/5/1 70/5/1
f 77/5/1 75/5/1 70/5/1
f 77/5/1 76/5/1 75/5/1
f 78/5/1 76/5/1 77/5/1
f 79/5/1 50/5/1 74/5/1
f 80/5/1 50/5/1 79/5/1
f 82/7/1 80/7/1 79/7/1
f 83/7/1 82/7/1 81/7/1
f 84/7/1 80/7/1 82/7/1
f 84/7/1 82/7/1 83/7/1
f 85/6/1 84/6/1 83/6/1
f 86/7/1 80/7/1 84/7/1
f 86/6/1 84/6/1 85/6/1
f 87/7/1 83/7/1 81/7/1
f 88/6/1 85/6/1 83/6/1
f 88/7/1 83/7/1 87/7/1
f 89/7/1 86/7/1 85/7/1
f 89/6/1 85/6/1 88/6/1
f 90/7/1 80/7/1 86/7/1
f 90/7/1 86/7/1 89/7/1
f 91/5/1 89/5/1 88/5/1
f 91/7/1 87/7/1 81/7/1
f 91/5/1 90/5/1 89/5/1
f 91/5/1 88/5/1 87/5/1
f 92/7/1 80/7/1 90/7/1
f 92/5/1 90/5/1 91/5/1
f 93/7/1 91/7/1 81/7/1
f 93/7/1 92/7/1 91/7/1
f 94/7/1 80/7/1 92/7/1
f 94/7/1 92/7/1 93/7/1
f 98/2/1 96/2/1 95/2/1
f 99/4/1 97/4/1 96/4/1
f 99/2/1 96/2/1 98/2/1
f 100/4/1 97/4/1 99/4/1
f 104/2/1 102/2/1 101/2/1
f 105/3/1 104/3/1 103/3/1
f 106/2/1 102/2/1 104/2/1
f 106/3/1 104/3/1 105/3/1
f 107/2/1 106/2/1 105/2/1
f 108/2/1 102/2/1 106/2/1
f 108/2/1 106/2/1 107/2/1
f 112/2/1 110/2/1 109/2/1
f 113/4/1 111/4/1 110/4/1
f 113/2/1 110/2/1 112/2/1
f 114/4/1 111/4/1 113/4/1
f 118/4/1 116/4/1 115/4/1
f 119/2/1 117/2/1 116/2/1
f 119/4/1 116/4/1 118/4/1
f 120/2/1 117/2/1 119/2/1
f 123/5/1 121/5/1 120/5/1
f 124/5/1 121/5/1 123/5/1
f 126/5/1 123/5/1 122/5/1
f 126/5/1 125/5/1 124/5/1
f 126/5/1 124/5/1 123/5/1
f 127/5/1 125/5/1 126/5/1
f 131/2/1 129/2/1 128/2/1
f 132/4/1 130/4/1 129/4/1
f 132/2/1 129/2/1 131/2/1
f 133/4/1 130/4/1 132/4/1
f 136/5/1 135/5/1 134/5/1
f 137/5/1 135/5/1 136/5/1
f 138/2/2 139/2/2 141/2/2
f 139/4/2 140/4/2 142/4/2
f 141/2/2 139/2/2 142/2/2
f 142/4/2 140/4/2 143/4/2
f 144/5/2 145/5/2 146/5/2
f 146/5/2 145/5/2 147/5/2
f 148/4/2 149/4/2 151/4/2
f 149/2/2 150/2/2 152/2/2
f 151/4/2 149/4/2 152/4/2
f 152/2/2 150/2/2 153/2/2
f 153/5/2 154/5/2 156/5/2
f 156/5/2 154/5/2 157/5/2
f 155/5/2 156/5/2 159/5/2
f 157/5/2 158/5/2 159/5/2
f 156/5/2 157/5/2 159/5/2
f 159/5/2 158/5/2 160/5/2
f 161/2/2 162/2/2 164/2/2
f 162/4/2 163/4/2 165/4/2
f 164/2/2 162/2/2 165/2/2
f 165/4/2 163/4/2 166/4/2
f 167/2/2 168/2/2 170/2/2
f 169/3/2 170/3/2 171/3/2
f 170/2/2 168/2/2 172/2/2
f 171/3/2 170/3/2 172/3/2
f 171/2/2 172/2/2 173/2/2
f 172/2/2 168/2/2 174/2/2
f 173/2/2 172/2/2 174/2/2
f 175/2/2 176/2/2 178/2/2
f 176/4/2 177/4/2 179/4/2
f 178/2/2 176/2/2 179/2/2
f 179/4/2 177/4/2 180/4/2
f 181/4/2 182/4/2 184/4/2
f 182/2/2 183/2/2 185/2/2
f 184/4/2 182/4/2 185/4/2
f 185/2/2 183/2/2 186/2/2
f 186/5/2 187/5/2 189/5/2
f 189/5/2 187/5/2 190/5/2
f 188/5/2 189/5/2 194/5/2
f 189/5/2 190/5/2 194/5/2
f 190/5/2 191/5/2 194/5/2
f 194/5/2 191/5/2 195/5/2
f 195/5/2 191/5/2 196/5/2
f 192/4/2 193/4/2 199/4/2
f 199/4/2 193/4/2 200/4/2
f 195/5/2 196/5/2 201/5/2
f 196/5/2 197/5/2 201/5/2
f 201/5/2 197/5/2 202/5/2
f 198/4/2 199/4/2 204/4/2
f 204/4/2 199/4/2 205/4/2
f 202/5/2 197/5/2 206/5/2
f 206/5/2 197/5/2 207/5/2
f 203/4/2 204/4/2 208/4/2
f 208/4/2 204/4/2 209/4/2
f 204/5/2 205/5/2 210/5/2
f 209/4/2 204/4/2 210/4/2
f 210/5/2 205/5/2 211/5/2
f 207/5/2 197/5/2 213/5/2
f 213/5/2 197/5/2 214/5/2
f 211/5/2 212/5/2 215/5/2
f 209/5/2 210/5/2 215/5/2
f 210/5/2 211/5/2 215/5/2
f 215/5/2 212/5/2 216/5/2
f 216/5/2 212/5/2 217/5/2
f 214/5/2 197/5/2 219/5/2
f 219/5/2 197/5/2 220/5/2
f 217/5/2 218/5/2 221/5/2
f 216/5/2 217/5/2 221/5/2
f 220/5/2 197/5/2 223/5/2
f 221/5/2 222/5/2 224/5/2
f 216/5/2 221/5/2 224/5/2
f 224/5/2 222/5/2 225/5/2
f 223/5/2 197/5/2 226/5/2
f 226/5/2 197/5/2 227/5/2
f 226/7/2 227/7/2 229/7/2
f 228/7/2 229/7/2 230/7/2
f 229/7/2 227/7/2 231/7/2
f 230/7/2 229/7/2 231/7/2
f 228/7/2 230/7/2 232/7/2
f 230/6/2 231/6/2 232/6/2
f 232/6/2 231/6/2 233/6/2
f 228/7/2 232/7/2 234/7/2
f 232/7/2 233/7/2 234/7/2
f 233/6/2 231/6/2 235/6/2
f 234/7/2 233/7/2 235/7/2
f 231/7/2 227/7/2 236/7/2
f 235/6/2 231/6/2 236/6/2
f 234/5/2 235/5/2 237/5/2
f 228/7/2 234/7/2 237/7/2
f 235/5/2 236/5/2 237/5/2
f 236/7/2 227/7/2 238/7/2
f 237/5/2 236/5/2 238/5/2
f 228/7/2 237/7/2 239/7/2
f 237/7/2 238/7/2 239/7/2
f 238/7/2 227/7/2 240/7/2
f 239/7/2 238/7/2 240/7/2
f 241/2/2 242/2/2 244/2/2
f 242/4/2 243/4/2 245/4/2
f 244/2/2 242/2/2 245/2/2
f 245/4/2 243/4/2 246/4/2
f 247/4/2 248/4/2 250/4/2
f 250/4/2 248/4/2 251/4/2
f 249/5/2 250/5/2 253/5/2
f 251/4/2 252/4/2 253/4/2
f 250/5/2 251/5/2 253/5/2
f 253/4/2 252/4/2 254/4/2
f 249/5/2 253/5/2 256/5/2
f 253/5/2 254/5/2 256/5/2
f 256/5/2 254/5/2 257/5/2
f 254/4/2 255/4/2 258/4/2
f 257/5/2 254/5/2 258/5/2
f 258/4/2 255/4/2 259/4/2
f 257/5/2 258/5/2 261/5/2
f 258/5/2 259/5/2 261/5/2
f 261/5/2 259/5/2 262/5/2
f 259/4/2 260/4/2 263/4/2
f 262/5/2 259/5/2 263/5/2
f 263/4/2 260/4/2 264/4/2
f 262/5/2 263/5/2 266/5/2
f 263/5/2 264/5/2 266/5/2
f 266/5/2 264/5/2 267/5/2
f 264/4/2 265/4/2 268/4/2
f 267/5/2 264/5/2 268/5/2
f 268/4/2 265/4/2 269/4/2
f 267/5/2 268/5/2 270/5/2
f 268/5/2 269/5/2 270/5/2
f 270/5/2 269/5/2 271/5/2
f 271/5/2 269/5/2 272/5/2
f 272/5/2 269/5/2 273/5/2
f 276/4/3 275/4/3 274/4/3
f 277/4/3 275/4/3 276/4/3
f 280/5/3 279/5/3 278/5/3
f 281/5/3 279/5/3 280/5/3
f 286/4/3 283/4/3 282/4/3
f 287/4/3 283/4/3 286/4/3
f 288/5/3 285/5/3 284/5/3
f 289/5/3 285/5/3 288/5/3
f 293/5/3 291/5/3 290/5/3
f 294/5/3 291/5/3 293/5/3
f 295/5/3 291/5/3 294/5/3
f 296/4/3 293/4/3 292/4/3
f 297/4/3 293/4/3 296/4/3
f 300/5/3 299/5/3 298/5/3
f 300/5/3 298/5/3 297/5/3
f 301/5/3 299/5/3 300/5/3
f 306/4/3 303/4/3 302/4/3
f 307/4/3 303/4/3 306/4/3
f 308/5/3 305/5/3 304/5/3
f 309/5/3 305/5/3 308/5/3
f 314/4/3 311/4/3 310/4/3
f 315/4/3 311/4/3 314/4/3
f 316/5/3 313/5/3 312/5/3
f 317/5/3 313/5/3 316/5/3
f 320/5/3 319/5/3 318/5/3
f 321/5/3 319/5/3 320/5/3
f 324/5/3 323/5/3 322/5/3
f 325/5/3 323/5/3 324/5/3
f 330/5/3 327/5/3 326/5/3
f 331/5/3 327/5/3 330/5/3
f 332/4/3 329/4/3 328/4/3
f 333/4/3 329/4/3 332/4/3
f 336/4/3 335/4/3 334/4/3
f 337/4/3 335/4/3 336/4/3
f 340/5/3 339/5/3 338/5/3
f 341/5/3 339/5/3 340/5/3
f 346/5/3 343/5/3 342/5/3
f 347/5/3 343/5/3 346/5/3
f 348/5/3 345/5/3 344/5/3
f 349/5/3 345/5/3 348/5/3
f 352/5/3 351/5/3 350/5/3
f 353/5/3 351/5/3 352/5/3
f 356/5/3 355/5/3 354/5/3
f 357/5/3 355/5/3 356/5/3
f 360/2/3 359/2/3 358/2/3
f 361/2/3 359/2/3 360/2/3
f 367/5/3 362/5/3 361/5/3
f 368/5/3 362/5/3 367/5/3
f 369/2/3 367/2/3 366/2/3
f 370/2/3 367/2/3 369/2/3
f 373/2/3 372/2/3 371/2/3
f 374/2/3 372/2/3 373/2/3
f 377/5/3 375/5/3 374/5/3
f 378/5/3 375/5/3 377/5/3
f 379/7/3 365/7/3 364/7/3
f 379/7/3 364/7/3 363/7/3
f 380/7/3 365/7/3 379/7/3
f 381/7/3 365/7/3 380/7/3
f 382/2/3 377/2/3 376/2/3
f 383/2/3 377/2/3 382/2/3
f 386/2/3 385/2/3 384/2/3
f 387/2/3 385/2/3 386/2/3
f 388/4/4 389/4/4 390/4/4
f 390/4/4 389/4/4 391/4/4
f 392/4/4 393/4/4 394/4/4
f 394/4/4 393/4/4 395/4/4
f 396/4/4 397/4/4 398/4/4
f 398/4/4 397/4/4 399/4/4
f 400/4/4 401/4/4 402/4/4
f 402/4/4 401/4/4 403/4/4
f 404/4/4 405/4/4 409/4/4
f 409/4/4 405/4/4 410/4/4
f 406/2/4 407/2/4 411/2/4
f 407/5/4 408/5/4 412/5/4
f 411/2/4 407/2/4 412/2/4
f 412/5/4 408/5/4 413/5/4
f 414/2/4 415/2/4 417/2/4
f 415/5/4 416/5/4 418/5/4
f 417/2/4 415/2/4 418/2/4
f 418/5/4 416/5/4 419/5/4
f 420/4/4 421/4/4 422/4/4
f 422/4/4 421/4/4 423/4/4
f 424/4/4 425/4/4 428/4/4
f 428/4/4 425/4/4 429/4/4
f 426/5/4 427/5/4 430/5/4
f 430/5/4 427/5/4 431/5/4
f 432/5/4 433/5/4 434/5/4
f 434/5/4 433/5/4 435/5/4
f 436/4/4 437/4/4 438/4/4
f 438/4/4 437/4/4 439/4/4
f 440/4/4 441/4/4 443/4/4
f 441/5/4 442/5/4 444/5/4
f 443/4/4 441/4/4 444/4/4
f 444/5/4 442/5/4 445/5/4
f 446/4/4 447/4/4 450/4/4
f 448/5/4 449/5/4 451/5/4
f 450/4/4 447/4/4 451/4/4
f 447/5/4 448/5/4 451/5/4
f 451/5/4 449/5/4 452/5/4
f 453/4/4 454/4/4 455/4/4
f 455/4/4 454/4/4 456/4/4
f 460/4/4 461/4/4 462/4/4
f 462/4/4 461/4/4 463/4/4
f 458/7/4 459/7/4 464/7/4
f 464/7/4 459/7/4 465/7/4
f 465/7/4 459/7/4 466/7/4
f 458/7/4 464/7/4 469/7/4
f 466/7/4 459/7/4 471/7/4
f 467/4/4 468/4/4 472/4/4
f 472/4/4 468/4/4 473/4/4
f 457/5/4 458/5/4 476/5/4
f 469/7/4 470/7/4 477/7/4
f 476/5/4 458/5/4 477/5/4
f 470/7/4 471/7/4 477/7/4
f 458/7/4 469/7/4 477/7/4
f 471/7/4 459/7/4 478/7/4
f 477/7/4 471/7/4 478/7/4
f 474/4/4 475/4/4 479/4/4
f 479/4/4 475/4/4 480/4/4
f 481/2/4 482/2/4 483/2/4
f 483/2/4 482/2/4 484/2/4
f 489/4/5 486/4/5 485/4/5
f 490/4/5 486/4/5 489/4/5
f 491/4/5 488/4/5 487/4/5
f 492/4/5 488/4/5 491/4/5
f 494/2/5 490/2/5 489/2/5
f 495/2/5 490/2/5 494/2/5
f 498/2/5 492/2/5 491/2/5
f 499/2/5 492/2/5 498/2/5
f 501/2/5 496/2/5 495/2/5
f 501/2/5 494/2/5 493/2/5
f 501/2/5 495/2/5 494/2/5
f 502/2/5 496/2/5 501/2/5
f 503/2/5 499/2/5 498/2/5
f 503/2/5 500/2/5 499/2/5
f 503/2/5 498/2/5 497/2/5
f 504/2/5 500/2/5 503/2/5
f 505/2/5 501/2/5 493/2/5
f 506/2/5 501/2/5 505/2/5
f 507/2/5 496/2/5 502/2/5
f 508/2/5 496/2/5 507/2/5
f 509/2/5 503/2/5 497/2/5
f 510/2/5 503/2/5 509/2/5
f 511/2/5 500/2/5 504/2/5
f 512/2/5 500/2/5 511/2/5
f 513/4/5 506/4/5 505/4/5
f 514/4/5 506/4/5 513/4/5
f 515/4/5 508/4/5 507/4/5
f 516/4/5 508/4/5 515/4/5
f 517/4/5 510/4/5 509/4/5
f 518/4/5 510/4/5 517/4/5
f 519/4/5 512/4/5 511/4/5
f 520/4/5 512/4/5 519/4/5
f 525/5/5 522/5/5 521/5/5
f 526/5/5 522/5/5 525/5/5
f 527/5/5 524/5/5 523/5/5
f 528/5/5 524/5/5 527/5/5
f 533/5/5 530/5/5 529/5/5
f 534/5/5 530/5/5 533/5/5
f 535/5/5 532/5/5 531/5/5
f 536/5/5 532/5/5 535/5/5
f 540/4/5 538/4/5 537/4/5
f 541/4/5 538/4/5 540/4/5
f 543/4/5 540/4/5 539/4/5
f 543/5/5 541/5/5 540/5/5
f 544/5/5 541/5/5 543/5/5
f 545/5/5 541/5/5 544/5/5
f 546/4/5 542/4/5 541/4/5
f 546/5/5 541/5/5 545/5/5
f 547/4/5 543/4/5 539/4/5
f 548/4/5 543/4/5 547/4/5
f 549/4/5 542/4/5 546/4/5
f 550/4/5 542/4/5 549/4/5
f 552/5/5 545/5/5 544/5/5
f 553/5/5 545/5/5 552/5/5
f 555/5/5 552/5/5 551/5/5
f 555/5/5 554/5/5 553/5/5
f 555/5/5 553/5/5 552/5/5
f 556/5/5 554/5/5 555/5/5
f 560/4/5 558/4/5 557/4/5
f 561/4/5 558/4/5 560/4/5
f 563/5/5 560/5/5 559/5/5
f 564/5/5 560/5/5 563/5/5
f 565/5/5 562/5/5 561/5/5
f 566/5/5 562/5/5 565/5/5
f 571/4/5 568/4/5 567/4/5
f 572/4/5 568/4/5 571/4/5
f 573/4/5 570/4/5 569/4/5
f 574/4/5 570/4/5 573/4/5
f 577/4/5 576/4/5 575/4/5
f 578/4/5 576/4/5 577/4/5
f 583/4/5 580/4/5 579/4/5
f 584/4/5 580/4/5 583/4/5
f 585/4/5 582/4/5 581/4/5
f 586/4/5 582/4/5 585/4/5
f 591/4/5 588/4/5 587/4/5
f 592/4/5 588/4/5 591/4/5
f 593/4/5 590/4/5 589/4/5
f 594/4/5 590/4/5 593/4/5
f 599/4/5 596/4/5 595/4/5
f 600/4/5 596/4/5 599/4/5
f 601/4/5 598/4/5 597/4/5
f 602/4/5 598/4/5 601/4/5
f 605/2/5 604/2/5 603/2/5
f 606/2/5 604/2/5 605/2/5
f 609/3/5 608/3/5 607/3/5
f 610/3/5 608/3/5 609/3/5
f 611/4/6 612/4/6 615/4/6
f 615/4/6 612/4/6 616/4/6
f 613/4/6 614/4/6 617/4/6
f 617/4/6 614/4/6 618/4/6
f 615/2/6 616/2/6 620/2/6
f 620/2/6 616/2/6 621/2/6
f 617/2/6 618/2/6 624/2/6
f 624/2/6 618/2/6 625/2/6
f 619/2/6 620/2/6 627/2/6
f 621/2/6 622/2/6 628/2/6
f 623/2/6 624/2/6 629/2/6
f 625/2/6 626/2/6 630/2/6
f 619/2/6 627/2/6 631/2/6
f 631/2/6 627/2/6 632/2/6
f 628/2/6 622/2/6 633/2/6
f 633/2/6 622/2/6 634/2/6
f 623/2/6 629/2/6 635/2/6
f 635/2/6 629/2/6 636/2/6
f 630/2/6 626/2/6 637/2/6
f 637/2/6 626/2/6 638/2/6
f 631/4/6 632/4/6 639/4/6
f 639/4/6 632/4/6 640/4/6
f 633/4/6 634/4/6 641/4/6
f 641/4/6 634/4/6 642/4/6
f 635/4/6 636/4/6 643/4/6
f 643/4/6 636/4/6 644/4/6
f 637/4/6 638/4/6 645/4/6
f 645/4/6 638/4/6 646/4/6
f 647/4/6 648/4/6 649/4/6
f 649/4/6 648/4/6 650/4/6
f 651/5/6 652/5/6 655/5/6
f 655/5/6 652/5/6 656/5/6
f 653/5/6 654/5/6 657/5/6
f 657/5/6 654/5/6 658/5/6
f 659/5/6 660/5/6 661/5/6
f 661/5/6 660/5/6 662/5/6
f 663/5/6 664/5/6 667/5/6
f 667/5/6 664/5/6 668/5/6
f 665/5/6 666/5/6 669/5/6
f 669/5/6 666/5/6 670/5/6
f 671/5/6 672/5/6 675/5/6
f 675/5/6 672/5/6 676/5/6
f 673/5/6 674/5/6 677/5/6
f 677/5/6 674/5/6 678/5/6
f 679/5/6 680/5/6 682/5/6
f 682/5/6 680/5/6 683/5/6
f 681/5/6 682/5/6 685/5/6
f 683/5/6 684/5/6 685/5/6
f 682/5/6 683/5/6 685/5/6
f 685/5/6 684/5/6 686/5/6
f 686/5/6 684/5/6 687/5/6
f 687/5/6 684/5/6 688/5/6
f 686/5/6 687/5/6 689/5/6
f 689/5/6 687/5/6 690/5/6
f 691/5/6 692/5/6 695/5/6
f 693/5/6 694/5/6 696/5/6
f 691/5/6 695/5/6 697/5/6
f 697/5/6 695/5/6 698/5/6
f 696/5/6 694/5/6 699/5/6
f 699/5/6 694/5/6 700/5/6
f 701/2/6 702/2/6 703/2/6
f 703/2/6 702/2/6 704/2/6
f 705/7/6 706/7/6 707/7/6
f 707/7/6 706/7/6 708/7/6
