# MagicaVoxel @ Ephtracy

# group
g animal-12

# material
mtllib animal-0.mtl
usemtl palette

# normals
vn -1 0 0
vn 1 0 0
vn 0 0 1
vn 0 0 -1
vn 0 -1 0
vn 0 1 0

# texcoords
vt 0.00195312 0.5
vt 0.0136719 0.5
vt 0.0449219 0.5
vt 0.0878906 0.5
vt 0.876953 0.5
vt 0.958984 0.5

# verts
v -3.5 0 0.5
v -3.5 0 -2.5
v -3.5 1 0.5
v -3.5 1 -2.5
v -3.5 4 2.5
v -3.5 4 -2.5
v -3.5 6 2.5
v -3.5 6 -2.5
v -2.5 1 0.5
v -2.5 1 -0.5
v -2.5 3 3.5
v -2.5 3 0.5
v -2.5 3 -0.5
v -2.5 3 -3.5
v -2.5 4 2.5
v -2.5 4 -2.5
v -2.5 6 2.5
v -2.5 6 -2.5
v -2.5 7 3.5
v -2.5 7 1.5
v -2.5 7 -0.5
v -2.5 7 -2.5
v -2.5 8 -0.5
v -2.5 8 -2.5
v -2.5 9 -0.5
v -2.5 9 -1.5
v -2.5 10 -0.5
v -2.5 10 -1.5
v -2.5 10 -2.5
v -2.5 11 1.5
v -2.5 11 -3.5
v -1.5 0 -1.5
v -1.5 0 -2.5
v -1.5 1 -1.5
v -1.5 1 -2.5
v -1.5 3 4.5
v -1.5 3 3.5
v -1.5 7 4.5
v -1.5 7 3.5
v -0.5 4 5.5
v -0.5 4 4.5
v -0.5 7 5.5
v -0.5 7 4.5
v -0.5 7 -3.5
v -0.5 7 -5.5
v -0.5 8 -4.5
v -0.5 8 -5.5
v -0.5 9 -3.5
v -0.5 9 -4.5
v 0.5 0 0.5
v 0.5 0 -2.5
v 0.5 1 0.5
v 0.5 1 -2.5
v 1.5 1 0.5
v 1.5 1 -0.5
v 1.5 3 0.5
v 1.5 3 -0.5
v 2.5 0 -1.5
v 2.5 0 -2.5
v 2.5 1 -1.5
v 2.5 1 -2.5
v -2.5 0 -1.5
v -2.5 0 -2.5
v -2.5 1 -1.5
v -2.5 1 -2.5
v -1.5 1 0.5
v -1.5 1 -0.5
v -1.5 3 0.5
v -1.5 3 -0.5
v -0.5 0 0.5
v -0.5 0 -2.5
v -0.5 1 0.5
v -0.5 1 -2.5
v 0.5 4 5.5
v 0.5 4 4.5
v 0.5 7 5.5
v 0.5 7 4.5
v 0.5 7 -3.5
v 0.5 7 -5.5
v 0.5 8 -4.5
v 0.5 8 -5.5
v 0.5 9 -3.5
v 0.5 9 -4.5
v 1.5 0 -1.5
v 1.5 0 -2.5
v 1.5 1 -1.5
v 1.5 1 -2.5
v 1.5 3 4.5
v 1.5 3 3.5
v 1.5 7 4.5
v 1.5 7 3.5
v 2.5 1 0.5
v 2.5 1 -0.5
v 2.5 3 3.5
v 2.5 3 0.5
v 2.5 3 -0.5
v 2.5 3 -3.5
v 2.5 4 2.5
v 2.5 4 -2.5
v 2.5 6 2.5
v 2.5 6 -2.5
v 2.5 7 3.5
v 2.5 7 1.5
v 2.5 7 -0.5
v 2.5 7 -2.5
v 2.5 8 -0.5
v 2.5 8 -2.5
v 2.5 9 -0.5
v 2.5 9 -1.5
v 2.5 10 -0.5
v 2.5 10 -1.5
v 2.5 10 -2.5
v 2.5 11 1.5
v 2.5 11 -3.5
v 3.5 0 0.5
v 3.5 0 -2.5
v 3.5 1 0.5
v 3.5 1 -2.5
v 3.5 4 2.5
v 3.5 4 -2.5
v 3.5 6 2.5
v 3.5 6 -2.5
v -0.5 4 5.5
v -0.5 7 5.5
v 0.5 4 5.5
v 0.5 7 5.5
v -1.5 3 4.5
v -1.5 7 4.5
v -0.5 4 4.5
v -0.5 7 4.5
v 0.5 4 4.5
v 0.5 7 4.5
v 1.5 3 4.5
v 1.5 7 4.5
v -2.5 3 3.5
v -2.5 7 3.5
v -1.5 3 3.5
v -1.5 7 3.5
v 1.5 3 3.5
v 1.5 7 3.5
v 2.5 3 3.5
v 2.5 7 3.5
v -3.5 4 2.5
v -3.5 6 2.5
v -2.5 4 2.5
v -2.5 6 2.5
v 2.5 4 2.5
v 2.5 6 2.5
v 3.5 4 2.5
v 3.5 6 2.5
v -2.5 7 1.5
v -2.5 11 1.5
v 2.5 7 1.5
v 2.5 11 1.5
v -3.5 0 0.5
v -3.5 1 0.5
v -2.5 0 0.5
v -2.5 1 0.5
v -2.5 3 0.5
v -1.5 0 0.5
v -1.5 1 0.5
v -1.5 3 0.5
v -0.5 0 0.5
v -0.5 1 0.5
v 0.5 0 0.5
v 0.5 1 0.5
v 1.5 0 0.5
v 1.5 1 0.5
v 1.5 3 0.5
v 2.5 0 0.5
v 2.5 1 0.5
v 2.5 3 0.5
v 3.5 0 0.5
v 3.5 1 0.5
v -2.5 1 -0.5
v -2.5 3 -0.5
v -1.5 1 -0.5
v -1.5 3 -0.5
v 1.5 1 -0.5
v 1.5 3 -0.5
v 2.5 1 -0.5
v 2.5 3 -0.5
v -2.5 0 -1.5
v -2.5 1 -1.5
v -1.5 0 -1.5
v -1.5 1 -1.5
v 1.5 0 -1.5
v 1.5 1 -1.5
v 2.5 0 -1.5
v 2.5 1 -1.5
v -3.5 0 -2.5
v -3.5 1 -2.5
v -3.5 4 -2.5
v -3.5 6 -2.5
v -2.5 0 -2.5
v -2.5 1 -2.5
v -2.5 4 -2.5
v -2.5 6 -2.5
v -1.5 0 -2.5
v -1.5 1 -2.5
v -0.5 0 -2.5
v -0.5 1 -2.5
v 0.5 0 -2.5
v 0.5 1 -2.5
v 1.5 0 -2.5
v 1.5 1 -2.5
v 2.5 0 -2.5
v 2.5 1 -2.5
v 2.5 4 -2.5
v 2.5 6 -2.5
v 3.5 0 -2.5
v 3.5 1 -2.5
v 3.5 4 -2.5
v 3.5 6 -2.5
v -2.5 3 -3.5
v -2.5 11 -3.5
v -0.5 7 -3.5
v -0.5 9 -3.5
v 0.5 7 -3.5
v 0.5 9 -3.5
v 2.5 3 -3.5
v 2.5 11 -3.5
v -0.5 8 -4.5
v -0.5 9 -4.5
v 0.5 8 -4.5
v 0.5 9 -4.5
v -0.5 7 -5.5
v -0.5 8 -5.5
v 0.5 7 -5.5
v 0.5 8 -5.5
v -3.5 0 0.5
v -2.5 0 0.5
v -1.5 0 0.5
v -0.5 0 0.5
v 0.5 0 0.5
v 1.5 0 0.5
v 2.5 0 0.5
v 3.5 0 0.5
v -2.5 0 -0.5
v -1.5 0 -0.5
v 1.5 0 -0.5
v 2.5 0 -0.5
v -2.5 0 -1.5
v -1.5 0 -1.5
v 1.5 0 -1.5
v 2.5 0 -1.5
v -3.5 0 -2.5
v -2.5 0 -2.5
v -1.5 0 -2.5
v -0.5 0 -2.5
v 0.5 0 -2.5
v 1.5 0 -2.5
v 2.5 0 -2.5
v 3.5 0 -2.5
v -1.5 3 4.5
v 1.5 3 4.5
v -2.5 3 3.5
v -1.5 3 3.5
v 1.5 3 3.5
v 2.5 3 3.5
v -2.5 3 0.5
v -1.5 3 0.5
v 1.5 3 0.5
v 2.5 3 0.5
v -2.5 3 -0.5
v -1.5 3 -0.5
v 1.5 3 -0.5
v 2.5 3 -0.5
v -2.5 3 -3.5
v 2.5 3 -3.5
v -0.5 4 5.5
v 0.5 4 5.5
v -0.5 4 4.5
v 0.5 4 4.5
v -3.5 4 2.5
v -2.5 4 2.5
v 2.5 4 2.5
v 3.5 4 2.5
v -3.5 4 -2.5
v -2.5 4 -2.5
v 2.5 4 -2.5
v 3.5 4 -2.5
v -0.5 7 -3.5
v 0.5 7 -3.5
v -0.5 7 -5.5
v 0.5 7 -5.5
v -3.5 1 0.5
v -2.5 1 0.5
v -1.5 1 0.5
v -0.5 1 0.5
v 0.5 1 0.5
v 1.5 1 0.5
v 2.5 1 0.5
v 3.5 1 0.5
v -2.5 1 -0.5
v -1.5 1 -0.5
v 1.5 1 -0.5
v 2.5 1 -0.5
v -2.5 1 -1.5
v -1.5 1 -1.5
v 1.5 1 -1.5
v 2.5 1 -1.5
v -3.5 1 -2.5
v -2.5 1 -2.5
v -1.5 1 -2.5
v -0.5 1 -2.5
v 0.5 1 -2.5
v 1.5 1 -2.5
v 2.5 1 -2.5
v 3.5 1 -2.5
v -3.5 6 2.5
v -2.5 6 2.5
v 2.5 6 2.5
v 3.5 6 2.5
v -3.5 6 -2.5
v -2.5 6 -2.5
v 2.5 6 -2.5
v 3.5 6 -2.5
v -0.5 7 5.5
v 0.5 7 5.5
v -1.5 7 4.5
v -0.5 7 4.5
v 0.5 7 4.5
v 1.5 7 4.5
v -2.5 7 3.5
v -1.5 7 3.5
v 1.5 7 3.5
v 2.5 7 3.5
v -2.5 7 1.5
v 2.5 7 1.5
v -0.5 8 -4.5
v 0.5 8 -4.5
v -0.5 8 -5.5
v 0.5 8 -5.5
v -0.5 9 -3.5
v 0.5 9 -3.5
v -0.5 9 -4.5
v 0.5 9 -4.5
v -2.5 11 1.5
v 2.5 11 1.5
v -2.5 11 -3.5
v 2.5 11 -3.5

# faces
f 3/3/1 2/3/1 1/3/1
f 4/3/1 2/3/1 3/3/1
f 7/2/1 6/2/1 5/2/1
f 8/2/1 6/2/1 7/2/1
f 12/3/1 10/3/1 9/3/1
f 13/3/1 10/3/1 12/3/1
f 15/2/1 12/2/1 11/2/1
f 15/2/1 14/2/1 13/2/1
f 15/2/1 13/2/1 12/2/1
f 16/2/1 14/2/1 15/2/1
f 17/2/1 15/2/1 11/2/1
f 18/2/1 14/2/1 16/2/1
f 19/2/1 17/2/1 11/2/1
f 19/2/1 18/2/1 17/2/1
f 20/2/1 18/2/1 19/2/1
f 21/2/1 18/2/1 20/2/1
f 22/2/1 14/2/1 18/2/1
f 22/2/1 18/2/1 21/2/1
f 23/2/1 21/2/1 20/2/1
f 23/3/1 22/3/1 21/3/1
f 24/2/1 14/2/1 22/2/1
f 24/3/1 22/3/1 23/3/1
f 25/2/1 23/2/1 20/2/1
f 25/5/1 24/5/1 23/5/1
f 26/5/1 24/5/1 25/5/1
f 27/2/1 25/2/1 20/2/1
f 27/6/1 26/6/1 25/6/1
f 28/5/1 24/5/1 26/5/1
f 28/6/1 26/6/1 27/6/1
f 29/2/1 14/2/1 24/2/1
f 29/5/1 24/5/1 28/5/1
f 30/2/1 28/2/1 27/2/1
f 30/2/1 27/2/1 20/2/1
f 30/2/1 29/2/1 28/2/1
f 31/2/1 14/2/1 29/2/1
f 31/2/1 29/2/1 30/2/1
f 34/3/1 33/3/1 32/3/1
f 35/3/1 33/3/1 34/3/1
f 38/2/1 37/2/1 36/2/1
f 39/2/1 37/2/1 38/2/1
f 42/2/1 41/2/1 40/2/1
f 43/2/1 41/2/1 42/2/1
f 46/4/1 45/4/1 44/4/1
f 47/4/1 45/4/1 46/4/1
f 48/4/1 46/4/1 44/4/1
f 49/4/1 46/4/1 48/4/1
f 52/3/1 51/3/1 50/3/1
f 53/3/1 51/3/1 52/3/1
f 56/3/1 55/3/1 54/3/1
f 57/3/1 55/3/1 56/3/1
f 60/3/1 59/3/1 58/3/1
f 61/3/1 59/3/1 60/3/1
f 62/3/2 63/3/2 64/3/2
f 64/3/2 63/3/2 65/3/2
f 66/3/2 67/3/2 68/3/2
f 68/3/2 67/3/2 69/3/2
f 70/3/2 71/3/2 72/3/2
f 72/3/2 71/3/2 73/3/2
f 74/2/2 75/2/2 76/2/2
f 76/2/2 75/2/2 77/2/2
f 78/4/2 79/4/2 80/4/2
f 80/4/2 79/4/2 81/4/2
f 78/4/2 80/4/2 82/4/2
f 82/4/2 80/4/2 83/4/2
f 84/3/2 85/3/2 86/3/2
f 86/3/2 85/3/2 87/3/2
f 88/2/2 89/2/2 90/2/2
f 90/2/2 89/2/2 91/2/2
f 92/3/2 93/3/2 95/3/2
f 95/3/2 93/3/2 96/3/2
f 94/2/2 95/2/2 98/2/2
f 96/2/2 97/2/2 98/2/2
f 95/2/2 96/2/2 98/2/2
f 98/2/2 97/2/2 99/2/2
f 94/2/2 98/2/2 100/2/2
f 99/2/2 97/2/2 101/2/2
f 94/2/2 100/2/2 102/2/2
f 100/2/2 101/2/2 102/2/2
f 102/2/2 101/2/2 103/2/2
f 103/2/2 101/2/2 104/2/2
f 101/2/2 97/2/2 105/2/2
f 104/2/2 101/2/2 105/2/2
f 103/2/2 104/2/2 106/2/2
f 104/3/2 105/3/2 106/3/2
f 105/2/2 97/2/2 107/2/2
f 106/3/2 105/3/2 107/3/2
f 103/2/2 106/2/2 108/2/2
f 106/5/2 107/5/2 108/5/2
f 108/5/2 107/5/2 109/5/2
f 103/2/2 108/2/2 110/2/2
f 108/1/2 109/1/2 110/1/2
f 109/5/2 107/5/2 111/5/2
f 110/1/2 109/1/2 111/1/2
f 107/2/2 97/2/2 112/2/2
f 111/5/2 107/5/2 112/5/2
f 110/2/2 111/2/2 113/2/2
f 103/2/2 110/2/2 113/2/2
f 111/2/2 112/2/2 113/2/2
f 112/2/2 97/2/2 114/2/2
f 113/2/2 112/2/2 114/2/2
f 115/3/2 116/3/2 117/3/2
f 117/3/2 116/3/2 118/3/2
f 119/2/2 120/2/2 121/2/2
f 121/2/2 120/2/2 122/2/2
f 125/2/3 124/2/3 123/2/3
f 126/2/3 124/2/3 125/2/3
f 129/2/3 128/2/3 127/2/3
f 130/2/3 128/2/3 129/2/3
f 131/2/3 129/2/3 127/2/3
f 133/2/3 131/2/3 127/2/3
f 133/2/3 132/2/3 131/2/3
f 134/2/3 132/2/3 133/2/3
f 137/2/3 136/2/3 135/2/3
f 138/2/3 136/2/3 137/2/3
f 141/2/3 140/2/3 139/2/3
f 142/2/3 140/2/3 141/2/3
f 145/2/3 144/2/3 143/2/3
f 146/2/3 144/2/3 145/2/3
f 149/2/3 148/2/3 147/2/3
f 150/2/3 148/2/3 149/2/3
f 153/2/3 152/2/3 151/2/3
f 154/2/3 152/2/3 153/2/3
f 157/3/3 156/3/3 155/3/3
f 158/3/3 156/3/3 157/3/3
f 160/4/3 158/4/3 157/4/3
f 161/3/3 159/3/3 158/3/3
f 161/4/3 158/4/3 160/4/3
f 162/3/3 159/3/3 161/3/3
f 163/3/3 161/3/3 160/3/3
f 164/3/3 161/3/3 163/3/3
f 167/3/3 166/3/3 165/3/3
f 168/3/3 166/3/3 167/3/3
f 170/4/3 168/4/3 167/4/3
f 171/3/3 169/3/3 168/3/3
f 171/4/3 168/4/3 170/4/3
f 172/3/3 169/3/3 171/3/3
f 173/3/3 171/3/3 170/3/3
f 174/3/3 171/3/3 173/3/3
f 175/3/4 176/3/4 177/3/4
f 177/3/4 176/3/4 178/3/4
f 179/3/4 180/3/4 181/3/4
f 181/3/4 180/3/4 182/3/4
f 183/3/4 184/3/4 185/3/4
f 185/3/4 184/3/4 186/3/4
f 187/3/4 188/3/4 189/3/4
f 189/3/4 188/3/4 190/3/4
f 191/3/4 192/3/4 195/3/4
f 195/3/4 192/3/4 196/3/4
f 193/2/4 194/2/4 197/2/4
f 197/2/4 194/2/4 198/2/4
f 199/3/4 200/3/4 201/3/4
f 201/3/4 200/3/4 202/3/4
f 203/3/4 204/3/4 205/3/4
f 205/3/4 204/3/4 206/3/4
f 207/3/4 208/3/4 211/3/4
f 211/3/4 208/3/4 212/3/4
f 209/2/4 210/2/4 213/2/4
f 213/2/4 210/2/4 214/2/4
f 215/2/4 216/2/4 217/2/4
f 217/2/4 216/2/4 218/2/4
f 215/2/4 217/2/4 219/2/4
f 218/2/4 216/2/4 220/2/4
f 215/2/4 219/2/4 221/2/4
f 219/2/4 220/2/4 221/2/4
f 220/2/4 216/2/4 222/2/4
f 221/2/4 220/2/4 222/2/4
f 223/4/4 224/4/4 225/4/4
f 225/4/4 224/4/4 226/4/4
f 227/4/4 228/4/4 229/4/4
f 229/4/4 228/4/4 230/4/4
f 239/3/5 232/3/5 231/3/5
f 239/4/5 233/4/5 232/4/5
f 240/3/5 234/3/5 233/3/5
f 240/4/5 233/4/5 239/4/5
f 241/4/5 237/4/5 236/4/5
f 241/3/5 236/3/5 235/3/5
f 242/3/5 238/3/5 237/3/5
f 242/4/5 237/4/5 241/4/5
f 243/3/5 239/3/5 231/3/5
f 243/3/5 240/3/5 239/3/5
f 244/3/5 234/3/5 240/3/5
f 244/3/5 240/3/5 243/3/5
f 245/3/5 241/3/5 235/3/5
f 245/3/5 242/3/5 241/3/5
f 246/3/5 238/3/5 242/3/5
f 246/3/5 242/3/5 245/3/5
f 247/3/5 243/3/5 231/3/5
f 248/3/5 243/3/5 247/3/5
f 249/3/5 234/3/5 244/3/5
f 250/3/5 234/3/5 249/3/5
f 251/3/5 245/3/5 235/3/5
f 252/3/5 245/3/5 251/3/5
f 253/3/5 238/3/5 246/3/5
f 254/3/5 238/3/5 253/3/5
f 258/2/5 256/2/5 255/2/5
f 259/2/5 256/2/5 258/2/5
f 261/2/5 258/2/5 257/2/5
f 261/2/5 260/2/5 259/2/5
f 261/2/5 259/2/5 258/2/5
f 262/2/5 260/2/5 261/2/5
f 263/2/5 260/2/5 262/2/5
f 264/2/5 260/2/5 263/2/5
f 266/2/5 263/2/5 262/2/5
f 267/2/5 263/2/5 266/2/5
f 269/2/5 266/2/5 265/2/5
f 269/2/5 268/2/5 267/2/5
f 269/2/5 267/2/5 266/2/5
f 270/2/5 268/2/5 269/2/5
f 273/2/5 272/2/5 271/2/5
f 274/2/5 272/2/5 273/2/5
f 279/2/5 276/2/5 275/2/5
f 280/2/5 276/2/5 279/2/5
f 281/2/5 278/2/5 277/2/5
f 282/2/5 278/2/5 281/2/5
f 285/4/5 284/4/5 283/4/5
f 286/4/5 284/4/5 285/4/5
f 287/3/6 288/3/6 295/3/6
f 289/3/6 290/3/6 296/3/6
f 291/3/6 292/3/6 297/3/6
f 293/3/6 294/3/6 298/3/6
f 287/3/6 295/3/6 299/3/6
f 295/3/6 296/3/6 299/3/6
f 296/3/6 290/3/6 300/3/6
f 299/3/6 296/3/6 300/3/6
f 291/3/6 297/3/6 301/3/6
f 297/3/6 298/3/6 301/3/6
f 298/3/6 294/3/6 302/3/6
f 301/3/6 298/3/6 302/3/6
f 287/3/6 299/3/6 303/3/6
f 303/3/6 299/3/6 304/3/6
f 300/3/6 290/3/6 305/3/6
f 305/3/6 290/3/6 306/3/6
f 291/3/6 301/3/6 307/3/6
f 307/3/6 301/3/6 308/3/6
f 302/3/6 294/3/6 309/3/6
f 309/3/6 294/3/6 310/3/6
f 311/2/6 312/2/6 315/2/6
f 315/2/6 312/2/6 316/2/6
f 313/2/6 314/2/6 317/2/6
f 317/2/6 314/2/6 318/2/6
f 319/2/6 320/2/6 322/2/6
f 322/2/6 320/2/6 323/2/6
f 321/2/6 322/2/6 326/2/6
f 323/2/6 324/2/6 326/2/6
f 322/2/6 323/2/6 326/2/6
f 326/2/6 324/2/6 327/2/6
f 325/2/6 326/2/6 329/2/6
f 327/2/6 328/2/6 329/2/6
f 326/2/6 327/2/6 329/2/6
f 329/2/6 328/2/6 330/2/6
f 331/4/6 332/4/6 333/4/6
f 333/4/6 332/4/6 334/4/6
f 335/4/6 336/4/6 337/4/6
f 337/4/6 336/4/6 338/4/6
f 339/2/6 340/2/6 341/2/6
f 341/2/6 340/2/6 342/2/6
